<svg width="31" height="32" viewBox="0 0 31 32" fill="none" xmlns="http://www.w3.org/2000/svg">
<path d="M15.038 31.064C23.3433 31.064 30.0761 24.1101 30.0761 15.532C30.0761 6.9539 23.3433 0 15.038 0C6.73276 0 0 6.9539 0 15.532C0 24.1101 6.73276 31.064 15.038 31.064Z" fill="#5B68C0"/>
<path fill-rule="evenodd" clip-rule="evenodd" d="M17.0632 8.80371C17.0632 8.80371 14.8311 8.6531 14.2589 10.846C14.2589 10.846 14.0517 11.4213 14.0801 12.8384L12.0305 12.8446V14.6984L14.0801 14.6923V22.2626H16.6927V14.6984L18.7648 14.6984V12.8384L16.6927 12.8384V11.8282C16.6927 11.1732 17.045 10.5468 18.0754 10.5468H19.0483V8.80371H17.0632Z" fill="white"/>
</svg>
