<svg width="16" height="13" viewBox="0 0 16 13" fill="none" xmlns="http://www.w3.org/2000/svg">
<path d="M0.5 12.4357H1.9607M1.9607 12.4357H6.34281M1.9607 12.4357V6.19273C1.9607 5.80247 1.9607 5.60724 2.00816 5.42565C2.05021 5.26472 2.11977 5.11243 2.21319 4.97481C2.31861 4.81952 2.46511 4.69074 2.75881 4.43376L6.26566 1.36527C6.81012 0.888858 7.08238 0.650639 7.38898 0.559967C7.65935 0.480011 7.94753 0.480011 8.2179 0.559967C8.52474 0.650707 8.79739 0.88915 9.34267 1.36628L12.8484 4.43376C13.142 4.69073 13.2886 4.81952 13.394 4.97481C13.4875 5.11243 13.5565 5.26472 13.5985 5.42565C13.646 5.60724 13.6463 5.80247 13.6463 6.19273V12.4357M6.34281 12.4357H9.26422M6.34281 12.4357V9.51426C6.34281 8.70754 6.99679 8.05356 7.80352 8.05356C8.61024 8.05356 9.26422 8.70754 9.26422 9.51426V12.4357M9.26422 12.4357H13.6463M13.6463 12.4357H15.107" stroke="white" stroke-linecap="round" stroke-linejoin="round"/>
</svg>
