<svg width="31" height="32" viewBox="0 0 31 32" fill="none" xmlns="http://www.w3.org/2000/svg">
<path d="M15.0381 31.064C23.3433 31.064 30.0761 24.1101 30.0761 15.532C30.0761 6.95391 23.3433 0 15.0381 0C6.73277 0 0 6.95391 0 15.532C0 24.1101 6.73277 31.064 15.0381 31.064Z" fill="#FF78C7"/>
<path d="M9.52412 10.6169V20.4471C9.52412 20.8784 9.86177 21.227 10.2793 21.227H19.7969C20.2145 21.227 20.552 20.8783 20.552 20.4471V10.6169C20.552 10.1855 20.2144 9.83692 19.7969 9.83692H10.2793C9.86163 9.83692 9.52412 10.1857 9.52412 10.6169ZM7.51904 10.6169C7.51904 9.0421 8.75408 7.76599 10.2793 7.76599H19.7969C21.3216 7.76599 22.5571 9.04159 22.5571 10.6169V20.4471C22.5571 22.0219 21.3221 23.298 19.7969 23.298H10.2793C8.75457 23.298 7.51904 22.0224 7.51904 20.4471V10.6169Z" fill="white"/>
<path d="M15.2888 19.1559C13.4893 19.1559 12.0305 17.6493 12.0305 15.7907C12.0305 13.9321 13.4893 12.4254 15.2888 12.4254C17.0882 12.4254 18.547 13.9321 18.547 15.7907C18.547 17.6493 17.0882 19.1559 15.2888 19.1559ZM15.2888 17.085C15.9809 17.085 16.5419 16.5055 16.5419 15.7907C16.5419 15.0758 15.9809 14.4963 15.2888 14.4963C14.5967 14.4963 14.0356 15.0758 14.0356 15.7907C14.0356 16.5055 14.5967 17.085 15.2888 17.085Z" fill="white"/>
<path d="M18.7976 12.4254C19.2128 12.4254 19.5495 12.0777 19.5495 11.6488C19.5495 11.2199 19.2128 10.8722 18.7976 10.8722C18.3823 10.8722 18.0457 11.2199 18.0457 11.6488C18.0457 12.0777 18.3823 12.4254 18.7976 12.4254Z" fill="white"/>
</svg>
