<svg width="31" height="32" viewBox="0 0 31 32" fill="none" xmlns="http://www.w3.org/2000/svg">
<path d="M15.0381 31.064C23.3433 31.064 30.0761 24.1101 30.0761 15.532C30.0761 6.95391 23.3433 0 15.0381 0C6.73277 0 0 6.95391 0 15.532C0 24.1101 6.73277 31.064 15.0381 31.064Z" fill="#E43535"/>
<path fill-rule="evenodd" clip-rule="evenodd" d="M19.9032 20.7094H10.674C9.49013 20.7094 8.52148 19.6873 8.52148 18.438V13.1438C8.52148 11.8945 9.49013 10.8724 10.674 10.8724H19.9032C21.0871 10.8724 22.0557 11.8945 22.0557 13.1438V18.438C22.0557 19.6873 21.0871 20.7094 19.9032 20.7094ZM14.0596 13.8885V18.0897L17.7448 15.9206L14.0596 13.8885Z" fill="white"/>
</svg>
