<svg width="157" height="57" viewBox="0 0 157 57" fill="none" xmlns="http://www.w3.org/2000/svg">
<path d="M21.72 33.32C21.4 33.2667 21.1733 33.1467 21.04 32.96C20.9067 32.7467 20.8667 32.5333 20.92 32.32C20.2267 31.6533 19.6267 30.9467 19.12 30.2C18.6133 29.4533 18.0667 28.7067 17.48 27.96C16.12 26.28 14.8267 24.64 13.6 23.04C12.4 21.44 11.12 19.8 9.76 18.12C9.73333 19.3733 9.70667 20.6667 9.68 22C9.65333 23.3333 9.64 24.6267 9.64 25.88C9.64 26.2 9.65333 26.6133 9.68 27.12C9.70667 27.6267 9.72 28.16 9.72 28.72C9.74667 29.28 9.76 29.8267 9.76 30.36C9.76 30.8933 9.72 31.32 9.64 31.64C9.96 31.7467 10.1333 31.96 10.16 32.28C10.2133 32.5733 10.0533 32.8267 9.68 33.04C8.64 33.1467 7.53333 33.1867 6.36 33.16C5.21333 33.16 4.13333 33.1067 3.12 33C2.96 32.2267 2.89333 31.44 2.92 30.64C2.94667 29.8133 2.94667 29.0133 2.92 28.24C2.92 27.1467 2.90667 26.0667 2.88 25C2.88 23.9333 2.86667 22.8667 2.84 21.8C2.81333 19.1867 2.76 16.6533 2.68 14.2C2.62667 11.7467 2.58667 9.21333 2.56 6.6C2.53333 6.25333 2.62667 6.01333 2.84 5.88C3.08 5.72 3.38667 5.66667 3.76 5.72H7C7.13333 5.72 7.28 5.72 7.44 5.72C7.62667 5.69333 7.81333 5.70667 8 5.76C8.18667 5.78667 8.37333 5.88 8.56 6.04C8.74667 6.17333 8.92 6.38667 9.08 6.68C9.66667 7.61333 10.3333 8.52 11.08 9.4C11.8267 10.2533 12.5467 11.1067 13.24 11.96C14.2533 13.16 15.2533 14.36 16.24 15.56C17.2267 16.76 18.2 17.96 19.16 19.16C19.2667 18.1733 19.3333 17.2 19.36 16.24C19.3867 15.2533 19.3733 14.2533 19.32 13.24C19.2933 12.2 19.2533 11.12 19.2 10C19.1733 8.85333 19.16 7.61333 19.16 6.28C19.16 6.17333 19.1733 6.09333 19.2 6.04C19.2533 5.66667 19.5333 5.46667 20.04 5.44H25.48C25.7467 5.49333 25.96 5.61333 26.12 5.8C26.3067 5.96 26.3867 6.21333 26.36 6.56C26.3067 7.65333 26.28 8.74667 26.28 9.84C26.28 10.9333 26.28 11.92 26.28 12.8C26.3067 16.08 26.32 19.2933 26.32 22.44C26.32 25.56 26.3867 28.7733 26.52 32.08V32.16C26.6533 32.3733 26.6667 32.6133 26.56 32.88C26.4533 33.12 26.24 33.28 25.92 33.36C25.2533 33.36 24.5467 33.3467 23.8 33.32C23.08 33.32 22.3867 33.32 21.72 33.32ZM38.7313 25.36C38.9713 25.9733 39.4779 26.4133 40.2513 26.68C41.0246 26.9467 41.8646 27.1067 42.7713 27.16C43.7046 27.1867 44.6246 27.1467 45.5313 27.04C46.4379 26.9333 47.1446 26.8 47.6513 26.64C47.8646 26.5867 48.0379 26.6133 48.1713 26.72C48.3313 26.8 48.4379 26.92 48.4913 27.08L48.6113 27.28C48.7446 27.92 48.9046 28.56 49.0913 29.2C49.3046 29.84 49.5713 30.48 49.8913 31.12C49.9979 31.5467 49.8646 31.88 49.4913 32.12C49.4646 32.1733 49.4246 32.2267 49.3713 32.28C49.3446 32.3333 49.3046 32.3733 49.2513 32.4C48.6913 32.72 48.0913 32.9733 47.4513 33.16C46.8379 33.3467 46.2113 33.48 45.5713 33.56C44.9313 33.64 44.2913 33.68 43.6513 33.68C43.0379 33.7067 42.4513 33.72 41.8913 33.72C39.5446 33.72 37.3846 33.08 35.4112 31.8C34.5313 31.16 33.7979 30.4133 33.2113 29.56C32.6513 28.68 32.2113 27.7467 31.8913 26.76C31.5713 25.7733 31.3579 24.7467 31.2513 23.68C31.1713 22.6133 31.1713 21.56 31.2513 20.52C31.5979 18.6 32.2379 16.88 33.1713 15.36C34.1313 13.84 35.5179 12.6667 37.3313 11.84C38.1313 11.52 38.9979 11.32 39.9313 11.24C40.8646 11.16 41.7979 11.2 42.7313 11.36C43.6913 11.4933 44.5979 11.7467 45.4513 12.12C46.3046 12.4667 47.0513 12.92 47.6913 13.48C48.4113 14.2 48.9579 15.0133 49.3313 15.92C49.7313 16.8 50.0113 17.7333 50.1713 18.72C50.3579 19.7067 50.4646 20.72 50.4913 21.76C50.5179 22.7733 50.5313 23.76 50.5313 24.72C50.5313 25.04 50.3846 25.2533 50.0912 25.36C49.8246 25.4667 49.5579 25.4667 49.2913 25.36H49.2513H38.7313ZM38.4913 19.92C39.4246 19.92 40.3179 19.9333 41.1713 19.96C42.0513 19.96 42.8913 19.9467 43.6913 19.92C43.4779 19.3867 43.2513 18.88 43.0113 18.4C42.7713 17.8933 42.3179 17.5733 41.6513 17.44C41.2513 17.3067 40.8646 17.2933 40.4913 17.4C40.1446 17.48 39.8246 17.6533 39.5312 17.92C39.2646 18.16 39.0379 18.4533 38.8513 18.8C38.6646 19.1467 38.5446 19.52 38.4913 19.92ZM54.5838 8.64C54.5838 8.53333 54.6104 8.4 54.6638 8.24C54.7438 7.92 54.9304 7.70666 55.2238 7.6C56.0504 7.30667 56.8371 7.05333 57.5838 6.84C58.3304 6.6 59.1171 6.30666 59.9438 5.96C59.9971 5.93333 60.0904 5.92 60.2238 5.92C60.4638 5.86667 60.7038 5.90667 60.9438 6.04C61.1838 6.14667 61.3038 6.34667 61.3038 6.64C61.3038 7.76 61.3038 8.74667 61.3038 9.6C61.3304 10.4267 61.4104 11.32 61.5438 12.28C62.4238 12.4133 63.3571 12.4533 64.3438 12.4C65.3304 12.32 66.3438 12.2133 67.3838 12.08C67.6238 12.08 67.8104 12.16 67.9438 12.32C68.2104 12.5067 68.3438 12.76 68.3438 13.08V16.8C68.3438 16.9333 68.3304 17.0267 68.3038 17.08C68.5171 17.2933 68.5704 17.5733 68.4638 17.92C68.3571 18.2667 68.1038 18.44 67.7038 18.44C66.7171 18.28 65.6904 18.24 64.6238 18.32C63.5838 18.4 62.5571 18.44 61.5438 18.44C61.4104 19.4 61.3971 20.4267 61.5038 21.52C61.6104 22.5867 61.6638 23.5867 61.6638 24.52C61.6638 24.76 61.6504 25.04 61.6238 25.36C61.6238 25.68 61.6504 26 61.7038 26.32C61.7571 26.6133 61.8504 26.8933 61.9838 27.16C62.1438 27.4267 62.3704 27.64 62.6638 27.8C62.8238 27.88 63.0237 27.9067 63.2638 27.88C63.5304 27.8533 63.7838 27.8 64.0238 27.72C64.2904 27.64 64.5438 27.5467 64.7838 27.44C65.0504 27.3333 65.2638 27.24 65.4238 27.16C65.5838 27.08 65.7704 26.9733 65.9838 26.84C66.2238 26.68 66.4638 26.56 66.7038 26.48C66.9704 26.4 67.2238 26.3733 67.4638 26.4C67.7038 26.4267 67.9038 26.56 68.0638 26.8C68.3304 27.04 68.5438 27.3733 68.7038 27.8C68.8904 28.2267 69.0504 28.68 69.1838 29.16C69.3171 29.64 69.4238 30.1067 69.5038 30.56C69.6104 31.0133 69.7038 31.4 69.7838 31.72C69.7838 31.96 69.7304 32.12 69.6238 32.2C69.5438 32.4667 69.3704 32.64 69.1038 32.72C68.0104 32.96 66.7704 33.1733 65.3838 33.36C63.9971 33.5467 62.6238 33.5467 61.2638 33.36C59.9304 33.2 58.7171 32.8 57.6237 32.16C56.5304 31.52 55.7304 30.4933 55.2238 29.08C54.7438 27.6133 54.5171 26.08 54.5438 24.48C54.5704 22.8533 54.5838 21.1867 54.5838 19.48C54.4238 17.8267 54.3438 16.0533 54.3438 14.16C54.3438 12.2667 54.4238 10.4267 54.5838 8.64Z" fill="#0172FF"/>
<path d="M69.8384 29.28C69.6251 29.0667 69.6251 28.7867 69.8384 28.44C70.7984 27.1867 71.7718 25.8667 72.7584 24.48C73.7451 23.0933 74.7318 21.7067 75.7184 20.32C76.7051 18.9333 77.7051 17.56 78.7184 16.2C79.7318 14.84 80.7584 13.5467 81.7984 12.32H71.8384C71.3584 12.1867 70.9984 12.0667 70.7584 11.96C70.5451 11.8533 70.3584 11.5467 70.1984 11.04C70.0651 10.5067 70.0118 9.92 70.0384 9.28C70.0918 8.61333 70.1318 7.97333 70.1584 7.36C69.9984 7.28 69.8784 7.16 69.7984 7C69.7451 6.84 69.7318 6.68 69.7584 6.52C69.7851 6.33333 69.8651 6.17333 69.9984 6.04C70.1318 5.90667 70.3051 5.84 70.5184 5.84C73.1584 5.68 75.7451 5.58666 78.2784 5.56C80.8118 5.53333 83.3051 5.52 85.7584 5.52C86.3984 5.36 87.0384 5.32 87.6784 5.4C88.3451 5.45333 88.9984 5.48 89.6384 5.48C89.7984 5.61333 89.9584 5.70667 90.1184 5.76C90.3051 5.81333 90.4784 5.93333 90.6384 6.12C90.7718 6.28 90.8518 6.50667 90.8784 6.8C90.9051 7.06667 90.9184 7.26666 90.9184 7.4V9.2C90.9984 9.73333 91.0251 10.16 90.9984 10.48C90.9718 10.8 90.9184 11.0667 90.8384 11.28C90.7584 11.4933 90.6518 11.68 90.5184 11.84C90.4118 12 90.3051 12.16 90.1984 12.32C89.2118 13.6267 88.2918 14.8667 87.4384 16.04C86.6118 17.2133 85.7851 18.3733 84.9584 19.52C84.1318 20.6667 83.2784 21.8267 82.3984 23C81.5184 24.1733 80.5451 25.4133 79.4784 26.72C79.6918 26.6933 79.9051 26.68 80.1184 26.68C80.3584 26.68 80.8251 26.6667 81.5184 26.64C82.2384 26.6133 83.3051 26.5867 84.7184 26.56C86.1318 26.5067 88.1318 26.44 90.7184 26.36C91.0118 26.36 91.2118 26.5067 91.3184 26.8C91.4518 27.0667 91.4651 27.32 91.3584 27.56V27.64C91.4918 28.2533 91.5718 28.88 91.5984 29.52C91.6518 30.16 91.6784 30.8533 91.6784 31.6C91.8118 31.8667 91.8251 32.1467 91.7184 32.44C91.6118 32.7333 91.3851 32.88 91.0384 32.88C87.6518 33.04 84.3718 33.16 81.1984 33.24C78.0251 33.3467 74.7451 33.3333 71.3584 33.2C71.1451 33.28 70.8918 33.2667 70.5984 33.16C70.3051 33.0533 70.1051 32.84 69.9984 32.52C69.9984 32.2 69.9851 31.92 69.9584 31.68C69.9584 31.44 69.9451 31.2133 69.9184 31C69.8918 30.76 69.8651 30.52 69.8384 30.28C69.8384 30.0133 69.8384 29.72 69.8384 29.4V29.28ZM101.427 25.36C101.667 25.9733 102.173 26.4133 102.947 26.68C103.72 26.9467 104.56 27.1067 105.467 27.16C106.4 27.1867 107.32 27.1467 108.227 27.04C109.133 26.9333 109.84 26.8 110.347 26.64C110.56 26.5867 110.733 26.6133 110.867 26.72C111.027 26.8 111.133 26.92 111.187 27.08L111.307 27.28C111.44 27.92 111.6 28.56 111.787 29.2C112 29.84 112.267 30.48 112.587 31.12C112.693 31.5467 112.56 31.88 112.187 32.12C112.16 32.1733 112.12 32.2267 112.067 32.28C112.04 32.3333 112 32.3733 111.947 32.4C111.387 32.72 110.787 32.9733 110.147 33.16C109.533 33.3467 108.907 33.48 108.267 33.56C107.627 33.64 106.987 33.68 106.347 33.68C105.733 33.7067 105.147 33.72 104.587 33.72C102.24 33.72 100.08 33.08 98.1066 31.8C97.2266 31.16 96.4932 30.4133 95.9066 29.56C95.3466 28.68 94.9066 27.7467 94.5866 26.76C94.2666 25.7733 94.0532 24.7467 93.9466 23.68C93.8666 22.6133 93.8666 21.56 93.9466 20.52C94.2932 18.6 94.9332 16.88 95.8666 15.36C96.8266 13.84 98.2132 12.6667 100.027 11.84C100.827 11.52 101.693 11.32 102.627 11.24C103.56 11.16 104.493 11.2 105.427 11.36C106.387 11.4933 107.293 11.7467 108.147 12.12C109 12.4667 109.747 12.92 110.387 13.48C111.107 14.2 111.653 15.0133 112.027 15.92C112.427 16.8 112.707 17.7333 112.867 18.72C113.053 19.7067 113.16 20.72 113.187 21.76C113.213 22.7733 113.227 23.76 113.227 24.72C113.227 25.04 113.08 25.2533 112.787 25.36C112.52 25.4667 112.253 25.4667 111.987 25.36H111.947H101.427ZM101.187 19.92C102.12 19.92 103.013 19.9333 103.867 19.96C104.747 19.96 105.587 19.9467 106.387 19.92C106.173 19.3867 105.947 18.88 105.707 18.4C105.467 17.8933 105.013 17.5733 104.347 17.44C103.947 17.3067 103.56 17.2933 103.187 17.4C102.84 17.48 102.52 17.6533 102.227 17.92C101.96 18.16 101.733 18.4533 101.547 18.8C101.36 19.1467 101.24 19.52 101.187 19.92ZM118.479 33.48C118.159 33.48 117.932 33.3467 117.799 33.08C117.586 33 117.479 32.7867 117.479 32.44C117.319 29.16 117.226 25.88 117.199 22.6C117.172 19.2933 117.159 16.0133 117.159 12.76C117.052 12.4933 117.052 12.24 117.159 12C117.292 11.7333 117.519 11.6 117.839 11.6C118.986 11.6 120.066 11.5733 121.079 11.52C122.092 11.4667 123.106 11.52 124.119 11.68C124.439 11.68 124.679 11.7467 124.839 11.88C124.999 12.0133 125.079 12.16 125.079 12.32V14.2C125.532 13.9867 126.079 13.7867 126.719 13.6C127.359 13.3867 128.026 13.2133 128.719 13.08C129.439 12.9467 130.172 12.8667 130.919 12.84C131.666 12.7867 132.372 12.8 133.039 12.88C133.439 13.0133 133.746 13.2 133.959 13.44C134.172 13.6533 134.292 13.9867 134.319 14.44C134.346 15.2133 134.292 16.0533 134.159 16.96C134.026 17.8667 133.892 18.5867 133.759 19.12C133.732 19.4133 133.639 19.72 133.479 20.04C133.319 20.3333 133.039 20.48 132.639 20.48C131.812 20.32 130.986 20.2267 130.159 20.2C129.332 20.1467 128.572 20.2267 127.879 20.44C127.186 20.6267 126.586 21 126.079 21.56C125.572 22.0933 125.239 22.8533 125.079 23.84C124.732 25.1467 124.599 26.5867 124.679 28.16C124.786 29.7333 124.919 31.2667 125.079 32.76C125.079 32.9733 125.012 33.1467 124.879 33.28C124.772 33.4133 124.639 33.5067 124.479 33.56C124.319 33.6133 124.146 33.6133 123.959 33.56C123.799 33.5333 123.666 33.4533 123.559 33.32C122.679 33.4533 121.839 33.5067 121.039 33.48C120.239 33.48 119.386 33.48 118.479 33.48ZM146.492 11.6C146.545 11.6 146.585 11.6133 146.612 11.64C146.665 11.64 146.718 11.64 146.772 11.64C148.025 11.8267 149.132 12.2133 150.092 12.8C151.078 13.3867 151.918 14.1067 152.612 14.96C153.332 15.8133 153.905 16.7867 154.332 17.88C154.758 18.9733 155.052 20.12 155.212 21.32C155.398 23.5333 155.265 25.4267 154.812 27C154.385 28.5467 153.705 29.8267 152.772 30.84C151.838 31.8267 150.692 32.5467 149.332 33C147.972 33.4267 146.452 33.6267 144.772 33.6C144.078 33.6 143.385 33.56 142.692 33.48C142.025 33.4 141.372 33.2667 140.732 33.08C140.118 32.8933 139.532 32.64 138.972 32.32C138.412 31.9733 137.892 31.5333 137.412 31C136.612 30.2 135.985 29.24 135.532 28.12C135.105 27 134.825 25.84 134.692 24.64C134.558 23.4133 134.545 22.2 134.652 21C134.758 19.8 134.932 18.7067 135.172 17.72C135.465 16.4933 135.985 15.48 136.732 14.68C137.478 13.8533 138.345 13.2133 139.332 12.76C140.345 12.28 141.425 11.96 142.572 11.8C143.745 11.6133 144.878 11.5467 145.972 11.6C146.132 11.5733 146.305 11.5733 146.492 11.6ZM149.652 22.48V21.72V22.48ZM145.812 17.72C145.758 17.72 145.652 17.72 145.492 17.72C145.358 17.6933 145.225 17.6667 145.092 17.64C144.398 17.72 143.825 17.8933 143.372 18.16C142.918 18.4 142.558 18.72 142.292 19.12C142.052 19.52 141.878 19.9733 141.772 20.48C141.692 20.9867 141.652 21.5467 141.652 22.16C141.652 22.8267 141.625 23.5467 141.572 24.32C141.518 25.0667 141.652 25.68 141.972 26.16C142.212 26.48 142.505 26.7333 142.852 26.92C143.198 27.1067 143.558 27.2267 143.932 27.28C144.305 27.3067 144.665 27.2667 145.012 27.16C145.358 27.0533 145.652 26.88 145.892 26.64C146.718 26.1067 147.278 25.44 147.572 24.64C147.892 23.84 148.078 23.0133 148.132 22.16C148.158 21.7867 148.132 21.3733 148.052 20.92C147.998 20.4667 147.878 20.0267 147.692 19.6C147.505 19.1733 147.252 18.7867 146.932 18.44C146.612 18.0933 146.238 17.8533 145.812 17.72Z" fill="#00FF09"/>
<path d="M50.28 44.3901C50.28 44.8034 50.2067 45.1101 50.06 45.3101C49.9133 45.5101 49.68 45.7034 49.36 45.8901C49.1733 45.9967 48.94 46.1034 48.66 46.2101C48.38 46.3034 48.0733 46.3834 47.74 46.4501C47.4067 46.5301 47.0533 46.5901 46.68 46.6301C46.32 46.6701 45.96 46.6901 45.6 46.6901C44.64 46.6901 43.74 46.5634 42.9 46.3101C42.06 46.0434 41.3267 45.6501 40.7 45.1301C40.0867 44.5967 39.6 43.9367 39.24 43.1501C38.88 42.3634 38.7 41.4501 38.7 40.4101C38.7 39.3167 38.8933 38.3634 39.28 37.5501C39.68 36.7367 40.2 36.0634 40.84 35.5301C41.4933 34.9834 42.2333 34.5767 43.06 34.3101C43.9 34.0434 44.76 33.9101 45.64 33.9101C46.9067 33.9101 47.9067 34.1167 48.64 34.5301C49.3867 34.9301 49.76 35.4567 49.76 36.1101C49.76 36.4567 49.6733 36.7567 49.5 37.0101C49.3267 37.2634 49.1267 37.4634 48.9 37.6101C48.5667 37.4101 48.1467 37.2167 47.64 37.0301C47.1467 36.8301 46.5867 36.7301 45.96 36.7301C44.84 36.7301 43.9467 37.0501 43.28 37.6901C42.6267 38.3301 42.3 39.2167 42.3 40.3501C42.3 40.9634 42.3867 41.4967 42.56 41.9501C42.7467 42.3901 42.9933 42.7567 43.3 43.0501C43.6067 43.3301 43.96 43.5434 44.36 43.6901C44.76 43.8234 45.1867 43.8901 45.64 43.8901C45.9333 43.8901 46.1933 43.8634 46.42 43.8101C46.6467 43.7567 46.82 43.6967 46.94 43.6301V41.7501H44.8C44.72 41.6034 44.64 41.4101 44.56 41.1701C44.4933 40.9301 44.46 40.6767 44.46 40.4101C44.46 39.9301 44.5667 39.5834 44.78 39.3701C45.0067 39.1567 45.2933 39.0501 45.64 39.0501H49.02C49.42 39.0501 49.7267 39.1634 49.94 39.3901C50.1667 39.6034 50.28 39.9101 50.28 40.3101V44.3901ZM57.6659 46.0701C57.4793 46.2301 57.2259 46.3567 56.9059 46.4501C56.5859 46.5567 56.2059 46.6101 55.7659 46.6101C55.2193 46.6101 54.7459 46.5301 54.3459 46.3701C53.9459 46.2234 53.6793 46.0101 53.5459 45.7301C53.3993 45.4101 53.2259 44.9034 53.0259 44.2101C52.8393 43.5167 52.6526 42.7567 52.4659 41.9301C52.2793 41.1034 52.0993 40.2634 51.9259 39.4101C51.7659 38.5567 51.6393 37.8034 51.5459 37.1501C51.7326 36.9634 51.9793 36.8034 52.2859 36.6701C52.6059 36.5234 52.9526 36.4501 53.3259 36.4501C53.7926 36.4501 54.1726 36.5567 54.4659 36.7701C54.7726 36.9701 54.9593 37.3234 55.0259 37.8301C55.1593 38.8434 55.2726 39.6834 55.3659 40.3501C55.4593 41.0034 55.5326 41.5434 55.5859 41.9701C55.6526 42.3834 55.6993 42.7034 55.7259 42.9301C55.7659 43.1434 55.7993 43.3167 55.8259 43.4501H55.9059C55.9459 43.2367 56.0126 42.9301 56.1059 42.5301C56.2126 42.1167 56.3326 41.6501 56.4659 41.1301C56.5993 40.6101 56.7393 40.0501 56.8859 39.4501C57.0326 38.8367 57.1793 38.2301 57.3259 37.6301C57.5926 37.4834 57.8526 37.3701 58.1059 37.2901C58.3726 37.2101 58.6993 37.1701 59.0859 37.1701C59.5526 37.1701 59.9526 37.2434 60.2859 37.3901C60.6193 37.5367 60.8326 37.7634 60.9259 38.0701C61.0859 38.6567 61.2393 39.2301 61.3859 39.7901C61.5326 40.3367 61.6659 40.8501 61.7859 41.3301C61.9059 41.7967 62.0126 42.2167 62.1059 42.5901C62.1993 42.9501 62.2659 43.2367 62.3059 43.4501H62.4059C62.5526 42.4234 62.6926 41.3567 62.8259 40.2501C62.9726 39.1434 63.1059 38.0167 63.2259 36.8701C63.4659 36.7234 63.7193 36.6167 63.9859 36.5501C64.2526 36.4834 64.5193 36.4501 64.7859 36.4501C65.2526 36.4501 65.6393 36.5501 65.9459 36.7501C66.2526 36.9501 66.4059 37.2967 66.4059 37.7901C66.4059 38.0034 66.3726 38.3234 66.3059 38.7501C66.2393 39.1767 66.1526 39.6567 66.0459 40.1901C65.9393 40.7234 65.8126 41.2834 65.6659 41.8701C65.5326 42.4567 65.3926 43.0234 65.2459 43.5701C65.1126 44.1167 64.9793 44.6101 64.8459 45.0501C64.7259 45.4901 64.6193 45.8301 64.5259 46.0701C64.3393 46.2301 64.0526 46.3567 63.6659 46.4501C63.2793 46.5567 62.8659 46.6101 62.4259 46.6101C61.3059 46.6101 60.6459 46.3301 60.4459 45.7701C60.3659 45.5301 60.2659 45.2301 60.1459 44.8701C60.0259 44.4967 59.8993 44.0901 59.7659 43.6501C59.6326 43.2101 59.5059 42.7567 59.3859 42.2901C59.2659 41.8101 59.1659 41.3501 59.0859 40.9101C58.9926 41.3767 58.8793 41.8634 58.7459 42.3701C58.6126 42.8634 58.4726 43.3501 58.3259 43.8301C58.1926 44.2967 58.0659 44.7301 57.9459 45.1301C57.8259 45.5167 57.7326 45.8301 57.6659 46.0701ZM72.1063 44.2101C72.3329 44.2101 72.5796 44.1901 72.8463 44.1501C73.1263 44.0967 73.3329 44.0301 73.4663 43.9501V42.3501L72.0263 42.4701C71.6529 42.4967 71.3463 42.5767 71.1063 42.7101C70.8663 42.8434 70.7463 43.0434 70.7463 43.3101C70.7463 43.5767 70.8463 43.7967 71.0463 43.9701C71.2596 44.1301 71.6129 44.2101 72.1063 44.2101ZM71.9463 36.3501C72.6663 36.3501 73.3196 36.4234 73.9063 36.5701C74.5063 36.7167 75.0129 36.9434 75.4263 37.2501C75.8529 37.5434 76.1796 37.9234 76.4063 38.3901C76.6329 38.8434 76.7463 39.3834 76.7463 40.0101V44.4901C76.7463 44.8367 76.6463 45.1234 76.4463 45.3501C76.2596 45.5634 76.0329 45.7501 75.7663 45.9101C74.8996 46.4301 73.6796 46.6901 72.1063 46.6901C71.3996 46.6901 70.7596 46.6234 70.1863 46.4901C69.6263 46.3567 69.1396 46.1567 68.7263 45.8901C68.3263 45.6234 68.0129 45.2834 67.7863 44.8701C67.5729 44.4567 67.4663 43.9767 67.4663 43.4301C67.4663 42.5101 67.7396 41.8034 68.2863 41.3101C68.8329 40.8167 69.6796 40.5101 70.8263 40.3901L73.4463 40.1101V39.9701C73.4463 39.5834 73.2729 39.3101 72.9263 39.1501C72.5929 38.9767 72.1063 38.8901 71.4663 38.8901C70.9596 38.8901 70.4663 38.9434 69.9863 39.0501C69.5063 39.1567 69.0729 39.2901 68.6863 39.4501C68.5129 39.3301 68.3663 39.1501 68.2463 38.9101C68.1263 38.6567 68.0663 38.3967 68.0663 38.1301C68.0663 37.7834 68.1463 37.5101 68.3063 37.3101C68.4796 37.0967 68.7396 36.9167 69.0863 36.7701C69.4729 36.6234 69.9263 36.5167 70.4463 36.4501C70.9796 36.3834 71.4796 36.3501 71.9463 36.3501ZM84.9852 40.2101C84.9852 39.7967 84.8652 39.4967 84.6252 39.3101C84.3985 39.1101 84.0852 39.0101 83.6852 39.0101C83.4185 39.0101 83.1518 39.0434 82.8852 39.1101C82.6318 39.1767 82.4118 39.2767 82.2252 39.4101V46.3501C82.0918 46.3901 81.8785 46.4301 81.5852 46.4701C81.3052 46.5101 81.0118 46.5301 80.7052 46.5301C80.4118 46.5301 80.1452 46.5101 79.9052 46.4701C79.6785 46.4301 79.4852 46.3501 79.3252 46.2301C79.1652 46.1101 79.0385 45.9501 78.9452 45.7501C78.8652 45.5367 78.8252 45.2634 78.8252 44.9301V38.9301C78.8252 38.5701 78.8985 38.2767 79.0452 38.0501C79.2052 37.8234 79.4185 37.6167 79.6852 37.4301C80.1385 37.1101 80.7052 36.8501 81.3852 36.6501C82.0785 36.4501 82.8452 36.3501 83.6852 36.3501C85.1918 36.3501 86.3518 36.6834 87.1652 37.3501C87.9785 38.0034 88.3852 38.9167 88.3852 40.0901V46.3501C88.2518 46.3901 88.0385 46.4301 87.7452 46.4701C87.4652 46.5101 87.1718 46.5301 86.8652 46.5301C86.5718 46.5301 86.3052 46.5101 86.0652 46.4701C85.8385 46.4301 85.6452 46.3501 85.4852 46.2301C85.3252 46.1101 85.1985 45.9501 85.1052 45.7501C85.0252 45.5367 84.9852 45.2634 84.9852 44.9301V40.2101ZM95.2253 36.3501C95.9853 36.3501 96.672 36.4501 97.2853 36.6501C97.912 36.8367 98.4386 37.0834 98.8653 37.3901C99.132 37.5767 99.3386 37.7834 99.4853 38.0101C99.6453 38.2367 99.7253 38.5301 99.7253 38.8901V45.8901C99.7253 46.5967 99.592 47.2034 99.3253 47.7101C99.0586 48.2301 98.692 48.6567 98.2253 48.9901C97.772 49.3367 97.232 49.5901 96.6053 49.7501C95.992 49.9101 95.332 49.9901 94.6253 49.9901C93.412 49.9901 92.4586 49.8234 91.7653 49.4901C91.072 49.1701 90.7253 48.6434 90.7253 47.9101C90.7253 47.6034 90.7853 47.3301 90.9053 47.0901C91.0386 46.8634 91.1853 46.6901 91.3453 46.5701C91.732 46.7834 92.1653 46.9634 92.6453 47.1101C93.1386 47.2567 93.6453 47.3301 94.1653 47.3301C94.8853 47.3301 95.4586 47.2101 95.8853 46.9701C96.312 46.7301 96.5253 46.3434 96.5253 45.8101V45.4901C95.9786 45.7301 95.312 45.8501 94.5253 45.8501C93.9253 45.8501 93.352 45.7634 92.8053 45.5901C92.272 45.4034 91.7986 45.1234 91.3853 44.7501C90.9853 44.3634 90.6586 43.8701 90.4053 43.2701C90.1653 42.6701 90.0453 41.9567 90.0453 41.1301C90.0453 40.3167 90.172 39.6101 90.4253 39.0101C90.692 38.4101 91.052 37.9167 91.5053 37.5301C91.972 37.1301 92.5186 36.8367 93.1453 36.6501C93.7853 36.4501 94.4786 36.3501 95.2253 36.3501ZM96.4653 39.2501C96.372 39.1967 96.232 39.1434 96.0453 39.0901C95.872 39.0367 95.652 39.0101 95.3853 39.0101C94.732 39.0101 94.2386 39.1967 93.9053 39.5701C93.5853 39.9301 93.4253 40.4501 93.4253 41.1301C93.4253 41.9034 93.5853 42.4634 93.9053 42.8101C94.2386 43.1434 94.6586 43.3101 95.1653 43.3101C95.712 43.3101 96.1453 43.1834 96.4653 42.9301V39.2501ZM102.244 33.9501C102.244 33.4434 102.41 33.0167 102.744 32.6701C103.09 32.3234 103.544 32.1501 104.104 32.1501C104.664 32.1501 105.11 32.3234 105.444 32.6701C105.79 33.0167 105.964 33.4434 105.964 33.9501C105.964 34.4567 105.79 34.8834 105.444 35.2301C105.11 35.5767 104.664 35.7501 104.104 35.7501C103.544 35.7501 103.09 35.5767 102.744 35.2301C102.41 34.8834 102.244 34.4567 102.244 33.9501ZM101.564 47.7301C101.857 47.5434 102.07 47.2834 102.204 46.9501C102.337 46.6301 102.404 46.2701 102.404 45.8701V36.7901C102.55 36.7634 102.764 36.7301 103.044 36.6901C103.337 36.6367 103.63 36.6101 103.924 36.6101C104.217 36.6101 104.477 36.6301 104.704 36.6701C104.944 36.7101 105.144 36.7901 105.304 36.9101C105.464 37.0301 105.584 37.1967 105.664 37.4101C105.757 37.6101 105.804 37.8767 105.804 38.2101V46.1901C105.804 46.7501 105.737 47.2567 105.604 47.7101C105.47 48.1634 105.277 48.5501 105.024 48.8701C104.784 49.2034 104.484 49.4567 104.124 49.6301C103.777 49.8167 103.384 49.9101 102.944 49.9101C102.357 49.9101 101.897 49.7301 101.564 49.3701C101.23 49.0234 101.057 48.5834 101.044 48.0501L101.564 47.7301ZM107.966 36.7901C108.099 36.7501 108.306 36.7101 108.586 36.6701C108.879 36.6301 109.179 36.6101 109.486 36.6101C109.779 36.6101 110.039 36.6301 110.266 36.6701C110.506 36.7101 110.706 36.7901 110.866 36.9101C111.026 37.0301 111.146 37.1967 111.226 37.4101C111.319 37.6101 111.366 37.8767 111.366 38.2101V42.5101C111.366 43.0567 111.499 43.4501 111.766 43.6901C112.032 43.9167 112.419 44.0301 112.926 44.0301C113.232 44.0301 113.479 44.0034 113.666 43.9501C113.866 43.8967 114.019 43.8434 114.126 43.7901V36.7901C114.259 36.7501 114.466 36.7101 114.746 36.6701C115.039 36.6301 115.339 36.6101 115.646 36.6101C115.939 36.6101 116.199 36.6301 116.426 36.6701C116.666 36.7101 116.866 36.7901 117.026 36.9101C117.186 37.0301 117.306 37.1967 117.386 37.4101C117.479 37.6101 117.526 37.8767 117.526 38.2101V44.2901C117.526 44.9567 117.246 45.4567 116.686 45.7901C116.219 46.0834 115.659 46.3034 115.006 46.4501C114.366 46.6101 113.666 46.6901 112.906 46.6901C112.186 46.6901 111.519 46.6101 110.906 46.4501C110.306 46.2901 109.786 46.0434 109.346 45.7101C108.906 45.3767 108.566 44.9501 108.326 44.4301C108.086 43.8967 107.966 43.2567 107.966 42.5101V36.7901Z" fill="#1B2A4E"/>
</svg>
