<svg width="281" height="124" viewBox="0 0 281 124" fill="none" xmlns="http://www.w3.org/2000/svg">
<rect x="1.30859" y="1.68756" width="278" height="53" rx="9" stroke="#B9E300" stroke-width="2" stroke-dasharray="4 4"/>
<rect x="145.309" y="10.6876" width="125" height="35" rx="10" fill="#151329"/>
<rect x="145.809" y="11.1876" width="124" height="34" rx="9.5" stroke="white" stroke-opacity="0.2"/>
<path d="M255.309 25.6876L250.814 31.4207C250.535 31.7765 250.082 31.7765 249.804 31.4207L245.309 25.6876" fill="#9C9DA9"/>
<path d="M160.995 33.8496V32.8976L164.971 28.9076C166.399 27.4656 166.959 26.5556 166.959 25.7576C166.959 24.4416 166.063 23.6716 164.663 23.6716C163.151 23.6716 162.339 24.8196 162.339 26.0656H160.869C160.869 24.0356 162.339 22.3696 164.677 22.3696C166.931 22.3696 168.415 23.7276 168.415 25.7436C168.415 26.9476 167.729 27.9696 166.049 29.6916L163.109 32.5756H168.793V33.8496H160.995ZM174.354 34.1016C171.988 34.1016 170.21 32.1556 170.21 28.2356C170.21 24.3156 171.988 22.3696 174.354 22.3696C176.706 22.3696 178.484 24.3156 178.484 28.2356C178.484 32.1556 176.706 34.1016 174.354 34.1016ZM174.354 32.7996C175.866 32.7996 177.07 31.2876 177.07 28.2356C177.07 25.1976 175.866 23.6716 174.354 23.6716C172.828 23.6716 171.624 25.1976 171.624 28.2356C171.624 31.2876 172.828 32.7996 174.354 32.7996ZM179.889 33.8496V32.8976L183.865 28.9076C185.293 27.4656 185.853 26.5556 185.853 25.7576C185.853 24.4416 184.957 23.6716 183.557 23.6716C182.045 23.6716 181.233 24.8196 181.233 26.0656H179.763C179.763 24.0356 181.233 22.3696 183.571 22.3696C185.825 22.3696 187.309 23.7276 187.309 25.7436C187.309 26.9476 186.623 27.9696 184.943 29.6916L182.003 32.5756H187.687V33.8496H179.889ZM189.077 33.8496V32.8976L193.053 28.9076C194.481 27.4656 195.041 26.5556 195.041 25.7576C195.041 24.4416 194.145 23.6716 192.745 23.6716C191.233 23.6716 190.421 24.8196 190.421 26.0656H188.951C188.951 24.0356 190.421 22.3696 192.759 22.3696C195.013 22.3696 196.497 23.7276 196.497 25.7436C196.497 26.9476 195.811 27.9696 194.131 29.6916L191.191 32.5756H196.875V33.8496H189.077ZM208.232 31.1056V27.0456H203.92V25.9116H208.232V24.5816H203.92V23.4476H208.232V22.1876H209.604V31.1056H208.232ZM206.776 29.2156C206.006 29.5236 204.578 29.6636 202.926 29.6636H198.838V22.4116H200.238V28.4876H203.024C204.606 28.4876 205.978 28.3476 206.776 28.0536V29.2156ZM200.84 32.7576H209.856V33.9896H199.426V30.6436H200.84V32.7576Z" fill="white"/>
<rect x="10.3086" y="10.6876" width="125" height="35" rx="10" fill="#151329"/>
<rect x="10.8086" y="11.1876" width="124" height="34" rx="9.5" stroke="white" stroke-opacity="0.2"/>
<path d="M120.309 25.6876L115.814 31.4207C115.535 31.7765 115.082 31.7765 114.804 31.4207L110.309 25.6876" fill="#9C9DA9"/>
<path d="M36.9286 24.8616H38.5806V26.1496H36.9286V29.4956H35.5426V22.1876H36.9286V24.8616ZM32.0146 26.5696V23.5456H26.6526V22.3836H33.4006V26.5696H32.0146ZM34.5486 28.1236C33.7926 28.4596 32.2946 28.5996 30.5866 28.5996H26.0786V27.4656H28.4166V24.9736H29.7886V27.4656H30.6286C32.2666 27.4656 33.7226 27.3396 34.5486 26.9896V28.1236ZM31.9586 29.5516C34.9406 29.5516 37.1386 30.2516 37.1386 31.8756C37.1386 33.4856 34.9406 34.1856 31.9586 34.1856C28.9766 34.1856 26.7786 33.4856 26.7786 31.8756C26.7786 30.2516 28.9766 29.5516 31.9586 29.5516ZM31.9586 33.1076C34.0726 33.1076 35.6826 32.7576 35.6826 31.8756C35.6826 30.9936 34.0726 30.6296 31.9586 30.6296C29.8446 30.6296 28.2346 30.9936 28.2346 31.8756C28.2346 32.7576 29.8446 33.1076 31.9586 33.1076ZM45.2714 26.0656C44.0674 27.4936 42.0934 28.3616 39.9374 28.5016V27.2136C42.3734 27.0176 44.4034 25.7436 44.9074 23.7556H40.2314V22.4956H50.7874V23.7556H46.3774C46.2934 24.1896 46.1534 24.6096 45.9714 24.9876L51.1794 27.2976L50.6054 28.4596L45.2714 26.0656ZM51.4874 29.7896V31.0776H46.1954V34.4236H44.7954V31.0776H39.5454V29.7896H51.4874ZM64.482 25.0156H66.806V22.1876H68.192V31.0776H66.806V26.2336H64.482V25.0156ZM61.15 26.7096C60.338 28.2076 58.938 29.1876 57.174 29.3696V28.0956C59.176 27.8156 60.422 26.0936 60.548 23.6996H57.328V22.4956H64.958V23.6996H61.948C61.92 24.3436 61.808 24.9596 61.64 25.5336L65.308 28.2636L64.524 29.2716L61.15 26.7096ZM59.428 32.7436H68.444V33.9896H58.014V30.1816H59.428V32.7436ZM74.1268 25.2256C74.1128 26.1916 74.0568 27.0876 73.9448 27.8856L76.8288 32.6456L75.7228 33.3036L73.6088 29.7196C73.0348 31.9316 71.9848 33.2056 70.4588 33.4296V32.1136C72.0128 31.7636 72.7408 29.0616 72.7968 25.2256H70.5848V23.9656H72.7968V22.1596H74.1268V23.9656H76.2968V25.2256H74.1268ZM80.5808 22.1876H81.8968V34.1436H80.5808V22.1876ZM77.4868 27.0316V22.2576H78.8028V33.9336H77.4868V28.3336H75.8208V27.0316H77.4868Z" fill="white"/>
<circle cx="145.311" cy="55.6876" r="4" fill="#B9E300"/>
<path d="M184.681 123.645C184.949 123.712 185.22 123.549 185.287 123.281L186.381 118.916C186.448 118.648 186.285 118.377 186.018 118.31C185.75 118.243 185.478 118.405 185.411 118.673L184.439 122.553L180.559 121.581C180.291 121.514 180.019 121.677 179.952 121.945C179.885 122.212 180.048 122.484 180.316 122.551L184.681 123.645ZM145.567 57.6887L145.138 57.9457L145.654 58.8072L146.083 58.5502L146.512 58.2932L145.996 57.4317L145.567 57.6887ZM147.116 60.2731L146.687 60.5301L147.719 62.253L148.148 61.996L148.577 61.739L147.545 60.0161L147.116 60.2731ZM149.181 63.7189L148.752 63.976L149.784 65.6989L150.213 65.4419L150.642 65.1848L149.61 63.4619L149.181 63.7189ZM151.246 67.1648L150.817 67.4218L151.849 69.1447L152.278 68.8877L152.707 68.6307L151.675 66.9078L151.246 67.1648ZM153.311 70.6106L152.882 70.8677L153.914 72.5906L154.343 72.3336L154.772 72.0765L153.74 70.3536L153.311 70.6106ZM155.376 74.0565L154.947 74.3135L155.979 76.0364L156.408 75.7794L156.837 75.5224L155.805 73.7995L155.376 74.0565ZM157.441 77.5023L157.012 77.7593L158.044 79.4823L158.473 79.2253L158.902 78.9682L157.87 77.2453L157.441 77.5023ZM159.506 80.9482L159.077 81.2052L160.109 82.9281L160.538 82.6711L160.967 82.4141L159.935 80.6912L159.506 80.9482ZM161.571 84.394L161.142 84.651L162.174 86.374L162.603 86.1169L163.032 85.8599L162 84.137L161.571 84.394ZM163.636 87.8399L163.207 88.0969L164.239 89.8198L164.668 89.5628L165.097 89.3058L164.065 87.5828L163.636 87.8399ZM165.701 91.2857L165.272 91.5427L166.305 93.2657L166.733 93.0086L167.162 92.7516L166.13 91.0287L165.701 91.2857ZM167.766 94.7316L167.337 94.9886L168.37 96.7115L168.798 96.4545L169.227 96.1975L168.195 94.4745L167.766 94.7316ZM169.831 98.1774L169.402 98.4344L170.435 100.157L170.863 99.9003L171.292 99.6433L170.26 97.9204L169.831 98.1774ZM171.896 101.623L171.467 101.88L172.5 103.603L172.928 103.346L173.357 103.089L172.325 101.366L171.896 101.623ZM173.961 105.069L173.532 105.326L174.565 107.049L174.993 106.792L175.422 106.535L174.39 104.812L173.961 105.069ZM176.026 108.515L175.597 108.772L176.63 110.495L177.058 110.238L177.487 109.981L176.455 108.258L176.026 108.515ZM178.091 111.961L177.662 112.218L178.695 113.941L179.124 113.684L179.552 113.427L178.52 111.704L178.091 111.961ZM180.156 115.407L179.727 115.664L180.76 117.387L181.189 117.13L181.617 116.873L180.585 115.15L180.156 115.407ZM182.221 118.853L181.792 119.11L182.825 120.832L183.254 120.575L183.682 120.318L182.65 118.595L182.221 118.853ZM184.286 122.298L183.857 122.555L184.373 123.417L184.802 123.16L185.231 122.903L184.715 122.041L184.286 122.298ZM184.681 123.645C184.949 123.712 185.22 123.549 185.287 123.281L186.381 118.916C186.448 118.648 186.285 118.377 186.018 118.31C185.75 118.243 185.478 118.405 185.411 118.673L184.439 122.553L180.559 121.581C180.291 121.514 180.019 121.677 179.952 121.945C179.885 122.212 180.048 122.484 180.316 122.551L184.681 123.645ZM145.567 57.6887L145.138 57.9457L145.654 58.8072L146.083 58.5502L146.512 58.2932L145.996 57.4317L145.567 57.6887ZM147.116 60.2731L146.687 60.5301L147.719 62.253L148.148 61.996L148.577 61.739L147.545 60.0161L147.116 60.2731ZM149.181 63.7189L148.752 63.976L149.784 65.6989L150.213 65.4419L150.642 65.1848L149.61 63.4619L149.181 63.7189ZM151.246 67.1648L150.817 67.4218L151.849 69.1447L152.278 68.8877L152.707 68.6307L151.675 66.9078L151.246 67.1648ZM153.311 70.6106L152.882 70.8677L153.914 72.5906L154.343 72.3336L154.772 72.0765L153.74 70.3536L153.311 70.6106ZM155.376 74.0565L154.947 74.3135L155.979 76.0364L156.408 75.7794L156.837 75.5224L155.805 73.7995L155.376 74.0565ZM157.441 77.5023L157.012 77.7593L158.044 79.4823L158.473 79.2253L158.902 78.9682L157.87 77.2453L157.441 77.5023ZM159.506 80.9482L159.077 81.2052L160.109 82.9281L160.538 82.6711L160.967 82.4141L159.935 80.6912L159.506 80.9482ZM161.571 84.394L161.142 84.651L162.174 86.374L162.603 86.1169L163.032 85.8599L162 84.137L161.571 84.394ZM163.636 87.8399L163.207 88.0969L164.239 89.8198L164.668 89.5628L165.097 89.3058L164.065 87.5828L163.636 87.8399ZM165.701 91.2857L165.272 91.5427L166.305 93.2657L166.733 93.0086L167.162 92.7516L166.13 91.0287L165.701 91.2857ZM167.766 94.7316L167.337 94.9886L168.37 96.7115L168.798 96.4545L169.227 96.1975L168.195 94.4745L167.766 94.7316ZM169.831 98.1774L169.402 98.4344L170.435 100.157L170.863 99.9003L171.292 99.6433L170.26 97.9204L169.831 98.1774ZM171.896 101.623L171.467 101.88L172.5 103.603L172.928 103.346L173.357 103.089L172.325 101.366L171.896 101.623ZM173.961 105.069L173.532 105.326L174.565 107.049L174.993 106.792L175.422 106.535L174.39 104.812L173.961 105.069ZM176.026 108.515L175.597 108.772L176.63 110.495L177.058 110.238L177.487 109.981L176.455 108.258L176.026 108.515ZM178.091 111.961L177.662 112.218L178.695 113.941L179.124 113.684L179.552 113.427L178.52 111.704L178.091 111.961ZM180.156 115.407L179.727 115.664L180.76 117.387L181.189 117.13L181.617 116.873L180.585 115.15L180.156 115.407ZM182.221 118.853L181.792 119.11L182.825 120.832L183.254 120.575L183.682 120.318L182.65 118.595L182.221 118.853ZM184.286 122.298L183.857 122.555L184.373 123.417L184.802 123.16L185.231 122.903L184.715 122.041L184.286 122.298Z" fill="#B9E300"/>
</svg>
