<svg width="28" height="25" viewBox="0 0 28 25" fill="none" xmlns="http://www.w3.org/2000/svg">
<path d="M20.5122 0.24054C17.7901 0.24054 15.3676 1.85646 14.341 4.35732L13.8294 5.60507L12.74 4.80113C11.9017 4.18261 10.9047 3.85594 9.8565 3.85594C7.35034 3.85594 5.28022 5.71887 5.04195 8.18961L4.96366 9.00025L4.15167 9.12141C1.92833 9.4541 0.251709 11.39 0.251709 13.6244C0.251709 15.8589 1.71639 17.5859 3.81419 18.0619L4.72067 18.268L4.6255 19.1858C4.60728 19.3591 4.5985 19.5352 4.5985 19.7086C4.5985 22.4685 6.86302 24.7143 9.64591 24.7143C11.6242 24.7143 13.4298 23.5589 14.2465 21.7716L14.6575 20.872L15.5856 21.2301C16.318 21.5126 17.0908 21.6558 17.8832 21.6558C21.3816 21.6558 24.2279 18.833 24.2279 15.3635C24.2279 14.7062 24.126 14.0582 23.9249 13.437L23.6873 12.704L24.3231 12.2629C26.107 11.0258 27.1721 9.00092 27.1721 6.84613C27.1721 3.20395 24.1847 0.241209 20.5122 0.241209V0.24054Z" fill="white"/>
</svg>
