<svg width="117" height="176" viewBox="0 0 117 176" fill="none" xmlns="http://www.w3.org/2000/svg">
<g clip-path="url(#clip0_4094_29)">
<path d="M115.958 98.0396L91.2758 50.5919C90.8818 49.6537 90.4058 48.7481 89.8722 47.8915C86.4822 42.4745 80.4409 38.8605 73.5459 38.8605H44.0534C37.1584 38.8605 31.1171 42.4745 27.727 47.8915C27.1935 48.7481 26.7174 49.6455 26.3234 50.5919L1.63277 98.0396C-0.484982 102.11 1.55889 107.34 6.19659 109.722C10.8343 112.104 16.3092 110.742 18.427 106.671L31.3141 81.8946V162.782C31.3141 169.896 37.1173 175.664 44.275 175.664C51.4327 175.664 57.2359 169.896 57.2359 162.782V121.029H60.3469V162.782C60.3469 169.896 66.1502 175.664 73.3078 175.664C80.4655 175.664 86.2688 169.896 86.2688 162.782V81.8946L99.1558 106.671C101.274 110.742 106.749 112.104 111.386 109.722C116.024 107.34 118.068 102.11 115.95 98.0396H115.958ZM58.7955 35.7604C68.547 35.7604 76.4516 27.9041 76.4516 18.2204C76.4516 8.53674 68.547 0.672302 58.7955 0.672302C49.044 0.672302 41.1394 8.52858 41.1394 18.2204C41.1394 27.9123 49.044 35.7604 58.7955 35.7604Z" fill="#EF4222"/>
<path d="M50.4503 80.2609C46.2023 80.2609 43.6103 77.8609 43.2983 74.0929H47.5943C47.7623 75.6529 48.6503 76.5649 50.4503 76.5649C52.2263 76.5649 53.3063 75.2449 53.3063 73.4449C53.3063 71.6209 52.2503 70.3489 50.3783 70.3489C49.0103 70.3489 48.1463 70.9489 47.6183 71.6689H43.6583L44.2343 60.2449H56.5943V63.9649H48.1943L47.9783 67.6369C48.8183 67.1329 49.8743 66.8209 51.1223 66.8209C54.9623 66.8209 57.5543 69.2929 57.5543 73.4449C57.5543 77.5729 54.4823 80.2609 50.4503 80.2609ZM67.921 79.8049V75.8689H59.137V72.2689L66.697 60.2449H72.049V72.2689H74.617V75.8689H72.049V79.8049H67.921ZM63.313 72.2689H67.921V64.7329L63.313 72.2689ZM43.6216 90.7989V92.0729H41.8436V98.8069H40.4016V92.0729H38.6236V90.7989H40.4016V88.3629H41.8436V90.7989H43.6216ZM50.5691 99.0589C47.1811 99.0589 44.6891 96.5809 44.6891 93.1929C44.6891 89.8049 47.1811 87.3269 50.5691 87.3269C53.4671 87.3269 55.4691 89.0069 56.0571 91.3589H54.5591C54.0831 89.7769 52.6411 88.6849 50.5971 88.6849C48.0211 88.6849 46.1591 90.5609 46.1591 93.1929C46.1591 95.8109 48.0351 97.7009 50.5971 97.7009C52.6971 97.7009 54.2651 96.4689 54.6711 94.8729H56.1691C55.6791 97.2109 53.5371 99.0589 50.5691 99.0589ZM63.4763 99.0589C60.0743 99.0589 57.5543 96.5809 57.5543 93.1929C57.5543 89.8049 60.0603 87.3269 63.4623 87.3269C66.8643 87.3269 69.3843 89.8049 69.3843 93.1929C69.3843 96.5809 66.8783 99.0589 63.4763 99.0589ZM63.4763 97.7149C66.0243 97.7149 67.9143 95.8249 67.9143 93.1929C67.9143 90.5469 66.0243 88.6709 63.4623 88.6709C60.9003 88.6709 59.0243 90.5469 59.0243 93.1929C59.0243 95.8249 60.9143 97.7149 63.4763 97.7149ZM70.8017 98.8069V97.8549L74.7777 93.8649C76.2057 92.4229 76.7657 91.5129 76.7657 90.7149C76.7657 89.3989 75.8697 88.6289 74.4697 88.6289C72.9577 88.6289 72.1457 89.7769 72.1457 91.0229H70.6757C70.6757 88.9929 72.1457 87.3269 74.4837 87.3269C76.7377 87.3269 78.2217 88.6849 78.2217 90.7009C78.2217 91.9049 77.5357 92.9269 75.8557 94.6489L72.9157 97.5329H78.5997V98.8069H70.8017Z" fill="white"/>
</g>
<defs>
<clipPath id="clip0_4094_29">
<rect width="116" height="175" fill="white" transform="translate(0.79541 0.672302)"/>
</clipPath>
</defs>
</svg>
