<svg width="117" height="176" viewBox="0 0 117 176" fill="none" xmlns="http://www.w3.org/2000/svg">
<path d="M115.958 98.0396L91.2758 50.5919C90.8818 49.6537 90.4058 48.7481 89.8722 47.8915C86.4822 42.4745 80.4409 38.8605 73.5459 38.8605H44.0534C37.1584 38.8605 31.1171 42.4745 27.727 47.8915C27.1935 48.7481 26.7174 49.6455 26.3234 50.5919L1.63277 98.0396C-0.484982 102.11 1.55889 107.34 6.19659 109.722C10.8343 112.104 16.3092 110.742 18.427 106.671L31.3141 81.8946V162.782C31.3141 169.896 37.1173 175.664 44.275 175.664C51.4327 175.664 57.2359 169.896 57.2359 162.782V121.029H60.3469V162.782C60.3469 169.896 66.1502 175.664 73.3078 175.664C80.4655 175.664 86.2688 169.896 86.2688 162.782V81.8946L99.1558 106.671C101.274 110.742 106.749 112.104 111.386 109.722C116.024 107.34 118.068 102.11 115.95 98.0396H115.958ZM58.7955 35.7604C68.547 35.7604 76.4516 27.9041 76.4516 18.2204C76.4516 8.53674 68.547 0.672302 58.7955 0.672302C49.044 0.672302 41.1394 8.52858 41.1394 18.2204C41.1394 27.9123 49.044 35.7604 58.7955 35.7604Z" fill="#EF4222"/>
</svg>
