<svg width="140" height="73" viewBox="0 0 140 73" fill="none" xmlns="http://www.w3.org/2000/svg">
<path fill-rule="evenodd" clip-rule="evenodd" d="M96.573 51.9985C89.553 60.1085 75.133 61.7985 61.913 55.4085C61.273 55.0985 60.643 54.7685 60.023 54.4385C59.603 57.6585 58.303 60.5685 56.053 62.8185C50.453 68.4185 40.763 68.1785 32.393 62.8985C31.083 64.7185 29.453 66.4185 27.513 67.8985C19.143 74.3085 8.34297 74.2485 3.38297 67.7785C-1.57703 61.2985 1.19297 50.8585 9.55297 44.4485C12.423 42.2485 15.593 40.8085 18.703 40.1285C18.733 36.0585 20.083 32.3285 22.823 29.5885C27.623 24.7885 35.423 24.2785 42.823 27.5485C43.033 25.5785 43.563 23.6485 44.443 21.8285C49.823 10.6885 66.153 7.41852 81.103 14.3985C82.063 11.3485 83.663 8.59852 85.943 6.31852C95.783 -3.52148 114.443 -0.811482 127.613 12.3685C140.783 25.5485 143.503 44.2085 133.663 54.0385C124.913 62.7885 109.203 61.6085 96.563 51.9885L96.573 51.9985Z" fill="white"/>
</svg>
