<svg width="94" height="106" viewBox="0 0 94 106" fill="none" xmlns="http://www.w3.org/2000/svg">
<path fill-rule="evenodd" clip-rule="evenodd" d="M54.3865 89.8976C52.062 59.9636 49.7249 30.0298 47.4004 0.0881958H8.52849C5.96398 33.0699 3.39947 66.0439 0.834961 99.0255L54.3865 89.8976Z" fill="#A5AFB7"/>
<path d="M51.1687 49.9464L4.34741 56.9835V52.5842L51.1687 45.5472V49.9464Z" fill="#778893"/>
<path d="M50.2814 30.5753L5.57373 37.6124V33.2131L50.2814 26.1761V30.5753Z" fill="#778893"/>
<path d="M48.0828 12.1173L7.33276 19.1543V14.755L48.0828 7.71802V12.1173Z" fill="#778893"/>
<path fill-rule="evenodd" clip-rule="evenodd" d="M93.8928 98.3648C92.3344 74.1994 90.7675 50.0341 89.209 25.8625H63.1474C61.428 52.4883 59.7086 79.1079 57.9893 105.734L93.8928 98.3648Z" fill="#A5AFB7"/>
<path d="M91.7356 66.1126L60.3442 71.7936V68.2421L91.7356 62.5612V66.1126Z" fill="#778893"/>
<path d="M91.1404 50.4745L61.1663 56.1555V52.604L91.1404 46.923V50.4745Z" fill="#778893"/>
<path d="M89.6665 35.5735L62.3457 41.2545V37.703L89.6665 32.022V35.5735Z" fill="#778893"/>
</svg>
