<svg width="420" height="322" viewBox="0 0 420 322" fill="none" xmlns="http://www.w3.org/2000/svg">
<g clip-path="url(#clip0_5406_231)">
<path d="M314.08 268.3C307.44 268.38 302.6 268.42 299.04 268.42C289.94 268.42 289.2 268.17 288.1 267.81C285.5 266.94 283.48 264.88 282.68 262.3C281.34 257.96 283.49 255.15 286.45 251.27C288.76 248.25 293.05 242.63 300.25 232.33C302.47 229.16 303.39 226.95 303.76 225.59L303.84 224.96C303.65 223.19 302.16 221.81 300.34 221.81C298.66 221.81 297.21 223 296.89 224.64C296.02 229.07 291.72 231.95 287.29 231.09C282.86 230.22 279.98 225.92 280.84 221.49C282.66 212.2 290.86 205.46 300.34 205.46C311.29 205.46 320.21 214.37 320.21 225.33C320.21 225.68 320.19 226.02 320.14 226.37L319.92 228.14C319.88 228.41 319.84 228.68 319.77 228.95C318.83 232.98 316.83 237.16 313.64 241.71C310.75 245.83 308.32 249.23 306.28 252.03C308.77 252.01 311.37 251.99 313.86 251.95C313.89 251.95 313.93 251.95 313.96 251.95C318.43 251.95 322.08 255.54 322.13 260.02C322.19 264.53 318.57 268.24 314.06 268.3H314.08ZM202.15 160.44C202.15 134.64 223.14 113.64 248.95 113.64C274.76 113.64 295.75 134.63 295.75 160.44C295.75 186.25 274.76 207.24 248.95 207.24C223.14 207.24 202.15 186.25 202.15 160.44ZM175.8 193.1C174.55 194.59 173.19 196 171.76 197.27C164.44 203.79 155.07 207.23 144.65 207.23C118.85 207.23 97.85 186.24 97.85 160.43C97.85 134.62 118.84 113.63 144.65 113.63C154.02 113.63 163.07 116.4 170.82 121.63C176.43 125.42 177.91 133.04 174.12 138.65C170.33 144.26 162.71 145.74 157.1 141.95C153.42 139.47 149.12 138.15 144.66 138.15C132.38 138.15 122.39 148.14 122.39 160.42C122.39 172.7 132.38 182.69 144.66 182.69C149.03 182.69 152.66 181.43 155.46 178.94C156.01 178.45 156.53 177.91 157.02 177.32C161.37 172.13 169.11 171.45 174.29 175.8C179.48 180.15 180.16 187.89 175.8 193.07V193.1ZM420 142.83C420 90.04 377.05 47.09 324.26 47.09C309.73 47.09 295.52 50.39 282.64 56.61C277.82 24.61 250.14 0 216.82 0C191.17 0 168.18 14.88 157.15 37.08C143.03 29.88 127.43 26.12 111.28 26.12C55.46 26.12 10.05 71.53 10.05 127.35C10.05 144.68 14.39 161.41 22.68 176.35C8.32 190.76 0 210.5 0 231.05C0 281.09 40.71 321.79 90.74 321.79H312.85C361.56 321.79 401.19 282.16 401.19 233.44V225.59C401.19 218.02 400.31 210.52 398.56 203.2C412.43 186.16 419.99 164.99 419.99 142.83H420Z" fill="#B9E300"/>
<path d="M248.95 138.17C236.67 138.17 226.68 148.16 226.68 160.44C226.68 172.72 236.67 182.71 248.95 182.71C261.23 182.71 271.22 172.72 271.22 160.44C271.22 148.16 261.23 138.17 248.95 138.17Z" fill="#B9E300"/>
</g>
<defs>
<clipPath id="clip0_5406_231">
<rect width="420" height="321.79" fill="white"/>
</clipPath>
</defs>
</svg>
