<svg width="158" height="185" viewBox="0 0 158 185" fill="none" xmlns="http://www.w3.org/2000/svg">
<path fill-rule="evenodd" clip-rule="evenodd" d="M114.573 51.9985C107.553 60.1085 93.133 61.7985 79.913 55.4085C79.273 55.0985 78.643 54.7685 78.023 54.4385C77.603 57.6585 76.303 60.5685 74.053 62.8185C68.453 68.4185 58.763 68.1785 50.393 62.8985C49.083 64.7185 47.453 66.4185 45.513 67.8985C37.143 74.3085 26.343 74.2485 21.383 67.7785C16.423 61.2985 19.193 50.8585 27.553 44.4485C30.423 42.2485 33.593 40.8085 36.703 40.1285C36.733 36.0585 38.083 32.3285 40.823 29.5885C45.623 24.7885 53.423 24.2785 60.823 27.5485C61.033 25.5785 61.563 23.6485 62.443 21.8285C67.823 10.6885 84.153 7.41852 99.103 14.3985C100.063 11.3485 101.663 8.59852 103.943 6.31852C113.783 -3.52148 132.443 -0.811482 145.613 12.3685C158.783 25.5485 161.503 44.2085 151.663 54.0385C142.913 62.7885 127.203 61.6085 114.563 51.9885L114.573 51.9985Z" fill="white"/>
<path fill-rule="evenodd" clip-rule="evenodd" d="M54.3865 168.898C52.062 138.964 49.7249 109.03 47.4004 79.0882H8.52849C5.96398 112.07 3.39947 145.044 0.834961 178.026L54.3865 168.898Z" fill="#A5AFB7"/>
<path d="M51.1687 128.946L4.34741 135.983V131.584L51.1687 124.547V128.946Z" fill="#778893"/>
<path d="M50.2814 109.575L5.57373 116.612V112.213L50.2814 105.176V109.575Z" fill="#778893"/>
<path d="M48.0828 91.1173L7.33276 98.1543V93.755L48.0828 86.718V91.1173Z" fill="#778893"/>
<path fill-rule="evenodd" clip-rule="evenodd" d="M93.8928 177.365C92.3344 153.199 90.7675 129.034 89.209 104.863H63.1474C61.428 131.488 59.7086 158.108 57.9893 184.734L93.8928 177.365Z" fill="#A5AFB7"/>
<path d="M91.7356 145.113L60.3442 150.794V147.242L91.7356 141.561V145.113Z" fill="#778893"/>
<path d="M91.1404 129.475L61.1663 135.155V131.604L91.1404 125.923V129.475Z" fill="#778893"/>
<path d="M89.6665 114.574L62.3457 120.254V116.703L89.6665 111.022V114.574Z" fill="#778893"/>
<path d="M90.5122 76.2405C87.7901 76.2405 85.3676 77.8565 84.341 80.3573L83.8294 81.6051L82.74 80.8011C81.9017 80.1826 80.9047 79.8559 79.8565 79.8559C77.3503 79.8559 75.2802 81.7189 75.042 84.1896L74.9637 85.0002L74.1517 85.1214C71.9283 85.4541 70.2517 87.39 70.2517 89.6244C70.2517 91.8589 71.7164 93.5859 73.8142 94.0619L74.7207 94.268L74.6255 95.1858C74.6073 95.3591 74.5985 95.5352 74.5985 95.7086C74.5985 98.4685 76.863 100.714 79.6459 100.714C81.6242 100.714 83.4298 99.5589 84.2465 97.7716L84.6575 96.872L85.5856 97.2301C86.318 97.5126 87.0908 97.6558 87.8832 97.6558C91.3816 97.6558 94.2279 94.833 94.2279 91.3635C94.2279 90.7062 94.126 90.0582 93.9249 89.437L93.6873 88.704L94.3231 88.2629C96.107 87.0258 97.1721 85.0009 97.1721 82.8461C97.1721 79.204 94.1847 76.2412 90.5122 76.2412V76.2405Z" fill="white"/>
</svg>
