<svg width="16" height="17" viewBox="0 0 16 17" fill="none" xmlns="http://www.w3.org/2000/svg">
<path d="M10.4765 12.745V13.5506C10.4765 14.8853 9.39454 15.9673 8.05982 15.9673C6.7251 15.9673 5.6431 14.8853 5.6431 13.5506V12.745M10.4765 12.745H5.6431M10.4765 12.745H13.369C13.6771 12.745 13.8319 12.745 13.9567 12.7029C14.195 12.6225 14.3815 12.4354 14.4619 12.1971C14.5042 12.0718 14.5042 11.9165 14.5042 11.6059C14.5042 11.47 14.504 11.402 14.4934 11.3372C14.4733 11.2148 14.4258 11.0987 14.3534 10.9979C14.3152 10.9447 14.2666 10.8961 14.1708 10.8002L13.857 10.4864C13.7557 10.3852 13.6988 10.2479 13.6988 10.1047V7.10602C13.6988 3.99167 11.1742 1.46699 8.05982 1.467C4.94549 1.46701 2.42081 3.99168 2.42081 7.10602V10.1047C2.42081 10.2479 2.36381 10.3852 2.26257 10.4864L1.94879 10.8002C1.85268 10.8963 1.80458 10.9446 1.76628 10.9979C1.6939 11.0987 1.64596 11.2148 1.62587 11.3372C1.61523 11.402 1.61523 11.47 1.61523 11.6059C1.61523 11.9165 1.61523 12.0718 1.65749 12.197C1.73788 12.4354 1.92522 12.6225 2.16356 12.7029C2.28834 12.745 2.44257 12.745 2.75073 12.745H5.6431" stroke="white" stroke-width="1.5" stroke-linecap="round" stroke-linejoin="round"/>
</svg>
