<svg width="34" height="34" viewBox="0 0 34 34" fill="none" xmlns="http://www.w3.org/2000/svg">
<path fill-rule="evenodd" clip-rule="evenodd" d="M19.5566 14.3846L19.403 19.4226C19.3904 19.8366 19.7158 20.1825 20.1298 20.1951C20.5438 20.2077 20.8897 19.8823 20.9023 19.4683L21.0622 14.2229C21.0853 13.4655 20.4758 12.8559 19.7183 12.879L14.4729 13.0389C14.0589 13.0516 13.7335 13.3974 13.7461 13.8114C13.7588 14.2255 14.1046 14.5509 14.5186 14.5382L19.5566 14.3846Z" fill="#B9E300"/>
<path fill-rule="evenodd" clip-rule="evenodd" d="M19.9756 13.9654C20.2685 14.2583 20.2685 14.7331 19.9756 15.026L14.6723 20.3293C14.3794 20.6222 13.9046 20.6222 13.6117 20.3293C13.3188 20.0364 13.3188 19.5616 13.6117 19.2687L18.915 13.9654C19.2079 13.6725 19.6827 13.6725 19.9756 13.9654Z" fill="#B9E300"/>
</svg>
