<svg width="30" height="37" viewBox="0 0 30 37" fill="none" xmlns="http://www.w3.org/2000/svg">
<g style="mix-blend-mode:multiply">
<path opacity="0.03" d="M19.8859 1.20227H4.01705C2.88379 1.20227 1.95654 2.12588 1.95654 3.25428V34.3529C1.95654 35.4817 2.88379 36.4049 4.01705 36.4049H26.7344C27.8677 36.4049 29.1863 35.4813 29.1863 34.3529V9.7009L19.8859 1.20227Z" fill="#1B1B1B"/>
<path opacity="0.06" d="M19.8602 1.21399H4.02091C2.8913 1.21399 1.96729 2.13517 1.96729 3.26074V34.2796C1.96729 35.4052 2.8913 36.3264 4.02091 36.3264H26.6748C27.8044 36.3264 29.1068 35.4052 29.1068 34.2796V9.69076L19.8602 1.21399Z" fill="#1D1D1D"/>
<path opacity="0.1" d="M19.8345 1.22571H4.02477C2.89921 1.22571 1.97803 2.14446 1.97803 3.26719V34.2068C1.97803 35.3295 2.89921 36.2483 4.02477 36.2483H26.6151C27.7406 36.2483 29.0273 35.3295 29.0273 34.2068V9.68103L19.8345 1.22571Z" fill="#202020"/>
<path opacity="0.13" d="M19.8087 1.23743H4.02766C2.90573 1.23743 1.98779 2.15375 1.98779 3.27365V34.1335C1.98779 35.2534 2.90573 36.1697 4.02766 36.1697H26.5548C27.6767 36.1697 28.9472 35.2534 28.9472 34.1335V9.67089L19.8087 1.23743Z" fill="#222222"/>
<path opacity="0.16" d="M19.783 1.24915H4.03152C2.91324 1.24915 1.99854 2.16304 1.99854 3.28011V34.0606C1.99854 35.1777 2.91324 36.0916 4.03152 36.0916H26.4951C27.6134 36.0916 28.8677 35.1777 28.8677 34.0606V9.66076L19.783 1.24915Z" fill="#242424"/>
<path opacity="0.19" d="M19.7568 1.26099H4.03489C2.92066 1.26099 2.00879 2.17245 2.00879 3.28669V33.9875C2.00879 35.1017 2.92066 36.0132 4.03489 36.0132H26.435C27.5492 36.0132 28.7877 35.1017 28.7877 33.9875V9.65115L19.7568 1.26099Z" fill="#262626"/>
<path opacity="0.23" d="M19.7307 1.27271H4.03827C2.92767 1.27271 2.01904 2.18215 2.01904 3.29314V33.9142C2.01904 35.0256 2.92767 35.9346 4.03827 35.9346H26.3752C27.4858 35.9346 28.7081 35.0252 28.7081 33.9142V9.64101L19.7307 1.27271Z" fill="#292929"/>
<path opacity="0.26" d="M19.7049 1.28442H4.04205C2.93509 1.28442 2.0293 2.19144 2.0293 3.2996V33.8413C2.0293 34.9499 2.93509 35.8565 4.04205 35.8565H26.3154C27.4224 35.8565 28.6285 34.9495 28.6285 33.8413V9.63087L19.7049 1.28442Z" fill="#2B2B2B"/>
<path opacity="0.29" d="M19.6792 1.29614H4.04591C2.9426 1.29614 2.04004 2.20073 2.04004 3.30606V33.7681C2.04004 34.8738 2.9426 35.778 4.04591 35.778H26.2562C27.3595 35.778 28.549 34.8734 28.549 33.7681V9.62114L19.6792 1.29614Z" fill="#2D2D2D"/>
<path opacity="0.32" d="M19.6534 1.30786H4.04928C2.95002 1.30786 2.05029 2.21002 2.05029 3.31252V33.6948C2.05029 34.7973 2.95002 35.6994 4.04928 35.6994H26.196C27.2953 35.6994 28.469 34.7973 28.469 33.6948V9.61101L19.6534 1.30786Z" fill="#2F2F2F"/>
<path opacity="0.35" d="M19.6278 1.31964H4.05314C2.95752 1.31964 2.06104 2.21937 2.06104 3.31903V33.622C2.06104 34.7216 2.95752 35.6214 4.05314 35.6214H26.1363C27.2319 35.6214 28.3895 34.7216 28.3895 33.622V9.60093L19.6278 1.31964Z" fill="#313131"/>
<path opacity="0.39" d="M19.6021 1.33136H4.057C2.96503 1.33136 2.07178 2.22866 2.07178 3.32549V33.5487C2.07178 34.6455 2.96503 35.5428 4.057 35.5428H26.077C27.169 35.5428 28.3104 34.6455 28.3104 33.5487V9.59079L19.6021 1.33136Z" fill="#343434"/>
<path opacity="0.42" d="M19.5759 1.34308H4.06038C2.97204 1.34308 2.08203 2.23835 2.08203 3.33195V33.4754C2.08203 34.5694 2.97245 35.4643 4.06038 35.4643H26.0169C27.1052 35.4643 28.2304 34.569 28.2304 33.4754V9.58106L19.5759 1.34308Z" fill="#363636"/>
<path opacity="0.45" d="M19.5501 1.3548H4.06416C2.97987 1.3548 2.09229 2.24764 2.09229 3.33881V33.403C2.09229 34.4941 2.97946 35.387 4.06416 35.387H25.9571C27.0414 35.387 28.1508 34.4941 28.1508 33.403V9.57092L19.5501 1.3548Z" fill="#383838"/>
<path opacity="0.48" d="M19.5244 1.36658H4.06753C2.98689 1.36658 2.10254 2.25699 2.10254 3.34533V33.3297C2.10254 34.4181 2.98689 35.3085 4.06753 35.3085H25.8973C26.978 35.3085 28.0712 34.4181 28.0712 33.3297V9.56085L19.5244 1.36658Z" fill="#3A3A3A"/>
<path opacity="0.52" d="M19.4982 1.37872H4.0709C2.9939 1.37872 2.11279 2.26671 2.11279 3.35221V33.2573C2.11279 34.3428 2.9939 35.2308 4.0709 35.2308H25.8372C26.9142 35.2308 27.9912 34.3428 27.9912 33.2573V9.55114L19.4982 1.37872Z" fill="#3D3D3D"/>
<path opacity="0.55" d="M19.4725 1.39044H4.07476C3.00141 1.39044 2.12354 2.276 2.12354 3.35867V33.184C2.12354 34.2663 3.00141 35.1522 4.07476 35.1522H25.7775C26.8508 35.1522 27.9116 34.2667 27.9116 33.184V9.541L19.4725 1.39044Z" fill="#3F3F3F"/>
<path opacity="0.58" d="M19.4468 1.40216H4.07863C3.00932 1.40216 2.13428 2.28529 2.13428 3.36513V33.1107C2.13428 34.1902 3.00932 35.0737 4.07863 35.0737H25.7182C26.7875 35.0737 27.8325 34.1906 27.8325 33.1107V9.53086L19.4468 1.40216Z" fill="#414141"/>
<path opacity="0.61" d="M19.4211 1.41394H4.08249C3.01682 1.41394 2.14502 2.29464 2.14502 3.37164V33.0379C2.14502 34.1145 3.01682 34.9956 4.08249 34.9956H25.6585C26.7242 34.9956 27.7526 34.1149 27.7526 33.0379V9.52079L19.4211 1.41394Z" fill="#434343"/>
<path opacity="0.65" d="M19.3949 1.42566H4.08578C3.02375 1.42566 2.15479 2.30434 2.15479 3.3781V32.9647C2.15479 34.0384 3.02375 34.9171 4.08578 34.9171H25.5983C26.6603 34.9171 27.6725 34.0384 27.6725 32.9647V9.51106L19.3949 1.42566Z" fill="#464646"/>
<path opacity="0.68" d="M19.3696 1.43738H4.08964C3.03126 1.43738 2.16553 2.31363 2.16553 3.38456V32.8914C2.16553 33.9623 3.03126 34.8386 4.08964 34.8386H25.539C26.5974 34.8386 27.5934 33.9623 27.5934 32.8914V9.50092L19.3696 1.43738Z" fill="#484848"/>
<path opacity="0.71" d="M19.3439 1.4491H4.0935C3.03917 1.4491 2.17627 2.32292 2.17627 3.39102V32.8185C2.17627 33.8866 3.03917 34.7604 4.0935 34.7604H25.4793C26.5336 34.7604 27.5139 33.8866 27.5139 32.8185V9.49078L19.3439 1.4491Z" fill="#4A4A4A"/>
<path opacity="0.74" d="M19.3178 1.46082H4.09687C3.04618 1.46082 2.18652 2.33221 2.18652 3.39747V32.7452C2.18652 33.8105 3.04618 34.6819 4.09687 34.6819H25.4195C26.4702 34.6819 27.4343 33.8105 27.4343 32.7452V9.48105L19.3178 1.46082Z" fill="#4C4C4C"/>
<path opacity="0.77" d="M19.2916 1.4726H4.10025C3.0532 1.4726 2.19678 2.34156 2.19678 3.40399V32.6724C2.19678 33.7345 3.0532 34.6038 4.10025 34.6038H25.3594C26.4064 34.6038 27.3543 33.7349 27.3543 32.6724V9.47097L19.2916 1.4726Z" fill="#4E4E4E"/>
<path opacity="0.81" d="M19.2659 1.48438H4.10411C3.06111 1.48438 2.20752 2.35091 2.20752 3.41051V32.5992C2.20752 33.6584 3.06111 34.5253 4.10411 34.5253H25.2997C26.3427 34.5253 27.2748 33.6588 27.2748 32.5992V9.4609L19.2659 1.48438Z" fill="#515151"/>
<path opacity="0.84" d="M19.2397 1.49609H4.10748C3.06812 1.49609 2.21777 2.36061 2.21777 3.41697V32.5259C2.21777 33.5823 3.06812 34.4468 4.10748 34.4468H25.2399C26.2793 34.4468 27.1952 33.5823 27.1952 32.5259V9.45117L19.2397 1.49609Z" fill="#535353"/>
<path opacity="0.87" d="M19.2144 1.50781H4.11126C3.07554 1.50781 2.22803 2.3699 2.22803 3.42342V32.4531C2.22803 33.5066 3.07554 34.3687 4.11126 34.3687H25.1802C26.2159 34.3687 27.1156 33.5066 27.1156 32.4531V9.44103L19.2144 1.50781Z" fill="#555555"/>
<path opacity="0.9" d="M19.1887 1.51959H4.11512C3.08305 1.51959 2.23877 2.37925 2.23877 3.42994V32.3798C2.23877 33.4305 3.08305 34.2902 4.11512 34.2902H25.1205C26.1526 34.2902 27.0361 33.4305 27.0361 32.3798V9.43095L19.1887 1.51959Z" fill="#575757"/>
<path opacity="0.94" d="M19.1625 1.53131H4.1185C3.09047 1.53131 2.24902 2.38854 2.24902 3.4364V32.3066C2.24902 33.3544 3.09047 34.2117 4.1185 34.2117H25.0607C26.0887 34.2117 26.9561 33.3544 26.9561 32.3066V9.42082L19.1625 1.53131Z" fill="#5A5A5A"/>
<path opacity="0.97" d="M19.1368 1.54303H4.12236C3.09797 1.54303 2.25977 2.39783 2.25977 3.44286V32.2337C2.25977 33.2787 3.09797 34.1335 4.12236 34.1335H25.001C26.0254 34.1335 26.8766 33.2787 26.8766 32.2337V9.41108L19.1368 1.54303Z" fill="#5C5C5C"/>
<path d="M19.1111 1.55475H4.12622C3.10548 1.55475 2.27051 2.40712 2.27051 3.44931V32.1604C2.27051 33.2026 3.10548 34.055 4.12622 34.055H24.9414C25.9621 34.055 26.7971 33.2026 26.7971 32.1604V9.40095L19.1111 1.55475Z" fill="#5E5E5E"/>
</g>
<g opacity="0.5">
<path opacity="0.03" d="M19.9394 0.850952H3.8038C2.68026 0.850952 1.37256 1.76242 1.37256 2.87665V27.2126L10.5949 35.6023H19.9398V0.850952H19.9394Z" fill="#1B1B1B"/>
<path opacity="0.06" d="M19.9574 0.916504H3.85949C2.73918 0.916504 1.44727 1.82433 1.44727 2.93411V27.1737L10.6182 35.5303H19.9574V0.916504Z" fill="#1D1D1D"/>
<path opacity="0.1" d="M19.9754 0.981689H3.91468C2.79802 0.981689 1.52148 1.88627 1.52148 2.99161V27.1353L10.6414 35.4587H19.975V0.981689H19.9754Z" fill="#202020"/>
<path opacity="0.13" d="M19.993 1.04681H3.96996C2.85654 1.04681 1.59619 1.94775 1.59619 3.04863V27.0964L10.6647 35.3866H19.993V1.04681Z" fill="#222222"/>
<path opacity="0.16" d="M20.0106 1.112H4.02516C2.91538 1.112 1.67041 2.0093 1.67041 3.10573V27.0576L10.6879 35.315H20.0106V1.112Z" fill="#242424"/>
<path opacity="0.19" d="M20.0282 1.17749H4.08044C2.97389 1.17749 1.74512 2.07115 1.74512 3.16312V27.019L10.7112 35.2432H20.0282V1.17749Z" fill="#262626"/>
<path opacity="0.23" d="M20.0462 1.24268H4.13564C3.03273 1.24268 1.81934 2.13269 1.81934 3.22062V26.9802L10.7344 35.1712H20.0462V1.24268Z" fill="#292929"/>
<path opacity="0.26" d="M20.0638 1.30786H4.19132C3.09165 1.30786 1.89404 2.19423 1.89404 3.27771V26.9414L10.7577 35.0992H20.0638V1.30786Z" fill="#2B2B2B"/>
<path opacity="0.29" d="M20.0814 1.37341H4.24611C3.14968 1.37341 1.96826 2.25614 1.96826 3.33517V26.9029L10.781 35.0276H20.0818V1.37341H20.0814Z" fill="#2D2D2D"/>
<path opacity="0.32" d="M20.0994 1.4386H4.3018C3.20901 1.4386 2.04297 2.31768 2.04297 3.39226V26.8641L10.8043 34.9559H20.0994V1.4386Z" fill="#2F2F2F"/>
<path opacity="0.35" d="M20.117 1.50372H4.35659C3.26704 1.50372 2.11719 2.37917 2.11719 3.44969V26.8256L10.8271 34.8843H20.1166V1.50372H20.117Z" fill="#313131"/>
<path opacity="0.39" d="M20.1346 1.56891H4.41227C3.32637 1.56891 2.19189 2.44111 2.19189 3.50678V26.7863L10.8508 34.8118H20.135V1.56891H20.1346Z" fill="#343434"/>
<path opacity="0.42" d="M20.1526 1.63446H4.46747C3.3848 1.63446 2.26611 2.50302 2.26611 3.56424V26.7479L10.8736 34.7402H20.1522V1.63446H20.1526Z" fill="#363636"/>
<path opacity="0.45" d="M20.1702 1.69965H4.52275C3.44372 1.69965 2.34082 2.56457 2.34082 3.62133V26.709L10.8973 34.6686H20.1702V1.69965Z" fill="#383838"/>
<path opacity="0.48" d="M20.1873 1.76477H4.57746C3.50167 1.76477 2.41455 2.62605 2.41455 3.67876V26.6706L10.9197 34.5969H20.1873V1.76477Z" fill="#3A3A3A"/>
<path opacity="0.52" d="M20.2049 1.83038H4.63274C3.56059 1.83038 2.48926 2.68802 2.48926 3.73628V26.6322L10.9434 34.5253H20.2053V1.83038H20.2049Z" fill="#3D3D3D"/>
<path opacity="0.55" d="M20.2229 1.89557H4.68793C3.61903 1.89557 2.56348 2.74956 2.56348 3.79337V26.5929L10.9662 34.4529H20.2229V1.89557Z" fill="#3F3F3F"/>
<path opacity="0.58" d="M20.2409 1.96069H4.74321C3.67795 1.96069 2.63818 2.81104 2.63818 3.8504V26.554L10.9899 34.3812H20.2409V1.96069Z" fill="#414141"/>
<path opacity="0.61" d="M20.2581 2.02631H4.79841C3.73638 2.02631 2.7124 2.87301 2.7124 3.90833V26.516L11.0127 34.31H20.2581V2.02631Z" fill="#434343"/>
<path opacity="0.65" d="M20.276 2.09143H4.8536C3.79522 2.09143 2.78662 2.93449 2.78662 3.96536V26.4771L11.0359 34.2379H20.276V2.09143Z" fill="#464646"/>
<path opacity="0.68" d="M20.2937 2.15662H4.90888C3.85374 2.15662 2.86133 2.99644 2.86133 4.02245V26.4383L11.0592 34.1659H20.2937V2.15662Z" fill="#484848"/>
<path opacity="0.71" d="M20.3116 2.22174H4.96408C3.91258 2.22174 2.93555 3.05792 2.93555 4.07948V26.399L11.0825 34.0934H20.3112V2.22174H20.3116Z" fill="#4A4A4A"/>
<path opacity="0.74" d="M20.3294 2.28729H5.01985C3.97158 2.28729 3.01074 3.11983 3.01074 4.13734V26.3609L11.1063 34.0226H20.3298V2.28729H20.3294Z" fill="#4C4C4C"/>
<path opacity="0.77" d="M20.3468 2.35254H5.07456C4.02993 2.35254 3.08447 3.18144 3.08447 4.19449V26.3222L11.129 33.9506H20.3468V2.35254Z" fill="#4E4E4E"/>
<path opacity="0.81" d="M20.3649 2.41766H5.13024C4.08886 2.41766 3.15918 3.24292 3.15918 4.25152V26.2833L11.1523 33.8785H20.3649V2.41766Z" fill="#515151"/>
<path opacity="0.84" d="M20.382 2.48322H5.18503C4.14729 2.48322 3.2334 3.30483 3.2334 4.30938V26.2452L11.1755 33.8073H20.3824V2.48322H20.382Z" fill="#535353"/>
<path opacity="0.87" d="M20.4001 2.54834H5.24072C4.20621 2.54834 3.30811 3.36631 3.30811 4.36641V26.2059L11.1988 33.7352H20.4001V2.54834Z" fill="#555555"/>
<path opacity="0.9" d="M20.4176 2.61353H5.29551C4.26465 2.61353 3.38232 3.42785 3.38232 4.4235V26.1671L11.2216 33.6632H20.4176V2.61353Z" fill="#575757"/>
<path opacity="0.94" d="M20.4352 2.67871H5.3507C4.32308 2.67871 3.45654 3.4898 3.45654 4.48059V26.1283L11.2449 33.5912H20.4352V2.67871Z" fill="#5A5A5A"/>
<path opacity="0.97" d="M20.4527 2.74426H5.4059C4.38192 2.74426 3.53076 3.55171 3.53076 4.53845V26.0902L11.2677 33.5199H20.4523V2.74426H20.4527Z" fill="#5C5C5C"/>
<path d="M20.4704 2.80945H5.46118C4.44044 2.80945 3.60547 3.61325 3.60547 4.59554V26.0514L11.2914 33.4479H20.4708V2.80945H20.4704Z" fill="#5E5E5E"/>
</g>
<path d="M20.0375 1.19049H3.93953C2.8431 1.19049 1.9458 2.08779 1.9458 3.18422V33.3969C1.9458 34.4933 2.8431 35.3906 3.93953 35.3906H26.3003C27.3968 35.3906 28.2941 34.4933 28.2941 33.3969V9.44709L20.0375 1.19049Z" fill="#F5F5F4"/>
<path d="M20.0376 7.45336C20.0376 8.54979 20.9349 9.44709 22.0313 9.44709H28.2942L20.0376 1.19049V7.45336Z" fill="#EAEAEA"/>
<path d="M0.703456 20.3467H17.555C19.267 20.3467 20.6569 21.7365 20.6569 23.4486V27.3632C20.6569 29.0752 19.267 30.4651 17.555 30.4651H0.703456C0.435521 30.4651 0.217773 30.2473 0.217773 29.9794V20.8324C0.217773 20.5644 0.435521 20.3467 0.703456 20.3467Z" fill="#047EC5"/>
<path d="M7.69792 25.4431C7.69792 25.6726 7.6704 25.8907 7.61576 26.0971C7.56072 26.3039 7.4826 26.4966 7.38101 26.6751C7.27943 26.8536 7.15801 27.0155 7.01675 27.1604C6.8755 27.3053 6.71887 27.4287 6.54726 27.5303C6.37565 27.6319 6.19028 27.7104 5.99115 27.7659C5.79202 27.8209 5.58561 27.8488 5.37231 27.8488H3.86953C3.8331 27.8488 3.80032 27.8403 3.77199 27.8229C3.74366 27.8055 3.72949 27.7687 3.72949 27.7124V23.1774C3.72949 23.132 3.74123 23.0952 3.7647 23.0669C3.78818 23.0389 3.82299 23.0248 3.86994 23.0248H5.37272C5.58601 23.0248 5.79162 23.0531 5.98994 23.109C6.18826 23.1652 6.37282 23.2454 6.54483 23.3494C6.71644 23.4534 6.87348 23.5777 7.01554 23.7225C7.1576 23.8674 7.27902 24.0297 7.3798 24.2094C7.48058 24.3891 7.55869 24.5826 7.61455 24.7906C7.6704 24.9983 7.69833 25.216 7.69833 25.4431H7.69792ZM4.9093 24.19V26.6864H5.16549C5.21204 26.6864 5.25777 26.6848 5.3027 26.6816C5.34722 26.6783 5.39214 26.6747 5.43667 26.6702C5.58925 26.6573 5.73131 26.6176 5.86326 26.5516C5.9952 26.4857 6.11055 26.3991 6.20931 26.2918C6.30766 26.1845 6.38496 26.0587 6.44081 25.9138C6.49667 25.7689 6.52459 25.6106 6.52459 25.4398C6.52459 25.2581 6.49262 25.091 6.42867 24.9384C6.36472 24.7858 6.27771 24.6538 6.16802 24.5421C6.05834 24.4308 5.92963 24.3442 5.78231 24.2823C5.63499 24.2208 5.47795 24.1896 5.3116 24.1896H4.9093V24.19Z" fill="#F5F5F4"/>
<path d="M8.2832 25.4431C8.2832 25.2136 8.31073 24.9934 8.36536 24.7825C8.42041 24.5717 8.49852 24.3733 8.60011 24.1884C8.7017 24.0034 8.82312 23.835 8.96437 23.6837C9.10563 23.5323 9.26266 23.4028 9.43548 23.2959C9.60831 23.1887 9.79368 23.1053 9.992 23.0458C10.1903 22.9863 10.3971 22.9564 10.6129 22.9564C10.8286 22.9564 11.0326 22.9863 11.2321 23.0458C11.4312 23.1053 11.6174 23.1887 11.7902 23.2959C11.9631 23.4032 12.1205 23.5323 12.263 23.6837C12.4054 23.835 12.5269 24.0034 12.6272 24.1884C12.728 24.3733 12.8061 24.5713 12.862 24.7825C12.9178 24.9934 12.9458 25.214 12.9458 25.4431C12.9458 25.6721 12.9178 25.8927 12.862 26.1036C12.8061 26.3144 12.7276 26.5116 12.6272 26.6945C12.5264 26.8774 12.405 27.0442 12.263 27.1943C12.1205 27.3449 11.9631 27.474 11.7902 27.5821C11.6174 27.6901 11.4312 27.7735 11.2321 27.8322C11.033 27.8905 10.8266 27.92 10.6129 27.92C10.3992 27.92 10.1903 27.8909 9.992 27.8322C9.79368 27.7739 9.60831 27.6905 9.43548 27.5821C9.26266 27.474 9.10563 27.3445 8.96437 27.1943C8.82312 27.0438 8.7017 26.8774 8.60011 26.6945C8.49852 26.5116 8.42 26.3149 8.36536 26.1036C8.31032 25.8927 8.2832 25.6725 8.2832 25.4431ZM9.4626 25.4398C9.4626 25.6195 9.49093 25.7871 9.5476 25.9429C9.60426 26.0987 9.68399 26.2347 9.78639 26.3505C9.88879 26.4662 10.0102 26.5573 10.1502 26.6233C10.2903 26.6892 10.4445 26.7224 10.6129 26.7224C10.7812 26.7224 10.9358 26.6896 11.0771 26.6233C11.2179 26.5573 11.3398 26.4662 11.4422 26.3505C11.5446 26.2347 11.6243 26.0987 11.681 25.9429C11.7376 25.7871 11.7664 25.6195 11.7664 25.4398C11.7664 25.2601 11.738 25.0954 11.681 24.9383C11.6243 24.7813 11.5446 24.6445 11.4422 24.5275C11.3398 24.4106 11.2179 24.3187 11.0771 24.2515C10.9358 24.1843 10.7812 24.1507 10.6129 24.1507C10.4445 24.1507 10.2903 24.1843 10.1502 24.2515C10.0102 24.3187 9.88879 24.4106 9.78639 24.5275C9.68399 24.6445 9.60426 24.7813 9.5476 24.9383C9.49093 25.0954 9.4626 25.2625 9.4626 25.4398Z" fill="#F5F5F4"/>
<path d="M17.1433 23.3785C17.1777 23.4004 17.2032 23.4283 17.2194 23.4631C17.2356 23.4979 17.2328 23.5388 17.2101 23.5865L16.6949 24.3657C16.6726 24.4025 16.6488 24.4235 16.6233 24.4288C16.5978 24.4341 16.567 24.4252 16.5302 24.4013C16.4306 24.3211 16.3209 24.2596 16.2011 24.2163C16.0813 24.173 15.9542 24.1515 15.8203 24.1515C15.6535 24.1515 15.5001 24.1851 15.3601 24.2523C15.22 24.3195 15.099 24.4114 14.9974 24.5284C14.8958 24.6453 14.8165 24.7817 14.7599 24.9375C14.7028 25.0934 14.6745 25.2601 14.6745 25.4374C14.6745 25.6147 14.7028 25.781 14.7599 25.9356C14.8165 26.0902 14.8958 26.2258 14.9974 26.3416C15.099 26.4573 15.22 26.5488 15.3601 26.616C15.5001 26.6832 15.6535 26.7168 15.8203 26.7168C15.9542 26.7168 16.0825 26.6945 16.2044 26.6504C16.3262 26.6059 16.4371 26.5439 16.5366 26.4638C16.5731 26.4399 16.6038 26.4302 16.6281 26.4347C16.6524 26.4391 16.6771 26.4585 16.7014 26.4929L17.2227 27.2915C17.2449 27.3392 17.2482 27.3793 17.232 27.4117C17.2158 27.4441 17.1903 27.4712 17.1559 27.4926C16.9648 27.629 16.7592 27.7347 16.5387 27.8091C16.3181 27.8836 16.0862 27.9213 15.8421 27.9213C15.6268 27.9213 15.42 27.8921 15.2217 27.8334C15.0237 27.7751 14.838 27.6918 14.6655 27.5833C14.4927 27.4752 14.3357 27.3457 14.1948 27.1956C14.0536 27.045 13.9322 26.8787 13.8306 26.6957C13.729 26.5128 13.6509 26.3161 13.5958 26.1048C13.5408 25.8939 13.5137 25.6738 13.5137 25.4443C13.5137 25.2148 13.5412 24.9946 13.5958 24.7837C13.6509 24.5729 13.729 24.3746 13.8306 24.1896C13.9322 24.0046 14.0536 23.8363 14.1948 23.6849C14.3361 23.5335 14.4931 23.404 14.6655 23.2972C14.8384 23.1899 15.0237 23.1065 15.2217 23.047C15.42 22.9875 15.6264 22.9576 15.8421 22.9576C16.0858 22.9576 16.3161 22.994 16.5326 23.0665C16.7491 23.1389 16.9527 23.2433 17.1437 23.3797L17.1433 23.3785Z" fill="#F5F5F4"/>
<path d="M24.8195 12.1993H5.59457C5.32633 12.1993 5.10889 12.4167 5.10889 12.685V13.1706C5.10889 13.4389 5.32633 13.6563 5.59457 13.6563H24.8195C25.0877 13.6563 25.3052 13.4389 25.3052 13.1706V12.685C25.3052 12.4167 25.0877 12.1993 24.8195 12.1993Z" fill="#DDDDDD"/>
<path d="M24.8195 15.4777H5.59457C5.32633 15.4777 5.10889 15.6951 5.10889 15.9633V16.449C5.10889 16.7173 5.32633 16.9347 5.59457 16.9347H24.8195C25.0877 16.9347 25.3052 16.7173 25.3052 16.449V15.9633C25.3052 15.6951 25.0877 15.4777 24.8195 15.4777Z" fill="#DDDDDD"/>
</svg>
