<svg width="30" height="30" viewBox="0 0 30 30" fill="none" xmlns="http://www.w3.org/2000/svg">
<circle cx="15" cy="15" r="14.5" fill="#070B29" stroke="#B9E300"/>
<circle cx="15" cy="15" r="12" fill="#B9E300"/>
<path d="M17.1667 18.1667H9.5V21.1667H17.1667V18.1667Z" fill="#040726"/>
<path fill-rule="evenodd" clip-rule="evenodd" d="M9.5 10.8333C9.5 9.72876 10.3954 8.83333 11.5 8.83333H15.1667C16.2712 8.83333 17.1667 9.72876 17.1667 10.8333V17.5H9.5V10.8333ZM14.0778 11.7846C14.2349 11.5576 14.1783 11.2461 13.9513 11.0889C13.7242 10.9317 13.4128 10.9884 13.2556 11.2154L11.7556 13.3821C11.6497 13.535 11.6375 13.734 11.7238 13.8987C11.8101 14.0634 11.9807 14.1667 12.1667 14.1667H13.4449L12.613 15.1834C12.4382 15.3971 12.4697 15.7121 12.6834 15.887C12.8971 16.0618 13.2121 16.0303 13.387 15.8166L14.887 13.9833C15.0093 13.8338 15.0346 13.6271 14.9518 13.4526C14.8691 13.278 14.6932 13.1667 14.5 13.1667H13.121L14.0778 11.7846Z" fill="#040726"/>
<path fill-rule="evenodd" clip-rule="evenodd" d="M8.33301 21.1667C8.33301 20.8905 8.55687 20.6667 8.83301 20.6667H17.833C18.1091 20.6667 18.333 20.8905 18.333 21.1667C18.333 21.4428 18.1091 21.6667 17.833 21.6667H8.83301C8.55687 21.6667 8.33301 21.4428 8.33301 21.1667Z" fill="#040726"/>
<path d="M17.167 15.9436V14.8333C17.2662 14.8332 17.3664 14.8625 17.4538 14.9237L18.6891 15.7885C19.2415 16.1751 20.0004 15.78 20.0004 15.1058V11.6667C20.0004 11.3905 20.2242 11.1667 20.5004 11.1667C20.7765 11.1667 21.0004 11.3905 21.0004 11.6667V15.1058C21.0004 16.589 19.3308 17.4583 18.1157 16.6077L17.167 15.9436Z" fill="#040726"/>
<path fill-rule="evenodd" clip-rule="evenodd" d="M19.667 9.5C19.667 9.22386 19.8908 9 20.167 9C20.9954 9 21.667 9.67157 21.667 10.5C21.667 11.3284 20.9954 12 20.167 12C19.3386 12 18.667 11.3284 18.667 10.5C18.667 10.2239 18.8908 10 19.167 10C19.4431 10 19.667 10.2239 19.667 10.5C19.667 10.7761 19.8908 11 20.167 11C20.4431 11 20.667 10.7761 20.667 10.5C20.667 10.2239 20.4431 10 20.167 10C19.8908 10 19.667 9.77614 19.667 9.5Z" fill="#040726"/>
</svg>
