<svg width="170" height="130" viewBox="0 0 170 130" fill="none" xmlns="http://www.w3.org/2000/svg">
<path d="M69.5059 110.941C94.3878 110.941 114.559 90.823 114.559 66.0065C114.559 41.1901 94.3878 21.0724 69.5059 21.0724C44.624 21.0724 24.4532 41.1901 24.4532 66.0065C24.4532 90.823 44.624 110.941 69.5059 110.941Z" fill="#499AF2"/>
<path d="M114.559 70.4205C114.559 70.4205 112.24 69.0591 111.407 69.0591C110.575 69.0591 108.314 67.6355 107.125 66.9234C105.935 66.2112 104.924 66.9234 104.864 66.9234C104.804 66.9234 104.745 67.672 106.113 68.5138C107.482 69.3557 108.17 69.5928 109.699 70.8387C111.229 72.0846 113.132 73.1521 113.251 73.3305C113.37 73.5082 113.79 74.3176 113.79 74.3176C113.79 74.3176 114.638 72.1501 114.559 70.4212L114.559 70.4205Z" fill="#B8D14E"/>
<path d="M112.075 67.7713C112.075 67.7713 109.887 66.9714 109.702 66.6065C109.518 66.2417 106.143 63.9972 106.143 63.9972C106.143 63.9972 102.666 62.875 101.95 60.121C101.234 57.3671 100.518 57.9793 100.722 55.8368C100.927 53.695 101.879 53.593 100.687 52.9809C99.4955 52.3687 100.722 52.9809 98.8818 51.7566C97.0412 50.5324 96.0183 49.9209 96.0183 49.9209L95.0977 48.6966H85.5867C85.5867 48.6966 82.8255 49.6148 82.2118 50.8384C81.598 52.0627 81.1889 52.2667 81.0866 54.2045C80.9843 56.1422 81.8026 55.9382 81.0866 57.6725C80.3705 59.4062 80.2682 59.6103 80.166 62.2628C80.0637 64.9147 80.2682 64.3026 78.53 65.5268C76.7917 66.7511 76.2803 66.8531 75.8711 67.7706C75.4619 68.6882 75.2574 73.1764 74.9505 73.7886C74.6436 74.4007 74.439 73.7886 73.3145 75.0128C72.1893 76.2371 69.8373 75.625 70.6556 75.0128C71.4739 74.4007 71.6785 74.8088 72.4962 72.9731C73.3145 71.1374 74.1321 71.2394 73.0076 68.8929C71.8824 66.5471 72.2916 68.6888 70.9625 64.7107C69.6327 60.7325 68.6633 59.5089 69.506 58.5907C70.3487 57.6725 70.6556 54.3065 70.3487 53.389C70.0419 52.4708 68.7128 51.1452 68.099 50.533C67.4853 49.9209 61.965 43.5753 63.7005 41.4369C65.4361 39.2985 67.7244 37.0581 63.3645 36.8547C59.0039 36.6513 58.4938 35.5311 56.0436 37.2621C53.5934 38.9931 49.3053 38.8911 48.9991 38.6877C48.6929 38.4843 47.8759 38.5857 47.7736 36.9567C47.6713 35.3277 48.1821 33.1893 47.059 32.8833C45.9358 32.5779 44.8126 33.9015 45.0172 32.0685C45.2211 30.2354 45.4257 29.0139 46.7528 29.0139C48.0798 29.0139 50.0362 25.4735 50.0362 25.4735C50.0362 25.4735 68.4072 16.1416 87.7165 24.8945C87.7165 24.8945 94.6445 27.5707 99.272 32.2759C99.272 32.2759 100.958 34.2913 98.8926 36.6088C96.8272 38.9262 95.536 38.7978 95.2779 39.8275C95.0198 40.8579 93.9867 40.8579 95.0198 42.7888C96.0529 44.7205 96.1816 44.4631 97.3434 45.6218C98.5051 46.7805 97.8596 46.0083 99.1507 47.5535C100.442 49.0986 102.12 49.8709 102.637 50.6438C103.154 51.4168 103.153 51.5451 103.54 53.2194C103.928 54.8936 104.333 54.3781 104.84 55.5368C105.348 56.6955 103.946 55.9233 104.84 57.8543C105.735 59.7859 103.799 57.8543 105.735 59.7859C107.672 61.7176 106.381 60.8163 107.672 61.7176C108.963 62.6189 108.576 62.3615 110.512 63.6492C112.449 64.937 112.191 63.3918 112.449 64.937C112.707 66.4822 112.076 67.7706 112.076 67.7706L112.075 67.7713Z" fill="#B8D14E"/>
<path d="M113.952 58.6143C113.952 58.6143 113.089 58.3704 112.51 56.8252C111.931 55.2801 111.544 54.6362 111.544 53.9923C111.544 53.3484 109.667 50.7735 109.701 50.258C109.737 49.7432 110.316 46.9481 110.316 46.9481C110.316 46.9481 113.361 52.4295 113.952 58.6143H113.952Z" fill="#B8D14E"/>
<path d="M40.5522 31.58C40.5522 31.58 40.8253 33.7765 40.5522 35.5797C40.2792 37.383 40.9248 36.4811 40.0212 39.4424C39.1175 42.4037 37.9557 42.9192 37.5682 43.6915C37.1807 44.4637 35.2446 47.1264 35.6315 48.4352C36.0189 49.7439 33.4366 48.4561 37.3101 51.2891C41.1836 54.122 41.3123 53.0917 42.6035 55.5382C43.8947 57.9847 44.1528 58.1137 44.1528 59.5299C44.1528 60.946 43.5072 60.6886 43.1197 61.8473C42.7322 63.006 41.8285 61.2034 42.6035 64.1647C43.3778 67.1261 47.7675 70.6029 48.9293 72.1481C50.091 73.6933 50.866 71.0772 50.091 74.3169C49.3167 77.5566 50.9947 77.685 48.5418 78.0715C46.0888 78.4579 42.9903 78.0715 41.0535 77.2992C39.1168 76.5269 37.7538 74.3379 35.143 74.9818C32.5322 75.6256 32.6616 74.1419 31.4999 75.7209C30.3381 77.2999 30.08 76.5729 29.9506 78.2235C29.8212 79.8747 29.305 79.7457 29.9506 82.3212C30.5962 84.8968 28.9175 83.7374 30.9837 86.0555C33.0491 88.373 32.4035 88.3729 35.6315 89.5323C38.8587 90.6911 39.3756 89.2749 41.1829 91.2066C42.9903 93.1382 42.8616 92.4944 42.9903 93.9105C43.119 95.3266 40.9248 95.3266 46.0888 98.0312C51.2528 100.736 50.6072 100.22 54.3513 100.864C58.0955 101.508 57.1918 101.765 60.419 100.864C63.6469 99.9629 64.2919 98.9325 67.0036 99.319C69.7146 99.7055 72.0389 99.3271 71.2639 101.447C70.4896 103.568 71.1345 103.826 68.9403 104.598C66.7455 105.37 68.166 106.014 63.5182 105.499C58.8704 104.984 57.9668 103.954 56.2888 104.727C54.6101 105.499 50.5246 106.771 50.5246 106.771C50.5246 106.771 35.8604 102.771 28.0646 83.6617C20.2689 64.5526 25.5914 42.9692 40.5529 31.5813L40.5522 31.58Z" fill="#B8D14E"/>
<path d="M25.6875 76.8789C25.6875 76.8789 29.0346 71.6745 35.1436 74.9811C35.1436 74.9811 41.0602 67.4179 48.9292 72.1481C48.9292 72.1481 56.7981 69.3564 61.748 76.8783C61.748 76.8783 71.4115 67.5092 80.3677 75.7195C80.3677 75.7195 85.7884 65.01 97.1014 70.5914C108.414 76.1729 102.758 86.5156 102.758 86.5156C102.758 86.5156 110.771 80.6389 115.721 86.5156C115.721 86.5156 118.785 77.1127 129.862 78.7586C129.862 78.7586 125.855 69.0273 132.455 66.6058C139.054 64.1843 141.882 58.5373 136.932 52.7809C131.983 47.0244 129.337 45.415 131.571 39.4282C133.804 33.4407 133.246 24.1121 123.613 22.5804C113.98 21.0487 113.832 20.7704 112.51 13.112C111.188 5.45359 103.762 8.91963 102.646 9.05881L98.5043 7.36836C98.5043 7.36836 108.836 -3.87566 111.827 1.41596C114.819 6.7069 114.26 7.96022 118.588 7.96022C122.916 7.96022 128.5 7.26431 128.221 13.112C127.942 18.9596 126.825 21.5129 132.549 21.0717C138.272 20.6305 148.185 19.5164 147.068 28.8456C145.951 38.1749 152.07 39.8119 158.793 41.8612C165.516 43.9104 175.6 57.6928 166.076 64.7708C166.076 64.7708 174.666 76.1324 162.901 82.0929C162.901 82.0929 167.383 91.9646 156.739 95.8759C146.095 99.7872 143.853 98.6643 140.492 106.769C137.13 114.874 133.955 123.442 117.335 117.855C117.335 117.855 118.678 125.305 104.841 128.844C91.0032 132.383 79.9856 119.904 79.9856 119.904C79.9856 119.904 73.8231 132.715 57.5758 129.476C41.3285 126.237 41.8887 112.268 41.8887 112.268C41.8887 112.268 34.6058 116.365 31.2444 109.287C31.2444 109.287 21.9068 114.13 22.0938 104.817C22.0938 104.817 2.77977 102.936 6.27052 84.9495C6.27052 84.9495 0.0646567 76.0526 8.01556 71.4103C8.01556 71.4103 20.6712 64.7478 25.6875 76.8789Z" fill="#A5AFB7"/>
<path d="M88.9478 27.595L92.1201 28.8902L95.2932 30.1847L95.9598 28.4098L89.72 25.8633L88.9478 27.595Z" fill="#D3C8BE"/>
<path d="M92.9575 18.6022L98.7542 20.9683L99.851 18.0475L94.2277 15.7531L92.9575 18.6022Z" fill="#D3C8BE"/>
<path d="M90.7036 23.6574L96.8085 26.1491L97.9053 23.229L91.9738 20.8082L90.7036 23.6574Z" fill="#D3C8BE"/>
<path d="M103.15 9.26488L100.6 8.22371L98.0483 7.18323L97.4651 8.49194L102.646 10.606L103.15 9.26488Z" fill="#D3C8BE"/>
<path d="M96.4813 10.6972L95.2112 13.5471L100.7 15.7875L101.797 12.8667L96.4813 10.6972Z" fill="#D3C8BE"/>
<path d="M102.646 10.606L97.4651 8.49194L96.4814 10.6972L101.797 12.8667L102.646 10.606Z" fill="#DD5843"/>
<path d="M94.2275 15.7531L99.8508 18.0475L100.7 15.7875L95.2112 13.5471L94.2275 15.7531Z" fill="#DD5843"/>
<path d="M91.9739 20.8082L97.9054 23.229L98.7542 20.9683L92.9575 18.6022L91.9739 20.8082Z" fill="#DD5843"/>
<path d="M89.72 25.8633L95.9597 28.4098L96.8085 26.1491L90.7036 23.6574L89.72 25.8633Z" fill="#DD5843"/>
<path d="M102.646 9.05945C102.646 9.05945 108.957 6.76498 110.861 9.49659C112.764 12.2282 112.189 15.7321 114.098 19.1251C116.007 22.5182 124.509 22.027 126.343 23.304C126.343 23.304 122.378 22.7655 119.445 20.3447C116.512 17.9239 116.58 17.0827 116.546 14.4605C116.512 11.8384 114.65 7.98586 109.66 6.60012C104.758 5.23938 100.599 8.22436 100.599 8.22436L102.646 9.05945H102.646Z" fill="#778893"/>
<path d="M4.88791 74.4061C4.88791 74.4061 1.78058 78.4228 6.26985 84.9481C6.26985 84.9481 0.986636 100.965 22.0931 104.816C22.0931 104.816 21.142 113.787 31.2437 109.286C31.2437 109.286 33.904 116.696 41.8881 112.266C41.8881 112.266 41.0379 126.471 57.5751 129.475C74.1124 132.479 79.9849 119.902 79.9849 119.902C79.9849 119.902 91.4889 132.7 104.84 128.842C118.192 124.985 117.311 119.737 117.334 117.853C117.334 117.853 132.77 126.022 138.692 110.939C138.692 110.939 132.655 123.32 115.689 113.333C115.689 113.333 113.324 123.32 99.9737 121.656C86.623 119.991 83.5631 106.768 83.5631 106.768C83.5631 106.768 83.1458 117.356 91.073 122.488C91.073 122.488 82.0335 121.239 76.6094 112.918C76.6094 112.918 74.6624 126.511 58.6692 125.124C42.6759 123.737 43.5105 107.925 43.5105 107.925C43.5105 107.925 36.974 116.524 31.9679 105.012C31.9679 105.012 25.0731 112.269 23.8923 100.89C23.8923 100.89 9.86087 103.375 8.81222 89.2499L7.23857 91.2119C7.23857 91.2119 5.92708 86.6345 9.73013 82.58C9.73013 82.58 4.8974 83.1043 4.88791 74.4061Z" fill="#778893"/>
<path d="M44.8965 100.64C43.7807 92.9207 46.2906 90.1661 54.9623 93.2902C54.9623 93.2902 55.2556 87.1683 60.5009 86.6453C65.7462 86.1224 68.1063 89.3918 68.1063 89.3918C68.1063 89.3918 66.1099 82.3374 58.68 83.0786C52.3881 83.7063 51.8461 90.4384 51.8461 90.4384C49.4277 88.4169 39.8619 89.4114 44.8958 100.64H44.8965Z" fill="#778893"/>
<path d="M130.432 100.572C130.432 100.572 127.967 92.8619 137.377 90.1803C146.788 87.4987 146.9 80.2355 146.9 80.2355C146.9 80.2355 154.07 81.2409 155.19 76.5485C156.311 71.8555 153.286 69.1746 153.286 69.1746C153.286 69.1746 158.999 71.3313 158.663 66.0065C158.663 66.0065 160.232 68.5037 156.871 71.5204C156.871 71.5204 159.224 76.9952 155.526 80.2355C151.83 83.4759 148.244 83.2887 148.244 83.2887C148.244 83.2887 147.572 89.9566 141.522 91.6322C135.473 93.3085 132.111 94.7611 130.431 100.571L130.432 100.572Z" fill="#778893"/>
<path d="M133.993 27.0349C133.993 27.0349 137.349 30.6935 135.866 35.1304C134.383 39.5674 135.432 44.7049 138.693 46.5731C141.953 48.4412 143.124 49.6087 143.124 49.6087C143.124 49.6087 140.583 48.4412 138.693 49.1419C138.693 49.1419 144.841 48.5189 145.466 55.7584C145.466 55.7584 147.651 50.9323 143.748 47.5075C139.846 44.0827 137.349 45.5617 136.724 40.8132C136.099 36.0648 139.378 31.784 133.993 27.0356V27.0349Z" fill="#778893"/>
<path d="M3.19375 49.3425C3.55007 49.5743 3.36039 53.5889 8.53726 53.0896C8.53726 53.0896 9.12187 55.5044 12.7115 56.0037C16.3012 56.5029 19.0563 52.0903 19.0563 52.0903C19.0563 52.0903 21.5282 52.6025 23.2814 49.2635C25.0345 45.9244 22.312 42.1814 19.0563 41.099C15.8006 40.0166 17.4698 36.8526 15.4666 35.3534C13.4628 33.8548 9.45584 33.6879 8.95455 37.5181C8.45393 41.3483 6.65538 41.4314 3.96466 41.2652C1.27393 41.099 -0.64656 46.844 3.19443 49.3425H3.19375Z" fill="#A5AFB7"/>
<path d="M1.03273 45.2042C1.03273 45.2042 0.41763 47.5413 3.19371 49.3425C3.19371 49.3425 3.61303 53.9585 8.53722 53.0896C8.53722 53.0896 9.24445 55.7564 12.7115 56.0037C16.1785 56.2516 18.2413 53.5234 19.0562 52.0904C19.0562 52.0904 21.0824 53.1862 23.2813 49.2635C23.2813 49.2635 22.1006 51.8525 18.3029 50.6121C18.3029 50.6121 17.5016 54.549 13.2859 54.3058C9.07035 54.0625 8.44306 51.4566 8.44306 51.4566C8.44306 51.4566 6.73595 52.7423 5.23749 51.4911C3.73971 50.2404 3.77426 48.4682 3.77426 48.4682C3.77426 48.4682 1.84293 48.5081 1.03205 45.2042H1.03273Z" fill="#778893"/>
<path d="M11.4969 48.2682C11.4969 48.2682 11.5742 46.9616 13.0001 46.2697C14.4261 45.5778 15.8135 47.0001 15.8135 47.0001C15.8135 47.0001 15.5053 44.5786 17.8559 44.3482C17.8559 44.3482 16.4299 43.7719 15.1198 45.5015C15.1198 45.5015 11.6128 44.4637 11.4976 48.2689L11.4969 48.2682Z" fill="#778893"/>
<path d="M129.862 78.7592C129.862 78.7592 122.608 77.5931 119.46 84.4805L116.312 91.3674C116.312 91.3674 115.354 87.1716 110.398 86.7912C105.442 86.4108 100.042 89.5303 100.042 89.5303C100.042 89.5303 104.466 83.511 102.599 75.1817C102.599 75.1817 106.337 79.6551 102.758 86.5156C102.758 86.5156 111.31 80.3436 115.721 86.5156C115.721 86.5156 118.842 76.5985 129.862 78.7585V78.7592Z" fill="#778893"/>
<path d="M119.567 103.129C118.133 104.962 115.196 104.842 114.297 102.553C113.473 100.457 115.293 98.1246 117.566 98.5109C118.885 98.7351 119.449 96.721 118.12 96.495C114.391 95.8607 110.919 99.3623 112.274 103.095C112.897 104.812 114.298 106.151 116.14 106.443C117.953 106.73 119.911 106.059 121.055 104.597C121.405 104.148 121.478 103.554 121.048 103.119C120.686 102.754 119.914 102.684 119.567 103.128L119.567 103.129Z" fill="white"/>
<path d="M128.657 95.0309C127.103 93.2834 124.336 92.6952 122.298 93.9283C122.172 94.0047 122.074 94.0947 121.998 94.1927C121.889 94.238 121.781 94.3039 121.679 94.395C118.754 97.0058 120.331 102.539 124.322 102.913C126.196 103.088 128.027 102.028 129.062 100.51C130.232 98.7926 130.021 96.5654 128.657 95.0308L128.657 95.0309ZM126.127 100.45C124.892 101.144 123.429 100.885 122.699 99.6273C122.001 98.4245 122.104 96.813 123.167 95.8642C123.193 95.8409 123.216 95.8167 123.239 95.7926C123.278 95.7745 123.318 95.754 123.357 95.7298C124.726 94.9016 126.645 95.5329 127.437 96.8815C128.231 98.2344 127.376 99.7484 126.127 100.45L126.127 100.45Z" fill="white"/>
<path d="M135.49 99.8C134.449 99.9649 133.446 100.26 132.487 100.671C132.905 100.202 133.513 99.8248 133.881 99.3807C134.376 98.7845 134.632 97.9797 134.333 97.2324C134.061 96.5501 133.33 96.1609 132.61 96.3652C131.786 96.5993 131.237 97.4473 130.902 98.176C130.623 98.783 131.527 99.31 131.808 98.6977C132.002 98.2756 132.424 97.358 132.993 97.3696C133.412 97.378 133.462 97.8619 133.38 98.181C133.291 98.5275 133.014 98.8026 132.761 99.0387C131.936 99.8104 130.968 100.482 130.981 101.73C130.984 102.132 131.418 102.38 131.769 102.184C133.018 101.484 134.346 101.033 135.761 100.809C136.425 100.704 136.15 99.6961 135.49 99.8004L135.49 99.8Z" fill="white"/>
</svg>
