<svg width="27" height="24" viewBox="0 0 27 24" fill="none" xmlns="http://www.w3.org/2000/svg">
<path d="M25.3306 21.717C25.3306 19.4389 23.1466 17.5007 20.0983 16.7824M17.4821 21.7171C17.4821 18.8274 13.9682 16.4848 9.63363 16.4848C5.29904 16.4848 1.78516 18.8274 1.78516 21.7171M17.4821 12.5606C20.3718 12.5606 22.7144 10.218 22.7144 7.32826C22.7144 4.43853 20.3718 2.09595 17.4821 2.09595M9.63363 12.5606C6.7439 12.5606 4.40131 10.218 4.40131 7.32826C4.40131 4.43853 6.7439 2.09595 9.63363 2.09595C12.5234 2.09595 14.8659 4.43853 14.8659 7.32826C14.8659 10.218 12.5234 12.5606 9.63363 12.5606Z" stroke="#B9E300" stroke-width="3" stroke-linecap="round" stroke-linejoin="round"/>
</svg>
