<svg width="19" height="26" viewBox="0 0 19 26" fill="none" xmlns="http://www.w3.org/2000/svg">
<path d="M5.91126 23.9384H13.2572M9.58424 1.90051C5.52718 1.90051 2.23828 5.18941 2.23828 9.24648C2.23828 10.7334 2.68007 12.1172 3.43955 13.2736C4.60744 15.052 5.19088 15.9406 5.26668 16.0734C5.94099 17.2548 5.81683 16.8381 5.9017 18.1958C5.91124 18.3484 5.91126 18.5794 5.91126 19.0411C5.91126 19.7173 6.45941 20.2654 7.13559 20.2654L12.0329 20.2654C12.7091 20.2654 13.2572 19.7173 13.2572 19.0411C13.2572 18.5794 13.2572 18.3484 13.2668 18.1958C13.3516 16.8381 13.2268 17.2548 13.9011 16.0734C13.9769 15.9406 14.5613 15.052 15.7292 13.2736C16.4887 12.1172 16.9305 10.7334 16.9305 9.24648C16.9305 5.18941 13.6413 1.90051 9.58424 1.90051Z" stroke="#E35F00" stroke-width="3" stroke-linecap="round" stroke-linejoin="round"/>
</svg>
