<svg width="43" height="42" viewBox="0 0 43 42" fill="none" xmlns="http://www.w3.org/2000/svg">
<path d="M21.2801 41.9224C32.7599 41.9224 42.066 32.6162 42.066 21.1364C42.066 9.65665 32.7599 0.350464 21.2801 0.350464C9.80033 0.350464 0.494141 9.65665 0.494141 21.1364C0.494141 32.6162 9.80033 41.9224 21.2801 41.9224Z" fill="#5B68C0"/>
<path fill-rule="evenodd" clip-rule="evenodd" d="M24.0793 12.1322C24.0793 12.1322 20.994 11.9307 20.203 14.8654C20.203 14.8654 19.9166 15.6353 19.9559 17.5318L17.1229 17.54V20.0209L19.9559 20.0127V30.1438H23.5671V20.0209L26.4312 20.0209V17.5318L23.5671 17.5318V16.1798C23.5671 15.3033 24.054 14.465 25.4783 14.465H26.823V12.1322H24.0793Z" fill="white"/>
</svg>
