<svg width="16" height="16" viewBox="0 0 16 16" fill="none" xmlns="http://www.w3.org/2000/svg">
<path fill-rule="evenodd" clip-rule="evenodd" d="M5.83317 2.33255C4.63655 2.33255 3.6665 3.3026 3.6665 4.49922V11.4992C3.6665 12.6958 4.63655 13.6659 5.83317 13.6659H10.1665C11.3631 13.6659 12.3332 12.6958 12.3332 11.4992V5.42171C12.3332 5.38053 12.3179 5.34082 12.2904 5.31021L9.66014 2.38772C9.62854 2.3526 9.58351 2.33255 9.53626 2.33255H5.83317ZM2.6665 4.49922C2.6665 2.75032 4.08427 1.33255 5.83317 1.33255H9.53626C9.867 1.33255 10.1822 1.47293 10.4034 1.71876L13.0337 4.64125C13.2265 4.85548 13.3332 5.13349 13.3332 5.42171V11.4992C13.3332 13.2481 11.9154 14.6659 10.1665 14.6659H5.83317C4.08427 14.6659 2.6665 13.2481 2.6665 11.4992V4.49922Z" fill="white"/>
<path fill-rule="evenodd" clip-rule="evenodd" d="M8.8335 1.33255C9.10964 1.33255 9.3335 1.55641 9.3335 1.83255V3.16588C9.3335 4.3625 10.3035 5.33255 11.5002 5.33255H12.8335C13.1096 5.33255 13.3335 5.55641 13.3335 5.83255C13.3335 6.10869 13.1096 6.33255 12.8335 6.33255H11.5002C9.75126 6.33255 8.3335 4.91478 8.3335 3.16588V1.83255C8.3335 1.55641 8.55735 1.33255 8.8335 1.33255Z" fill="white"/>
<path fill-rule="evenodd" clip-rule="evenodd" d="M5.1665 7.83255C5.1665 7.55641 5.39036 7.33255 5.6665 7.33255H10.3332C10.6093 7.33255 10.8332 7.55641 10.8332 7.83255C10.8332 8.10869 10.6093 8.33255 10.3332 8.33255H5.6665C5.39036 8.33255 5.1665 8.10869 5.1665 7.83255Z" fill="white"/>
<path fill-rule="evenodd" clip-rule="evenodd" d="M5.1665 9.83255C5.1665 9.55641 5.39036 9.33255 5.6665 9.33255H10.3332C10.6093 9.33255 10.8332 9.55641 10.8332 9.83255C10.8332 10.1087 10.6093 10.3326 10.3332 10.3326H5.6665C5.39036 10.3326 5.1665 10.1087 5.1665 9.83255Z" fill="white"/>
<path fill-rule="evenodd" clip-rule="evenodd" d="M5.1665 11.8326C5.1665 11.5564 5.39036 11.3326 5.6665 11.3326H7.6665C7.94265 11.3326 8.1665 11.5564 8.1665 11.8326C8.1665 12.1087 7.94265 12.3326 7.6665 12.3326H5.6665C5.39036 12.3326 5.1665 12.1087 5.1665 11.8326Z" fill="white"/>
</svg>
