<svg width="29" height="36" viewBox="0 0 29 36" fill="none" xmlns="http://www.w3.org/2000/svg">
<g style="mix-blend-mode:multiply">
<path opacity="0.03" d="M19.7001 0.619263H4.40366C3.31128 0.619263 2.41748 1.52482 2.41748 2.63117V33.122C2.41748 34.2288 3.31128 35.1339 4.40366 35.1339H26.3016C27.3939 35.1339 28.665 34.2284 28.665 33.122V8.9518L19.7001 0.619263Z" fill="#1B1B1B"/>
<path opacity="0.06" d="M19.6752 0.630768H4.40728C3.31841 0.630768 2.42773 1.53394 2.42773 2.63751V33.0502C2.42773 34.1538 3.31841 35.057 4.40728 35.057H26.2439C27.3328 35.057 28.5882 34.1538 28.5882 33.0502V8.94188L19.6752 0.630768Z" fill="#1D1D1D"/>
<path opacity="0.1" d="M19.6504 0.642273H4.4109C3.32594 0.642273 2.43799 1.54307 2.43799 2.64386V32.9788C2.43799 34.0796 3.32594 34.9804 4.4109 34.9804H26.1863C27.2713 34.9804 28.5115 34.0796 28.5115 32.9788V8.93235L19.6504 0.642273Z" fill="#202020"/>
<path opacity="0.13" d="M19.6253 0.653778H4.41355C3.33209 0.653778 2.44727 1.55219 2.44727 2.65021V32.907C2.44727 34.005 3.33209 34.9034 4.41355 34.9034H26.1281C27.2095 34.9034 28.4342 34.005 28.4342 32.907V8.92243L19.6253 0.653778Z" fill="#222222"/>
<path opacity="0.16" d="M19.6004 0.665283H4.41717C3.33922 0.665283 2.45752 1.56131 2.45752 2.65655V32.8355C2.45752 33.9308 3.33922 34.8268 4.41717 34.8268H26.0704C27.1484 34.8268 28.3574 33.9308 28.3574 32.8355V8.91251L19.6004 0.665283Z" fill="#242424"/>
<path opacity="0.19" d="M19.5756 0.676819H4.42079C3.34675 0.676819 2.46777 1.57047 2.46777 2.66293V32.7637C2.46777 33.8562 3.34675 34.7498 4.42079 34.7498H26.0128C27.0869 34.7498 28.2807 33.8562 28.2807 32.7637V8.90301L19.5756 0.676819Z" fill="#262626"/>
<path opacity="0.23" d="M19.5507 0.688324H4.42441C3.35388 0.688324 2.47803 1.57999 2.47803 2.66928V32.6919C2.47803 33.7816 3.35388 34.6728 4.42441 34.6728H25.9556C27.0261 34.6728 28.2043 33.7812 28.2043 32.6919V8.89309L19.5507 0.688324Z" fill="#292929"/>
<path opacity="0.26" d="M19.5258 0.699829H4.42794C3.36092 0.699829 2.48779 1.58911 2.48779 2.67562V32.6205C2.48779 33.7074 3.36092 34.5963 4.42794 34.5963H25.8979C26.9649 34.5963 28.1275 33.707 28.1275 32.6205V8.88316L19.5258 0.699829Z" fill="#2B2B2B"/>
<path opacity="0.29" d="M19.5009 0.711334H4.43156C3.36805 0.711334 2.49805 1.59824 2.49805 2.68197V32.5486C2.49805 33.6328 3.36805 34.5193 4.43156 34.5193H25.8406C26.9041 34.5193 28.0507 33.6324 28.0507 32.5486V8.87364L19.5009 0.711334Z" fill="#2D2D2D"/>
<path opacity="0.32" d="M19.476 0.722839H4.43469C3.37508 0.722839 2.50781 1.60736 2.50781 2.68832V32.4768C2.50781 33.5578 3.37508 34.4423 4.43469 34.4423H25.7825C26.8421 34.4423 27.9735 33.5578 27.9735 32.4768V8.86371L19.476 0.722839Z" fill="#2F2F2F"/>
<path opacity="0.35" d="M19.4511 0.734344H4.43831C3.38222 0.734344 2.51807 1.61649 2.51807 2.69466V32.4054C2.51807 33.4836 3.38222 34.3657 4.43831 34.3657H25.7249C26.781 34.3657 27.8967 33.4836 27.8967 32.4054V8.85379L19.4511 0.734344Z" fill="#313131"/>
<path opacity="0.39" d="M19.4262 0.74585H4.44193C3.38935 0.74585 2.52832 1.62561 2.52832 2.70101V32.3335C2.52832 33.4089 3.38935 34.2887 4.44193 34.2887H25.6676C26.7202 34.2887 27.8204 33.4089 27.8204 32.3335V8.84386L19.4262 0.74585Z" fill="#343434"/>
<path opacity="0.42" d="M19.4014 0.757355H4.44555C3.39648 0.757355 2.53857 1.63513 2.53857 2.70735V32.2617C2.53857 33.3343 3.39687 34.2117 4.44555 34.2117H25.61C26.6591 34.2117 27.7436 33.3339 27.7436 32.2617V8.83434L19.4014 0.757355Z" fill="#363636"/>
<path opacity="0.45" d="M19.3764 0.76886H4.44908C3.40391 0.76886 2.54834 1.64426 2.54834 2.7141V32.1907C2.54834 33.2605 3.40352 34.1359 4.44908 34.1359H25.5523C26.5974 34.1359 27.6668 33.2605 27.6668 32.1907V8.82442L19.3764 0.76886Z" fill="#383838"/>
<path opacity="0.48" d="M19.3515 0.780365H4.45221C3.41055 0.780365 2.55811 1.65338 2.55811 2.72044V32.1189C2.55811 33.1859 3.41055 34.0589 4.45221 34.0589H25.4945C26.5362 34.0589 27.59 33.1859 27.59 32.1189V8.81449L19.3515 0.780365Z" fill="#3A3A3A"/>
<path opacity="0.52" d="M19.3266 0.792267H4.45583C3.41768 0.792267 2.56836 1.6629 2.56836 2.72719V32.0478C2.56836 33.1121 3.41768 33.9827 4.45583 33.9827H25.4369C26.4751 33.9827 27.5132 33.1121 27.5132 32.0478V8.80497L19.3266 0.792267Z" fill="#3D3D3D"/>
<path opacity="0.55" d="M19.3018 0.803802H4.45946C3.42482 0.803802 2.57861 1.67206 2.57861 2.73356V31.976C2.57861 33.0371 3.42482 33.9058 4.45946 33.9058H25.3793C26.4139 33.9058 27.4365 33.0375 27.4365 31.976V8.79507L19.3018 0.803802Z" fill="#3F3F3F"/>
<path opacity="0.58" d="M19.2769 0.815308H4.46308C3.43234 0.815308 2.58887 1.68118 2.58887 2.73991V31.9042C2.58887 32.9625 3.43234 33.8288 4.46308 33.8288H25.322C26.3528 33.8288 27.3601 32.9629 27.3601 31.9042V8.78515L19.2769 0.815308Z" fill="#414141"/>
<path opacity="0.61" d="M19.252 0.826813H4.4667C3.43947 0.826813 2.59912 1.6903 2.59912 2.74626V31.8328C2.59912 32.8883 3.43947 33.7522 4.4667 33.7522H25.2644C26.2916 33.7522 27.283 32.8887 27.283 31.8328V8.77523L19.252 0.826813Z" fill="#434343"/>
<path opacity="0.65" d="M19.2266 0.838318H4.46973C3.44602 0.838318 2.6084 1.69983 2.6084 2.7526V31.7609C2.6084 32.8137 3.44602 33.6752 4.46973 33.6752H25.2062C26.2299 33.6752 27.2056 32.8137 27.2056 31.7609V8.7657L19.2266 0.838318Z" fill="#464646"/>
<path opacity="0.68" d="M19.2021 0.849823H4.47336C3.45315 0.849823 2.61865 1.70895 2.61865 2.75895V31.6891C2.61865 32.7391 3.45315 33.5982 4.47336 33.5982H25.149C26.1692 33.5982 27.1293 32.7391 27.1293 31.6891V8.75578L19.2021 0.849823Z" fill="#484848"/>
<path opacity="0.71" d="M19.1773 0.861328H4.47698C3.46067 0.861328 2.62891 1.71807 2.62891 2.7653V31.6177C2.62891 32.6649 3.46067 33.5216 4.47698 33.5216H25.0913C26.1076 33.5216 27.0525 32.6649 27.0525 31.6177V8.74585L19.1773 0.861328Z" fill="#4A4A4A"/>
<path opacity="0.74" d="M19.1524 0.872833H4.4806C3.46781 0.872833 2.63916 1.7272 2.63916 2.77164V31.5458C2.63916 32.5903 3.46781 33.4447 4.4806 33.4447H25.0341C26.0469 33.4447 26.9762 32.5903 26.9762 31.5458V8.73632L19.1524 0.872833Z" fill="#4C4C4C"/>
<path opacity="0.77" d="M19.1276 0.884338H4.48422C3.47494 0.884338 2.64941 1.73632 2.64941 2.77799V31.4744C2.64941 32.5157 3.47494 33.3681 4.48422 33.3681H24.9765C25.9857 33.3681 26.8994 32.5161 26.8994 31.4744V8.7264L19.1276 0.884338Z" fill="#4E4E4E"/>
<path opacity="0.81" d="M19.1022 0.895844H4.48735C3.48197 0.895844 2.65918 1.74545 2.65918 2.78434V31.4026C2.65918 32.4411 3.48197 33.2911 4.48735 33.2911H24.9183C25.9237 33.2911 26.8222 32.4415 26.8222 31.4026V8.71648L19.1022 0.895844Z" fill="#515151"/>
<path opacity="0.84" d="M19.0773 0.907349H4.49097C3.48911 0.907349 2.66943 1.75497 2.66943 2.79068V31.3308C2.66943 32.3665 3.48911 33.2141 4.49097 33.2141H24.8611C25.863 33.2141 26.7458 32.3665 26.7458 31.3308V8.70695L19.0773 0.907349Z" fill="#535353"/>
<path opacity="0.87" d="M19.0528 0.918854H4.4945C3.49614 0.918854 2.6792 1.76409 2.6792 2.79703V31.2593C2.6792 32.2923 3.49614 33.1375 4.4945 33.1375H24.8034C25.8017 33.1375 26.669 32.2923 26.669 31.2593V8.69703L19.0528 0.918854Z" fill="#555555"/>
<path opacity="0.9" d="M19.0279 0.930389H4.49812C3.50328 0.930389 2.68945 1.77325 2.68945 2.80341V31.1875C2.68945 32.2177 3.50328 33.0605 4.49812 33.0605H24.7457C25.7406 33.0605 26.5923 32.2177 26.5923 31.1875V8.68714L19.0279 0.930389Z" fill="#575757"/>
<path opacity="0.94" d="M19.0031 0.941895H4.50174C3.5108 0.941895 2.69971 1.78237 2.69971 2.80975V31.1157C2.69971 32.1431 3.5108 32.9836 4.50174 32.9836H24.6885C25.6794 32.9836 26.5155 32.1431 26.5155 31.1157V8.67721L19.0031 0.941895Z" fill="#5A5A5A"/>
<path opacity="0.97" d="M18.9777 0.9534H4.50487C3.51744 0.9534 2.70947 1.79149 2.70947 2.8161V31.0443C2.70947 32.0689 3.51744 32.907 4.50487 32.907H24.6304C25.6178 32.907 26.4383 32.0689 26.4383 31.0443V8.66768L18.9777 0.9534Z" fill="#5C5C5C"/>
<path d="M18.9529 0.964905H4.5085C3.52458 0.964905 2.71973 1.80062 2.71973 2.82244V30.9724C2.71973 31.9943 3.52458 32.83 4.5085 32.83H24.5728C25.5567 32.83 26.3615 31.9943 26.3615 30.9724V8.65776L18.9529 0.964905Z" fill="#5E5E5E"/>
</g>
<g opacity="0.5">
<path opacity="0.03" d="M19.752 0.274841H4.19852C3.11551 0.274841 1.85498 1.16849 1.85498 2.26095V26.1213L10.7446 34.3471H19.7524V0.274841H19.752Z" fill="#1B1B1B"/>
<path opacity="0.06" d="M19.7692 0.339111H4.25196C3.17207 0.339111 1.92676 1.22919 1.92676 2.31729V26.0832L10.7668 34.2764H19.7692V0.339111Z" fill="#1D1D1D"/>
<path opacity="0.1" d="M19.7863 0.403015H4.30492C3.22853 0.403015 1.99805 1.28992 1.99805 2.37365V26.0455L10.789 34.2062H19.7859V0.403015H19.7863Z" fill="#202020"/>
<path opacity="0.13" d="M19.8035 0.466888H4.35846C3.28519 0.466888 2.07031 1.35022 2.07031 2.42959V26.0074L10.8117 34.1355H19.8035V0.466888Z" fill="#222222"/>
<path opacity="0.16" d="M19.8202 0.530792H4.41141C3.34166 0.530792 2.1416 1.41055 2.1416 2.48555V25.9693L10.8338 34.0653H19.8202V0.530792Z" fill="#242424"/>
<path opacity="0.19" d="M19.8374 0.595062H4.46495C3.39832 0.595062 2.21387 1.47125 2.21387 2.54189V25.9316L10.8565 33.9951H19.8374V0.595062Z" fill="#262626"/>
<path opacity="0.23" d="M19.8545 0.658966H4.5179C3.45478 0.658966 2.28516 1.53159 2.28516 2.59825V25.8935L10.8787 33.9244H19.8545V0.658966Z" fill="#292929"/>
<path opacity="0.26" d="M19.8713 0.722839H4.57134C3.51134 0.722839 2.35693 1.59189 2.35693 2.65419V25.8554L10.9009 33.8538H19.8713V0.722839Z" fill="#2B2B2B"/>
<path opacity="0.29" d="M19.8884 0.78714H4.62439C3.56752 0.78714 2.42871 1.65262 2.42871 2.71055V25.8177L10.9235 33.7836H19.8888V0.78714H19.8884Z" fill="#2D2D2D"/>
<path opacity="0.32" d="M19.9056 0.851013H4.67783C3.62447 0.851013 2.50049 1.71292 2.50049 2.76649V25.7796L10.9457 33.7133H19.9056V0.851013Z" fill="#2F2F2F"/>
<path opacity="0.35" d="M19.9227 0.914917H4.73088C3.68064 0.914917 2.57227 1.77325 2.57227 2.82285V25.7419L10.968 33.6431H19.9224V0.914917H19.9227Z" fill="#313131"/>
<path opacity="0.39" d="M19.9395 0.97879H4.78432C3.73759 0.97879 2.64404 1.83395 2.64404 2.87879V25.7034L10.9906 33.572H19.9399V0.97879H19.9395Z" fill="#343434"/>
<path opacity="0.42" d="M19.9571 1.04309H4.83777C3.79415 1.04309 2.71582 1.89468 2.71582 2.93515V25.6657L11.0128 33.5018H19.9567V1.04309H19.9571Z" fill="#363636"/>
<path opacity="0.45" d="M19.9738 1.10696H4.89082C3.85072 1.10696 2.7876 1.95498 2.7876 2.99109V25.6276L11.0354 33.4316H19.9738V1.10696Z" fill="#383838"/>
<path opacity="0.48" d="M19.991 1.17087H4.94426C3.90728 1.17087 2.85938 2.01531 2.85938 3.04746V25.5899L11.0577 33.3613H19.991V1.17087Z" fill="#3A3A3A"/>
<path opacity="0.52" d="M20.0081 1.23514H4.99731C3.96384 1.23514 2.93115 2.07601 2.93115 3.10379V25.5522L11.0803 33.2911H20.0081V1.23514Z" fill="#3D3D3D"/>
<path opacity="0.55" d="M20.0253 1.29904H5.05075C4.0204 1.29904 3.00293 2.13634 3.00293 3.15976V25.5137L11.1025 33.2201H20.0253V1.29904Z" fill="#3F3F3F"/>
<path opacity="0.58" d="M20.0425 1.36292H5.1038C4.07696 1.36292 3.07471 2.19665 3.07471 3.21569V25.4756L11.1251 33.1498H20.0425V1.36292Z" fill="#414141"/>
<path opacity="0.61" d="M20.0592 1.42722H5.15724C4.13353 1.42722 3.14648 2.25737 3.14648 3.27245V25.4383L11.1474 33.08H20.0592V1.42722Z" fill="#434343"/>
<path opacity="0.65" d="M20.0763 1.49109H5.21019C4.18999 1.49109 3.21777 2.31768 3.21777 3.32839V25.4002L11.1695 33.0093H20.0763V1.49109Z" fill="#464646"/>
<path opacity="0.68" d="M20.0935 1.55499H5.26373C4.24665 1.55499 3.29004 2.37841 3.29004 3.38436V25.3621L11.1922 32.9387H20.0935V1.55499Z" fill="#484848"/>
<path opacity="0.71" d="M20.1102 1.61887H5.31669C4.30311 1.61887 3.36133 2.43871 3.36133 3.44029V25.3236L11.2144 32.8677H20.1102V1.61887Z" fill="#4A4A4A"/>
<path opacity="0.74" d="M20.1274 1.68317H5.37013C4.35968 1.68317 3.43311 2.49944 3.43311 3.49706V25.2863L11.2366 32.7982H20.1274V1.68317Z" fill="#4C4C4C"/>
<path opacity="0.77" d="M20.1445 1.74704H5.42318C4.41624 1.74704 3.50488 2.55974 3.50488 3.55299V25.2482L11.2592 32.7276H20.1445V1.74704Z" fill="#4E4E4E"/>
<path opacity="0.81" d="M20.1617 1.81094H5.47662C4.4728 1.81094 3.57666 2.62007 3.57666 3.60896V25.2101L11.2814 32.657H20.1617V1.81094Z" fill="#515151"/>
<path opacity="0.84" d="M20.1785 1.87521H5.52967C4.52936 1.87521 3.64844 2.68077 3.64844 3.66569V25.1728L11.3041 32.5871H20.1789V1.87521H20.1785Z" fill="#535353"/>
<path opacity="0.87" d="M20.1956 1.93912H5.58311C4.58592 1.93912 3.72021 2.7411 3.72021 3.72166V25.1344L11.3263 32.5165H20.1956V1.93912Z" fill="#555555"/>
<path opacity="0.9" d="M20.2128 2.00299H5.63616C4.64249 2.00299 3.79199 2.8014 3.79199 3.77759V25.0962L11.3485 32.4458H20.2128V2.00299Z" fill="#575757"/>
<path opacity="0.94" d="M20.2299 2.06689H5.6896C4.69905 2.06689 3.86377 2.86213 3.86377 3.83356V25.0582L11.3711 32.3752H20.2299V2.06689Z" fill="#5A5A5A"/>
<path opacity="0.97" d="M20.2466 2.13116H5.74255C4.75551 2.13116 3.93506 2.92283 3.93506 3.89029V25.0208L11.3929 32.3054H20.2462V2.13116H20.2466Z" fill="#5C5C5C"/>
<path d="M20.2639 2.19507H5.79609C4.81217 2.19507 4.00732 2.98316 4.00732 3.94626V24.9828L11.416 32.2348H20.2643V2.19507H20.2639Z" fill="#5E5E5E"/>
</g>
<path d="M19.8468 0.607758H4.32952C3.27264 0.607758 2.40771 1.48752 2.40771 2.56252V32.1847C2.40771 33.2597 3.27264 34.1395 4.32952 34.1395H25.8837C26.9406 34.1395 27.8055 33.2597 27.8055 32.1847V8.703L19.8468 0.607758Z" fill="#F5F5F4"/>
<path d="M19.8467 6.74823C19.8467 7.82323 20.7116 8.703 21.7685 8.703H27.8054L19.8467 0.607758V6.74823Z" fill="#EAEAEA"/>
<path d="M1.20986 19.3895H17.4535C19.1038 19.3895 20.4435 20.7522 20.4435 22.4308V26.2689C20.4435 27.9474 19.1038 29.3101 17.4535 29.3101H1.20986C0.951592 29.3101 0.741699 29.0966 0.741699 28.8339V19.8657C0.741699 19.603 0.951592 19.3895 1.20986 19.3895Z" fill="#F96500"/>
<path d="M6.04643 22.7532H7.04743V27.2357H6.04643V25.4152H4.06643V27.2357H3.06543V22.7532H4.06643V24.5297H6.04643V22.7532ZM12.7133 22.7532H13.7363L12.4438 27.2357H11.4318L10.6288 24.4252L9.82584 27.2357H8.81384L7.52134 22.7532H8.59384L9.36384 25.6847L10.1338 22.7532H11.1733L11.9378 25.6737L12.7133 22.7532ZM14.2105 27.2357V22.7532H15.932C17.098 22.7532 17.78 23.4022 17.78 24.3922C17.78 25.3932 17.098 26.0422 15.932 26.0422H15.2115V27.2357H14.2105ZM15.2115 25.1567H15.888C16.4435 25.1567 16.779 24.8927 16.779 24.3922C16.779 23.8972 16.4435 23.6387 15.888 23.6387H15.2115V25.1567Z" fill="white"/>
<path d="M24.378 11.4014H5.84658C5.58802 11.4014 5.37842 11.6146 5.37842 11.8776V12.3538C5.37842 12.6168 5.58802 12.83 5.84658 12.83H24.378C24.6366 12.83 24.8462 12.6168 24.8462 12.3538V11.8776C24.8462 11.6146 24.6366 11.4014 24.378 11.4014Z" fill="#DDDDDD"/>
<path d="M24.378 14.6157H5.84658C5.58802 14.6157 5.37842 14.8289 5.37842 15.0919V15.5681C5.37842 15.8311 5.58802 16.0443 5.84658 16.0443H24.378C24.6366 16.0443 24.8462 15.8311 24.8462 15.5681V15.0919C24.8462 14.8289 24.6366 14.6157 24.378 14.6157Z" fill="#DDDDDD"/>
</svg>
