<svg width="42" height="42" viewBox="0 0 42 42" fill="none" xmlns="http://www.w3.org/2000/svg">
<path d="M21.085 41.9224C32.5648 41.9224 41.871 32.6162 41.871 21.1364C41.871 9.65665 32.5648 0.350464 21.085 0.350464C9.60526 0.350464 0.299072 9.65665 0.299072 21.1364C0.299072 32.6162 9.60526 41.9224 21.085 41.9224Z" fill="#FF78C7"/>
<path d="M13.4636 14.5588V27.7142C13.4636 28.2915 13.9303 28.758 14.5074 28.758H27.6628C28.2401 28.758 28.7066 28.2913 28.7066 27.7142V14.5588C28.7066 13.9815 28.2399 13.515 27.6628 13.515H14.5074C13.9301 13.515 13.4636 13.9817 13.4636 14.5588ZM10.6921 14.5588C10.6921 12.4513 12.3992 10.7435 14.5074 10.7435H27.6628C29.7703 10.7435 31.4781 12.4506 31.4781 14.5588V27.7142C31.4781 29.8217 29.771 31.5295 27.6628 31.5295H14.5074C12.3999 31.5295 10.6921 29.8224 10.6921 27.7142V14.5588Z" fill="white"/>
<path d="M21.4315 25.9866C18.9442 25.9866 16.9279 23.9703 16.9279 21.483C16.9279 18.9957 18.9442 16.9794 21.4315 16.9794C23.9188 16.9794 25.9351 18.9957 25.9351 21.483C25.9351 23.9703 23.9188 25.9866 21.4315 25.9866ZM21.4315 23.2152C22.3881 23.2152 23.1636 22.4396 23.1636 21.483C23.1636 20.5263 22.3881 19.7508 21.4315 19.7508C20.4748 19.7508 19.6993 20.5263 19.6993 21.483C19.6993 22.4396 20.4748 23.2152 21.4315 23.2152Z" fill="white"/>
<path d="M26.2816 16.9792C26.8556 16.9792 27.3209 16.5139 27.3209 15.9399C27.3209 15.3659 26.8556 14.9006 26.2816 14.9006C25.7076 14.9006 25.2423 15.3659 25.2423 15.9399C25.2423 16.5139 25.7076 16.9792 26.2816 16.9792Z" fill="white"/>
</svg>
