<svg width="30" height="37" viewBox="0 0 30 37" fill="none" xmlns="http://www.w3.org/2000/svg">
<g style="mix-blend-mode:multiply">
<path opacity="0.03" d="M19.8779 0.995438H4.03514C2.90375 0.995438 1.97803 1.92687 1.97803 3.06483V34.4269C1.97803 35.5652 2.90375 36.4963 4.03514 36.4963H26.7151C27.8465 36.4963 29.1629 35.5648 29.1629 34.4269V9.56605L19.8779 0.995438Z" fill="#1B1B1B"/>
<path opacity="0.06" d="M19.8517 1.00728H4.03853C2.91077 1.00728 1.98828 1.93626 1.98828 3.07136V34.353C1.98828 35.4881 2.91077 36.4171 4.03853 36.4171H26.6551C27.7828 36.4171 29.0831 35.4881 29.0831 34.353V9.55585L19.8517 1.00728Z" fill="#1D1D1D"/>
<path opacity="0.1" d="M19.8261 1.01911H4.0424C2.91868 1.01911 1.99902 1.94564 1.99902 3.07789V34.2795C1.99902 35.4118 2.91868 36.3383 4.0424 36.3383H26.5955C27.7192 36.3383 29.0037 35.4118 29.0037 34.2795V9.54605L19.8261 1.01911Z" fill="#202020"/>
<path opacity="0.13" d="M19.8003 1.03095H4.04529C2.92522 1.03095 2.00879 1.95503 2.00879 3.08442V34.2056C2.00879 35.335 2.92522 36.2591 4.04529 36.2591H26.5353C27.6554 36.2591 28.9238 35.335 28.9238 34.2056V9.53585L19.8003 1.03095Z" fill="#222222"/>
<path opacity="0.16" d="M19.7747 1.04279H4.04917C2.93273 1.04279 2.01953 1.96442 2.01953 3.09095V34.1322C2.01953 35.2587 2.93273 36.1803 4.04917 36.1803H26.4758C27.5922 36.1803 28.8444 35.2587 28.8444 34.1322V9.52564L19.7747 1.04279Z" fill="#242424"/>
<path opacity="0.19" d="M19.7486 1.05463H4.05255C2.94015 1.05463 2.02979 1.97381 2.02979 3.09748V34.0583C2.02979 35.182 2.94015 36.1012 4.05255 36.1012H26.4157C27.5281 36.1012 28.7646 35.182 28.7646 34.0583V9.51585L19.7486 1.05463Z" fill="#262626"/>
<path opacity="0.23" d="M19.723 1.06646H4.05643C2.94766 1.06646 2.04053 1.9836 2.04053 3.10401V33.9844C2.04053 35.1052 2.94766 36.022 4.05643 36.022H26.3566C27.4653 36.022 28.6856 35.1048 28.6856 33.9844V9.50564L19.723 1.06646Z" fill="#292929"/>
<path opacity="0.26" d="M19.6973 1.0783H4.06021C2.95509 1.0783 2.05078 1.99299 2.05078 3.11055V33.9109C2.05078 35.0289 2.95509 35.9432 4.06021 35.9432H26.2969C27.402 35.9432 28.6062 35.0285 28.6062 33.9109V9.49544L19.6973 1.0783Z" fill="#2B2B2B"/>
<path opacity="0.29" d="M19.6712 1.09013H4.0636C2.96211 1.09013 2.06104 2.00238 2.06104 3.11707V33.8371C2.06104 34.9522 2.96211 35.864 4.0636 35.864H26.2373C27.3388 35.864 28.5263 34.9518 28.5263 33.8371V9.48564L19.6712 1.09013Z" fill="#2D2D2D"/>
<path opacity="0.32" d="M19.6459 1.10197H4.06747C2.97002 1.10197 2.07178 2.01177 2.07178 3.12361V33.7632C2.07178 34.875 2.97002 35.7848 4.06747 35.7848H26.1777C27.2751 35.7848 28.4469 34.875 28.4469 33.7632V9.47544L19.6459 1.10197Z" fill="#2F2F2F"/>
<path opacity="0.35" d="M19.6198 1.11381H4.07086C2.97704 1.11381 2.08203 2.02115 2.08203 3.13013V33.6897C2.08203 34.7987 2.97704 35.7061 4.07086 35.7061H26.1176C27.2115 35.7061 28.3671 34.7987 28.3671 33.6897V9.46524L19.6198 1.11381Z" fill="#313131"/>
<path opacity="0.39" d="M19.5942 1.12565H4.07473C2.98455 1.12565 2.09277 2.03055 2.09277 3.13667V33.6159C2.09277 34.722 2.98455 35.6269 4.07473 35.6269H26.0585C27.1487 35.6269 28.2881 34.722 28.2881 33.6159V9.45504L19.5942 1.12565Z" fill="#343434"/>
<path opacity="0.42" d="M19.5681 1.13748H4.07811C2.99157 1.13748 2.10303 2.04034 2.10303 3.1432V33.542C2.10303 34.6452 2.99198 35.5477 4.07811 35.5477H25.9984C27.085 35.5477 28.2083 34.6448 28.2083 33.542V9.44524L19.5681 1.13748Z" fill="#363636"/>
<path opacity="0.45" d="M19.5424 1.14932H4.0819C2.9994 1.14932 2.11328 2.04973 2.11328 3.15014V33.4689C2.11328 34.5693 2.999 35.4697 4.0819 35.4697H25.9388C27.0213 35.4697 28.1288 34.5693 28.1288 33.4689V9.43504L19.5424 1.14932Z" fill="#383838"/>
<path opacity="0.48" d="M19.5167 1.16116H4.08529C3.00643 1.16116 2.12354 2.05911 2.12354 3.15667V33.395C2.12354 34.4926 3.00643 35.3905 4.08529 35.3905H25.8791C26.958 35.3905 28.0494 34.4926 28.0494 33.395V9.42483L19.5167 1.16116Z" fill="#3A3A3A"/>
<path opacity="0.52" d="M19.491 1.1734H4.08916C3.01393 1.1734 2.13428 2.06891 2.13428 3.1636V33.322C2.13428 34.4167 3.01393 35.3122 4.08916 35.3122H25.8196C26.8948 35.3122 27.97 34.4167 27.97 33.322V9.41503L19.491 1.1734Z" fill="#3D3D3D"/>
<path opacity="0.55" d="M19.4649 1.18523H4.09255C3.02096 1.18523 2.14453 2.0783 2.14453 3.17013V33.2481C2.14453 34.3395 3.02096 35.233 4.09255 35.233H25.7595C26.8311 35.233 27.8902 34.3399 27.8902 33.2481V9.40483L19.4649 1.18523Z" fill="#3F3F3F"/>
<path opacity="0.58" d="M19.4393 1.19707H4.09642C3.02887 1.19707 2.15527 2.08769 2.15527 3.17667V33.1742C2.15527 34.2628 3.02887 35.1538 4.09642 35.1538H25.7003C26.7679 35.1538 27.8112 34.2632 27.8112 33.1742V9.39463L19.4393 1.19707Z" fill="#414141"/>
<path opacity="0.61" d="M19.4132 1.20891H4.0998C3.03589 1.20891 2.16553 2.09707 2.16553 3.18319V33.1007C2.16553 34.1865 3.03589 35.075 4.0998 35.075H25.6403C26.7042 35.075 27.7309 34.1869 27.7309 33.1007V9.38442L19.4132 1.20891Z" fill="#434343"/>
<path opacity="0.65" d="M19.3875 1.22075H4.10359C3.04332 1.22075 2.17578 2.10687 2.17578 3.18973V33.0269C2.17578 34.1097 3.04332 34.9958 4.10359 34.9958H25.5806C26.6409 34.9958 27.6515 34.1097 27.6515 33.0269V9.37463L19.3875 1.22075Z" fill="#464646"/>
<path opacity="0.68" d="M19.3623 1.23258H4.10747C3.05083 1.23258 2.18652 2.11626 2.18652 3.19626V32.953C2.18652 34.033 3.05083 34.9167 4.10747 34.9167H25.5215C26.5781 34.9167 27.5725 34.033 27.5725 32.953V9.36442L19.3623 1.23258Z" fill="#484848"/>
<path opacity="0.71" d="M19.3362 1.24442H4.11085C3.05825 1.24442 2.19678 2.12565 2.19678 3.20279V32.8795C2.19678 33.9567 3.05825 34.8379 4.11085 34.8379H25.4614C26.514 34.8379 27.4927 33.9567 27.4927 32.8795V9.35422L19.3362 1.24442Z" fill="#4A4A4A"/>
<path opacity="0.74" d="M19.3105 1.25626H4.11472C3.06576 1.25626 2.20752 2.13503 2.20752 3.20932V32.8056C2.20752 33.8799 3.06576 34.7587 4.11472 34.7587H25.4023C26.4512 34.7587 27.4137 33.8799 27.4137 32.8056V9.34442L19.3105 1.25626Z" fill="#4C4C4C"/>
<path opacity="0.77" d="M19.2844 1.2681H4.11811C3.07278 1.2681 2.21777 2.14442 2.21777 3.21585V32.7322C2.21777 33.8032 3.07278 34.6799 4.11811 34.6799H25.3422C26.3875 34.6799 27.3339 33.8036 27.3339 32.7322V9.33422L19.2844 1.2681Z" fill="#4E4E4E"/>
<path opacity="0.81" d="M19.2588 1.27993H4.12198C3.0807 1.27993 2.22852 2.15381 2.22852 3.22238V32.6583C2.22852 33.7265 3.0807 34.6007 4.12198 34.6007H25.2826C26.3239 34.6007 27.2545 33.7269 27.2545 32.6583V9.32401L19.2588 1.27993Z" fill="#515151"/>
<path opacity="0.84" d="M19.2327 1.29177H4.12537C3.08772 1.29177 2.23877 2.16361 2.23877 3.22891V32.5844C2.23877 33.6497 3.08772 34.5216 4.12537 34.5216H25.223C26.2606 34.5216 27.1751 33.6497 27.1751 32.5844V9.31422L19.2327 1.29177Z" fill="#535353"/>
<path opacity="0.87" d="M19.2074 1.3036H4.12915C3.09514 1.3036 2.24902 2.17299 2.24902 3.23544V32.5109C2.24902 33.5734 3.09514 34.4428 4.12915 34.4428H25.1633C26.1974 34.4428 27.0956 33.5734 27.0956 32.5109V9.30401L19.2074 1.3036Z" fill="#555555"/>
<path opacity="0.9" d="M19.1813 1.31544H4.13254C3.10216 1.31544 2.25928 2.18238 2.25928 3.24198V32.4371C2.25928 33.4967 3.10216 34.3636 4.13254 34.3636H25.1033C26.1337 34.3636 27.0158 33.4967 27.0158 32.4371V9.29381L19.1813 1.31544Z" fill="#575757"/>
<path opacity="0.94" d="M19.1556 1.32728H4.13641C3.11008 1.32728 2.27002 2.19177 2.27002 3.2485V32.3632C2.27002 33.4199 3.11008 34.2844 4.13641 34.2844H25.0441C26.0705 34.2844 26.9364 33.4199 26.9364 32.3632V9.2836L19.1556 1.32728Z" fill="#5A5A5A"/>
<path opacity="0.97" d="M19.13 1.33911H4.14029C3.11759 1.33911 2.28076 2.20115 2.28076 3.25503V32.2897C2.28076 33.3436 3.11759 34.2056 4.14029 34.2056H24.9846C26.0073 34.2056 26.857 33.3436 26.857 32.2897V9.27381L19.13 1.33911Z" fill="#5C5C5C"/>
<path d="M19.1039 1.35095H4.14367C3.12461 1.35095 2.29102 2.21054 2.29102 3.26156V32.2158C2.29102 33.2669 3.12461 34.1265 4.14367 34.1265H24.9245C25.9436 34.1265 26.7772 33.2669 26.7772 32.2158V9.26361L19.1039 1.35095Z" fill="#5E5E5E"/>
</g>
<g opacity="0.5">
<path opacity="0.03" d="M19.9313 0.641151H3.82226C2.70056 0.641151 1.39502 1.56033 1.39502 2.68401V27.226L10.6021 35.6869H19.9317V0.641151H19.9313Z" fill="#1B1B1B"/>
<path opacity="0.06" d="M19.9494 0.707275H3.87798C2.75951 0.707275 1.46973 1.62279 1.46973 2.74197V27.1869L10.6255 35.6142H19.9494V0.707275Z" fill="#1D1D1D"/>
<path opacity="0.1" d="M19.967 0.772987H3.93271C2.81789 0.772987 1.54346 1.68523 1.54346 2.79993V27.1481L10.6483 35.542H19.9666V0.772987H19.967Z" fill="#202020"/>
<path opacity="0.13" d="M19.9847 0.838707H3.98803C2.87643 0.838707 1.61816 1.74728 1.61816 2.85748V27.1089L10.6717 35.4693H19.9847V0.838707Z" fill="#222222"/>
<path opacity="0.16" d="M20.0023 0.904419H4.04325C2.9353 0.904419 1.69238 1.80932 1.69238 2.91503V27.0697L10.695 35.3971H20.0023V0.904419Z" fill="#242424"/>
<path opacity="0.19" d="M20.0201 0.970543H4.09857C2.99384 0.970543 1.76709 1.87177 1.76709 2.97299V27.031L10.7184 35.3248H20.0201V0.970543Z" fill="#262626"/>
<path opacity="0.23" d="M20.0376 1.03625H4.1533C3.05222 1.03625 1.84082 1.93381 1.84082 3.03095V26.9918L10.7412 35.2522H20.0376V1.03625Z" fill="#292929"/>
<path opacity="0.26" d="M20.0549 1.10197H4.20853C3.11068 1.10197 1.91504 1.99584 1.91504 3.0885V26.9526L10.7641 35.1795H20.0549V1.10197Z" fill="#2B2B2B"/>
<path opacity="0.29" d="M20.073 1.16809H4.26384C3.16922 1.16809 1.98975 2.05829 1.98975 3.14646V26.9138L10.7879 35.1073H20.0734V1.16809H20.073Z" fill="#2D2D2D"/>
<path opacity="0.32" d="M20.0907 1.23381H4.31907C3.22809 1.23381 2.06396 2.12034 2.06396 3.20401V26.8746L10.8108 35.035H20.0907V1.23381Z" fill="#2F2F2F"/>
<path opacity="0.35" d="M20.1083 1.29952H4.37389C3.28614 1.29952 2.13818 2.18238 2.13818 3.26197V26.8358L10.8337 34.9628H20.1079V1.29952H20.1083Z" fill="#313131"/>
<path opacity="0.39" d="M20.1256 1.36523H4.42912C3.34501 1.36523 2.2124 2.24483 2.2124 3.31952V26.7963L10.857 34.8897H20.126V1.36523H20.1256Z" fill="#343434"/>
<path opacity="0.42" d="M20.1436 1.43136H4.48435C3.40347 1.43136 2.28662 2.30728 2.28662 3.37748V26.7575L10.8799 34.8175H20.1432V1.43136H20.1436Z" fill="#363636"/>
<path opacity="0.45" d="M20.1614 1.49707H4.53966C3.46241 1.49707 2.36133 2.36931 2.36133 3.43503V26.7183L10.9037 34.7452H20.1614V1.49707Z" fill="#383838"/>
<path opacity="0.48" d="M20.1785 1.56279H4.5944C3.52039 1.56279 2.43506 2.43136 2.43506 3.49299V26.6795L10.9262 34.673H20.1785V1.56279Z" fill="#3A3A3A"/>
<path opacity="0.52" d="M20.1967 1.62891H4.64971C3.57934 1.62891 2.50977 2.4938 2.50977 3.55095V26.6407L10.95 34.6007H20.1967V1.62891Z" fill="#3D3D3D"/>
<path opacity="0.55" d="M20.2143 1.69463H4.70494C3.63779 1.69463 2.58398 2.55585 2.58398 3.6085V26.6012L10.9729 34.5277H20.2143V1.69463Z" fill="#3F3F3F"/>
<path opacity="0.58" d="M20.2319 1.76034H4.75968C3.69617 1.76034 2.65771 2.61789 2.65771 3.66605V26.562L10.9957 34.4554H20.2315V1.76034H20.2319Z" fill="#414141"/>
<path opacity="0.61" d="M20.2492 1.82646H4.81499C3.75472 1.82646 2.73242 2.68034 2.73242 3.72442V26.5236L11.0191 34.3836H20.2492V1.82646Z" fill="#434343"/>
<path opacity="0.65" d="M20.2673 1.89217H4.87022C3.81358 1.89217 2.80664 2.74238 2.80664 3.78197V26.4844L11.0424 34.311H20.2673V1.89217Z" fill="#464646"/>
<path opacity="0.68" d="M20.285 1.95789H4.92553C3.87212 1.95789 2.88135 2.80482 2.88135 3.83952V26.4452L11.0658 34.2383H20.285V1.95789Z" fill="#484848"/>
<path opacity="0.71" d="M20.3021 2.02361H4.98027C3.9305 2.02361 2.95508 2.86687 2.95508 3.89707V26.4056L11.0886 34.1652H20.3021V2.02361Z" fill="#4A4A4A"/>
<path opacity="0.74" d="M20.3199 2.08972H5.03558C3.98904 2.08972 3.02979 2.92931 3.02979 3.95544V26.3673L11.112 34.0938H20.3203V2.08972H20.3199Z" fill="#4C4C4C"/>
<path opacity="0.77" d="M20.3379 2.15544H5.09081C4.04791 2.15544 3.104 2.99136 3.104 4.01299V26.3281L11.1353 34.0212H20.3379V2.15544Z" fill="#4E4E4E"/>
<path opacity="0.81" d="M20.3556 2.22115H5.14604C4.10637 2.22115 3.17822 3.0534 3.17822 4.07054V26.2889L11.1582 33.9485H20.3556V2.22115Z" fill="#515151"/>
<path opacity="0.84" d="M20.3728 2.28728H5.20086C4.16483 2.28728 3.25244 3.11585 3.25244 4.12891V26.2505L11.1811 33.8767H20.3728V2.28728Z" fill="#535353"/>
<path opacity="0.87" d="M20.391 2.35299H5.25658C4.22378 2.35299 3.32715 3.17789 3.32715 4.18646V26.2109L11.2049 33.804H20.391V2.35299Z" fill="#555555"/>
<path opacity="0.9" d="M20.4086 2.4187H5.3114C4.28224 2.4187 3.40137 3.23993 3.40137 4.24401V26.1718L11.2278 33.7314H20.4086V2.4187Z" fill="#575757"/>
<path opacity="0.94" d="M20.4263 2.48442H5.36663C4.3407 2.48442 3.47559 3.30238 3.47559 4.30156V26.1326L11.2511 33.6587H20.4263V2.48442Z" fill="#5A5A5A"/>
<path opacity="0.97" d="M20.4439 2.55054H5.42185C4.39956 2.55054 3.5498 3.36483 3.5498 4.35993V26.0942L11.274 33.5869H20.4435V2.55054H20.4439Z" fill="#5C5C5C"/>
<path d="M20.4616 2.61626H5.47717C4.45811 2.61626 3.62451 3.42687 3.62451 4.41748V26.055L11.2978 33.5142H20.462V2.61626H20.4616Z" fill="#5E5E5E"/>
</g>
<path d="M20.0292 0.983604H3.95773C2.86311 0.983604 1.96729 1.8885 1.96729 2.99422V33.4628C1.96729 34.5685 2.86311 35.4734 3.95773 35.4734H26.2817C27.3763 35.4734 28.2721 34.5685 28.2721 33.4628V9.31013L20.0292 0.983604Z" fill="#F5F5F4"/>
<path d="M20.0293 7.29952C20.0293 8.40524 20.9251 9.31013 22.0197 9.31013H28.2723L20.0293 0.983604V7.29952Z" fill="#EAEAEA"/>
<path d="M0.726582 20.302H17.5504C19.2596 20.302 20.6472 21.7036 20.6472 23.4301V27.3779C20.6472 29.1044 19.2596 30.5061 17.5504 30.5061H0.726582C0.459088 30.5061 0.241699 30.2865 0.241699 30.0163V20.7918C0.241699 20.5216 0.459088 20.302 0.726582 20.302Z" fill="#FDCD01"/>
<path d="M5.64951 22.833C5.56951 22.833 5.50486 22.8983 5.50486 22.9791V26.3199C5.50486 26.3726 5.49354 26.422 5.47092 26.4689C5.44829 26.5159 5.41839 26.5563 5.38121 26.5905C5.34404 26.6248 5.3004 26.6522 5.2507 26.6726C5.201 26.693 5.15009 26.7032 5.09796 26.7032C5.02806 26.7032 4.96785 26.6905 4.91815 26.6657C4.86845 26.6403 4.82481 26.6126 4.78764 26.5816C4.75046 26.551 4.71652 26.5228 4.68581 26.4975C4.6551 26.4722 4.62318 26.4599 4.58924 26.4599C4.57106 26.4599 4.55206 26.4652 4.53146 26.4754C4.51125 26.4856 4.49186 26.4987 4.47367 26.5146L3.88373 27.073C3.84777 27.1003 3.82959 27.1436 3.82959 27.2032C3.82959 27.2375 3.83282 27.2559 3.83969 27.2579C3.91444 27.3697 4.00091 27.4685 4.0991 27.5542C4.19729 27.6399 4.30356 27.7118 4.41791 27.7701C4.53186 27.8285 4.65227 27.8722 4.77915 27.902C4.90562 27.9318 5.03452 27.9465 5.16584 27.9465C5.38727 27.9465 5.59779 27.904 5.7974 27.8199C5.99701 27.7354 6.17238 27.6195 6.3235 27.4722C6.47462 27.3248 6.59463 27.1526 6.68353 26.955C6.77242 26.7575 6.81727 26.5456 6.81727 26.3195V22.9787C6.81727 22.8979 6.75262 22.8326 6.67262 22.8326H5.64951V22.833Z" fill="#F5F5F4"/>
<path d="M7.98283 22.9946C7.98283 22.9469 7.99535 22.9085 8.02 22.8799C8.04465 22.8514 8.08223 22.8371 8.13193 22.8371H10.2985C10.4545 22.8371 10.6016 22.8587 10.7394 22.902C10.8772 22.9452 11.0036 23.0052 11.1192 23.082C11.2344 23.1583 11.3386 23.2497 11.4311 23.3559C11.5237 23.462 11.6025 23.5767 11.6667 23.6999C11.731 23.8232 11.7803 23.953 11.8142 24.0885C11.8481 24.2244 11.8651 24.362 11.8651 24.5012C11.8651 24.7069 11.8283 24.9077 11.7548 25.104C11.6813 25.3003 11.5766 25.475 11.4412 25.6281C11.3055 25.7812 11.143 25.9048 10.9531 25.9995C10.7632 26.0942 10.5531 26.1428 10.3224 26.1452H9.29484V27.7754C9.29484 27.8738 9.24271 27.9228 9.13887 27.9228H8.13193C8.08667 27.9228 8.05071 27.911 8.02323 27.8869C7.99616 27.8628 7.98242 27.8256 7.98242 27.7754V22.9942L7.98283 22.9946ZM10.5361 24.495C10.5361 24.4265 10.5244 24.3579 10.5006 24.2897C10.4767 24.2216 10.4424 24.1603 10.3971 24.1065C10.3519 24.053 10.2969 24.0089 10.2327 23.9746C10.1684 23.9403 10.0953 23.9232 10.0141 23.9232H9.29524V25.0673H10.0141C10.0953 25.0673 10.1688 25.0505 10.2343 25.0175C10.2998 24.9844 10.3547 24.9416 10.3988 24.8889C10.4428 24.8363 10.4767 24.7759 10.5006 24.7073C10.5244 24.6387 10.5361 24.5681 10.5361 24.495Z" fill="#F5F5F4"/>
<path d="M15.7775 24.2722C15.6623 24.1901 15.5391 24.1261 15.4078 24.0803C15.2769 24.0346 15.1366 24.0118 14.9875 24.0118C14.8001 24.0118 14.6283 24.0477 14.4724 24.1195C14.3164 24.1914 14.1826 24.2889 14.0707 24.4122C13.9588 24.5354 13.8711 24.6799 13.8081 24.8456C13.7446 25.0114 13.7131 25.1877 13.7131 25.3746C13.7131 25.5616 13.7446 25.7375 13.8081 25.902C13.8715 26.0665 13.9588 26.2097 14.0707 26.3318C14.1826 26.4538 14.3164 26.5505 14.4724 26.6212C14.6283 26.6918 14.8001 26.7273 14.9875 26.7273C15.0667 26.7273 15.1451 26.7216 15.2231 26.7101C15.3011 26.6987 15.3843 26.684 15.4724 26.6656V25.7681C15.4724 25.7248 15.4849 25.6889 15.5096 25.6603C15.5346 25.6318 15.5718 25.6175 15.6215 25.6175H16.5436C16.5776 25.6175 16.6135 25.6314 16.6523 25.6587C16.6907 25.6861 16.7101 25.7228 16.7101 25.7681V27.4256C16.7101 27.4873 16.6774 27.5375 16.6119 27.5763C16.5056 27.6493 16.388 27.7122 16.2591 27.7644C16.1302 27.8171 15.9957 27.8603 15.8555 27.8946C15.7153 27.9289 15.5734 27.9546 15.43 27.9718C15.2866 27.9889 15.1467 27.9975 15.0114 27.9975C14.7718 27.9975 14.5419 27.9669 14.3212 27.9048C14.101 27.8432 13.8945 27.7554 13.7026 27.6412C13.5103 27.5269 13.3357 27.3905 13.1789 27.2318C13.0217 27.073 12.8868 26.8975 12.7736 26.7044C12.6605 26.5114 12.5736 26.3036 12.5126 26.0812C12.4516 25.8587 12.4209 25.6261 12.4209 25.384C12.4209 25.142 12.4512 24.9097 12.5126 24.6869C12.5736 24.4644 12.6605 24.2554 12.7736 24.0599C12.8868 23.8648 13.0217 23.6873 13.1789 23.5273C13.3361 23.3673 13.5107 23.231 13.7026 23.1179C13.8945 23.0048 14.101 22.9171 14.3212 22.8542C14.5415 22.7914 14.7718 22.7599 15.0114 22.7599C15.2825 22.7599 15.5387 22.7983 15.7795 22.8746C16.0203 22.9514 16.247 23.0612 16.4592 23.2052C16.4975 23.2281 16.527 23.2583 16.5472 23.2959C16.5675 23.3334 16.563 23.3763 16.5335 23.4244L15.9844 24.2256C15.9549 24.2624 15.9254 24.2869 15.8963 24.2991C15.8668 24.3118 15.8272 24.302 15.7775 24.2701V24.2722Z" fill="#F5F5F4"/>
<path d="M24.7221 12.0856H5.52883C5.26103 12.0856 5.04395 12.3049 5.04395 12.5754V13.0652C5.04395 13.3357 5.26103 13.555 5.52883 13.555H24.7221C24.9899 13.555 25.207 13.3357 25.207 13.0652V12.5754C25.207 12.3049 24.9899 12.0856 24.7221 12.0856Z" fill="#DDDDDD"/>
<path d="M24.7221 15.3918H5.52883C5.26103 15.3918 5.04395 15.6111 5.04395 15.8816V16.3714C5.04395 16.6419 5.26103 16.8612 5.52883 16.8612H24.7221C24.9899 16.8612 25.207 16.6419 25.207 16.3714V15.8816C25.207 15.6111 24.9899 15.3918 24.7221 15.3918Z" fill="#DDDDDD"/>
</svg>
