<svg width="15" height="27" viewBox="0 0 15 27" fill="none" xmlns="http://www.w3.org/2000/svg">
<g clip-path="url(#clip0_4066_26)">
<path d="M11.0677 2.38978C10.1546 1.51374 8.89333 0.971802 7.49987 0.971802C4.71346 0.971802 2.45441 3.13928 2.45441 5.8129V14.3368C2.45441 17.0105 4.7132 19.1779 7.49987 19.1779C10.2865 19.1779 12.5453 17.0105 12.5453 14.3368V5.8129C12.5453 4.47595 11.9806 3.26581 11.0674 2.38978H11.0677ZM11.3181 14.3368C11.3181 16.357 9.60513 18.0005 7.49987 18.0005C5.39461 18.0005 3.68161 16.357 3.68161 14.3368V5.8129C3.68161 3.79277 5.39461 2.14919 7.49987 2.14919C9.60513 2.14919 11.3181 3.79277 11.3181 5.8129V14.3368Z" fill="white"/>
<path d="M15 9.16249V13.4744C15 15.7393 14.2199 17.8685 12.8033 19.4699C11.5589 20.8767 9.95402 21.7281 8.2244 21.9143C8.16127 21.9212 8.11373 21.9814 8.11373 22.053V25.4456C8.11373 25.5222 8.16881 25.5844 8.23635 25.5844H10.5681C10.9072 25.5844 11.1817 25.8949 11.1817 26.2781C11.1817 26.6613 10.9069 26.9718 10.5681 26.9718H4.43186C4.09285 26.9718 3.81826 26.6613 3.81826 26.2781C3.81826 25.8949 4.09311 25.5844 4.43186 25.5844H6.76365C6.83145 25.5844 6.88627 25.5222 6.88627 25.4456V22.053C6.88627 21.9814 6.83873 21.9212 6.7756 21.9143C5.04598 21.7281 3.44106 20.8767 2.19671 19.4699C0.780122 17.8685 0 15.7393 0 13.4744V9.16249C0 8.78094 0.266535 8.45933 0.60373 8.45322C0.777264 8.45017 0.934172 8.52842 1.04744 8.65634C1.15836 8.78205 1.2272 8.9552 1.2272 9.14695V13.4222C1.2272 15.3194 1.87925 17.15 3.06645 18.4909C4.10532 19.6641 5.44371 20.375 6.88627 20.5324C7.08864 20.5546 7.2936 20.5657 7.49987 20.5657C7.70614 20.5657 7.9111 20.5546 8.11347 20.5324C9.5563 20.375 10.8947 19.6641 11.9333 18.4909C13.1202 17.15 13.7725 15.3194 13.7725 13.4222V9.14695C13.7725 8.76817 14.0406 8.46071 14.3742 8.45322C14.7181 8.44573 14.9997 8.77344 14.9997 9.16249H15Z" fill="white"/>
</g>
<defs>
<clipPath id="clip0_4066_26">
<rect width="15" height="26" fill="white" transform="translate(0 0.971802)"/>
</clipPath>
</defs>
</svg>
