<svg width="20" height="20" viewBox="0 0 20 20" fill="none" xmlns="http://www.w3.org/2000/svg">
<path d="M6.50565 11.0296H13.1101M1.00195 15.0363V9.39755C1.00195 8.83415 1.00195 8.55231 1.07347 8.29014C1.13685 8.05781 1.24169 7.83796 1.38248 7.63928C1.54136 7.41509 1.76217 7.22918 2.20481 6.85818L7.49011 2.42829C8.31069 1.74052 8.72101 1.39661 9.1831 1.26571C9.59059 1.15028 10.0249 1.15028 10.4324 1.26571C10.8948 1.39671 11.3058 1.74094 12.1276 2.42976L17.4111 6.85818C17.8538 7.22918 18.0747 7.41509 18.2335 7.63928C18.3743 7.83796 18.4784 8.05781 18.5417 8.29014C18.6133 8.5523 18.6138 8.83416 18.6138 9.39755V15.04C18.6138 16.2187 18.6138 16.8087 18.3741 17.2594C18.163 17.6562 17.8253 17.9785 17.4111 18.1807C16.9406 18.4103 16.3253 18.4103 15.0948 18.4103H4.52092C3.29038 18.4103 2.6742 18.4103 2.20374 18.1807C1.7895 17.9785 1.45296 17.6562 1.2419 17.2594C1.00195 16.8083 1.00195 16.2174 1.00195 15.0363Z" stroke="black" stroke-opacity="0.6" stroke-width="1.5" stroke-linecap="round" stroke-linejoin="round"/>
</svg>
