<svg width="30" height="36" viewBox="0 0 30 36" fill="none" xmlns="http://www.w3.org/2000/svg">
<g style="mix-blend-mode:multiply">
<path opacity="0.03" d="M19.8779 0.835876H4.03514C2.90375 0.835876 1.97803 1.74143 1.97803 2.84778V33.3387C1.97803 34.4454 2.90375 35.3506 4.03514 35.3506H26.7151C27.8465 35.3506 29.1629 34.445 29.1629 33.3387V9.16842L19.8779 0.835876Z" fill="#1B1B1B"/>
<path opacity="0.06" d="M19.8517 0.847351H4.03852C2.91077 0.847351 1.98828 1.75053 1.98828 2.8541V33.2668C1.98828 34.3704 2.91077 35.2735 4.03852 35.2735H26.655C27.7828 35.2735 29.0831 34.3704 29.0831 33.2668V9.15846L19.8517 0.847351Z" fill="#1D1D1D"/>
<path opacity="0.1" d="M19.8261 0.858887H4.0424C2.91868 0.858887 1.99902 1.75968 1.99902 2.86047V33.1954C1.99902 34.2962 2.91868 35.197 4.0424 35.197H26.5955C27.7192 35.197 29.0037 34.2962 29.0037 33.1954V9.14897L19.8261 0.858887Z" fill="#202020"/>
<path opacity="0.13" d="M19.8003 0.870361H4.04529C2.92522 0.870361 2.00879 1.76877 2.00879 2.86679V33.1235C2.00879 34.2216 2.92522 35.12 4.04529 35.12H26.5353C27.6554 35.12 28.9238 34.2216 28.9238 33.1235V9.13901L19.8003 0.870361Z" fill="#222222"/>
<path opacity="0.16" d="M19.7747 0.881897H4.04917C2.93273 0.881897 2.01953 1.77793 2.01953 2.87317V33.0521C2.01953 34.1474 2.93273 35.0434 4.04917 35.0434H26.4758C27.5922 35.0434 28.8444 34.1474 28.8444 33.0521V9.12912L19.7747 0.881897Z" fill="#242424"/>
<path opacity="0.19" d="M19.7486 0.893372H4.05255C2.94015 0.893372 2.02979 1.78702 2.02979 2.87948V32.9803C2.02979 34.0727 2.94015 34.9664 4.05255 34.9664H26.4157C27.5281 34.9664 28.7646 34.0727 28.7646 32.9803V9.11956L19.7486 0.893372Z" fill="#262626"/>
<path opacity="0.23" d="M19.723 0.904907H4.05643C2.94766 0.904907 2.04053 1.79657 2.04053 2.88586V32.9085C2.04053 33.9982 2.94766 34.8894 4.05643 34.8894H26.3566C27.4653 34.8894 28.6856 33.9978 28.6856 32.9085V9.10967L19.723 0.904907Z" fill="#292929"/>
<path opacity="0.26" d="M19.6973 0.916382H4.06021C2.95509 0.916382 2.05078 1.80567 2.05078 2.89218V32.837C2.05078 33.9239 2.95509 34.8128 4.06021 34.8128H26.2969C27.402 34.8128 28.6062 33.9235 28.6062 32.837V9.09971L19.6973 0.916382Z" fill="#2B2B2B"/>
<path opacity="0.29" d="M19.6712 0.927917H4.0636C2.96211 0.927917 2.06104 1.81482 2.06104 2.89855V32.7652C2.06104 33.8493 2.96211 34.7359 4.0636 34.7359H26.2373C27.3388 34.7359 28.5263 33.8489 28.5263 32.7652V9.09022L19.6712 0.927917Z" fill="#2D2D2D"/>
<path opacity="0.32" d="M19.6459 0.939392H4.06747C2.97002 0.939392 2.07178 1.82392 2.07178 2.90487V32.6934C2.07178 33.7743 2.97002 34.6588 4.06747 34.6588H26.1777C27.2751 34.6588 28.4469 33.7743 28.4469 32.6934V9.08027L19.6459 0.939392Z" fill="#2F2F2F"/>
<path opacity="0.35" d="M19.6198 0.950928H4.07086C2.97704 0.950928 2.08203 1.83307 2.08203 2.91125V32.622C2.08203 33.7001 2.97704 34.5823 4.07086 34.5823H26.1176C27.2115 34.5823 28.3671 33.7001 28.3671 32.622V9.07037L19.6198 0.950928Z" fill="#313131"/>
<path opacity="0.39" d="M19.5942 0.962463H4.07473C2.98455 0.962463 2.09277 1.84223 2.09277 2.91762V32.5502C2.09277 33.6256 2.98455 34.5053 4.07473 34.5053H26.0585C27.1487 34.5053 28.2881 33.6256 28.2881 32.5502V9.06048L19.5942 0.962463Z" fill="#343434"/>
<path opacity="0.42" d="M19.5681 0.973938H4.07811C2.99157 0.973938 2.10303 1.85172 2.10303 2.92394V32.4783C2.10303 33.5509 2.99198 34.4283 4.07811 34.4283H25.9984C27.085 34.4283 28.2083 33.5505 28.2083 32.4783V9.05092L19.5681 0.973938Z" fill="#363636"/>
<path opacity="0.45" d="M19.5424 0.985474H4.0819C2.9994 0.985474 2.11328 1.86087 2.11328 2.93071V32.4073C2.11328 33.4771 2.999 34.3525 4.0819 34.3525H25.9388C27.0213 34.3525 28.1288 33.4771 28.1288 32.4073V9.04103L19.5424 0.985474Z" fill="#383838"/>
<path opacity="0.48" d="M19.5167 0.996948H4.08529C3.00643 0.996948 2.12354 1.86996 2.12354 2.93703V32.3354C2.12354 33.4025 3.00643 34.2755 4.08529 34.2755H25.8791C26.958 34.2755 28.0494 33.4025 28.0494 32.3354V9.03108L19.5167 0.996948Z" fill="#3A3A3A"/>
<path opacity="0.52" d="M19.491 1.00885H4.08916C3.01393 1.00885 2.13428 1.87949 2.13428 2.94377V32.2644C2.13428 33.3287 3.01393 34.1993 4.08916 34.1993H25.8196C26.8948 34.1993 27.97 33.3287 27.97 32.2644V9.02155L19.491 1.00885Z" fill="#3D3D3D"/>
<path opacity="0.55" d="M19.4649 1.02039H4.09255C3.02096 1.02039 2.14453 1.88864 2.14453 2.95015V32.1926C2.14453 33.2537 3.02096 34.1224 4.09255 34.1224H25.7595C26.8311 34.1224 27.8902 33.2541 27.8902 32.1926V9.01166L19.4649 1.02039Z" fill="#3F3F3F"/>
<path opacity="0.58" d="M19.4393 1.03186H4.09642C3.02887 1.03186 2.15527 1.89773 2.15527 2.95646V32.1208C2.15527 33.1791 3.02887 34.0454 4.09642 34.0454H25.7003C26.7679 34.0454 27.8112 33.1795 27.8112 32.1208V9.0017L19.4393 1.03186Z" fill="#414141"/>
<path opacity="0.61" d="M19.4132 1.0434H4.0998C3.03589 1.0434 2.16553 1.90689 2.16553 2.96284V32.0493C2.16553 33.1049 3.03589 33.9688 4.0998 33.9688H25.6403C26.7042 33.9688 27.7309 33.1053 27.7309 32.0493V8.99181L19.4132 1.0434Z" fill="#434343"/>
<path opacity="0.65" d="M19.3875 1.05487H4.10359C3.04332 1.05487 2.17578 1.91638 2.17578 2.96916V31.9775C2.17578 33.0303 3.04332 33.8918 4.10359 33.8918H25.5806C26.6409 33.8918 27.6515 33.0303 27.6515 31.9775V8.98225L19.3875 1.05487Z" fill="#464646"/>
<path opacity="0.68" d="M19.3623 1.06641H4.10747C3.05083 1.06641 2.18652 1.92553 2.18652 2.97553V31.9057C2.18652 32.9557 3.05083 33.8148 4.10747 33.8148H25.5215C26.5781 33.8148 27.5725 32.9557 27.5725 31.9057V8.97236L19.3623 1.06641Z" fill="#484848"/>
<path opacity="0.71" d="M19.3362 1.07794H4.11085C3.05825 1.07794 2.19678 1.93469 2.19678 2.98191V31.8343C2.19678 32.8815 3.05825 33.7383 4.11085 33.7383H25.4614C26.514 33.7383 27.4927 32.8815 27.4927 31.8343V8.96247L19.3362 1.07794Z" fill="#4A4A4A"/>
<path opacity="0.74" d="M19.3105 1.08942H4.11472C3.06576 1.08942 2.20752 1.94378 2.20752 2.98823V31.7624C2.20752 32.8069 3.06576 33.6612 4.11472 33.6612H25.4023C26.4512 33.6612 27.4137 32.8069 27.4137 31.7624V8.95291L19.3105 1.08942Z" fill="#4C4C4C"/>
<path opacity="0.77" d="M19.2844 1.10095H4.11811C3.07278 1.10095 2.21777 1.95294 2.21777 2.9946V31.691C2.21777 32.7323 3.07278 33.5847 4.11811 33.5847H25.3422C26.3875 33.5847 27.3339 32.7327 27.3339 31.691V8.94302L19.2844 1.10095Z" fill="#4E4E4E"/>
<path opacity="0.81" d="M19.2588 1.11243H4.12198C3.0807 1.11243 2.22852 1.96203 2.22852 3.00092V31.6192C2.22852 32.6577 3.0807 33.5077 4.12198 33.5077H25.2826C26.3239 33.5077 27.2545 32.6581 27.2545 31.6192V8.93306L19.2588 1.11243Z" fill="#515151"/>
<path opacity="0.84" d="M19.2327 1.12396H4.12537C3.08772 1.12396 2.23877 1.97158 2.23877 3.0073V31.5474C2.23877 32.5831 3.08772 33.4307 4.12537 33.4307H25.223C26.2606 33.4307 27.1751 32.5831 27.1751 31.5474V8.92357L19.2327 1.12396Z" fill="#535353"/>
<path opacity="0.87" d="M19.2074 1.13544H4.12915C3.09514 1.13544 2.24902 1.98067 2.24902 3.01361V31.4759C2.24902 32.5088 3.09514 33.3541 4.12915 33.3541H25.1633C26.1974 33.3541 27.0956 32.5088 27.0956 31.4759V8.91361L19.2074 1.13544Z" fill="#555555"/>
<path opacity="0.9" d="M19.1813 1.14697H4.13254C3.10216 1.14697 2.25928 1.98983 2.25928 3.01999V31.4041C2.25928 32.4343 3.10216 33.2771 4.13254 33.2771H25.1033C26.1337 33.2771 27.0158 32.4343 27.0158 31.4041V8.90372L19.1813 1.14697Z" fill="#575757"/>
<path opacity="0.94" d="M19.1556 1.15845H4.13641C3.11008 1.15845 2.27002 1.99892 2.27002 3.0263V31.3323C2.27002 32.3596 3.11008 33.2001 4.13641 33.2001H25.0441C26.0705 33.2001 26.9364 32.3596 26.9364 31.3323V8.89377L19.1556 1.15845Z" fill="#5A5A5A"/>
<path opacity="0.97" d="M19.13 1.16998H4.14029C3.11759 1.16998 2.28076 2.00808 2.28076 3.03268V31.2609C2.28076 32.2855 3.11759 33.1236 4.14029 33.1236H24.9846C26.0073 33.1236 26.857 32.2855 26.857 31.2609V8.88427L19.13 1.16998Z" fill="#5C5C5C"/>
<path d="M19.1039 1.18146H4.14367C3.12461 1.18146 2.29102 2.01717 2.29102 3.039V31.189C2.29102 32.2108 3.12461 33.0465 4.14367 33.0465H24.9245C25.9436 33.0465 26.7772 32.2108 26.7772 31.189V8.87431L19.1039 1.18146Z" fill="#5E5E5E"/>
</g>
<g opacity="0.5">
<path opacity="0.03" d="M19.9313 0.491394H3.82226C2.70056 0.491394 1.39502 1.38504 1.39502 2.4775V26.3378L10.6021 34.5636H19.9317V0.491394H19.9313Z" fill="#1B1B1B"/>
<path opacity="0.06" d="M19.9494 0.555664H3.87798C2.75951 0.555664 1.46973 1.44574 1.46973 2.53384V26.2997L10.6255 34.493H19.9494V0.555664Z" fill="#1D1D1D"/>
<path opacity="0.1" d="M19.967 0.619568H3.93271C2.81789 0.619568 1.54346 1.50647 1.54346 2.5902V26.262L10.6483 34.4227H19.9666V0.619568H19.967Z" fill="#202020"/>
<path opacity="0.13" d="M19.9847 0.683472H3.98803C2.87643 0.683472 1.61816 1.56681 1.61816 2.64617V26.2239L10.6717 34.3521H19.9847V0.683472Z" fill="#222222"/>
<path opacity="0.16" d="M20.0023 0.747314H4.04325C2.9353 0.747314 1.69238 1.62708 1.69238 2.70208V26.1858L10.695 34.2818H20.0023V0.747314Z" fill="#242424"/>
<path opacity="0.19" d="M20.0201 0.811646H4.09857C2.99384 0.811646 1.76709 1.68784 1.76709 2.75847V26.1482L10.7184 34.2116H20.0201V0.811646Z" fill="#262626"/>
<path opacity="0.23" d="M20.0376 0.875488H4.1533C3.05222 0.875488 1.84082 1.74811 1.84082 2.81477V26.11L10.7412 34.141H20.0376V0.875488Z" fill="#292929"/>
<path opacity="0.26" d="M20.0549 0.939392H4.20853C3.11068 0.939392 1.91504 1.80844 1.91504 2.87074V26.0719L10.7641 34.0703H20.0549V0.939392Z" fill="#2B2B2B"/>
<path opacity="0.29" d="M20.073 1.00366H4.26384C3.16922 1.00366 1.98975 1.86914 1.98975 2.92707V26.0342L10.7875 34.0001H20.073V1.00366Z" fill="#2D2D2D"/>
<path opacity="0.32" d="M20.0907 1.06757H4.31907C3.22809 1.06757 2.06396 1.92947 2.06396 2.98304V25.9961L10.8108 33.9299H20.0907V1.06757Z" fill="#2F2F2F"/>
<path opacity="0.35" d="M20.1083 1.13147H4.37389C3.28614 1.13147 2.13818 1.9898 2.13818 3.03941V25.9585L10.8337 33.8596H20.1079V1.13147H20.1083Z" fill="#313131"/>
<path opacity="0.39" d="M20.1256 1.19537H4.42912C3.34501 1.19537 2.2124 2.05053 2.2124 3.09537V25.92L10.857 33.7886H20.126V1.19537H20.1256Z" fill="#343434"/>
<path opacity="0.42" d="M20.1436 1.25964H4.48435C3.40347 1.25964 2.28662 2.11123 2.28662 3.15171V25.8823L10.8799 33.7184H20.1432V1.25964H20.1436Z" fill="#363636"/>
<path opacity="0.45" d="M20.1614 1.32355H4.53966C3.46241 1.32355 2.36133 2.17156 2.36133 3.20767V25.8442L10.9037 33.6482H20.1614V1.32355Z" fill="#383838"/>
<path opacity="0.48" d="M20.1785 1.38739H4.5944C3.52039 1.38739 2.43506 2.23183 2.43506 3.26398V25.8064L10.9262 33.5779H20.1785V1.38739Z" fill="#3A3A3A"/>
<path opacity="0.52" d="M20.1967 1.45172H4.64971C3.57934 1.45172 2.50977 2.29259 2.50977 3.32037V25.7688L10.9499 33.5077H20.1967V1.45172Z" fill="#3D3D3D"/>
<path opacity="0.55" d="M20.2143 1.51556H4.70494C3.6378 1.51556 2.58398 2.35287 2.58398 3.37628V25.7302L10.9729 33.4366H20.2143V1.51556Z" fill="#3F3F3F"/>
<path opacity="0.58" d="M20.232 1.57947H4.75976C3.69626 1.57947 2.6582 2.4132 2.6582 3.43225V25.6922L10.9962 33.3664H20.232V1.57947Z" fill="#414141"/>
<path opacity="0.61" d="M20.2492 1.64374H4.81499C3.75472 1.64374 2.73242 2.4739 2.73242 3.48898V25.6548L11.0191 33.2965H20.2492V1.64374Z" fill="#434343"/>
<path opacity="0.65" d="M20.2673 1.70764H4.87022C3.81358 1.70764 2.80664 2.53423 2.80664 3.54494V25.6168L11.0424 33.2259H20.2673V1.70764Z" fill="#464646"/>
<path opacity="0.68" d="M20.285 1.77155H4.92553C3.87212 1.77155 2.88135 2.59496 2.88135 3.60091V25.5787L11.0658 33.1553H20.285V1.77155Z" fill="#484848"/>
<path opacity="0.71" d="M20.3021 1.83545H4.98027C3.9305 1.83545 2.95508 2.65529 2.95508 3.65688V25.5402L11.0886 33.0843H20.3021V1.83545Z" fill="#4A4A4A"/>
<path opacity="0.74" d="M20.3199 1.89972H5.03558C3.98904 1.89972 3.02979 2.71599 3.02979 3.71361V25.5029L11.112 33.0148H20.3203V1.89972H20.3199Z" fill="#4C4C4C"/>
<path opacity="0.77" d="M20.3379 1.96362H5.09081C4.04791 1.96362 3.104 2.77632 3.104 3.76958V25.4648L11.1353 32.9442H20.3379V1.96362Z" fill="#4E4E4E"/>
<path opacity="0.81" d="M20.3556 2.02747H5.14604C4.10637 2.02747 3.17822 2.83659 3.17822 3.82548V25.4267L11.1582 32.8735H20.3556V2.02747Z" fill="#515151"/>
<path opacity="0.84" d="M20.3728 2.0918H5.20086C4.16483 2.0918 3.25244 2.89735 3.25244 3.88227V25.3894L11.1815 32.8037H20.3732V2.0918H20.3728Z" fill="#535353"/>
<path opacity="0.87" d="M20.391 2.15564H5.25658C4.22378 2.15564 3.32715 2.95762 3.32715 3.93818V25.3509L11.2049 32.733H20.391V2.15564Z" fill="#555555"/>
<path opacity="0.9" d="M20.4086 2.21954H5.3114C4.28224 2.21954 3.40137 3.01796 3.40137 3.99415V25.3128L11.2278 32.6624H20.4086V2.21954Z" fill="#575757"/>
<path opacity="0.94" d="M20.4263 2.28345H5.36663C4.3407 2.28345 3.47559 3.07869 3.47559 4.05011V25.2747L11.2511 32.5918H20.4263V2.28345Z" fill="#5A5A5A"/>
<path opacity="0.97" d="M20.4439 2.34772H5.42185C4.39956 2.34772 3.5498 3.13938 3.5498 4.10684V25.2374L11.274 32.5219H20.4435V2.34772H20.4439Z" fill="#5C5C5C"/>
<path d="M20.4616 2.41162H5.47717C4.45811 2.41162 3.62451 3.19972 3.62451 4.16281V25.1993L11.2978 32.4513H20.462V2.41162H20.4616Z" fill="#5E5E5E"/>
</g>
<path d="M20.0292 0.824341H3.95773C2.86311 0.824341 1.96729 1.7041 1.96729 2.7791V32.4013C1.96729 33.4763 2.86311 34.3561 3.95773 34.3561H26.2817C27.3763 34.3561 28.2721 33.4763 28.2721 32.4013V8.91958L20.0292 0.824341Z" fill="#F5F5F4"/>
<path d="M20.0293 6.96482C20.0293 8.03982 20.9251 8.91958 22.0197 8.91958H28.2723L20.0293 0.824341V6.96482Z" fill="#EAEAEA"/>
<path d="M0.726582 19.6061H17.5504C19.2596 19.6061 20.6472 20.9688 20.6472 22.6473V26.4854C20.6472 28.164 19.2596 29.5267 17.5504 29.5267H0.726582C0.459088 29.5267 0.241699 29.3132 0.241699 29.0505V20.0823C0.241699 19.8196 0.459088 19.6061 0.726582 19.6061Z" fill="#DBDBDB"/>
<path d="M24.7162 11.618H5.52297C5.25518 11.618 5.03809 11.8312 5.03809 12.0942V12.5704C5.03809 12.8334 5.25518 13.0466 5.52297 13.0466H24.7162C24.984 13.0466 25.2011 12.8334 25.2011 12.5704V12.0942C25.2011 11.8312 24.984 11.618 24.7162 11.618Z" fill="#DDDDDD"/>
<path d="M24.7162 14.8323H5.52297C5.25518 14.8323 5.03809 15.0455 5.03809 15.3085V15.7847C5.03809 16.0476 5.25518 16.2608 5.52297 16.2608H24.7162C24.984 16.2608 25.2011 16.0476 25.2011 15.7847V15.3085C25.2011 15.0455 24.984 14.8323 24.7162 14.8323Z" fill="#DDDDDD"/>
</svg>
