<svg width="29" height="33" viewBox="0 0 29 33" fill="none" xmlns="http://www.w3.org/2000/svg">
<g clip-path="url(#clip0_4081_823)">
<mask id="path-1-inside-1_4081_823" fill="white">
<path d="M19.7344 29.8039C18.2741 29.8039 16.8138 29.26 15.7014 28.1737C13.478 25.9995 13.478 22.4602 15.7014 20.286C17.9247 18.1118 21.5441 18.1118 23.7675 20.286C25.9909 22.4602 25.9909 25.9995 23.7675 28.1737C22.655 29.2615 21.1947 29.8039 19.7344 29.8039ZM19.7344 19.6342C18.53 19.6342 17.3256 20.0823 16.4093 20.9783C14.5766 22.7704 14.5766 25.6878 16.4093 27.4799C18.2419 29.272 21.2254 29.2735 23.058 27.4799C24.8907 25.6878 24.8907 22.7704 23.058 20.9783C22.1417 20.0823 20.9373 19.6342 19.7344 19.6342Z"/>
</mask>
<path d="M19.7344 29.8039C18.2741 29.8039 16.8138 29.26 15.7014 28.1737C13.478 25.9995 13.478 22.4602 15.7014 20.286C17.9247 18.1118 21.5441 18.1118 23.7675 20.286C25.9909 22.4602 25.9909 25.9995 23.7675 28.1737C22.655 29.2615 21.1947 29.8039 19.7344 29.8039ZM19.7344 19.6342C18.53 19.6342 17.3256 20.0823 16.4093 20.9783C14.5766 22.7704 14.5766 25.6878 16.4093 27.4799C18.2419 29.272 21.2254 29.2735 23.058 27.4799C24.8907 25.6878 24.8907 22.7704 23.058 20.9783C22.1417 20.0823 20.9373 19.6342 19.7344 19.6342Z" fill="white"/>
<path d="M15.7014 28.1737L14.6526 29.2461L14.6534 29.2468L15.7014 28.1737ZM23.058 27.4799L22.0093 26.4074L22.0088 26.4079L23.058 27.4799ZM19.7344 29.8039V28.3039C18.6441 28.3039 17.5665 27.8984 16.7493 27.1005L15.7014 28.1737L14.6534 29.2468C16.0611 30.6216 17.9041 31.3039 19.7344 31.3039V29.8039ZM15.7014 28.1737L16.7501 27.1012C15.1284 25.5154 15.1284 22.9443 16.7501 21.3585L15.7014 20.286L14.6526 19.2136C11.8275 21.9762 11.8275 26.4835 14.6526 29.2461L15.7014 28.1737ZM15.7014 20.286L16.7501 21.3585C18.3905 19.7544 21.0783 19.7544 22.7187 21.3585L23.7675 20.286L24.8162 19.2136C22.0098 16.4693 17.459 16.4693 14.6526 19.2136L15.7014 20.286ZM23.7675 20.286L22.7187 21.3585C24.3404 22.9443 24.3404 25.5154 22.7187 27.1012L23.7675 28.1737L24.8162 29.2461C27.6413 26.4835 27.6413 21.9762 24.8162 19.2136L23.7675 20.286ZM23.7675 28.1737L22.7187 27.1012C21.9025 27.8994 20.8256 28.3039 19.7344 28.3039V29.8039V31.3039C21.5638 31.3039 23.4075 30.6236 24.8162 29.2461L23.7675 28.1737ZM19.7344 19.6342V18.1342C18.1607 18.1342 16.573 18.7203 15.3606 19.9058L16.4093 20.9783L17.458 22.0508C18.0783 21.4442 18.8994 21.1342 19.7344 21.1342V19.6342ZM16.4093 20.9783L15.3606 19.9058C12.9262 22.2863 12.9262 26.1719 15.3606 28.5524L16.4093 27.4799L17.458 26.4074C16.2271 25.2037 16.2271 23.2545 17.458 22.0508L16.4093 20.9783ZM16.4093 27.4799L15.3606 28.5524C17.7756 30.914 21.6909 30.9167 24.1072 28.5519L23.058 27.4799L22.0088 26.4079C20.7598 27.6303 18.7083 27.63 17.458 26.4074L16.4093 27.4799ZM23.058 27.4799L24.1067 28.5524C26.5411 26.1719 26.5411 22.2863 24.1067 19.9058L23.058 20.9783L22.0093 22.0508C23.2402 23.2545 23.2402 25.2037 22.0093 26.4074L23.058 27.4799ZM23.058 20.9783L24.1067 19.9058C22.8945 18.7204 21.3069 18.1342 19.7344 18.1342V19.6342V21.1342C20.5677 21.1342 21.3888 21.4441 22.0093 22.0508L23.058 20.9783Z" fill="white" mask="url(#path-1-inside-1_4081_823)"/>
<mask id="path-3-inside-2_4081_823" fill="white">
<path d="M27.3408 32.9311C27.0098 32.9311 26.6788 32.8082 26.426 32.5625L22.4573 28.6816L23.1652 27.9893L27.1339 31.8702C27.2458 31.9781 27.4327 31.9781 27.5446 31.8702C27.6549 31.7623 27.6549 31.578 27.5446 31.4686L23.5759 27.5878L24.2838 26.8955L28.2525 30.7764C28.7551 31.2694 28.7551 32.071 28.2525 32.564C27.9997 32.8097 27.6687 32.9341 27.3377 32.9341L27.3408 32.9311Z"/>
</mask>
<path d="M27.3408 32.9311C27.0098 32.9311 26.6788 32.8082 26.426 32.5625L22.4573 28.6816L23.1652 27.9893L27.1339 31.8702C27.2458 31.9781 27.4327 31.9781 27.5446 31.8702C27.6549 31.7623 27.6549 31.578 27.5446 31.4686L23.5759 27.5878L24.2838 26.8955L28.2525 30.7764C28.7551 31.2694 28.7551 32.071 28.2525 32.564C27.9997 32.8097 27.6687 32.9341 27.3377 32.9341L27.3408 32.9311Z" fill="white"/>
<path d="M27.3408 32.9311L28.3895 34.0036L31.0202 31.4311H27.3408V32.9311ZM26.426 32.5625L25.3772 33.635L25.3805 33.6381L26.426 32.5625ZM22.4573 28.6816L21.4085 27.6091L20.3118 28.6816L21.4085 29.7541L22.4573 28.6816ZM23.1652 27.9893L24.2139 26.9169L23.1652 25.8914L22.1165 26.9169L23.1652 27.9893ZM27.1339 31.8702L26.0852 32.9427L26.0926 32.9499L27.1339 31.8702ZM27.5446 31.8702L28.5859 32.9499L28.5933 32.9427L27.5446 31.8702ZM27.5446 31.4686L28.6007 30.4034L28.5933 30.3962L27.5446 31.4686ZM23.5759 27.5878L22.5271 26.5153L21.4304 27.5878L22.5271 28.6602L23.5759 27.5878ZM24.2838 26.8955L25.3325 25.823L24.2838 24.7975L23.2351 25.823L24.2838 26.8955ZM28.2525 30.7764L29.3029 29.7055L29.3012 29.7039L28.2525 30.7764ZM28.2525 32.564L29.298 33.6396L29.3029 33.6348L28.2525 32.564ZM27.3377 32.9341L26.289 31.8616L23.6583 34.4341H27.3377V32.9341ZM27.3408 32.9311V31.4311C27.3788 31.4311 27.4293 31.4459 27.4714 31.4868L26.426 32.5625L25.3805 33.6381C25.9283 34.1706 26.6408 34.4311 27.3408 34.4311V32.9311ZM26.426 32.5625L27.4747 31.49L23.506 27.6092L22.4573 28.6816L21.4085 29.7541L25.3772 33.6349L26.426 32.5625ZM22.4573 28.6816L23.506 29.7541L24.2139 29.0618L23.1652 27.9893L22.1165 26.9169L21.4085 27.6091L22.4573 28.6816ZM23.1652 27.9893L22.1165 29.0618L26.0852 32.9427L27.1339 31.8702L28.1826 30.7978L24.2139 26.9169L23.1652 27.9893ZM27.1339 31.8702L26.0926 32.9499C26.7855 33.6182 27.8929 33.6182 28.5859 32.9499L27.5446 31.8702L26.5033 30.7906C26.9725 30.338 27.706 30.338 28.1752 30.7906L27.1339 31.8702ZM27.5446 31.8702L28.5933 32.9427C29.3094 32.2424 29.2987 31.0956 28.6007 30.4034L27.5446 31.4686L26.4885 32.5339C26.011 32.0605 26.0004 31.2823 26.4958 30.7978L27.5446 31.8702ZM27.5446 31.4686L28.5933 30.3962L24.6246 26.5153L23.5759 27.5878L22.5271 28.6602L26.4958 32.5411L27.5446 31.4686ZM23.5759 27.5878L24.6246 28.6602L25.3325 27.968L24.2838 26.8955L23.2351 25.823L22.5271 26.5153L23.5759 27.5878ZM24.2838 26.8955L23.2351 27.968L27.2038 31.8488L28.2525 30.7764L29.3012 29.7039L25.3325 25.823L24.2838 26.8955ZM28.2525 30.7764L27.2021 31.8472C27.1052 31.7522 27.1052 31.5882 27.2021 31.4931L28.2525 32.564L29.3029 33.6348C30.405 32.5538 30.405 30.7865 29.3029 29.7055L28.2525 30.7764ZM28.2525 32.564L27.207 31.4883C27.246 31.4504 27.2951 31.4341 27.3377 31.4341V32.9341V34.4341C28.0423 34.4341 28.7533 34.169 29.298 33.6396L28.2525 32.564ZM27.3377 32.9341L28.3864 34.0066L28.3895 34.0036L27.3408 32.9311L26.292 31.8586L26.289 31.8616L27.3377 32.9341Z" fill="white" mask="url(#path-3-inside-2_4081_823)"/>
<mask id="path-5-inside-3_4081_823" fill="white">
<path d="M14.5643 30.5068H3.06278C2.67357 30.5068 2.35791 30.3045 2.35791 30.0528C2.35791 29.801 2.67357 29.5988 3.06278 29.5988H14.5643C14.9535 29.5988 15.2692 29.801 15.2692 30.0528C15.2692 30.3045 14.9535 30.5068 14.5643 30.5068Z"/>
</mask>
<path d="M14.5643 30.5068H3.06278C2.67357 30.5068 2.35791 30.3045 2.35791 30.0528C2.35791 29.801 2.67357 29.5988 3.06278 29.5988H14.5643C14.9535 29.5988 15.2692 29.801 15.2692 30.0528C15.2692 30.3045 14.9535 30.5068 14.5643 30.5068Z" fill="white"/>
<path d="M14.5643 30.5068V29.0068H3.06278V30.5068V32.0068H14.5643V30.5068ZM3.06278 30.5068V29.0068C3.11142 29.0068 3.22645 29.0165 3.37575 29.1126C3.51063 29.1993 3.85791 29.4975 3.85791 30.0528H2.35791H0.85791C0.85791 30.8598 1.36302 31.385 1.75303 31.6358C2.15746 31.8959 2.62492 32.0068 3.06278 32.0068V30.5068ZM2.35791 30.0528H3.85791C3.85791 30.608 3.51063 30.9062 3.37575 30.993C3.22645 31.089 3.11142 31.0988 3.06278 31.0988V29.5988V28.0988C2.62492 28.0988 2.15746 28.2097 1.75303 28.4697C1.36302 28.7206 0.85791 29.2458 0.85791 30.0528H2.35791ZM3.06278 29.5988V31.0988H14.5643V29.5988V28.0988H3.06278V29.5988ZM14.5643 29.5988V31.0988C14.5157 31.0988 14.4007 31.089 14.2514 30.993C14.1165 30.9062 13.7692 30.608 13.7692 30.0528H15.2692H16.7692C16.7692 29.2458 16.2641 28.7206 15.8741 28.4697C15.4697 28.2097 15.0022 28.0988 14.5643 28.0988V29.5988ZM15.2692 30.0528H13.7692C13.7692 29.4975 14.1165 29.1993 14.2514 29.1126C14.4007 29.0165 14.5157 29.0068 14.5643 29.0068V30.5068V32.0068C15.0022 32.0068 15.4697 31.8959 15.8741 31.6358C16.2641 31.385 16.7692 30.8598 16.7692 30.0528H15.2692Z" fill="white" mask="url(#path-5-inside-3_4081_823)"/>
<mask id="path-7-inside-4_4081_823" fill="white">
<path d="M3.93011 30.5787H1.13364C0.856286 30.5787 0.632568 30.3599 0.632568 30.0887V1.42113C0.632568 1.14992 0.856286 0.931152 1.13364 0.931152H23.9559C24.2333 0.931152 24.457 1.14992 24.457 1.42113V17.9261C24.457 18.1973 24.2333 18.4161 23.9559 18.4161C23.6786 18.4161 23.4549 18.1973 23.4549 17.9261V1.91111H1.6347V29.5987H3.93011C4.20746 29.5987 4.43118 29.8175 4.43118 30.0887C4.43118 30.3599 4.20746 30.5787 3.93011 30.5787Z"/>
</mask>
<path d="M3.93011 30.5787H1.13364C0.856286 30.5787 0.632568 30.3599 0.632568 30.0887V1.42113C0.632568 1.14992 0.856286 0.931152 1.13364 0.931152H23.9559C24.2333 0.931152 24.457 1.14992 24.457 1.42113V17.9261C24.457 18.1973 24.2333 18.4161 23.9559 18.4161C23.6786 18.4161 23.4549 18.1973 23.4549 17.9261V1.91111H1.6347V29.5987H3.93011C4.20746 29.5987 4.43118 29.8175 4.43118 30.0887C4.43118 30.3599 4.20746 30.5787 3.93011 30.5787Z" fill="white"/>
<path d="M23.4549 1.91111H24.9549V0.411111H23.4549V1.91111ZM1.6347 1.91111V0.411111H0.134703V1.91111H1.6347ZM1.6347 29.5987H0.134703V31.0987H1.6347V29.5987ZM3.93011 30.5787V29.0787H1.13364V30.5787V32.0787H3.93011V30.5787ZM1.13364 30.5787V29.0787C1.6529 29.0787 2.13257 29.5 2.13257 30.0887H0.632568H-0.867432C-0.867432 31.2198 0.0596759 32.0787 1.13364 32.0787V30.5787ZM0.632568 30.0887H2.13257V1.42113H0.632568H-0.867432V30.0887H0.632568ZM0.632568 1.42113H2.13257C2.13257 2.00981 1.65289 2.43115 1.13364 2.43115V0.931152V-0.568848C0.0596785 -0.568848 -0.867432 0.290028 -0.867432 1.42113H0.632568ZM1.13364 0.931152V2.43115H23.9559V0.931152V-0.568848H1.13364V0.931152ZM23.9559 0.931152V2.43115C23.4367 2.43115 22.957 2.00981 22.957 1.42113H24.457H25.957C25.957 0.290034 25.0299 -0.568848 23.9559 -0.568848V0.931152ZM24.457 1.42113H22.957V17.9261H24.457H25.957V1.42113H24.457ZM24.457 17.9261H22.957C22.957 17.3374 23.4367 16.9161 23.9559 16.9161V18.4161V19.9161C25.0299 19.9161 25.957 19.0572 25.957 17.9261H24.457ZM23.9559 18.4161V16.9161C24.4752 16.9161 24.9549 17.3374 24.9549 17.9261H23.4549H21.9549C21.9549 19.0572 22.882 19.9161 23.9559 19.9161V18.4161ZM23.4549 17.9261H24.9549V1.91111H23.4549H21.9549V17.9261H23.4549ZM23.4549 1.91111V0.411111H1.6347V1.91111V3.41111H23.4549V1.91111ZM1.6347 1.91111H0.134703V29.5987H1.6347H3.1347V1.91111H1.6347ZM1.6347 29.5987V31.0987H3.93011V29.5987V28.0987H1.6347V29.5987ZM3.93011 29.5987V31.0987C3.41086 31.0987 2.93118 30.6774 2.93118 30.0887H4.43118H5.93118C5.93118 28.9576 5.00406 28.0987 3.93011 28.0987V29.5987ZM4.43118 30.0887H2.93118C2.93118 29.5 3.41085 29.0787 3.93011 29.0787V30.5787V32.0787C5.00407 32.0787 5.93118 31.2198 5.93118 30.0887H4.43118Z" fill="white" mask="url(#path-7-inside-4_4081_823)"/>
<mask id="path-9-inside-5_4081_823" fill="white">
<path d="M21.1595 8.88022C20.8821 8.88022 20.6584 8.66146 20.6584 8.39024V4.49888H4.43121V8.39024C4.43121 8.66146 4.20749 8.88022 3.93014 8.88022C3.6528 8.88022 3.42908 8.66146 3.42908 8.39024V4.0089C3.42908 3.73769 3.6528 3.51892 3.93014 3.51892H21.1595C21.4368 3.51892 21.6606 3.73769 21.6606 4.0089V8.39024C21.6606 8.66146 21.4368 8.88022 21.1595 8.88022Z"/>
</mask>
<path d="M21.1595 8.88022C20.8821 8.88022 20.6584 8.66146 20.6584 8.39024V4.49888H4.43121V8.39024C4.43121 8.66146 4.20749 8.88022 3.93014 8.88022C3.6528 8.88022 3.42908 8.66146 3.42908 8.39024V4.0089C3.42908 3.73769 3.6528 3.51892 3.93014 3.51892H21.1595C21.4368 3.51892 21.6606 3.73769 21.6606 4.0089V8.39024C21.6606 8.66146 21.4368 8.88022 21.1595 8.88022Z" fill="white"/>
<path d="M20.6584 4.49888H22.1584V2.99888H20.6584V4.49888ZM4.43121 4.49888V2.99888H2.93121V4.49888H4.43121ZM21.1595 8.88022V7.38022C21.6788 7.38022 22.1584 7.80156 22.1584 8.39024H20.6584H19.1584C19.1584 9.52135 20.0855 10.3802 21.1595 10.3802V8.88022ZM20.6584 8.39024H22.1584V4.49888H20.6584H19.1584V8.39024H20.6584ZM20.6584 4.49888V2.99888H4.43121V4.49888V5.99888H20.6584V4.49888ZM4.43121 4.49888H2.93121V8.39024H4.43121H5.93121V4.49888H4.43121ZM4.43121 8.39024H2.93121C2.93121 7.80156 3.41089 7.38022 3.93014 7.38022V8.88022V10.3802C5.0041 10.3802 5.93121 9.52135 5.93121 8.39024H4.43121ZM3.93014 8.88022V7.38022C4.4494 7.38022 4.92908 7.80156 4.92908 8.39024H3.42908H1.92908C1.92908 9.52135 2.85619 10.3802 3.93014 10.3802V8.88022ZM3.42908 8.39024H4.92908V4.0089H3.42908H1.92908V8.39024H3.42908ZM3.42908 4.0089H4.92908C4.92908 4.59758 4.4494 5.01892 3.93014 5.01892V3.51892V2.01892C2.85619 2.01892 1.92908 2.8778 1.92908 4.0089H3.42908ZM3.93014 3.51892V5.01892H21.1595V3.51892V2.01892H3.93014V3.51892ZM21.1595 3.51892V5.01892C20.6402 5.01892 20.1606 4.59757 20.1606 4.0089H21.6606H23.1606C23.1606 2.8778 22.2335 2.01892 21.1595 2.01892V3.51892ZM21.6606 4.0089H20.1606V8.39024H21.6606H23.1606V4.0089H21.6606ZM21.6606 8.39024H20.1606C20.1606 7.80157 20.6402 7.38022 21.1595 7.38022V8.88022V10.3802C22.2335 10.3802 23.1606 9.52134 23.1606 8.39024H21.6606Z" fill="white" mask="url(#path-9-inside-5_4081_823)"/>
<mask id="path-11-inside-6_4081_823" fill="white">
<path d="M21.1595 13.2601C20.8821 13.2601 20.6584 13.0413 20.6584 12.7701V8.87876H4.43121V12.7701C4.43121 13.0413 4.20749 13.2601 3.93014 13.2601C3.6528 13.2601 3.42908 13.0413 3.42908 12.7701V8.38878C3.42908 8.11757 3.6528 7.8988 3.93014 7.8988H21.1595C21.4368 7.8988 21.6606 8.11757 21.6606 8.38878V12.7701C21.6606 13.0413 21.4368 13.2601 21.1595 13.2601Z"/>
</mask>
<path d="M21.1595 13.2601C20.8821 13.2601 20.6584 13.0413 20.6584 12.7701V8.87876H4.43121V12.7701C4.43121 13.0413 4.20749 13.2601 3.93014 13.2601C3.6528 13.2601 3.42908 13.0413 3.42908 12.7701V8.38878C3.42908 8.11757 3.6528 7.8988 3.93014 7.8988H21.1595C21.4368 7.8988 21.6606 8.11757 21.6606 8.38878V12.7701C21.6606 13.0413 21.4368 13.2601 21.1595 13.2601Z" fill="white"/>
<path d="M20.6584 8.87876H22.1584V7.37876H20.6584V8.87876ZM4.43121 8.87876V7.37876H2.93121V8.87876H4.43121ZM21.1595 13.2601V11.7601C21.6788 11.7601 22.1584 12.1814 22.1584 12.7701H20.6584H19.1584C19.1584 13.9012 20.0855 14.7601 21.1595 14.7601V13.2601ZM20.6584 12.7701H22.1584V8.87876H20.6584H19.1584V12.7701H20.6584ZM20.6584 8.87876V7.37876H4.43121V8.87876V10.3788H20.6584V8.87876ZM4.43121 8.87876H2.93121V12.7701H4.43121H5.93121V8.87876H4.43121ZM4.43121 12.7701H2.93121C2.93121 12.1814 3.41089 11.7601 3.93014 11.7601V13.2601V14.7601C5.0041 14.7601 5.93121 13.9012 5.93121 12.7701H4.43121ZM3.93014 13.2601V11.7601C4.4494 11.7601 4.92908 12.1814 4.92908 12.7701H3.42908H1.92908C1.92908 13.9012 2.85619 14.7601 3.93014 14.7601V13.2601ZM3.42908 12.7701H4.92908V8.38878H3.42908H1.92908V12.7701H3.42908ZM3.42908 8.38878H4.92908C4.92908 8.97746 4.4494 9.3988 3.93014 9.3988V7.8988V6.3988C2.85619 6.3988 1.92908 7.25768 1.92908 8.38878H3.42908ZM3.93014 7.8988V9.3988H21.1595V7.8988V6.3988H3.93014V7.8988ZM21.1595 7.8988V9.3988C20.6402 9.3988 20.1606 8.97746 20.1606 8.38878H21.6606H23.1606C23.1606 7.25769 22.2335 6.3988 21.1595 6.3988V7.8988ZM21.6606 8.38878H20.1606V12.7701H21.6606H23.1606V8.38878H21.6606ZM21.6606 12.7701H20.1606C20.1606 12.1815 20.6402 11.7601 21.1595 11.7601V13.2601V14.7601C22.2335 14.7601 23.1606 13.9012 23.1606 12.7701H21.6606Z" fill="white" mask="url(#path-11-inside-6_4081_823)"/>
<mask id="path-13-inside-7_4081_823" fill="white">
<path d="M3.93014 17.6415C3.6528 17.6415 3.42908 17.4227 3.42908 17.1515V12.7701C3.42908 12.4989 3.6528 12.2802 3.93014 12.2802H21.1595C21.4368 12.2802 21.6606 12.4989 21.6606 12.7701V16.8173C21.6606 17.0885 21.4368 17.3073 21.1595 17.3073C20.8821 17.3073 20.6584 17.0885 20.6584 16.8173V13.2601H4.43121V17.1515C4.43121 17.4227 4.20749 17.6415 3.93014 17.6415Z"/>
</mask>
<path d="M3.93014 17.6415C3.6528 17.6415 3.42908 17.4227 3.42908 17.1515V12.7701C3.42908 12.4989 3.6528 12.2802 3.93014 12.2802H21.1595C21.4368 12.2802 21.6606 12.4989 21.6606 12.7701V16.8173C21.6606 17.0885 21.4368 17.3073 21.1595 17.3073C20.8821 17.3073 20.6584 17.0885 20.6584 16.8173V13.2601H4.43121V17.1515C4.43121 17.4227 4.20749 17.6415 3.93014 17.6415Z" fill="white"/>
<path d="M20.6584 13.2601H22.1584V11.7601H20.6584V13.2601ZM4.43121 13.2601V11.7601H2.93121V13.2601H4.43121ZM3.93014 17.6415V16.1415C4.4494 16.1415 4.92908 16.5628 4.92908 17.1515H3.42908H1.92908C1.92908 18.2826 2.85619 19.1415 3.93014 19.1415V17.6415ZM3.42908 17.1515H4.92908V12.7701H3.42908H1.92908V17.1515H3.42908ZM3.42908 12.7701H4.92908C4.92908 13.3588 4.44941 13.7802 3.93014 13.7802V12.2802V10.7802C2.85619 10.7802 1.92908 11.639 1.92908 12.7701H3.42908ZM3.93014 12.2802V13.7802H21.1595V12.2802V10.7802H3.93014V12.2802ZM21.1595 12.2802V13.7802C20.6402 13.7802 20.1606 13.3588 20.1606 12.7701H21.6606H23.1606C23.1606 11.639 22.2335 10.7802 21.1595 10.7802V12.2802ZM21.6606 12.7701H20.1606V16.8173H21.6606H23.1606V12.7701H21.6606ZM21.6606 16.8173H20.1606C20.1606 16.2287 20.6402 15.8073 21.1595 15.8073V17.3073V18.8073C22.2335 18.8073 23.1606 17.9484 23.1606 16.8173H21.6606ZM21.1595 17.3073V15.8073C21.6788 15.8073 22.1584 16.2286 22.1584 16.8173H20.6584H19.1584C19.1584 17.9484 20.0855 18.8073 21.1595 18.8073V17.3073ZM20.6584 16.8173H22.1584V13.2601H20.6584H19.1584V16.8173H20.6584ZM20.6584 13.2601V11.7601H4.43121V13.2601V14.7601H20.6584V13.2601ZM4.43121 13.2601H2.93121V17.1515H4.43121H5.93121V13.2601H4.43121ZM4.43121 17.1515H2.93121C2.93121 16.5628 3.41089 16.1415 3.93014 16.1415V17.6415V19.1415C5.0041 19.1415 5.93121 18.2826 5.93121 17.1515H4.43121Z" fill="white" mask="url(#path-13-inside-7_4081_823)"/>
<mask id="path-15-inside-8_4081_823" fill="white">
<path d="M3.93014 22.0318C3.6528 22.0318 3.42908 21.813 3.42908 21.5418V17.1515C3.42908 16.8803 3.6528 16.6615 3.93014 16.6615H17.1004C17.3777 16.6615 17.6015 16.8803 17.6015 17.1515C17.6015 17.4227 17.3777 17.6415 17.1004 17.6415H4.43121V21.5418C4.43121 21.813 4.20749 22.0318 3.93014 22.0318Z"/>
</mask>
<path d="M3.93014 22.0318C3.6528 22.0318 3.42908 21.813 3.42908 21.5418V17.1515C3.42908 16.8803 3.6528 16.6615 3.93014 16.6615H17.1004C17.3777 16.6615 17.6015 16.8803 17.6015 17.1515C17.6015 17.4227 17.3777 17.6415 17.1004 17.6415H4.43121V21.5418C4.43121 21.813 4.20749 22.0318 3.93014 22.0318Z" fill="white"/>
<path d="M4.43121 17.6415V16.1415H2.93121V17.6415H4.43121ZM3.93014 22.0318V20.5318C4.44941 20.5318 4.92908 20.9531 4.92908 21.5418H3.42908H1.92908C1.92908 22.6729 2.85619 23.5318 3.93014 23.5318V22.0318ZM3.42908 21.5418H4.92908V17.1515H3.42908H1.92908V21.5418H3.42908ZM3.42908 17.1515H4.92908C4.92908 17.7402 4.4494 18.1615 3.93014 18.1615V16.6615V15.1615C2.85619 15.1615 1.92908 16.0204 1.92908 17.1515H3.42908ZM3.93014 16.6615V18.1615H17.1004V16.6615V15.1615H3.93014V16.6615ZM17.1004 16.6615V18.1615C16.5811 18.1615 16.1015 17.7402 16.1015 17.1515H17.6015H19.1015C19.1015 16.0204 18.1744 15.1615 17.1004 15.1615V16.6615ZM17.6015 17.1515H16.1015C16.1015 16.5628 16.5811 16.1415 17.1004 16.1415V17.6415V19.1415C18.1744 19.1415 19.1015 18.2826 19.1015 17.1515H17.6015ZM17.1004 17.6415V16.1415H4.43121V17.6415V19.1415H17.1004V17.6415ZM4.43121 17.6415H2.93121V21.5418H4.43121H5.93121V17.6415H4.43121ZM4.43121 21.5418H2.93121C2.93121 20.9531 3.41088 20.5318 3.93014 20.5318V22.0318V23.5318C5.0041 23.5318 5.93121 22.6729 5.93121 21.5418H4.43121Z" fill="white" mask="url(#path-15-inside-8_4081_823)"/>
<mask id="path-17-inside-9_4081_823" fill="white">
<path d="M12.2384 26.4131H3.93014C3.6528 26.4131 3.42908 26.1943 3.42908 25.9231V21.5417C3.42908 21.2705 3.6528 21.0518 3.93014 21.0518H12.5402C12.8176 21.0518 13.0413 21.2705 13.0413 21.5417C13.0413 21.8129 12.8176 22.0317 12.5402 22.0317H4.43121V25.4316H12.2384C12.5157 25.4316 12.7394 25.6504 12.7394 25.9216C12.7394 26.1928 12.5157 26.4116 12.2384 26.4116V26.4131Z"/>
</mask>
<path d="M12.2384 26.4131H3.93014C3.6528 26.4131 3.42908 26.1943 3.42908 25.9231V21.5417C3.42908 21.2705 3.6528 21.0518 3.93014 21.0518H12.5402C12.8176 21.0518 13.0413 21.2705 13.0413 21.5417C13.0413 21.8129 12.8176 22.0317 12.5402 22.0317H4.43121V25.4316H12.2384C12.5157 25.4316 12.7394 25.6504 12.7394 25.9216C12.7394 26.1928 12.5157 26.4116 12.2384 26.4116V26.4131Z" fill="white"/>
<path d="M12.2384 26.4131V27.9131H13.7384V26.4131H12.2384ZM4.43121 22.0317V20.5317H2.93121V22.0317H4.43121ZM4.43121 25.4316H2.93121V26.9316H4.43121V25.4316ZM12.2384 26.4116V24.9116H10.7384V26.4116H12.2384ZM12.2384 26.4131V24.9131H3.93014V26.4131V27.9131H12.2384V26.4131ZM3.93014 26.4131V24.9131C4.44941 24.9131 4.92908 25.3344 4.92908 25.9231H3.42908H1.92908C1.92908 27.0542 2.85619 27.9131 3.93014 27.9131V26.4131ZM3.42908 25.9231H4.92908V21.5417H3.42908H1.92908V25.9231H3.42908ZM3.42908 21.5417H4.92908C4.92908 22.1304 4.44941 22.5518 3.93014 22.5518V21.0518V19.5518C2.85619 19.5518 1.92908 20.4106 1.92908 21.5417H3.42908ZM3.93014 21.0518V22.5518H12.5402V21.0518V19.5518H3.93014V21.0518ZM12.5402 21.0518V22.5518C12.021 22.5518 11.5413 22.1304 11.5413 21.5417H13.0413H14.5413C14.5413 20.4106 13.6142 19.5518 12.5402 19.5518V21.0518ZM13.0413 21.5417H11.5413C11.5413 20.9531 12.021 20.5317 12.5402 20.5317V22.0317V23.5317C13.6142 23.5317 14.5413 22.6728 14.5413 21.5417H13.0413ZM12.5402 22.0317V20.5317H4.43121V22.0317V23.5317H12.5402V22.0317ZM4.43121 22.0317H2.93121V25.4316H4.43121H5.93121V22.0317H4.43121ZM4.43121 25.4316V26.9316H12.2384V25.4316V23.9316H4.43121V25.4316ZM12.2384 25.4316V26.9316C11.7191 26.9316 11.2394 26.5103 11.2394 25.9216H12.7394H14.2394C14.2394 24.7905 13.3123 23.9316 12.2384 23.9316V25.4316ZM12.7394 25.9216H11.2394C11.2394 25.3329 11.7191 24.9116 12.2384 24.9116V26.4116V27.9116C13.3123 27.9116 14.2394 27.0527 14.2394 25.9216H12.7394ZM12.2384 26.4116H10.7384V26.4131H12.2384H13.7384V26.4116H12.2384Z" fill="white" mask="url(#path-17-inside-9_4081_823)"/>
</g>
<defs>
<clipPath id="clip0_4081_823">
<rect width="28" height="32" fill="white" transform="translate(0.632568 0.931152)"/>
</clipPath>
</defs>
</svg>
