<svg width="38" height="38" viewBox="0 0 38 38" fill="none" xmlns="http://www.w3.org/2000/svg">
<path d="M36.4545 21.102V16.4714C36.4545 16.4714 33.8472 15.8099 32.4181 15.4399C32.0799 13.9935 31.5236 12.6481 30.7927 11.4147L32.9418 7.74838L29.7563 4.47444L26.189 6.68323C24.989 5.93201 23.669 5.3602 22.2727 5.01262C21.9127 3.53262 21.269 0.864136 21.269 0.864136H16.7636C16.7636 0.864136 16.1199 3.54383 15.7599 5.01262C14.3527 5.3602 13.0436 5.93201 11.8436 6.68323L8.27631 4.47444L5.09085 7.74838L7.23994 11.4147C6.50903 12.6481 5.95267 14.0047 5.61449 15.4399L1.57812 16.4714V21.102L5.61449 22.1335C5.95267 23.5799 6.50903 24.9253 7.23994 26.1587C6.47631 27.4593 5.09085 29.825 5.09085 29.825L8.27631 33.099C8.27631 33.099 10.5781 31.675 11.8436 30.8902C13.0436 31.6414 14.3636 32.2132 15.7599 32.5608L16.7636 36.7093H21.269L22.2727 32.5608C23.6799 32.2132 24.989 31.6414 26.189 30.8902C27.4545 31.675 29.7563 33.099 29.7563 33.099L32.9418 29.825C32.9418 29.825 31.5563 27.4593 30.7927 26.1587C31.5236 24.9253 32.0799 23.5687 32.4181 22.1335C33.8581 21.7635 36.4545 21.102 36.4545 21.102Z" stroke="white" stroke-width="1.5" stroke-linejoin="round"/>
<path d="M16.8291 23.6696V17.3908V12.3453H12.4982V23.6696" stroke="white" stroke-width="1.5" stroke-linejoin="round"/>
<path d="M21.1709 23.6695V16.5162V14.7111H25.5018V23.6695" stroke="white" stroke-width="1.5" stroke-linejoin="round"/>
<path d="M21.1709 17.929H16.84" stroke="white" stroke-width="1.5" stroke-linejoin="round"/>
<path d="M11.1127 23.6696H25.5018H26.8872" stroke="white" stroke-width="1.5" stroke-linejoin="round"/>
</svg>
