<svg width="29" height="35" viewBox="0 0 29 35" fill="none" xmlns="http://www.w3.org/2000/svg">
<g style="mix-blend-mode:multiply">
<path opacity="0.03" d="M19.7001 0.965881H4.40366C3.31128 0.965881 2.41748 1.84556 2.41748 2.9203V32.54C2.41748 33.6151 3.31128 34.4944 4.40366 34.4944H26.3016C27.3939 34.4944 28.665 33.6147 28.665 32.54V9.06035L19.7001 0.965881Z" fill="#1B1B1B"/>
<path opacity="0.06" d="M19.6752 0.977081H4.40728C3.31841 0.977081 2.42773 1.85445 2.42773 2.92649V32.4703C2.42773 33.5423 3.31841 34.4197 4.40728 34.4197H26.2439C27.3328 34.4197 28.5882 33.5423 28.5882 32.4703V9.05073L19.6752 0.977081Z" fill="#1D1D1D"/>
<path opacity="0.1" d="M19.6504 0.988251H4.4109C3.32594 0.988251 2.43799 1.86331 2.43799 2.93265V32.4009C2.43799 33.4702 3.32594 34.3453 4.4109 34.3453H26.1863C27.2713 34.3453 28.5115 33.4702 28.5115 32.4009V9.04147L19.6504 0.988251Z" fill="#202020"/>
<path opacity="0.13" d="M19.6253 0.99942H4.41355C3.33209 0.99942 2.44727 1.87216 2.44727 2.93881V32.3311C2.44727 33.3977 3.33209 34.2705 4.41355 34.2705H26.1281C27.2095 34.2705 28.4342 33.3977 28.4342 32.3311V9.03182L19.6253 0.99942Z" fill="#222222"/>
<path opacity="0.16" d="M19.6004 1.01062H4.41717C3.33922 1.01062 2.45752 1.88105 2.45752 2.945V32.2617C2.45752 33.3257 3.33922 34.1961 4.41717 34.1961H26.0704C27.1484 34.1961 28.3574 33.3257 28.3574 32.2617V9.02221L19.6004 1.01062Z" fill="#242424"/>
<path opacity="0.19" d="M19.5756 1.02179H4.42079C3.34675 1.02179 2.46777 1.88991 2.46777 2.95115V32.1919C2.46777 33.2532 3.34675 34.1213 4.42079 34.1213H26.0128C27.0869 34.1213 28.2807 33.2532 28.2807 32.1919V9.01295L19.5756 1.02179Z" fill="#262626"/>
<path opacity="0.23" d="M19.5507 1.03296H4.42441C3.35388 1.03296 2.47803 1.89915 2.47803 2.95731V32.1221C2.47803 33.1807 3.35388 34.0465 4.42441 34.0465H25.9556C27.0261 34.0465 28.2043 33.1803 28.2043 32.1221V9.0033L19.5507 1.03296Z" fill="#292929"/>
<path opacity="0.26" d="M19.5258 1.04416H4.42794C3.36092 1.04416 2.48779 1.90804 2.48779 2.9635V32.0528C2.48779 33.1086 3.36092 33.9721 4.42794 33.9721H25.8979C26.9649 33.9721 28.1275 33.1082 28.1275 32.0528V8.99368L19.5258 1.04416Z" fill="#2B2B2B"/>
<path opacity="0.29" d="M19.5009 1.05533H4.43156C3.36805 1.05533 2.49805 1.91689 2.49805 2.96966V31.983C2.49805 33.0361 3.36805 33.8973 4.43156 33.8973H25.8406C26.9041 33.8973 28.0507 33.0358 28.0507 31.983V8.98442L19.5009 1.05533Z" fill="#2D2D2D"/>
<path opacity="0.32" d="M19.476 1.0665H4.43469C3.37508 1.0665 2.50781 1.92575 2.50781 2.97582V31.9132C2.50781 32.9633 3.37508 33.8225 4.43469 33.8225H25.7825C26.8421 33.8225 27.9735 32.9633 27.9735 31.9132V8.97477L19.476 1.0665Z" fill="#2F2F2F"/>
<path opacity="0.35" d="M19.4511 1.07767H4.43831C3.38222 1.07767 2.51807 1.93461 2.51807 2.98198V31.8438C2.51807 32.8912 3.38222 33.7481 4.43831 33.7481H25.7249C26.781 33.7481 27.8967 32.8912 27.8967 31.8438V8.96513L19.4511 1.07767Z" fill="#313131"/>
<path opacity="0.39" d="M19.4262 1.08887H4.44193C3.38935 1.08887 2.52832 1.94349 2.52832 2.98816V31.7741C2.52832 32.8187 3.38935 33.6734 4.44193 33.6734H25.6676C26.7202 33.6734 27.8204 32.8187 27.8204 31.7741V8.95551L19.4262 1.08887Z" fill="#343434"/>
<path opacity="0.42" d="M19.4014 1.10004H4.44555C3.39648 1.10004 2.53857 1.95274 2.53857 2.99432V31.7043C2.53857 32.7463 3.39687 33.5986 4.44555 33.5986H25.61C26.6591 33.5986 27.7436 32.7459 27.7436 31.7043V8.94625L19.4014 1.10004Z" fill="#363636"/>
<path opacity="0.45" d="M19.3764 1.11121H4.44908C3.40391 1.11121 2.54834 1.96159 2.54834 3.00087V31.6353C2.54834 32.6745 3.40352 33.5249 4.44908 33.5249H25.5523C26.5974 33.5249 27.6668 32.6745 27.6668 31.6353V8.9366L19.3764 1.11121Z" fill="#383838"/>
<path opacity="0.48" d="M19.3515 1.12241H4.45221C3.41055 1.12241 2.55811 1.97048 2.55811 3.00705V31.5655C2.55811 32.6021 3.41055 33.4502 4.45221 33.4502H25.4945C26.5362 33.4502 27.59 32.6021 27.59 31.5655V8.92699L19.3515 1.12241Z" fill="#3A3A3A"/>
<path opacity="0.52" d="M19.3266 1.13397H4.45583C3.41768 1.13397 2.56836 1.97973 2.56836 3.01361V31.4965C2.56836 32.5304 3.41768 33.3761 4.45583 33.3761H25.4369C26.4751 33.3761 27.5132 32.5304 27.5132 31.4965V8.91774L19.3266 1.13397Z" fill="#3D3D3D"/>
<path opacity="0.55" d="M19.3018 1.14514H4.45946C3.42482 1.14514 2.57861 1.98859 2.57861 3.01977V31.4267C2.57861 32.4575 3.42482 33.3014 4.45946 33.3014H25.3793C26.4139 33.3014 27.4365 32.4579 27.4365 31.4267V8.90809L19.3018 1.14514Z" fill="#3F3F3F"/>
<path opacity="0.58" d="M19.2769 1.15631H4.46308C3.43234 1.15631 2.58887 1.99744 2.58887 3.02593V31.3569C2.58887 32.385 3.43234 33.2266 4.46308 33.2266H25.322C26.3528 33.2266 27.3601 32.3854 27.3601 31.3569V8.89844L19.2769 1.15631Z" fill="#414141"/>
<path opacity="0.61" d="M19.252 1.16751H4.4667C3.43947 1.16751 2.59912 2.00633 2.59912 3.03211V31.2876C2.59912 32.313 3.43947 33.1522 4.4667 33.1522H25.2644C26.2916 33.1522 27.283 32.3134 27.283 31.2876V8.88883L19.252 1.16751Z" fill="#434343"/>
<path opacity="0.65" d="M19.2266 1.17868H4.46973C3.44602 1.17868 2.6084 2.01557 2.6084 3.03827V31.2178C2.6084 32.2405 3.44602 33.0774 4.46973 33.0774H25.2062C26.2299 33.0774 27.2056 32.2405 27.2056 31.2178V8.87956L19.2266 1.17868Z" fill="#464646"/>
<path opacity="0.68" d="M19.2021 1.18985H4.47336C3.45315 1.18985 2.61865 2.02443 2.61865 3.04443V31.148C2.61865 32.168 3.45315 33.0026 4.47336 33.0026H25.149C26.1692 33.0026 27.1293 32.168 27.1293 31.148V8.86992L19.2021 1.18985Z" fill="#484848"/>
<path opacity="0.71" d="M19.1773 1.20105H4.47698C3.46067 1.20105 2.62891 2.03332 2.62891 3.05062V31.0786C2.62891 32.0959 3.46067 32.9282 4.47698 32.9282H25.0913C26.1076 32.9282 27.0525 32.0959 27.0525 31.0786V8.8603L19.1773 1.20105Z" fill="#4A4A4A"/>
<path opacity="0.74" d="M19.1524 1.21222H4.4806C3.46781 1.21222 2.63916 2.04217 2.63916 3.05678V31.0089C2.63916 32.0235 3.46781 32.8534 4.4806 32.8534H25.0341C26.0469 32.8534 26.9762 32.0235 26.9762 31.0089V8.85104L19.1524 1.21222Z" fill="#4C4C4C"/>
<path opacity="0.77" d="M19.1276 1.22339H4.48422C3.47494 1.22339 2.64941 2.05103 2.64941 3.06294V30.9395C2.64941 31.951 3.47494 32.779 4.48422 32.779H24.9765C25.9857 32.779 26.8994 31.9514 26.8994 30.9395V8.84139L19.1276 1.22339Z" fill="#4E4E4E"/>
<path opacity="0.81" d="M19.1022 1.23459H4.48735C3.48197 1.23459 2.65918 2.05992 2.65918 3.06912V30.8697C2.65918 31.8785 3.48197 32.7042 4.48735 32.7042H24.9183C25.9237 32.7042 26.8222 31.8789 26.8222 30.8697V8.83178L19.1022 1.23459Z" fill="#515151"/>
<path opacity="0.84" d="M19.0773 1.24576H4.49097C3.48911 1.24576 2.66943 2.06916 2.66943 3.07528V30.7999C2.66943 31.8061 3.48911 32.6295 4.49097 32.6295H24.8611C25.863 32.6295 26.7458 31.8061 26.7458 30.7999V8.82252L19.0773 1.24576Z" fill="#535353"/>
<path opacity="0.87" d="M19.0528 1.25693H4.4945C3.49614 1.25693 2.6792 2.07802 2.6792 3.08144V30.7305C2.6792 31.734 3.49614 32.555 4.4945 32.555H24.8034C25.8017 32.555 26.669 31.734 26.669 30.7305V8.81287L19.0528 1.25693Z" fill="#555555"/>
<path opacity="0.9" d="M19.0279 1.26813H4.49812C3.50328 1.26813 2.68945 2.0869 2.68945 3.08763V30.6608C2.68945 31.6615 3.50328 32.4803 4.49812 32.4803H24.7457C25.7406 32.4803 26.5923 31.6615 26.5923 30.6608V8.80325L19.0279 1.26813Z" fill="#575757"/>
<path opacity="0.94" d="M19.0031 1.2793H4.50174C3.5108 1.2793 2.69971 2.09576 2.69971 3.09379V30.591C2.69971 31.589 3.5108 32.4055 4.50174 32.4055H24.6885C25.6794 32.4055 26.5155 31.589 26.5155 30.591V8.79361L19.0031 1.2793Z" fill="#5A5A5A"/>
<path opacity="0.97" d="M18.9777 1.29047H4.50487C3.51744 1.29047 2.70947 2.10462 2.70947 3.09995V30.5216C2.70947 31.5169 3.51744 32.3311 4.50487 32.3311H24.6304C25.6178 32.3311 26.4383 31.5169 26.4383 30.5216V8.78434L18.9777 1.29047Z" fill="#5C5C5C"/>
<path d="M18.9529 1.30164H4.5085C3.52458 1.30164 2.71973 2.11347 2.71973 3.1061V30.4518C2.71973 31.4444 3.52458 32.2563 4.5085 32.2563H24.5728C25.5567 32.2563 26.3615 31.4444 26.3615 30.4518V8.7747L18.9529 1.30164Z" fill="#5E5E5E"/>
</g>
<g opacity="0.5">
<path opacity="0.03" d="M19.752 0.631287H4.19852C3.11551 0.631287 1.85498 1.4994 1.85498 2.56065V25.7392L10.7446 33.73H19.7524V0.631287H19.752Z" fill="#1B1B1B"/>
<path opacity="0.06" d="M19.7692 0.693726H4.25196C3.17207 0.693726 1.92676 1.55837 1.92676 2.61538V25.7022L10.7668 33.6614H19.7692V0.693726Z" fill="#1D1D1D"/>
<path opacity="0.1" d="M19.7863 0.755798H4.30492C3.22853 0.755798 1.99805 1.61736 1.99805 2.67013V25.6656L10.789 33.5932H19.7859V0.755798H19.7863Z" fill="#202020"/>
<path opacity="0.13" d="M19.8035 0.817841H4.35846C3.28519 0.817841 2.07031 1.67594 2.07031 2.72446V25.6286L10.8117 33.5245H19.8035V0.817841Z" fill="#222222"/>
<path opacity="0.16" d="M19.8202 0.879913H4.41141C3.34166 0.879913 2.1416 1.73454 2.1416 2.77882V25.5916L10.8338 33.4563H19.8202V0.879913Z" fill="#242424"/>
<path opacity="0.19" d="M19.8374 0.942352H4.46495C3.39832 0.942352 2.21387 1.79351 2.21387 2.83355V25.555L10.8565 33.3881H19.8374V0.942352Z" fill="#262626"/>
<path opacity="0.23" d="M19.8545 1.00443H4.5179C3.45478 1.00443 2.28516 1.85211 2.28516 2.8883V25.518L10.8787 33.3195H19.8545V1.00443Z" fill="#292929"/>
<path opacity="0.26" d="M19.8713 1.0665H4.57134C3.51134 1.0665 2.35693 1.91072 2.35693 2.94267V25.481L10.9009 33.2508H19.8713V1.0665Z" fill="#2B2B2B"/>
<path opacity="0.29" d="M19.8884 1.12894H4.62439C3.56752 1.12894 2.42871 1.96969 2.42871 2.99739V25.4443L10.9231 33.1826H19.8884V1.12894Z" fill="#2D2D2D"/>
<path opacity="0.32" d="M19.9056 1.19101H4.67783C3.62447 1.19101 2.50049 2.02829 2.50049 3.05176V25.4073L10.9457 33.1144H19.9056V1.19101Z" fill="#2F2F2F"/>
<path opacity="0.35" d="M19.9227 1.25308H4.73088C3.68064 1.25308 2.57227 2.08689 2.57227 3.10651V25.3707L10.968 33.0462H19.9224V1.25308H19.9227Z" fill="#313131"/>
<path opacity="0.39" d="M19.9395 1.31512H4.78432C3.73759 1.31512 2.64404 2.14585 2.64404 3.16084V25.3333L10.9906 32.9771H19.9399V1.31512H19.9395Z" fill="#343434"/>
<path opacity="0.42" d="M19.9571 1.37759H4.83777C3.79415 1.37759 2.71582 2.20485 2.71582 3.2156V25.2967L11.0128 32.9089H19.9567V1.37759H19.9571Z" fill="#363636"/>
<path opacity="0.45" d="M19.9738 1.43964H4.89082C3.85072 1.43964 2.7876 2.26342 2.7876 3.26993V25.2597L11.0354 32.8407H19.9738V1.43964Z" fill="#383838"/>
<path opacity="0.48" d="M19.991 1.50171H4.94426C3.90728 1.50171 2.85938 2.32203 2.85938 3.32468V25.2231L11.0577 32.7725H19.991V1.50171Z" fill="#3A3A3A"/>
<path opacity="0.52" d="M20.0082 1.56415H4.99731C3.96384 1.56415 2.93115 2.381 2.93115 3.37941V25.1864L11.0803 32.7042H20.0082V1.56415Z" fill="#3D3D3D"/>
<path opacity="0.55" d="M20.0253 1.62622H5.05075C4.0204 1.62622 3.00293 2.4396 3.00293 3.43377V25.1491L11.1025 32.6352H20.0253V1.62622Z" fill="#3F3F3F"/>
<path opacity="0.58" d="M20.0425 1.68829H5.1038C4.07696 1.68829 3.07471 2.4982 3.07471 3.48813V25.1121L11.1251 32.567H20.0425V1.68829Z" fill="#414141"/>
<path opacity="0.61" d="M20.0592 1.75073H5.15724C4.13353 1.75073 3.14648 2.55717 3.14648 3.54325V25.0758L11.1474 32.4991H20.0592V1.75073Z" fill="#434343"/>
<path opacity="0.65" d="M20.0763 1.81281H5.21019C4.18999 1.81281 3.21777 2.61578 3.21777 3.59761V25.0388L11.1695 32.4305H20.0763V1.81281Z" fill="#464646"/>
<path opacity="0.68" d="M20.0935 1.87485H5.26373C4.24665 1.87485 3.29004 2.67473 3.29004 3.65194V25.0018L11.1922 32.3619H20.0935V1.87485Z" fill="#484848"/>
<path opacity="0.71" d="M20.1102 1.93692H5.31669C4.30311 1.93692 3.36133 2.73334 3.36133 3.70631V24.9644L11.2144 32.2929H20.1102V1.93692Z" fill="#4A4A4A"/>
<path opacity="0.74" d="M20.1275 1.99936H5.37022C4.35977 1.99936 3.43359 2.79231 3.43359 3.76142V24.9282L11.2371 32.2254H20.1279V1.99936H20.1275Z" fill="#4C4C4C"/>
<path opacity="0.77" d="M20.1445 2.06143H5.42318C4.41624 2.06143 3.50488 2.85091 3.50488 3.81579V24.8912L11.2592 32.1568H20.1445V2.06143Z" fill="#4E4E4E"/>
<path opacity="0.81" d="M20.1617 2.1235H5.47662C4.4728 2.1235 3.57666 2.90951 3.57666 3.87015V24.8542L11.2814 32.0882H20.1617V2.1235Z" fill="#515151"/>
<path opacity="0.84" d="M20.1785 2.18594H5.52967C4.52936 2.18594 3.64844 2.96848 3.64844 3.92526V24.8179L11.3041 32.0204H20.1789V2.18594H20.1785Z" fill="#535353"/>
<path opacity="0.87" d="M20.1956 2.24802H5.58311C4.58592 2.24802 3.72021 3.02709 3.72021 3.97963V24.7805L11.3263 31.9518H20.1956V2.24802Z" fill="#555555"/>
<path opacity="0.9" d="M20.2128 2.31009H5.63616C4.64249 2.31009 3.79199 3.08569 3.79199 4.03399V24.7435L11.3485 31.8832H20.2128V2.31009Z" fill="#575757"/>
<path opacity="0.94" d="M20.2299 2.37213H5.6896C4.69905 2.37213 3.86377 3.14465 3.86377 4.08832V24.7065L11.3711 31.8145H20.2299V2.37213Z" fill="#5A5A5A"/>
<path opacity="0.97" d="M20.2466 2.4346H5.74255C4.75551 2.4346 3.93506 3.20365 3.93506 4.14347V24.6703L11.3929 31.7467H20.2462V2.4346H20.2466Z" fill="#5C5C5C"/>
<path d="M20.2639 2.49664H5.79609C4.81217 2.49664 4.00732 3.26222 4.00732 4.1978V24.6333L11.416 31.678H20.2643V2.49664H20.2639Z" fill="#5E5E5E"/>
</g>
<path d="M19.8468 0.954712H4.32952C3.27264 0.954712 2.40771 1.80934 2.40771 2.85362V31.6295C2.40771 32.6738 3.27264 33.5284 4.32952 33.5284H25.8837C26.9406 33.5284 27.8055 32.6738 27.8055 31.6295V8.81866L19.8468 0.954712Z" fill="#F5F5F4"/>
<path d="M19.8467 6.91975C19.8467 7.96403 20.7116 8.81866 21.7685 8.81866H27.8054L19.8467 0.954712V6.91975Z" fill="#EAEAEA"/>
<path d="M1.20986 19.1998H17.4535C19.1038 19.1998 20.4435 20.5236 20.4435 22.1542V25.8826C20.4435 27.5133 19.1038 28.837 17.4535 28.837H1.20986C0.951592 28.837 0.741699 28.6296 0.741699 28.3744V19.6624C0.741699 19.4072 0.951592 19.1998 1.20986 19.1998Z" fill="#FA3432"/>
<path d="M4.35381 21.7823C4.35381 21.7372 4.36512 21.7014 4.38736 21.6748C4.4096 21.6482 4.44315 21.6347 4.48801 21.6347H6.43869C6.57914 21.6347 6.71139 21.6551 6.83546 21.6956C6.95952 21.7364 7.07344 21.7923 7.17722 21.8644C7.28099 21.9361 7.37462 22.0217 7.45811 22.1215C7.5416 22.221 7.61222 22.3289 7.67035 22.4446C7.72848 22.5602 7.77256 22.6817 7.80299 22.8093C7.83342 22.9368 7.84864 23.066 7.84864 23.1963C7.84864 23.389 7.81548 23.5775 7.74954 23.7618C7.68322 23.9461 7.5892 24.1099 7.46709 24.2533C7.34497 24.3967 7.19828 24.5131 7.0274 24.6018C6.85652 24.6908 6.66731 24.7363 6.45937 24.7382H5.53436V26.2678C5.53436 26.36 5.48754 26.4059 5.39391 26.4059H4.48723C4.44666 26.4059 4.41389 26.3947 4.3897 26.3719C4.36512 26.3496 4.35303 26.3145 4.35303 26.2675V21.7819L4.35381 21.7823ZM6.65287 23.1893C6.65287 23.125 6.64234 23.061 6.62088 22.9966C6.59943 22.9322 6.5686 22.8752 6.52764 22.8247C6.48707 22.7742 6.43752 22.7329 6.37939 22.7009C6.32126 22.6689 6.25572 22.6527 6.18237 22.6527H5.53514V23.7259H6.18237C6.25572 23.7259 6.32165 23.7105 6.38095 23.6793C6.43986 23.6481 6.48941 23.608 6.5292 23.5586C6.56899 23.5093 6.59943 23.4526 6.62088 23.3883C6.64234 23.3239 6.65287 23.2576 6.65287 23.189V23.1893Z" fill="#F5F5F4"/>
<path d="M12.8281 24.025C12.8281 24.252 12.8008 24.4679 12.7458 24.6726C12.6908 24.8773 12.6124 25.0677 12.5105 25.2447C12.4087 25.4216 12.287 25.5816 12.1458 25.725C12.0041 25.8684 11.8477 25.9906 11.6757 26.0912C11.5036 26.1918 11.3179 26.2697 11.1185 26.324C10.9192 26.3788 10.7124 26.4061 10.4986 26.4061H8.99348C8.9568 26.4061 8.92442 26.3976 8.89594 26.3803C8.86746 26.3633 8.85303 26.3267 8.85303 26.2712V21.7826C8.85303 21.7375 8.86473 21.7013 8.88814 21.6735C8.91155 21.6457 8.94666 21.6319 8.99348 21.6319H10.4986C10.7124 21.6319 10.9184 21.6596 11.117 21.7155C11.3156 21.7714 11.5005 21.8504 11.6725 21.9534C11.8446 22.0563 12.0018 22.1793 12.1442 22.323C12.2866 22.4664 12.4083 22.6272 12.509 22.8049C12.6096 22.9826 12.6881 23.1746 12.7442 23.3801C12.8 23.5855 12.8281 23.801 12.8281 24.0257V24.025ZM10.0347 22.7845V25.2554H10.2911C10.3379 25.2554 10.3835 25.2539 10.4284 25.2508C10.4733 25.2477 10.5181 25.2439 10.5626 25.2396C10.7151 25.2269 10.8575 25.1876 10.9902 25.1225C11.1224 25.0573 11.2379 24.9713 11.3366 24.8653C11.4353 24.7593 11.5126 24.6344 11.5688 24.491C11.6245 24.3476 11.6526 24.1911 11.6526 24.0219C11.6526 23.8419 11.6206 23.6765 11.5567 23.5254C11.4927 23.3743 11.4057 23.2436 11.2957 23.1333C11.1856 23.0231 11.0569 22.9375 10.9094 22.8762C10.762 22.8153 10.6047 22.7845 10.4378 22.7845H10.0347Z" fill="#F5F5F4"/>
<path d="M13.8837 21.7822C13.8837 21.7371 13.8954 21.702 13.9188 21.6762C13.9422 21.6504 13.9703 21.6365 14.0027 21.6346H16.9244C16.9712 21.6346 17.0063 21.6484 17.0297 21.6762C17.0531 21.7039 17.0649 21.7413 17.0649 21.7884V22.5829C17.0649 22.6191 17.0528 22.6538 17.0282 22.6869C17.0036 22.7201 16.9681 22.7367 16.9213 22.7367H15.065V23.7328H16.436C16.4746 23.7328 16.5073 23.7439 16.5335 23.7663C16.56 23.7887 16.5733 23.8249 16.5733 23.8738V24.6417C16.5733 24.678 16.5616 24.7131 16.5382 24.7462C16.5148 24.7794 16.4828 24.7959 16.4418 24.7959H15.065V26.2677C15.065 26.3599 15.0182 26.4057 14.9246 26.4057H13.9933C13.92 26.3949 13.8833 26.3502 13.8833 26.2708V21.7822H13.8837Z" fill="#F5F5F4"/>
<path d="M24.3721 11.44H5.84072C5.58216 11.44 5.37256 11.6471 5.37256 11.9026V12.3651C5.37256 12.6206 5.58216 12.8277 5.84072 12.8277H24.3721C24.6307 12.8277 24.8403 12.6206 24.8403 12.3651V11.9026C24.8403 11.6471 24.6307 11.44 24.3721 11.44Z" fill="#DDDDDD"/>
<path d="M24.3721 14.5624H5.84072C5.58216 14.5624 5.37256 14.7695 5.37256 15.025V15.4876C5.37256 15.7431 5.58216 15.9502 5.84072 15.9502H24.3721C24.6307 15.9502 24.8403 15.7431 24.8403 15.4876V15.025C24.8403 14.7695 24.6307 14.5624 24.3721 14.5624Z" fill="#DDDDDD"/>
</svg>
