<svg width="53" height="62" viewBox="0 0 53 62" fill="none" xmlns="http://www.w3.org/2000/svg">
<rect x="8" y="7.59082" width="45" height="54.0488" rx="3" fill="#999999"/>
<path d="M43.0527 22.4602C33.2486 22.4602 27.7519 22.4602 17.9478 22.4602M43.0527 34.6831C33.2486 34.6831 27.7519 34.6831 17.9478 34.6831M43.0527 46.7703H17.9478" stroke="white" stroke-width="5" stroke-linecap="round" stroke-linejoin="round"/>
<circle cx="10.395" cy="10.1926" r="10" fill="#B9E300"/>
<path d="M9.90302 3.73463C12.465 3.73463 13.977 5.24663 13.977 7.31863C13.977 8.50863 13.403 9.53063 11.401 11.6026L9.76302 13.2966H14.201V15.4526H6.03902V13.9966L9.77702 10.1466C11.149 8.73263 11.471 7.99063 11.471 7.34663C11.471 6.50663 11.009 5.94663 9.90302 5.94663C8.86702 5.94663 8.30702 6.78663 8.30702 7.65463H5.80102C5.80102 5.41463 7.49502 3.73463 9.90302 3.73463Z" fill="white"/>
</svg>
