<svg width="28" height="28" viewBox="0 0 28 28" fill="none" xmlns="http://www.w3.org/2000/svg">
<path d="M17.6078 21.4288V22.7204C17.6078 24.8605 15.817 26.5954 13.6078 26.5954C11.3987 26.5954 9.60783 24.8605 9.60783 22.7204V21.4288M17.6078 21.4288H9.60783M17.6078 21.4288H22.3952C22.9052 21.4288 23.1614 21.4288 23.368 21.3613C23.7624 21.2324 24.0711 20.9323 24.2042 20.5501C24.2741 20.3493 24.2741 20.1003 24.2741 19.6023C24.2741 19.3843 24.2739 19.2754 24.2563 19.1715C24.223 18.9752 24.1444 18.789 24.0246 18.6274C23.9613 18.542 23.8808 18.4641 23.7222 18.3104L23.2029 17.8073C23.0353 17.645 22.9412 17.4248 22.9412 17.1952V12.3871C22.9412 7.3935 18.7625 3.34541 13.6078 3.34542C8.45318 3.34543 4.2745 7.39352 4.2745 12.3871V17.1952C4.2745 17.4248 4.18015 17.645 4.01258 17.8073L3.49325 18.3104C3.33419 18.4645 3.25455 18.5419 3.19116 18.6274C3.07137 18.7891 2.99202 18.9751 2.95876 19.1715C2.94116 19.2754 2.94116 19.3843 2.94116 19.6023C2.94116 20.1003 2.94116 20.3492 3.0111 20.5501C3.14416 20.9322 3.45423 21.2324 3.84871 21.3613C4.05524 21.4288 4.31051 21.4288 4.82057 21.4288H9.60783M21.6326 2.07141C23.4715 3.41386 24.9203 5.19478 25.8377 7.24075M5.58378 2.07141C3.74483 3.41386 2.29609 5.19478 1.37866 7.24075" stroke="#151329" stroke-width="2.5" stroke-linecap="round" stroke-linejoin="round"/>
</svg>
