<svg width="9" height="16" viewBox="0 0 9 16" fill="none" xmlns="http://www.w3.org/2000/svg">
<g clip-path="url(#clip0_4066_55)">
<path d="M9.00005 14.2332C9.00005 15.194 8.23945 15.9718 7.29989 15.9718C6.36033 15.9718 5.59973 15.194 5.59973 14.2332V2.71044C5.59973 1.74962 6.36033 0.971802 7.29989 0.971802C8.23945 0.971802 9.00005 1.74962 9.00005 2.71044V14.2332Z" fill="white"/>
<path d="M3.40264 14.2332C3.40264 15.194 2.64204 15.9718 1.70248 15.9718C0.762921 15.9718 0.00232479 15.194 0.00232479 14.2332V2.71044C-2.99991e-05 1.74962 0.760567 0.971802 1.70013 0.971802C2.63969 0.971802 3.40028 1.74962 3.40028 2.71044V14.2332H3.40264Z" fill="white"/>
</g>
<defs>
<clipPath id="clip0_4066_55">
<rect width="9" height="15" fill="white" transform="translate(0 0.971802)"/>
</clipPath>
</defs>
</svg>
