<svg width="31" height="38" viewBox="0 0 31 38" fill="none" xmlns="http://www.w3.org/2000/svg">
<g style="mix-blend-mode:multiply">
<path opacity="0.03" d="M21.0219 1.10037H4.73275C3.56948 1.10037 2.61768 2.04844 2.61768 3.20673V35.129C2.61768 36.2877 3.56948 37.2353 4.73275 37.2353H28.0518C29.2151 37.2353 30.5686 36.2873 30.5686 35.129V9.82408L21.0219 1.10037Z" fill="#1B1B1B"/>
<path opacity="0.06" d="M20.9952 1.1124H4.73643C3.5769 1.1124 2.62842 2.05797 2.62842 3.21335V35.0538C2.62842 36.2091 3.5769 37.1547 4.73643 37.1547H27.9902C29.1498 37.1547 30.4867 36.2091 30.4867 35.0538V9.81367L20.9952 1.1124Z" fill="#1D1D1D"/>
<path opacity="0.1" d="M20.9686 1.12445H4.74011C3.58473 1.12445 2.63916 2.06753 2.63916 3.22V34.979C2.63916 36.1315 3.58473 37.0745 4.74011 37.0745H27.9287C29.0841 37.0745 30.4048 36.1315 30.4048 34.979V9.80371L20.9686 1.12445Z" fill="#202020"/>
<path opacity="0.13" d="M20.9423 1.13651H4.7433C3.59166 1.13651 2.64941 2.07709 2.64941 3.22666V34.9038C2.64941 36.0534 3.59166 36.9939 4.7433 36.9939H27.8671C29.0187 36.9939 30.3228 36.0534 30.3228 34.9038V9.79333L20.9423 1.13651Z" fill="#222222"/>
<path opacity="0.16" d="M20.9161 1.14856H4.74747C3.59957 1.14856 2.66064 2.08666 2.66064 3.23331V34.829C2.66064 35.9757 3.59957 36.9138 4.74747 36.9138H27.806C28.9539 36.9138 30.2414 35.9757 30.2414 34.829V9.78295L20.9161 1.14856Z" fill="#242424"/>
<path opacity="0.19" d="M20.8895 1.16061H4.75115C3.60741 1.16061 2.67139 2.09622 2.67139 3.23996V34.7538C2.67139 35.8976 3.60741 36.8332 4.75115 36.8332H27.7445C28.8882 36.8332 30.1595 35.8976 30.1595 34.7538V9.77298L20.8895 1.16061Z" fill="#262626"/>
<path opacity="0.23" d="M20.8633 1.17264H4.75532C3.61531 1.17264 2.68262 2.10616 2.68262 3.24659V34.6786C2.68262 35.8194 3.61531 36.7526 4.75532 36.7526H27.6838C28.8238 36.7526 30.0785 35.819 30.0785 34.6786V9.76257L20.8633 1.17264Z" fill="#292929"/>
<path opacity="0.26" d="M20.8366 1.18469H4.75892C3.62266 1.18469 2.69287 2.11573 2.69287 3.25324V34.6038C2.69287 35.7418 3.62266 36.6724 4.75892 36.6724H27.6222C28.7585 36.6724 29.9965 35.7413 29.9965 34.6038V9.75219L20.8366 1.18469Z" fill="#2B2B2B"/>
<path opacity="0.29" d="M20.8099 1.19678H4.7626C3.63008 1.19678 2.70361 2.12532 2.70361 3.25992V34.5287C2.70361 35.6637 3.63008 36.5918 4.7626 36.5918H27.5611C28.6936 36.5918 29.9146 35.6633 29.9146 34.5287V9.74226L20.8099 1.19678Z" fill="#2D2D2D"/>
<path opacity="0.32" d="M20.7837 1.2088H4.76628C3.63791 1.2088 2.71436 2.13485 2.71436 3.26655V34.4534C2.71436 35.5851 3.63791 36.5112 4.76628 36.5112H27.4995C28.6279 36.5112 29.8327 35.5851 29.8327 34.4534V9.73184L20.7837 1.2088Z" fill="#2F2F2F"/>
<path opacity="0.35" d="M20.7571 1.22086H4.76996C3.64533 1.22086 2.7251 2.14441 2.7251 3.2732V34.3787C2.7251 35.5075 3.64533 36.431 4.76996 36.431H27.438C28.5626 36.431 29.7508 35.5075 29.7508 34.3787V9.72147L20.7571 1.22086Z" fill="#313131"/>
<path opacity="0.39" d="M20.7304 1.23291H4.77364C3.65275 1.23291 2.73584 2.15397 2.73584 3.27985V34.3035C2.73584 35.4294 3.65275 36.3504 4.77364 36.3504H27.3768C28.4977 36.3504 29.6693 35.4294 29.6693 34.3035V9.71109L20.7304 1.23291Z" fill="#343434"/>
<path opacity="0.42" d="M20.7038 1.24493H4.77732C3.66017 1.24493 2.74658 2.16392 2.74658 3.28648V34.2283C2.74658 35.3512 3.66058 36.2698 4.77732 36.2698H27.3153C28.4325 36.2698 29.5874 35.3508 29.5874 34.2283V9.70109L20.7038 1.24493Z" fill="#363636"/>
<path opacity="0.45" d="M20.677 1.25699H4.78093C3.66793 1.25699 2.75684 2.17348 2.75684 3.29355V34.1539C2.75684 35.274 3.66751 36.1905 4.78093 36.1905H27.2537C28.3667 36.1905 29.5054 35.274 29.5054 34.1539V9.69071L20.677 1.25699Z" fill="#383838"/>
<path opacity="0.48" d="M20.6508 1.26904H4.78461C3.67535 1.26904 2.76758 2.18304 2.76758 3.3002V34.0787C2.76758 35.1959 3.67535 36.1099 4.78461 36.1099H27.1925C28.3018 36.1099 29.424 35.1959 29.424 34.0787V9.68033L20.6508 1.26904Z" fill="#3A3A3A"/>
<path opacity="0.52" d="M20.6246 1.28149H4.78878C3.68325 1.28149 2.77881 2.193 2.77881 3.30725V34.0043C2.77881 35.1186 3.68325 36.0301 4.78878 36.0301H27.1315C28.237 36.0301 29.3425 35.1186 29.3425 34.0043V9.67035L20.6246 1.28149Z" fill="#3D3D3D"/>
<path opacity="0.55" d="M20.5975 1.29355H4.79197C3.69018 1.29355 2.78906 2.20256 2.78906 3.3139V33.9291C2.78906 35.0401 3.69018 35.9495 4.79197 35.9495H27.0695C28.1712 35.9495 29.2601 35.0405 29.2601 33.9291V9.65997L20.5975 1.29355Z" fill="#3F3F3F"/>
<path opacity="0.58" d="M20.5713 1.3056H4.79614C3.69851 1.3056 2.80029 2.21212 2.80029 3.32056V33.854C2.80029 34.962 3.69851 35.8689 4.79614 35.8689H27.0088C28.1064 35.8689 29.1791 34.9624 29.1791 33.854V9.64959L20.5713 1.3056Z" fill="#414141"/>
<path opacity="0.61" d="M20.5442 1.31766H4.79933C3.70544 1.31766 2.81055 2.22169 2.81055 3.32721V33.7792C2.81055 34.8843 3.70544 35.7887 4.79933 35.7887H26.9468C28.0407 35.7887 29.0963 34.8847 29.0963 33.7792V9.63921L20.5442 1.31766Z" fill="#434343"/>
<path opacity="0.65" d="M20.518 1.32971H4.80342C3.71327 1.32971 2.82129 2.23166 2.82129 3.33386V33.704C2.82129 34.8062 3.71327 35.7081 4.80342 35.7081H26.8856C27.9758 35.7081 29.0149 34.8062 29.0149 33.704V9.62924L20.518 1.32971Z" fill="#464646"/>
<path opacity="0.68" d="M20.4917 1.34177H4.8071C3.72069 1.34177 2.83203 2.24122 2.83203 3.34052V33.6288C2.83203 34.7281 3.72069 35.6275 4.8071 35.6275H26.8245C27.9109 35.6275 28.9334 34.7281 28.9334 33.6288V9.61886L20.4917 1.34177Z" fill="#484848"/>
<path opacity="0.71" d="M20.4651 1.35379H4.81078C3.72852 1.35379 2.84277 2.25076 2.84277 3.34714V33.554C2.84277 34.6504 3.72852 35.5473 4.81078 35.5473H26.763C27.8452 35.5473 28.8515 34.6504 28.8515 33.554V9.60845L20.4651 1.35379Z" fill="#4A4A4A"/>
<path opacity="0.74" d="M20.4389 1.36584H4.81495C3.73643 1.36584 2.854 2.26032 2.854 3.35379V33.4788C2.854 34.5723 3.73643 35.4667 4.81495 35.4667H26.7023C27.7808 35.4667 28.7705 34.5723 28.7705 33.4788V9.59849L20.4389 1.36584Z" fill="#4C4C4C"/>
<path opacity="0.77" d="M20.4123 1.3779H4.81863C3.74385 1.3779 2.86475 2.26988 2.86475 3.36045V33.404C2.86475 34.4942 3.74385 35.3866 4.81863 35.3866H26.6408C27.7156 35.3866 28.6885 34.4946 28.6885 33.404V9.58811L20.4123 1.3779Z" fill="#4E4E4E"/>
<path opacity="0.81" d="M20.3856 1.38992H4.82231C3.75168 1.38992 2.87549 2.27941 2.87549 3.36707V33.3288C2.87549 34.416 3.75168 35.3059 4.82231 35.3059H26.5792C27.6499 35.3059 28.6066 34.4165 28.6066 33.3288V9.5777L20.3856 1.38992Z" fill="#515151"/>
<path opacity="0.84" d="M20.359 1.40198H4.82599C3.7591 1.40198 2.88623 2.28939 2.88623 3.37372V33.2536C2.88623 34.3379 3.7591 35.2254 4.82599 35.2254H26.5181C27.585 35.2254 28.5252 34.3379 28.5252 33.2536V9.56773L20.359 1.40198Z" fill="#535353"/>
<path opacity="0.87" d="M20.3332 1.41403H4.83008C3.76693 1.41403 2.89697 2.29895 2.89697 3.38038V33.1788C2.89697 34.2603 3.76693 35.1452 4.83008 35.1452H26.457C27.5201 35.1452 28.4437 34.2603 28.4437 33.1788V9.55735L20.3332 1.41403Z" fill="#555555"/>
<path opacity="0.9" d="M20.306 1.42609H4.83327C3.77386 1.42609 2.90723 2.30851 2.90723 3.38703V33.1036C2.90723 34.1822 3.77386 35.0646 4.83327 35.0646H26.3949C27.4543 35.0646 28.3613 34.1822 28.3613 33.1036V9.54697L20.306 1.42609Z" fill="#575757"/>
<path opacity="0.94" d="M20.2799 1.43814H4.83744C3.78219 1.43814 2.91846 2.31807 2.91846 3.39368V33.0285C2.91846 34.1041 3.78219 34.984 4.83744 34.984H26.3343C27.3895 34.984 28.2799 34.1041 28.2799 33.0285V9.53659L20.2799 1.43814Z" fill="#5A5A5A"/>
<path opacity="0.97" d="M20.2527 1.4502H4.84063C3.78912 1.4502 2.92871 2.32763 2.92871 3.40034V32.9537C2.92871 34.0264 3.78912 34.9038 4.84063 34.9038H26.2723C27.3238 34.9038 28.1975 34.0264 28.1975 32.9537V9.52663L20.2527 1.4502Z" fill="#5C5C5C"/>
<path d="M20.2266 1.46222H4.8448C3.79702 1.46222 2.93994 2.33717 2.93994 3.40696V32.8785C2.93994 33.9482 3.79702 34.8232 4.8448 34.8232H26.2112C27.259 34.8232 28.1161 33.9482 28.1161 32.8785V9.51622L20.2266 1.46222Z" fill="#5E5E5E"/>
</g>
<g opacity="0.5">
<path opacity="0.03" d="M21.0776 0.739746H4.51468C3.36138 0.739746 2.01904 1.67535 2.01904 2.81909V27.7995L11.4856 36.4115H21.078V0.739746H21.0776Z" fill="#1B1B1B"/>
<path opacity="0.06" d="M21.0956 0.807037H4.57132C3.42135 0.807037 2.09521 1.7389 2.09521 2.87808V27.7596L11.509 36.3375H21.0956V0.807037Z" fill="#1D1D1D"/>
<path opacity="0.1" d="M21.1135 0.873932H4.62748C3.48124 0.873932 2.1709 1.80247 2.1709 2.93708V27.7202L11.5323 36.264H21.1131V0.873932H21.1135Z" fill="#202020"/>
<path opacity="0.13" d="M21.1321 0.940796H4.68469C3.54177 0.940796 2.24805 1.8656 2.24805 2.99563V27.6803L11.5567 36.19H21.1321V0.940796Z" fill="#222222"/>
<path opacity="0.16" d="M21.1496 1.00769H4.74084C3.60167 1.00769 2.32373 1.92875 2.32373 3.05422V27.6404L11.5801 36.1165H21.1496V1.00769Z" fill="#242424"/>
<path opacity="0.19" d="M21.1682 1.07501H4.79805C3.6622 1.07501 2.40088 1.99234 2.40088 3.11323V27.6009L11.6044 36.043H21.1682V1.07501Z" fill="#262626"/>
<path opacity="0.23" d="M21.1866 1.14188H4.8547C3.72258 1.14188 2.47705 2.05546 2.47705 3.1722V27.561L11.6283 35.969H21.1866V1.14188Z" fill="#292929"/>
<path opacity="0.26" d="M21.2042 1.2088H4.91134C3.78255 1.2088 2.55322 2.11865 2.55322 3.23082V27.5212L11.6517 35.8951H21.2042V1.2088Z" fill="#2B2B2B"/>
<path opacity="0.29" d="M21.2227 1.27609H4.96806C3.84259 1.27609 2.62988 2.1822 2.62988 3.2898V27.4817L11.676 35.8215H21.2231V1.27609H21.2227Z" fill="#2D2D2D"/>
<path opacity="0.32" d="M21.2407 1.34296H5.02471C3.90298 1.34296 2.70605 2.24532 2.70605 3.34835V27.4418L11.6994 35.748H21.2407V1.34296Z" fill="#2F2F2F"/>
<path opacity="0.35" d="M21.2592 1.40985H5.08142C3.96302 1.40985 2.78271 2.30848 2.78271 3.40735V27.4023L11.7233 35.6744H21.2588V1.40985H21.2592Z" fill="#313131"/>
<path opacity="0.39" d="M21.2768 1.47675H5.13807C4.0234 1.47675 2.85889 2.37205 2.85889 3.46594V27.362L11.7471 35.6001H21.2772V1.47675H21.2768Z" fill="#343434"/>
<path opacity="0.42" d="M21.2957 1.54407H5.1952C4.08386 1.54407 2.93555 2.43563 2.93555 3.52495V27.3226L11.771 35.5266H21.2953V1.54407H21.2957Z" fill="#363636"/>
<path opacity="0.45" d="M21.3133 1.61093H5.25143C4.14383 1.61093 3.01172 2.49876 3.01172 3.58351V27.2827L11.7948 35.453H21.3133V1.61093Z" fill="#383838"/>
<path opacity="0.48" d="M21.3318 1.67783H5.30857C4.20429 1.67783 3.08838 2.56191 3.08838 3.64251V27.2432L11.8187 35.3795H21.3318V1.67783Z" fill="#3A3A3A"/>
<path opacity="0.52" d="M21.3498 1.74515H5.3648C4.26426 1.74515 3.16455 2.6255 3.16455 3.70152V27.2038L11.8426 35.306H21.3498V1.74515Z" fill="#3D3D3D"/>
<path opacity="0.55" d="M21.3683 1.81201H5.42193C4.32472 1.81201 3.24121 2.68862 3.24121 3.76008V27.1634L11.8665 35.2316H21.3683V1.81201Z" fill="#3F3F3F"/>
<path opacity="0.58" d="M21.3863 1.87891H5.47816C4.38468 1.87891 3.31738 2.75178 3.31738 3.81866V27.1236L11.8903 35.158H21.3863V1.87891Z" fill="#414141"/>
<path opacity="0.61" d="M21.4044 1.9462H5.53529C4.44514 1.9462 3.39404 2.81533 3.39404 3.87806V27.0845L11.9142 35.0849H21.4044V1.9462Z" fill="#434343"/>
<path opacity="0.65" d="M21.4223 2.01309H5.59145C4.50504 2.01309 3.46973 2.87848 3.46973 3.93665V27.0446L11.9375 35.011H21.4223V2.01309Z" fill="#464646"/>
<path opacity="0.68" d="M21.4409 2.07999H5.64866C4.56557 2.07999 3.54688 2.94205 3.54688 3.99523V27.0047L11.9619 34.937H21.4409V2.07999Z" fill="#484848"/>
<path opacity="0.71" d="M21.4584 2.14688H5.70482C4.62546 2.14688 3.62256 3.00521 3.62256 4.05382V26.9645L11.9852 34.8627H21.4584V2.14688Z" fill="#4A4A4A"/>
<path opacity="0.74" d="M21.477 2.21417H5.76202C4.686 2.21417 3.69971 3.06876 3.69971 4.11321V26.9254L12.0096 34.7899H21.4774V2.21417H21.477Z" fill="#4C4C4C"/>
<path opacity="0.77" d="M21.4949 2.28107H5.81818C4.74589 2.28107 3.77539 3.13192 3.77539 4.1718V26.8855L12.033 34.716H21.4949V2.28107Z" fill="#4E4E4E"/>
<path opacity="0.81" d="M21.5139 2.34796H5.8758C4.80684 2.34796 3.85254 3.19507 3.85254 4.23038V26.8456L12.0573 34.6421H21.5139V2.34796Z" fill="#515151"/>
<path opacity="0.84" d="M21.5315 2.41525H5.93203C4.86681 2.41525 3.92871 3.25862 3.92871 4.28978V26.8066L12.0812 34.5689H21.5319V2.41525H21.5315Z" fill="#535353"/>
<path opacity="0.87" d="M21.55 2.48215H5.98917C4.92726 2.48215 4.00537 3.32178 4.00537 4.34837V26.7663L12.1051 34.495H21.55V2.48215Z" fill="#555555"/>
<path opacity="0.9" d="M21.568 2.54904H6.0454C4.98723 2.54904 4.08154 3.38494 4.08154 4.40695V26.7264L12.1285 34.421H21.568V2.54904Z" fill="#575757"/>
<path opacity="0.94" d="M21.5865 2.61594H6.10253C5.04769 2.61594 4.1582 3.44851 4.1582 4.46554V26.6865L12.1528 34.3471H21.5865V2.61594Z" fill="#5A5A5A"/>
<path opacity="0.97" d="M21.604 2.68323H6.15869C5.10759 2.68323 4.23389 3.51206 4.23389 4.52494V26.6475L12.1757 34.274H21.6036V2.68323H21.604Z" fill="#5C5C5C"/>
<path d="M21.6226 2.75012H6.21589C5.16812 2.75012 4.31104 3.57521 4.31104 4.58352V26.6076L12.2005 34.2H21.623V2.75012H21.6226Z" fill="#5E5E5E"/>
</g>
<path d="M21.1777 1.08832H4.65346C3.528 1.08832 2.60693 2.00938 2.60693 3.13485V34.1477C2.60693 35.2731 3.528 36.1942 4.65346 36.1942H27.6065C28.7319 36.1942 29.653 35.2731 29.653 34.1477V9.56358L21.1777 1.08832Z" fill="#F5F5F4"/>
<path d="M21.1777 7.51706C21.1777 8.64252 22.0988 9.56359 23.2243 9.56359H29.653L21.1777 1.08832V7.51706Z" fill="#EAEAEA"/>
<path d="M1.33155 20.7517H18.6294C20.3868 20.7517 21.8134 22.1784 21.8134 23.9358V27.9541C21.8134 29.7114 20.3868 31.1381 18.6294 31.1381H1.33155C1.05652 31.1381 0.833008 30.9146 0.833008 30.6396V21.2503C0.833008 20.9753 1.05652 20.7517 1.33155 20.7517Z" fill="#37B940"/>
<path d="M4.64923 28.4476C4.66667 28.4127 4.68454 28.3778 4.70282 28.3417C4.7211 28.3059 4.74229 28.2694 4.76638 28.2324L6.23252 25.9005C5.98283 25.5004 5.73564 25.1049 5.49135 24.7135C5.24706 24.3226 4.99987 23.9271 4.75018 23.5266C4.7373 23.5083 4.72692 23.4908 4.71902 23.4746C4.71154 23.4584 4.70656 23.441 4.70448 23.4227C4.70864 23.4044 4.7211 23.3957 4.74187 23.3965C4.76264 23.3978 4.78383 23.3924 4.80544 23.3807H5.93921C6.01939 23.3807 6.08254 23.4248 6.12824 23.5124L6.92633 24.7895L7.73439 23.5124C7.78009 23.4244 7.84282 23.3807 7.92342 23.3807H9.00817C9.03227 23.3807 9.05429 23.3812 9.07506 23.3824C9.09583 23.3836 9.1137 23.3878 9.12865 23.3944C9.14361 23.4015 9.1515 23.4119 9.1515 23.4256C9.1515 23.4534 9.13946 23.4834 9.11577 23.5158L7.61723 25.8996L9.14527 28.3288C9.16688 28.3612 9.18391 28.3907 9.19596 28.4173C9.20801 28.4439 9.21257 28.4663 9.2105 28.485C9.2105 28.5199 9.19097 28.5369 9.15192 28.5369H7.98574C7.94876 28.5369 7.91511 28.5253 7.88478 28.502C7.85446 28.4788 7.83036 28.4476 7.81291 28.4082L6.92675 27.0097L6.05014 28.4082C6.03269 28.4476 6.00901 28.4788 5.97826 28.502C5.94794 28.5253 5.91428 28.5369 5.87731 28.5369H4.7078C4.69036 28.5369 4.6754 28.5315 4.6621 28.5212C4.64923 28.5108 4.64258 28.4962 4.64258 28.4779C4.64258 28.4663 4.64466 28.4559 4.64923 28.4468V28.4476Z" fill="#F5F5F4"/>
<path d="M9.99414 23.5341C9.99414 23.4925 10.007 23.4568 10.0332 23.4264C10.0594 23.3965 10.0951 23.3812 10.1408 23.3812H11.1051C11.142 23.3812 11.1757 23.3949 11.206 23.4227C11.2363 23.4505 11.2526 23.4875 11.255 23.5336V27.3093H13.0469C13.086 27.3093 13.1196 27.323 13.1479 27.3508C13.1761 27.3787 13.1902 27.4169 13.1902 27.4655V28.3782C13.1902 28.4177 13.1778 28.4534 13.1528 28.4859C13.1279 28.5183 13.0926 28.5357 13.0469 28.5378H10.1375C10.0419 28.5378 9.99414 28.4871 9.99414 28.3849V23.5336V23.5341Z" fill="#F5F5F4"/>
<path d="M14.8079 26.8722C14.8448 26.9046 14.8922 26.9478 14.9495 27.0023C15.0069 27.0567 15.0729 27.1103 15.1465 27.1635C15.2574 27.242 15.3671 27.3035 15.4755 27.3475C15.5839 27.3915 15.6982 27.4136 15.8174 27.4136C15.9284 27.4136 16.021 27.4003 16.0962 27.3737C16.171 27.3471 16.2304 27.3118 16.2736 27.2677C16.3168 27.2237 16.348 27.173 16.3662 27.1153C16.3845 27.0575 16.3941 26.996 16.3941 26.9316C16.3941 26.8602 16.3683 26.7958 16.3176 26.7393C16.2665 26.6828 16.2042 26.6325 16.1303 26.5885C16.0563 26.5444 15.9795 26.507 15.8989 26.4759C15.8187 26.4447 15.7489 26.4185 15.6903 26.3978C15.4298 26.3006 15.2017 26.1963 15.006 26.0841C14.8104 25.9719 14.6475 25.8473 14.5175 25.7098C14.387 25.5723 14.2894 25.4206 14.2242 25.2557C14.1589 25.0903 14.1265 24.9059 14.1265 24.7027C14.1265 24.4879 14.1672 24.2922 14.2487 24.1169C14.3301 23.9412 14.4464 23.7912 14.5972 23.6662C14.748 23.5415 14.93 23.4447 15.1431 23.3766C15.3559 23.3084 15.5939 23.2744 15.8565 23.2744C16.0542 23.2744 16.2437 23.2981 16.4248 23.3454C16.606 23.3928 16.785 23.4688 16.9608 23.5727C17.0347 23.6188 17.1045 23.667 17.171 23.7168C17.237 23.7667 17.2952 23.8145 17.3455 23.861C17.3953 23.9071 17.4352 23.9512 17.4643 23.9927C17.4938 24.0342 17.5083 24.0704 17.5083 24.1003C17.5083 24.1302 17.5013 24.1581 17.4871 24.1834C17.473 24.2087 17.4518 24.2378 17.4236 24.2702L16.925 24.8357C16.8881 24.8751 16.8511 24.8947 16.8141 24.8947C16.7838 24.8947 16.7559 24.8855 16.731 24.8668C16.7061 24.8485 16.6782 24.8253 16.6479 24.7974L16.6184 24.7696C16.5748 24.7301 16.5266 24.6898 16.4734 24.6483C16.4202 24.6067 16.3633 24.5689 16.3023 24.5357C16.2416 24.5021 16.1772 24.4746 16.1099 24.4526C16.0426 24.4306 15.9741 24.4198 15.9047 24.4198C15.8353 24.4198 15.7655 24.426 15.7028 24.4389C15.6396 24.4518 15.5844 24.4717 15.5366 24.4996C15.4888 24.5274 15.4506 24.564 15.4227 24.6088C15.3945 24.6541 15.3804 24.7089 15.3804 24.7738C15.3804 24.8386 15.3957 24.8947 15.4261 24.942C15.4564 24.9894 15.5021 25.0334 15.5628 25.0737C15.6234 25.1144 15.699 25.1522 15.7892 25.1884C15.8793 25.2241 15.984 25.2632 16.1037 25.3047C16.3338 25.3857 16.5461 25.4709 16.7406 25.5598C16.935 25.6487 17.1028 25.7542 17.2441 25.8755C17.3853 25.9969 17.4954 26.1423 17.5748 26.3109C17.6541 26.48 17.6936 26.6844 17.6936 26.925C17.6936 27.1797 17.6446 27.4102 17.547 27.6171C17.4493 27.824 17.3151 28.0006 17.1448 28.1464C16.9745 28.2922 16.7738 28.4048 16.5436 28.4846C16.3135 28.5644 16.0659 28.6042 15.8008 28.6042C15.5511 28.6042 15.3056 28.5565 15.0646 28.4617C14.8237 28.3666 14.5989 28.2391 14.3903 28.0787C14.3035 28.0114 14.23 27.9453 14.1706 27.8801C14.1107 27.8153 14.0634 27.763 14.0289 27.7235L14.0193 27.7131C14.0173 27.7085 14.0148 27.7056 14.0127 27.7044C14.0106 27.7031 14.0081 27.7015 14.006 27.699C14.004 27.6944 14.0015 27.6915 13.9994 27.6902C13.9973 27.689 13.9948 27.6873 13.9928 27.6848C13.9429 27.6267 13.918 27.5806 13.918 27.5457C13.918 27.5062 13.9429 27.4622 13.9928 27.4136L14.5565 26.8411C14.6022 26.8062 14.6392 26.7891 14.6674 26.7891C14.687 26.7891 14.7077 26.7962 14.7294 26.8099C14.751 26.8236 14.7771 26.8448 14.8075 26.8722H14.8079Z" fill="#F5F5F4"/>
<path d="M26.0031 12.3887H6.26905C5.99371 12.3887 5.77051 12.6119 5.77051 12.8872V13.3858C5.77051 13.6611 5.99371 13.8843 6.26905 13.8843H26.0031C26.2785 13.8843 26.5017 13.6611 26.5017 13.3858V12.8872C26.5017 12.6119 26.2785 12.3887 26.0031 12.3887Z" fill="#DDDDDD"/>
<path d="M26.0031 15.7539H6.26905C5.99371 15.7539 5.77051 15.9771 5.77051 16.2524V16.751C5.77051 17.0263 5.99371 17.2495 6.26905 17.2495H26.0031C26.2785 17.2495 26.5017 17.0263 26.5017 16.751V16.2524C26.5017 15.9771 26.2785 15.7539 26.0031 15.7539Z" fill="#DDDDDD"/>
</svg>
