<svg width="42" height="42" viewBox="0 0 42 42" fill="none" xmlns="http://www.w3.org/2000/svg">
<path d="M20.8901 41.9224C32.3698 41.9224 41.676 32.6162 41.676 21.1364C41.676 9.65665 32.3698 0.350464 20.8901 0.350464C9.41031 0.350464 0.104126 9.65665 0.104126 21.1364C0.104126 32.6162 9.41031 41.9224 20.8901 41.9224Z" fill="#E43535"/>
<path fill-rule="evenodd" clip-rule="evenodd" d="M27.6149 28.0652H14.8581C13.2217 28.0652 11.8828 26.6973 11.8828 25.0255V17.9404C11.8828 16.2686 13.2217 14.9008 14.8581 14.9008H27.6149C29.2513 14.9008 30.5902 16.2686 30.5902 17.9404V25.0255C30.5902 26.6973 29.2513 28.0652 27.6149 28.0652ZM19.5377 18.9371V24.5593L24.6315 21.6566L19.5377 18.9371Z" fill="white"/>
</svg>
