<svg width="96" height="84" viewBox="0 0 96 84" fill="none" xmlns="http://www.w3.org/2000/svg">
<g clip-path="url(#clip0_4078_343)">
<path d="M96 51.9251L95.9859 56.4725C95.9657 63.3479 91.3199 70.2113 82.0385 75.4569C63.3647 86.0104 32.9765 86.0104 14.1735 75.4528C4.70834 70.1368 -0.0201868 63.1588 3.34674e-06 56.1908L0.0141364 51.6434C-0.00605369 58.6114 4.72247 65.5894 14.1876 70.9054C32.9927 81.4651 63.3808 81.4651 82.0527 70.9095C91.3341 65.6639 95.9798 58.7985 96 51.9251Z" fill="#F3B2A1"/>
<path d="M82.0526 70.9095C72.7713 76.1551 60.5946 78.791 48.3856 78.8211V83.3685C60.5905 83.3363 72.7612 80.7005 82.0385 75.4569C91.3199 70.2113 95.9657 63.3459 95.9859 56.4725L96 51.9251C95.9798 58.8005 91.334 65.6639 82.0526 70.9095Z" fill="#E99B8A"/>
<path d="M81.8326 32.6731C100.638 43.2327 100.737 60.3519 82.0547 70.9095C63.3808 81.4631 32.9927 81.4631 14.1896 70.9055C-4.61549 60.3458 -4.7225 43.2227 13.9493 32.6691C32.6313 22.1095 63.0295 22.1155 81.8326 32.6731Z" fill="#FDC8B8"/>
<path d="M91.7924 56.2512C92.6323 56.7341 92.6303 57.5128 91.8025 57.9937L72.2322 69.328C71.4044 69.8068 70.0537 69.8109 69.2138 69.328L35.2843 49.8064C34.4505 49.3275 34.4464 48.5448 35.2742 48.0639L54.8445 36.7296C55.6723 36.2507 57.0291 36.2507 57.8629 36.7296L91.7924 56.2512Z" fill="#F3B2A1"/>
<path d="M32.7161 52.398L32.7141 53.9916L14.5995 64.4828L14.6015 62.8892L32.7161 52.398Z" fill="#457AEF"/>
<path d="M14.6015 62.8892L14.5995 64.4828L2.31989 57.5772L2.3219 55.9836L14.6015 62.8892Z" fill="#3A63DF"/>
<path d="M32.7164 52.398L14.6018 62.8892L2.3222 55.9836L20.4368 45.4924L32.7164 52.398Z" fill="#4F91FF"/>
<path d="M14.4945 62.0843L4.08247 56.054L3.95123 9.91L14.3633 15.9403L14.4945 62.0843Z" fill="#CBDBF4"/>
<path d="M14.3633 15.9403L3.95123 9.91001L20.5273 0.372559L30.9394 6.40289L14.3633 15.9403Z" fill="#EBF2FF"/>
<path d="M30.9394 6.40289L31.0706 52.5469L14.4945 62.0843L14.3633 15.9403L30.9394 6.40289Z" fill="#DBE6FA"/>
<path d="M8.71204 28.506C8.71204 28.7917 8.91394 29.1358 9.16026 29.2847C9.40658 29.4215 9.61453 29.3129 9.61453 29.0272C9.62059 28.7354 9.41263 28.3853 9.16631 28.2485C8.91394 28.0996 8.71204 28.2143 8.71204 28.506Z" fill="#4F575F"/>
<path d="M37.2891 43.7177L54.4608 33.7718L54.4588 34.2567L37.2871 44.2006L37.2891 43.7177Z" fill="#49E4A3"/>
<path d="M38.6358 40.7679L55.8075 30.822C54.9797 31.3009 54.4649 32.321 54.4608 33.7718L37.2891 43.7177C37.2932 42.2669 37.806 41.2468 38.6358 40.7679Z" fill="#49E4A3"/>
<path d="M62.8842 58.875L80.0559 48.9311L80.0518 50.6515L62.8801 60.5954L62.8842 58.875Z" fill="#EBF2FF"/>
<path d="M62.9124 58.3237L80.0841 48.3777C80.068 48.5488 80.0579 48.7178 80.0559 48.9291L62.8842 58.875C62.8842 58.6617 62.8943 58.4927 62.9124 58.3237Z" fill="#EBF2FF"/>
<path d="M81.4227 45.9692C80.6918 46.3817 80.2012 47.2087 80.0841 48.3777L62.9124 58.3237C63.0315 57.1546 63.5222 56.3256 64.251 55.9152C69.4035 52.9312 76.2722 48.9532 81.4227 45.9692Z" fill="#49E4A3"/>
<path d="M64.6992 63.0622L67.1766 61.6296L67.0655 61.7141L64.5902 63.1487L64.6992 63.0622Z" fill="#1F3241"/>
<path d="M64.2248 62.5169L66.7001 61.0823L66.8313 61.034L64.356 62.4666L64.2248 62.5169Z" fill="#1F3241"/>
<path d="M65.2323 63.8188L67.7076 62.3841L67.6208 62.5049L65.1454 63.9395L65.2323 63.8188Z" fill="#3D4449"/>
<path d="M63.817 61.6457L66.2923 60.211L66.4417 60.197L63.9664 61.6316L63.817 61.6457Z" fill="#1F3241"/>
<path d="M65.8238 64.4949L68.2991 63.0602L68.2386 63.2091L65.7632 64.6417L65.8238 64.4949Z" fill="#3D4449"/>
<path d="M63.5161 60.7604L65.9914 59.3277L66.1509 59.3519L63.6756 60.7865L63.5161 60.7604Z" fill="#4F575F"/>
<path d="M66.4558 65.0703L68.9331 63.6357L68.9028 63.8127L66.4275 65.2454L66.4558 65.0703Z" fill="#3D4449"/>
<path d="M63.3223 59.8891L65.7996 58.4565L65.9672 58.5189L63.4919 59.9535L63.3223 59.8891Z" fill="#4F575F"/>
<path d="M67.114 65.5331L69.5893 64.0984V64.2916L67.114 65.7263V65.5331Z" fill="#3D4449"/>
<path d="M63.296 58.5048L65.7713 57.0701L65.9409 57.2009L63.4636 58.6335L63.296 58.5048Z" fill="#4F575F"/>
<path d="M67.7742 65.8651L70.2495 64.4305L70.2798 64.6397L67.8024 66.0744L67.7742 65.8651Z" fill="#3D4449"/>
<path d="M69.6781 63.2433C68.8523 63.7222 68.0266 64.1991 67.2028 64.678C65.5755 63.7403 64.253 61.4948 64.2106 59.6175L66.6859 58.1828C66.7283 60.0601 68.0508 62.3057 69.6781 63.2433Z" fill="#1F3241"/>
<path d="M67.2028 64.3238C65.7451 63.4848 64.5619 61.4767 64.5195 59.7945L66.9948 58.3599C67.0372 60.042 68.2204 62.0501 69.6781 62.8892C69.5691 62.9536 67.2836 64.2755 67.2028 64.3238Z" fill="#385165"/>
<path d="M67.6026 59.8167C67.8247 60.4505 68.184 61.0682 68.6242 61.5793L66.1489 63.0139C65.7087 62.5048 65.3493 61.8851 65.1273 61.2513C65.8703 60.8207 66.8596 60.2472 67.6026 59.8167Z" fill="#C1C4C9"/>
<path d="M63.4636 57.8307L65.941 56.3961L66.1005 56.555L63.6231 57.9897L63.4636 57.8307Z" fill="#4F575F"/>
<path d="M64.8789 60.0018L67.3542 58.5671C67.3623 58.8227 67.4007 59.0883 67.4653 59.3539L64.99 60.7885C64.9253 60.5229 64.887 60.2573 64.8789 60.0018Z" fill="#C1C4C9"/>
<path d="M68.4163 66.0522L70.8936 64.6196L70.9521 64.8369L68.4748 66.2695L68.4163 66.0522Z" fill="#3D4449"/>
<path d="M66.48 63.362L68.9553 61.9274C69.1814 62.1447 69.4257 62.3298 69.6781 62.4767L67.2028 63.9113C66.9484 63.7644 66.7061 63.5793 66.48 63.362Z" fill="#C1C4C9"/>
<path d="M67.5622 56.3679C67.0433 56.6677 66.7142 57.2935 66.688 58.1828L64.2126 59.6175C64.2389 58.7301 64.568 58.1044 65.0869 57.8025C65.8299 57.3719 66.8192 56.7985 67.5622 56.3679Z" fill="#1F3241"/>
<path d="M67.7802 56.7441C67.3159 57.0118 67.0231 57.5711 66.9969 58.3619L64.5215 59.7965C64.5478 59.0058 64.8426 58.4464 65.3049 58.1788C66.0479 57.7482 67.0372 57.1747 67.7802 56.7441Z" fill="#385165"/>
<path d="M67.4673 57.9132C67.4007 58.1023 67.3623 58.3197 67.3542 58.5651L64.8789 59.9998C64.887 59.7543 64.9274 59.537 64.992 59.3479C65.8177 58.869 66.6435 58.3921 67.4673 57.9132Z" fill="#C1C4C9"/>
<path d="M65.1252 61.2493L67.6026 59.8167L68.7635 60.0662L66.2882 61.5008L65.1252 61.2493Z" fill="#1F3241"/>
<path d="M64.99 60.7885L67.4653 59.3539L68.5455 59.3277L66.0702 60.7624L64.99 60.7885Z" fill="#C1C4C9"/>
<path d="M64.994 59.3438L67.4693 57.9092L68.5495 59.1768L66.0722 60.6115L64.994 59.3438Z" fill="#1F3241"/>
<path d="M67.4673 57.9132C66.7788 58.3116 65.6118 58.9857 64.992 59.3418L67.4673 57.9072V57.9112V57.9132Z" fill="#C1C4C9"/>
<path d="M63.7443 57.2653L66.2196 55.8307L66.367 56.0138L63.8896 57.4464L63.7443 57.2653Z" fill="#4F575F"/>
<path d="M66.5143 61.8932L68.9916 60.4585L68.6222 61.5773L66.1469 63.0119L66.5143 61.8932Z" fill="#1F3241"/>
<path d="M66.2882 61.5008L68.7635 60.0662C68.7837 60.0702 68.8019 60.0782 68.82 60.0883L66.3447 61.5229C66.3266 61.5129 66.3064 61.5048 66.2882 61.5008Z" fill="#1F3241"/>
<path d="M69.024 66.0985L71.4993 64.6659L71.5841 64.8812L69.1068 66.3158L69.024 66.0985Z" fill="#3D4449"/>
<path d="M69.6781 63.2433C70.514 63.7242 71.2691 63.7685 71.8163 63.4525L69.341 64.8872C68.7938 65.2031 68.0387 65.1588 67.2028 64.6779C68.0286 64.199 68.8544 63.7222 69.6781 63.2433Z" fill="#1F3241"/>
<path d="M69.6801 62.8892C70.4292 63.3198 71.1076 63.36 71.5982 63.0763L69.1229 64.5109C68.6323 64.7946 67.9539 64.7544 67.2048 64.3238C67.4734 64.1669 69.4702 63.0119 69.6801 62.8892Z" fill="#385165"/>
<path d="M67.2048 63.9113L69.6801 62.4767C69.9325 62.6216 70.1748 62.7161 70.403 62.7604L67.9276 64.195C67.6995 64.1508 67.4572 64.0562 67.2048 63.9113Z" fill="#C1C4C9"/>
<path d="M66.5143 61.8932L66.1469 63.0119C65.7067 62.5029 65.3473 61.8831 65.1252 61.2493L66.2882 61.5008C66.4295 61.529 66.5608 61.7564 66.5143 61.8912V61.8932Z" fill="#181E1E"/>
<path d="M66.3447 61.5229L68.82 60.0883C68.9371 60.1547 69.028 60.3398 68.9896 60.4565L66.5143 61.8911C66.5527 61.7744 66.4618 61.5893 66.3447 61.5229Z" fill="#1F3241"/>
<path d="M67.0473 62.4505L69.5226 61.0159L68.9573 61.9294L66.48 63.362L67.0473 62.4505Z" fill="#C1C4C9"/>
<path d="M67.0797 62.4163L69.555 60.9817C69.5429 60.9897 69.5308 60.9998 69.5227 61.0139L67.0474 62.4485C67.0554 62.4344 67.0676 62.4224 67.0797 62.4163Z" fill="#C1C4C9"/>
<path d="M68.5919 59.3177L66.1166 60.7523C66.1045 60.7603 66.0883 60.7644 66.0701 60.7644L68.5454 59.3297C68.5636 59.3297 68.5798 59.3257 68.5919 59.3177Z" fill="#C1C4C9"/>
<path d="M68.5939 59.3157L66.1186 60.7503C66.1186 60.7503 66.1368 60.7382 66.1448 60.7282L68.6201 59.2935C68.6201 59.2935 68.604 59.3096 68.5939 59.3157Z" fill="#1F3241"/>
<path d="M64.994 59.3438C66.0984 60.6537 66.0964 60.6094 66.1449 60.7302C66.1267 60.7503 66.1045 60.7644 66.0722 60.7644L64.992 60.7885C64.9274 60.5229 64.8891 60.2573 64.881 60.0018C64.8891 59.7543 64.9294 59.535 64.9961 59.3438H64.994Z" fill="#181E1E"/>
<path d="M66.0721 60.6115L68.5475 59.1768C68.5777 59.213 68.602 59.2533 68.6181 59.2935L66.1428 60.7282C66.1267 60.6879 66.1024 60.6477 66.0721 60.6115Z" fill="#1F3241"/>
<path d="M67.0797 62.4163C69.7044 60.9314 69.5408 60.9133 69.6842 60.9958L67.2089 62.4304C67.1624 62.4043 67.116 62.3962 67.0817 62.4163H67.0797Z" fill="#1F3241"/>
<path d="M67.3684 62.6356L69.8437 61.201L70.403 62.7604L67.9277 64.195L67.3684 62.6356Z" fill="#1F3241"/>
<path d="M67.2089 62.4304L69.6842 60.9958C69.7468 61.032 69.8114 61.1064 69.8437 61.201L67.3684 62.6356C67.334 62.5411 67.2715 62.4686 67.2089 62.4304Z" fill="#1F3241"/>
<path d="M65.1334 59.042L67.6087 57.6074L68.7696 58.6939L66.2943 60.1265L65.1334 59.042Z" fill="#C1C4C9"/>
<path d="M66.159 58.4565L68.6363 57.0238L68.9977 58.5631L66.5224 59.9957L66.159 58.4565Z" fill="#1F3241"/>
<path d="M68.7696 58.6939C68.7877 58.712 68.8079 58.7261 68.8261 58.7362C68.0003 59.215 67.1745 59.6919 66.3508 60.1708C66.3326 60.1607 66.3144 60.1467 66.2943 60.1286C67.12 59.6497 67.9458 59.1728 68.7696 58.6939Z" fill="#C1C4C9"/>
<path d="M68.8261 58.7361C68.0003 59.215 67.1745 59.6919 66.3508 60.1708C67.1765 59.6919 68.0023 59.215 68.8261 58.7361Z" fill="#C1C4C9"/>
<path d="M67.9014 62.69L70.3787 61.2573L70.7401 62.7966L68.2648 64.2292L67.9014 62.69Z" fill="#C1C4C9"/>
<path d="M65.5574 58.6134L68.0327 57.1788C67.8631 57.2774 67.7177 57.4222 67.6087 57.6074L65.1334 59.042C65.2444 58.8569 65.3878 58.712 65.5574 58.6134Z" fill="#C1C4C9"/>
<path d="M68.8261 58.7361C68.8745 58.7643 68.921 58.7663 68.9533 58.7482C66.2963 60.2573 66.484 60.2472 66.3508 60.1708C67.1765 59.6919 68.0023 59.215 68.8261 58.7361Z" fill="#C1C4C9"/>
<path d="M70.4232 61.0722C70.3787 61.0984 70.3565 61.1628 70.3767 61.2573L67.9014 62.692C67.8812 62.5994 67.9014 62.533 67.9479 62.5089C68.6909 62.0783 69.6802 61.5048 70.4232 61.0742V61.0722Z" fill="#C1C4C9"/>
<path d="M71.3458 62.6397L68.8705 64.0743C68.6949 64.1769 68.491 64.2293 68.2668 64.2313L70.7422 62.7966C70.9663 62.7966 71.1702 62.7423 71.3458 62.6397Z" fill="#C1C4C9"/>
<path d="M68.9533 58.7462L66.478 60.1809C66.5224 60.1547 66.5446 60.0883 66.5224 59.9957L68.9977 58.5611C69.0199 58.6537 68.9977 58.7201 68.9533 58.7462Z" fill="#1F3241"/>
<path d="M67.9478 62.5069C70.5665 61.0199 70.413 61.0058 70.5503 61.0843L68.075 62.5189C68.0266 62.4908 67.9821 62.4887 67.9498 62.5069H67.9478Z" fill="#1F3241"/>
<path d="M68.073 62.5189L70.5483 61.0843C70.5665 61.0944 70.5867 61.1084 70.6048 61.1265L68.1295 62.5612C68.1093 62.5431 68.0912 62.529 68.073 62.5189Z" fill="#1F3241"/>
<path d="M65.5573 58.6134C68.0468 57.2271 68.0649 57.0258 68.6363 57.0238L66.161 58.4585C65.9369 58.4585 65.735 58.5128 65.5593 58.6154L65.5573 58.6134Z" fill="#1F3241"/>
<path d="M66.159 58.4565L66.5204 59.9958C66.5628 60.1829 66.4335 60.2593 66.2922 60.1265L65.1313 59.04C65.3554 58.6637 65.7168 58.4585 66.159 58.4565Z" fill="#181E1E"/>
<path d="M70.7583 60.5249C70.7745 60.5632 70.7967 60.6054 70.829 60.6416L68.3537 62.0763C71.7254 60.1225 71.5558 60.2211 68.3537 62.0763C68.3214 62.0401 68.2992 61.9998 68.283 61.9596C69.026 61.529 70.0153 60.9555 70.7583 60.5249Z" fill="#C1C4C9"/>
<path d="M68.1295 62.5612L70.6068 61.1266L71.7678 62.2131L69.2925 63.6477L68.1295 62.5612Z" fill="#1F3241"/>
<path d="M71.3459 62.6397L68.8705 64.0743C69.0401 63.9757 69.1835 63.8329 69.2945 63.6477L71.7698 62.2131C71.6588 62.3982 71.5155 62.5411 71.3459 62.6397Z" fill="#1F3241"/>
<path d="M68.1295 62.5612L69.2925 63.6477C69.0684 64.024 68.707 64.2292 68.2648 64.2312L67.9034 62.692C67.861 62.5069 67.9923 62.4304 68.1316 62.5632L68.1295 62.5612Z" fill="#181E1E"/>
<path d="M70.7846 60.5028C70.7846 60.5028 70.7664 60.5169 70.7583 60.527L68.283 61.9616C68.283 61.9616 68.2992 61.9435 68.3093 61.9375C69.0523 61.5069 70.0416 60.9334 70.7846 60.5028Z" fill="#C1C4C9"/>
<path d="M69.8215 58.8368C67.2048 60.3177 67.3623 60.3398 67.2169 60.2573C67.1543 60.2211 67.0897 60.1466 67.0574 60.0541L69.5327 58.6194C69.5772 58.7462 69.7205 58.8951 69.8194 58.8368H69.8215Z" fill="#C1C4C9"/>
<path d="M68.3072 61.9374L70.7825 60.5028C70.7966 60.4947 70.8128 60.4907 70.831 60.4907L68.3556 61.9254C68.3375 61.9254 68.3213 61.9294 68.3072 61.9374Z" fill="#1F3241"/>
<path d="M69.8215 58.8368L67.3462 60.2714C67.3583 60.2634 67.3704 60.2533 67.3785 60.2392L69.8538 58.8046C69.8457 58.8187 69.8336 58.8307 69.8215 58.8368Z" fill="#1F3241"/>
<path d="M66.4962 58.4927L68.9735 57.058L69.5328 58.6195L67.0574 60.0521L66.4962 58.4927Z" fill="#C1C4C9"/>
<path d="M70.5564 59.7321C69.7306 60.211 68.9049 60.6879 68.0811 61.1668C68.9069 60.6879 69.7327 60.211 70.5564 59.7321Z" fill="#C1C4C9"/>
<path d="M70.5564 59.7321C70.5746 59.7422 70.5928 59.7503 70.613 59.7543C69.7569 60.2493 69.2683 60.533 68.1376 61.1889C68.0347 61.1668 67.8873 61.2795 70.5584 59.7321H70.5564Z" fill="#C1C4C9"/>
<path d="M70.3868 59.3619C70.3464 59.4786 70.4393 59.6658 70.5564 59.7322C69.7306 60.2111 68.9049 60.6879 68.0811 61.1668C67.964 61.1004 67.8711 60.9133 67.9115 60.7966C68.6545 60.366 69.6438 59.7925 70.3868 59.3619Z" fill="#C1C4C9"/>
<path d="M68.3516 62.0763L70.8289 60.6416L71.9071 61.9093L69.4318 63.3439L68.3516 62.0763Z" fill="#C1C4C9"/>
<path d="M66.4962 58.4927L68.9715 57.058C69.1996 57.1043 69.4419 57.1969 69.6963 57.3438L67.221 58.7784C66.9666 58.6315 66.7243 58.539 66.4962 58.4927Z" fill="#1F3241"/>
<path d="M69.5469 62.688L72.0222 61.2533C72.0141 61.4988 71.9738 61.7201 71.9071 61.9093L69.4318 63.3439C69.4985 63.1548 69.5388 62.9334 69.5469 62.688Z" fill="#1F3241"/>
<path d="M65.3029 58.1768L67.7782 56.7421C68.2688 56.4584 68.9472 56.4987 69.6963 56.9292L67.221 58.3639C66.4719 57.9333 65.7935 57.8931 65.3029 58.1768Z" fill="#C1C4C9"/>
<path d="M68.3557 61.9234L70.831 60.4907L71.9132 60.4666L69.4358 61.8992L68.3557 61.9234Z" fill="#1F3241"/>
<path d="M69.4359 61.8992L71.9112 60.4646C71.9758 60.7302 72.0141 60.9958 72.0222 61.2513L69.5469 62.686C69.5388 62.4284 69.5005 62.1648 69.4359 61.8992Z" fill="#1F3241"/>
<path d="M67.9438 59.3257L70.4211 57.8911L69.8538 58.8025L67.3765 60.2372L67.9438 59.3257Z" fill="#1F3241"/>
<path d="M67.9438 59.3257L67.3764 60.2372C67.3421 60.2935 67.2795 60.2935 67.2169 60.2573C67.1544 60.2211 67.0897 60.1466 67.0574 60.0541L66.4962 58.4927C67.0272 58.5993 67.5481 58.9494 67.9438 59.3257Z" fill="#181E1E"/>
<path d="M68.1376 61.1869L70.6129 59.7543L71.7759 60.0038L69.2986 61.4384L68.1376 61.1869Z" fill="#C1C4C9"/>
<path d="M68.2769 59.6758L70.7543 58.2412L70.3868 59.3619L67.9115 60.7946L68.2769 59.6758Z" fill="#C1C4C9"/>
<path d="M68.2769 59.6758L70.7522 58.2412C71.1924 58.7502 71.5517 59.37 71.7738 60.0038L69.2985 61.4384C69.0764 60.8046 68.7171 60.1849 68.2769 59.6758Z" fill="#1F3241"/>
<path d="M64.1299 56.8286L66.6072 55.394L66.7364 55.5932L64.2591 57.0279L64.1299 56.8286Z" fill="#4F575F"/>
<path d="M69.5751 65.9959L72.0504 64.5612L72.1595 64.7725L69.6842 66.2072L69.5751 65.9959Z" fill="#3D4449"/>
<path d="M64.6084 56.5329L67.0857 55.0982L67.1948 55.3095L64.7174 56.7441L64.6084 56.5329Z" fill="#3D4449"/>
<path d="M70.0536 65.7464L72.531 64.3117L72.6602 64.5109L70.1829 65.9456L70.0536 65.7464Z" fill="#3D4449"/>
<path d="M64.7174 56.7442L67.1947 55.3095L67.326 55.2592L64.8486 56.6918L64.7174 56.7442Z" fill="#2A3134"/>
<path d="M70.1647 65.6599L72.642 64.2252L72.531 64.3117L70.0536 65.7464L70.1647 65.6599Z" fill="#2A3134"/>
<path d="M65.1656 56.382L67.643 54.9473L67.7278 55.1687L65.2525 56.6033L65.1656 56.382Z" fill="#3D4449"/>
<path d="M70.4474 65.3601L72.9227 63.9274L73.0721 64.1105L70.5948 65.5452L70.4474 65.3601Z" fill="#3D4449"/>
<path d="M65.2524 56.6033L67.7278 55.1687L67.8772 55.1546L65.4018 56.5892L65.2524 56.6033Z" fill="#2A3134"/>
<path d="M70.5342 65.2393L73.0095 63.8067L72.9227 63.9274L70.4474 65.3601L70.5342 65.2393Z" fill="#2A3134"/>
<path d="M65.7875 56.392L68.2628 54.9574L68.3213 55.1747L65.846 56.6093L65.7875 56.392Z" fill="#3D4449"/>
<path d="M65.8461 56.6093L68.3214 55.1747L68.4849 55.2008L66.0096 56.6355L65.8461 56.6093Z" fill="#2A3134"/>
<path d="M70.7421 64.851L73.2174 63.4184L73.3769 63.5773L70.9016 65.01L70.7421 64.851Z" fill="#3D4449"/>
<path d="M70.8007 64.6981L73.278 63.2654L73.2174 63.4184L70.7421 64.851L70.8007 64.6981Z" fill="#2A3134"/>
<path d="M71.5962 63.0763L69.1209 64.5109C69.5853 64.2433 69.8801 63.684 69.9063 62.8952L72.3816 61.4606C72.3554 62.2513 72.0586 62.8087 71.5962 63.0763Z" fill="#C1C4C9"/>
<path d="M67.221 58.7784L69.6963 57.3438C69.9487 57.4887 70.193 57.6758 70.4191 57.8911L67.9438 59.3257C67.7177 59.1104 67.4734 58.9233 67.221 58.7784Z" fill="#1F3241"/>
<path d="M65.0849 57.8025L67.5602 56.3679C68.1074 56.052 68.8625 56.0962 69.6983 56.5751L67.223 58.0098C66.3892 57.5289 65.6321 57.4846 65.0849 57.8025Z" fill="#385165"/>
<path d="M71.8163 63.4526L69.3409 64.8872C69.8598 64.5874 70.1889 63.9616 70.2172 63.0743L72.6925 61.6396C72.6642 62.527 72.3351 63.1528 71.8163 63.4526Z" fill="#385165"/>
<path d="M64.4045 56.6355C66.904 55.1928 66.902 55.1787 67.0857 55.0982L64.6104 56.5329C64.5398 56.5631 64.4711 56.5973 64.4065 56.6355H64.4045Z" fill="#1F3241"/>
<path d="M66.4517 56.551L68.927 55.1163L68.9573 55.3276L66.48 56.7602L66.4517 56.551Z" fill="#3D4449"/>
<path d="M66.48 56.7602L68.9573 55.3276L69.1269 55.39L66.6516 56.8246L66.48 56.7602Z" fill="#2A3134"/>
<path d="M70.9299 64.2333L73.4052 62.7986L73.5728 62.9294L71.0975 64.362L70.9299 64.2333Z" fill="#3D4449"/>
<path d="M70.9602 64.0542L73.4375 62.6195L73.4052 62.7986L70.9299 64.2333L70.9602 64.0542Z" fill="#2A3134"/>
<path d="M67.1382 57.056L69.6135 55.6214L69.7871 55.722L67.3118 57.1566L67.1382 57.056Z" fill="#2A3134"/>
<path d="M67.221 58.3639L69.6963 56.9293C71.154 57.7683 72.3372 59.7744 72.3816 61.4585L69.9063 62.8932C69.8619 61.209 68.6787 59.203 67.221 58.3639Z" fill="#C1C4C9"/>
<path d="M70.934 62.7342L73.4093 61.2996L73.4396 61.5149L70.9643 62.9495L70.934 62.7342Z" fill="#2A3134"/>
<path d="M67.223 58.0118L69.6983 56.5771C71.3257 57.5148 72.6481 59.7603 72.6925 61.6396L70.2172 63.0743C70.1728 61.195 68.8503 58.9494 67.223 58.0118Z" fill="#385165"/>
<path d="M67.7984 57.4846L70.2737 56.05L70.4453 56.1828L67.968 57.6174L67.7984 57.4846Z" fill="#2A3134"/>
<path d="M70.7502 61.9032L73.2255 60.4686L73.2841 60.6899L70.8088 62.1226L70.7502 61.9032Z" fill="#2A3134"/>
<path d="M70.4595 61.0561L72.9348 59.6215L73.0216 59.8428L70.5443 61.2755L70.4595 61.0561Z" fill="#2A3134"/>
<path d="M70.0698 60.2211L72.5472 58.7865L72.6562 58.9998L70.1809 60.4344L70.0698 60.2211Z" fill="#2A3134"/>
<path d="M71.1278 64.185L70.9602 64.0542L70.9279 64.2313L71.0955 64.3621C71.0632 64.5391 71.0167 64.7041 70.9582 64.857L70.7987 64.6981L70.7381 64.851L70.8976 65.01C70.835 65.1609 70.7603 65.2977 70.6775 65.4224L70.5301 65.2414L70.4433 65.3621L70.5927 65.5472C70.5019 65.6659 70.403 65.7705 70.2919 65.8611L70.1627 65.6619L70.0516 65.7484L70.1809 65.9476C70.0658 66.0321 69.9426 66.1005 69.8134 66.1569L69.7044 65.9456L69.5731 65.9979L69.6822 66.2092C69.5489 66.2575 69.4056 66.2897 69.2562 66.3078L69.1693 66.0864L69.0199 66.1005L69.1047 66.3178C68.9553 66.3259 68.7978 66.3219 68.6343 66.2977L68.5757 66.0824L68.4142 66.0563L68.4728 66.2736C68.3092 66.2454 68.1437 66.2011 67.9721 66.1388L67.9438 65.9295L67.7722 65.8671L67.8004 66.0764C67.6308 66.008 67.4592 65.9255 67.2836 65.8289V65.6357L67.1099 65.5351V65.7283C66.9343 65.6237 66.7627 65.509 66.5931 65.3822L66.6213 65.2051L66.4517 65.0703L66.4215 65.2454C66.2498 65.1086 66.0823 64.9617 65.9207 64.8027L65.9813 64.6538L65.8178 64.4928L65.7572 64.6417C65.5957 64.4788 65.4402 64.3037 65.2888 64.1226L65.3736 64.0039L65.2242 63.8188L65.1374 63.9395C64.988 63.7484 64.8466 63.5532 64.7134 63.352L64.8224 63.2655L64.6912 63.0622L64.5821 63.1487C64.4529 62.9435 64.3298 62.7322 64.2167 62.5169L64.3479 62.4666L64.2369 62.2513L64.1077 62.3016C63.9986 62.0863 63.8997 61.867 63.8089 61.6437L63.9583 61.6296L63.8714 61.4083L63.7241 61.4203C63.6413 61.201 63.5666 60.9797 63.508 60.7583L63.6675 60.7825L63.609 60.5612L63.4495 60.537C63.3929 60.3177 63.3485 60.1004 63.3162 59.8851L63.4838 59.9475L63.4535 59.7342L63.2859 59.6718C63.2355 59.2432 63.2314 58.9012 63.29 58.4987L63.4575 58.6295L63.4878 58.4504L63.3203 58.3197C63.3546 58.1426 63.399 57.9776 63.4575 57.8247L63.6171 57.9836L63.6776 57.8307L63.5181 57.6718C63.5787 57.5208 63.6534 57.384 63.7382 57.2593L63.8856 57.4404L63.9724 57.3196L63.823 57.1345C63.9159 57.0178 64.0148 56.9112 64.1238 56.8206L64.253 57.0198L64.3641 56.9333L64.2349 56.7341C64.35 56.6516 64.4731 56.5812 64.6023 56.5248L64.7114 56.7361L64.8426 56.6838L64.7336 56.4725C64.8668 56.4242 65.0102 56.3941 65.1596 56.3739L65.2464 56.5953L65.3958 56.5812L65.311 56.3639C65.4624 56.3558 65.6179 56.3599 65.7814 56.384L65.84 56.5993L66.0035 56.6255L65.945 56.4102C66.1065 56.4383 66.2741 56.4826 66.4457 56.543L66.474 56.7522L66.6435 56.8146L66.6153 56.6053C66.7849 56.6717 66.9565 56.7562 67.1322 56.8528V57.048L67.3058 57.1486V56.9534C67.4814 57.0581 67.651 57.1728 67.8227 57.2995L67.7924 57.4746L67.964 57.6074L67.9943 57.4323C68.1659 57.5691 68.3314 57.716 68.493 57.875L68.4344 58.0239L68.5959 58.1848L68.6565 58.0359C68.82 58.1989 68.9755 58.374 69.1249 58.5551L69.0401 58.6738L69.1895 58.8589L69.2763 58.7382C69.4258 58.9293 69.5671 59.1225 69.7003 59.3237L69.5913 59.4102L69.7225 59.6135L69.8316 59.5269C69.9608 59.7322 70.0839 59.9455 70.197 60.1587L70.0678 60.209L70.1768 60.4223L70.3081 60.372C70.4171 60.5873 70.516 60.8066 70.6049 61.03L70.4554 61.0441L70.5423 61.2654L70.6897 61.2533C70.7724 61.4727 70.8451 61.696 70.9057 61.9153L70.7462 61.8912L70.8047 62.1125L70.9642 62.1367C71.0208 62.356 71.0652 62.5713 71.0975 62.7866L70.9299 62.7242L70.9602 62.9395L71.1278 63.0019C71.154 63.2091 71.1661 63.4123 71.1702 63.6135C71.1661 63.8087 71.152 63.9979 71.1237 64.1749L71.1278 64.185ZM70.2152 63.0723C70.1728 61.195 68.8503 58.9495 67.223 58.0118C65.5957 57.0762 64.2652 57.7965 64.2106 59.6175C64.253 61.4948 65.5755 63.7403 67.2028 64.678C68.8301 65.6156 70.1607 64.8953 70.2152 63.0723Z" fill="#181E1E"/>
<path d="M68.2769 59.6758C68.7171 60.1849 69.0765 60.8046 69.2986 61.4384L68.1376 61.1869C67.9963 61.1567 67.8651 60.9294 67.9115 60.7946L68.279 59.6738L68.2769 59.6758Z" fill="#181E1E"/>
<path d="M67.221 58.3639C68.6787 59.203 69.8618 61.2091 69.9063 62.8932C69.8497 64.519 68.6605 65.1609 67.2028 64.3218C65.7451 63.4827 64.5619 61.4747 64.5175 59.7925C64.574 58.1667 65.7633 57.5249 67.221 58.3639ZM66.159 58.4565C65.7168 58.4585 65.3574 58.6637 65.1313 59.04C65.9429 59.7965 66.2458 60.1084 66.3488 60.1688C66.4659 60.2352 66.5587 60.1567 66.5204 59.9957L66.159 58.4565ZM69.2985 61.4384C69.0765 60.8046 68.7171 60.1849 68.2769 59.6758L67.9095 60.7966C67.863 60.9314 67.9963 61.1587 68.1356 61.1889L69.2965 61.4404M68.2648 64.2292C68.707 64.2292 69.0684 64.022 69.2925 63.6457C68.4707 62.8811 68.174 62.5733 68.073 62.5169C67.9579 62.4505 67.865 62.529 67.9014 62.69L68.2628 64.2292M65.1252 61.2493C65.3473 61.8831 65.7067 62.5008 66.1469 63.0119L66.5143 61.8932C66.5587 61.7584 66.4275 61.531 66.2882 61.5028L65.1252 61.2513M67.2048 63.9113C67.4572 64.0562 67.6995 64.1508 67.9276 64.195C67.3764 62.7423 67.4047 62.5431 67.2089 62.4304C67.1463 62.3942 67.0817 62.3942 67.0473 62.4505L66.482 63.364C66.7081 63.5813 66.9524 63.7665 67.2048 63.9133M67.221 58.7784C66.9666 58.6315 66.7243 58.539 66.4962 58.4927C67.0372 59.9173 67.0211 60.1446 67.2169 60.2573C67.2795 60.2935 67.3441 60.2935 67.3764 60.2372L67.9438 59.3257C67.7177 59.1104 67.4734 58.9233 67.221 58.7784ZM69.4318 63.3439C69.6014 62.865 69.557 62.3942 69.4379 61.8992L68.3557 61.9234C68.3234 61.9234 68.2991 61.9374 68.283 61.9596C68.3294 62.0783 68.3617 62.0722 69.4318 63.3439ZM64.8789 60.0018C64.887 60.2573 64.9254 60.5229 64.99 60.7885L66.0701 60.7644C66.1024 60.7644 66.1267 60.7503 66.1428 60.7302C66.0984 60.6135 66.1085 60.6678 64.994 59.3458C64.9274 59.537 64.887 59.7563 64.8789 60.0038" fill="#C1C4C9"/>
<path d="M67.223 58.0118C68.8503 58.9494 70.1728 61.195 70.2172 63.0743C70.1607 64.8953 68.8322 65.6156 67.2028 64.678C65.5755 63.7403 64.253 61.4948 64.2106 59.6175C64.2672 57.7965 65.5957 57.0762 67.223 58.0118ZM69.9063 62.8932C69.8639 61.2091 68.6807 59.203 67.223 58.3639C65.7653 57.5249 64.5761 58.1667 64.5216 59.7945C64.564 61.4767 65.7471 63.4848 67.2048 64.3238C68.6626 65.1629 69.8518 64.519 69.9063 62.8932Z" fill="#4F575F"/>
<path d="M67.0474 62.4505L66.4821 63.364C66.7082 63.5813 66.9525 63.7664 67.2049 63.9133C67.4572 64.0582 67.6995 64.1528 67.9277 64.197L67.3684 62.6376C67.3078 62.4686 67.1201 62.3318 67.0474 62.4525V62.4505Z" fill="#181E1E"/>
<path d="M72.4987 64.6176L70.0234 66.0522C70.0799 66.02 70.1324 65.9858 70.1849 65.9476L72.6602 64.5129C72.6077 64.5512 72.5552 64.5854 72.4987 64.6176Z" fill="#1F3241"/>
<path d="M64.7416 56.4806L67.2169 55.0459C67.3502 54.9976 67.4936 54.9674 67.643 54.9473L65.1676 56.382C65.0182 56.4021 64.8769 56.4323 64.7416 56.4806Z" fill="#4F575F"/>
<path d="M70.5948 65.5452L73.0701 64.1105C72.9792 64.2292 72.8803 64.3339 72.7693 64.4244L70.2939 65.8591C70.403 65.7685 70.5019 65.6639 70.5948 65.5452Z" fill="#4F575F"/>
<path d="M65.3171 56.3719L67.7924 54.9373C67.9438 54.9292 68.0993 54.9332 68.2628 54.9574L65.7875 56.392C65.626 56.3679 65.4685 56.3639 65.3171 56.3719Z" fill="#4F575F"/>
<path d="M70.9017 65.0099L73.377 63.5753C73.3144 63.7262 73.2397 63.863 73.1569 63.9878L70.6816 65.4224C70.7644 65.2977 70.8391 65.1629 70.9017 65.0099Z" fill="#4F575F"/>
<path d="M69.4358 61.8992C69.5549 62.3922 69.5994 62.865 69.4298 63.3439C68.3213 62.03 68.3274 62.0763 68.2789 61.9596C68.2971 61.9374 68.3213 61.9254 68.3516 61.9254L69.4338 61.9012L69.4358 61.8992Z" fill="#181E1E"/>
<path d="M65.951 56.4182L68.4264 54.9836C68.5879 55.0117 68.7555 55.056 68.9271 55.1164L66.4518 56.551C66.2802 56.4906 66.1126 56.4464 65.951 56.4182Z" fill="#4F575F"/>
<path d="M71.0975 64.362L73.5728 62.9274C73.5405 63.1045 73.4941 63.2695 73.4355 63.4224L70.9602 64.857C71.0188 64.7021 71.0652 64.5391 71.0975 64.362Z" fill="#4F575F"/>
<path d="M67.1382 56.8609L69.6155 55.4282L69.6135 55.6214L67.1382 57.056V56.8609Z" fill="#3D4449"/>
<path d="M66.6234 56.6154L69.0987 55.1807C69.2683 55.2471 69.4399 55.3316 69.6155 55.4282L67.1402 56.8629C66.9646 56.7663 66.7929 56.6838 66.6234 56.6154Z" fill="#4F575F"/>
<path d="M70.9642 62.9495L73.4395 61.5149L73.6071 61.5773L71.1318 63.0119L70.9642 62.9495Z" fill="#3D4449"/>
<path d="M73.6072 61.5773L71.1318 63.0119C71.1581 63.2192 71.1702 63.4224 71.1742 63.6236C71.1702 63.8188 71.1561 64.0079 71.1278 64.185L73.6031 62.7503C73.6294 62.5733 73.6435 62.3861 73.6496 62.189C73.6455 61.9877 73.6334 61.7845 73.6072 61.5773Z" fill="#4F575F"/>
<path d="M67.8287 57.3075L70.304 55.8749L70.2737 56.05L67.7984 57.4846L67.8287 57.3075Z" fill="#3D4449"/>
<path d="M67.3118 56.9615L69.7871 55.5268C69.9608 55.6315 70.1324 55.7461 70.302 55.8729L67.8267 57.3076C67.6571 57.1788 67.4855 57.0661 67.3118 56.9615Z" fill="#4F575F"/>
<path d="M68.4405 58.0339L70.9158 56.5993L71.0773 56.7602L68.602 58.1949L68.4405 58.0339Z" fill="#2A3134"/>
<path d="M70.8088 62.1225L73.2841 60.6899L73.4436 60.7141L70.9683 62.1467L70.8088 62.1225Z" fill="#3D4449"/>
<path d="M70.9683 62.1467L73.4436 60.7121C73.5001 60.9314 73.5445 61.1467 73.5768 61.362L71.1015 62.7966C71.0692 62.5813 71.0248 62.364 70.9683 62.1467Z" fill="#4F575F"/>
<path d="M68.499 57.885L70.9743 56.4504L70.9158 56.5993L68.4405 58.0339L68.499 57.885Z" fill="#3D4449"/>
<path d="M67.9983 57.4424L70.4736 56.0077C70.6452 56.1445 70.8108 56.2914 70.9723 56.4504L68.497 57.885C68.3355 57.7261 68.1699 57.5792 67.9983 57.4424Z" fill="#4F575F"/>
<path d="M69.0441 58.6858L71.5194 57.2512L71.6688 57.4363L69.1935 58.871L69.0441 58.6858Z" fill="#2A3134"/>
<path d="M69.5933 59.4223L72.0706 57.9876L72.2019 58.1909L69.7246 59.6255L69.5933 59.4223Z" fill="#2A3134"/>
<path d="M70.6937 61.2634L73.169 59.8287C73.2517 60.0501 73.3244 60.2714 73.385 60.4907L70.9097 61.9254C70.8491 61.704 70.7744 61.4827 70.6937 61.2634Z" fill="#4F575F"/>
<path d="M70.5443 61.2755L73.0216 59.8428L73.169 59.8307L70.6937 61.2634L70.5443 61.2755Z" fill="#3D4449"/>
<path d="M69.1289 58.5651L71.6063 57.1325L71.5194 57.2512L69.0441 58.6858L69.1289 58.5651Z" fill="#3D4449"/>
<path d="M68.6605 58.046L71.1358 56.6114C71.2994 56.7743 71.4548 56.9494 71.6042 57.1305L69.1289 58.5651C68.9795 58.384 68.8241 58.209 68.6605 58.046Z" fill="#4F575F"/>
<path d="M70.3101 60.3841L72.7854 58.9494C72.8944 59.1647 72.9933 59.3841 73.0822 59.6074L70.6069 61.042C70.516 60.8187 70.4191 60.5994 70.3101 60.3841Z" fill="#4F575F"/>
<path d="M70.1808 60.4344L72.6562 58.9997L72.7874 58.9514L70.3101 60.3841L70.1808 60.4344Z" fill="#3D4449"/>
<path d="M69.2804 58.7502L71.7557 57.3156C71.9051 57.5067 72.0464 57.6999 72.1797 57.9011L69.7044 59.3358C69.5711 59.1345 69.4298 58.9394 69.2804 58.7502Z" fill="#4F575F"/>
<path d="M69.7024 59.3358L72.1797 57.9011L72.0706 57.9876L69.5933 59.4223L69.7024 59.3358Z" fill="#3D4449"/>
<path d="M69.8336 59.539L72.3089 58.1043C72.4381 58.3096 72.5613 58.5208 72.6744 58.7361L70.1991 60.1708C70.086 59.9575 69.9628 59.7442 69.8336 59.539Z" fill="#4F575F"/>
<path d="M39.078 48.2792L41.5553 46.8445L41.4442 46.929L38.9689 48.3637L39.078 48.2792Z" fill="#1F3241"/>
<path d="M38.6035 47.7319L41.0788 46.2972L41.2101 46.2489L38.7348 47.6816L38.6035 47.7319Z" fill="#1F3241"/>
<path d="M39.611 49.0337L42.0863 47.5991L41.9995 47.7198L39.5222 49.1544L39.611 49.0337Z" fill="#3D4449"/>
<path d="M38.1957 46.8606L40.671 45.426L40.8204 45.4119L38.3431 46.8465L38.1957 46.8606Z" fill="#1F3241"/>
<path d="M40.2025 49.7098L42.6778 48.2751L42.6173 48.424L40.142 49.8567L40.2025 49.7098Z" fill="#3D4449"/>
<path d="M37.8948 45.9753L40.3701 44.5427L40.5296 44.5668L38.0543 46.0015L37.8948 45.9753Z" fill="#4F575F"/>
<path d="M40.8345 50.2853L43.3118 48.8506L43.2815 49.0277L40.8042 50.4603L40.8345 50.2853Z" fill="#3D4449"/>
<path d="M37.701 45.104L40.1783 43.6714L40.3459 43.7338L37.8706 45.1684L37.701 45.104Z" fill="#4F575F"/>
<path d="M41.4927 50.748L43.968 49.3134V49.5086L41.4927 50.9412V50.748Z" fill="#3D4449"/>
<path d="M37.6747 43.7197L40.1501 42.2851L40.3196 42.4159L37.8423 43.8505L37.6747 43.7197Z" fill="#4F575F"/>
<path d="M42.153 51.08L44.6283 49.6454L44.6585 49.8546L42.1812 51.2893L42.153 51.08Z" fill="#3D4449"/>
<path d="M44.0568 48.4582C43.2311 48.9371 42.4053 49.414 41.5815 49.8929C39.9542 48.9552 38.6318 46.7097 38.5894 44.8324L41.0647 43.3978C41.1071 45.2751 42.4295 47.5206 44.0568 48.4582Z" fill="#1F3241"/>
<path d="M41.5815 49.5388C40.1238 48.6997 38.9407 46.6916 38.8983 45.0095L41.3736 43.5748C41.416 45.257 42.5991 47.2651 44.0568 48.1041C43.9478 48.1685 41.6623 49.4905 41.5815 49.5388Z" fill="#385165"/>
<path d="M41.9813 45.0316C42.2034 45.6654 42.5628 46.2831 43.0029 46.7942L40.5276 48.2288C40.0875 47.7198 39.7281 47.1 39.506 46.4662C40.249 46.0356 41.2383 45.4622 41.9813 45.0316Z" fill="#C1C4C9"/>
<path d="M37.8423 43.0456L40.3197 41.611L40.4792 41.77L38.0018 43.2046L37.8423 43.0456Z" fill="#4F575F"/>
<path d="M39.2556 45.2167L41.7309 43.7821C41.739 44.0376 41.7774 44.3032 41.842 44.5688L39.3667 46.0035C39.3021 45.7379 39.2637 45.4723 39.2556 45.2167Z" fill="#C1C4C9"/>
<path d="M42.795 51.2692L45.2723 49.8345L45.3309 50.0518L42.8535 51.4865L42.795 51.2692Z" fill="#3D4449"/>
<path d="M40.8588 48.5769L43.3341 47.1423C43.5602 47.3596 43.8045 47.5447 44.0569 47.6916L41.5816 49.1263C41.3272 48.9794 41.0849 48.7943 40.8588 48.5769Z" fill="#C1C4C9"/>
<path d="M41.9409 41.5828C41.422 41.8826 41.0929 42.5084 41.0667 43.3978L38.5914 44.8324C38.6176 43.9451 38.9467 43.3193 39.4656 43.0175C40.2086 42.5869 41.1979 42.0134 41.9409 41.5828Z" fill="#1F3241"/>
<path d="M42.159 41.9591C41.6946 42.2267 41.4018 42.7861 41.3756 43.5768L38.9003 45.0115C38.9265 44.2207 39.2213 43.6613 39.6836 43.3937C40.4266 42.9631 41.416 42.3897 42.159 41.9591Z" fill="#385165"/>
<path d="M41.8461 43.1302C41.7794 43.3193 41.7411 43.5366 41.733 43.7821L39.2577 45.2167C39.2658 44.9712 39.3061 44.7539 39.3708 44.5648C40.1965 44.0859 41.0223 43.609 41.8461 43.1302Z" fill="#C1C4C9"/>
<path d="M39.504 46.4642L41.9813 45.0316L43.1422 45.2831L40.6669 46.7157L39.504 46.4642Z" fill="#1F3241"/>
<path d="M39.3667 46.0035L41.844 44.5688L42.9242 44.5447L40.4489 45.9773L39.3667 46.0035Z" fill="#C1C4C9"/>
<path d="M39.3727 44.5588L41.8481 43.1241L42.9282 44.3918L40.4509 45.8264L39.3727 44.5588Z" fill="#1F3241"/>
<path d="M41.846 43.1302C41.2222 43.4923 39.9906 44.2026 39.3707 44.5588L41.846 43.1241V43.1281V43.1302Z" fill="#C1C4C9"/>
<path d="M38.123 42.4802L40.5983 41.0476L40.7457 41.2287L38.2684 42.6613L38.123 42.4802Z" fill="#4F575F"/>
<path d="M40.893 47.1081L43.3704 45.6735L43.0009 46.7922L40.5256 48.2268L40.893 47.1081Z" fill="#1F3241"/>
<path d="M40.6669 46.7157L43.1422 45.2811C43.1624 45.2851 43.1806 45.2932 43.1988 45.3032L40.7235 46.7379C40.7053 46.7278 40.6851 46.7198 40.6669 46.7157Z" fill="#1F3241"/>
<path d="M43.4027 51.3134L45.878 49.8808L45.9628 50.0961L43.4855 51.5307L43.4027 51.3134Z" fill="#3D4449"/>
<path d="M44.0569 48.4583C44.8927 48.9391 45.6478 48.9834 46.195 48.6675L43.7197 50.1022C43.1725 50.4181 42.4174 50.3738 41.5815 49.8929C42.4073 49.414 43.2331 48.9371 44.0569 48.4583Z" fill="#1F3241"/>
<path d="M44.0589 48.1041C44.8079 48.5347 45.4863 48.5749 45.9769 48.2912L43.5016 49.7259C43.011 50.0096 42.3326 49.9693 41.5836 49.5387C41.8521 49.3818 43.8489 48.2268 44.0589 48.1041Z" fill="#385165"/>
<path d="M41.5836 49.1263L44.0589 47.6916C44.3112 47.8365 44.5535 47.9311 44.7817 47.9753L42.3064 49.41C42.0782 49.3657 41.8359 49.2711 41.5836 49.1263Z" fill="#C1C4C9"/>
<path d="M40.893 47.1081L40.5256 48.2269C40.0854 47.7178 39.7261 47.0981 39.504 46.4642L40.6669 46.7157C40.8082 46.7439 40.9395 46.9713 40.893 47.1061V47.1081Z" fill="#181E1E"/>
<path d="M40.7234 46.7379L43.1988 45.3032C43.3159 45.3696 43.4067 45.5547 43.3684 45.6714L40.893 47.1061C40.9314 46.9894 40.8406 46.8043 40.7234 46.7379Z" fill="#1F3241"/>
<path d="M41.4261 47.6655L43.9014 46.2308L43.3361 47.1443L40.8588 48.577L41.4261 47.6655Z" fill="#C1C4C9"/>
<path d="M41.4584 47.6333L43.9337 46.1986C43.9216 46.2067 43.9095 46.2167 43.9014 46.2308L41.4261 47.6655C41.4342 47.6514 41.4463 47.6393 41.4584 47.6333Z" fill="#C1C4C9"/>
<path d="M42.9706 44.5326L40.4953 45.9672C40.4832 45.9753 40.467 45.9793 40.4489 45.9793L42.9242 44.5447C42.9423 44.5447 42.9585 44.5406 42.9706 44.5326Z" fill="#C1C4C9"/>
<path d="M42.9726 44.5306L40.4973 45.9652C40.4973 45.9652 40.5155 45.9532 40.5236 45.9431L42.9989 44.5085C42.9989 44.5085 42.9827 44.5246 42.9726 44.5306Z" fill="#1F3241"/>
<path d="M39.3728 44.5587C40.4772 45.8686 40.4751 45.8244 40.5236 45.9451C40.5054 45.9652 40.4832 45.9793 40.4509 45.9793L39.3707 46.0034C39.2476 45.5085 39.2072 45.0376 39.3748 44.5587H39.3728Z" fill="#181E1E"/>
<path d="M40.4509 45.8264L42.9262 44.3918C42.9565 44.428 42.9808 44.4682 42.9969 44.5085L40.5216 45.9431C40.5054 45.9029 40.4812 45.8626 40.4509 45.8264Z" fill="#1F3241"/>
<path d="M41.4584 47.6333C44.0831 46.1483 43.9196 46.1302 44.0629 46.2127L41.5876 47.6474C41.5412 47.6212 41.4947 47.6132 41.4604 47.6333H41.4584Z" fill="#1F3241"/>
<path d="M41.7471 47.8506L44.2224 46.416L44.7817 47.9774L42.3064 49.41L41.7471 47.8506Z" fill="#1F3241"/>
<path d="M41.5876 47.6453L44.0629 46.2107C44.1255 46.2469 44.1901 46.3214 44.2224 46.4159L41.7471 47.8506C41.7128 47.756 41.6502 47.6836 41.5876 47.6453Z" fill="#1F3241"/>
<path d="M39.5121 44.2569L41.9874 42.8223L43.1483 43.9088L40.673 45.3415L39.5121 44.2569Z" fill="#C1C4C9"/>
<path d="M40.5377 43.6714L43.015 42.2388L43.3765 43.778L40.9011 45.2107L40.5377 43.6714Z" fill="#1F3241"/>
<path d="M43.1483 43.9088C43.1665 43.927 43.1866 43.941 43.2048 43.9511C42.379 44.43 41.5533 44.9069 40.7295 45.3857C40.7113 45.3757 40.6932 45.3616 40.673 45.3435C41.4987 44.8646 42.3245 44.3877 43.1483 43.9088Z" fill="#C1C4C9"/>
<path d="M43.2048 43.9511C42.379 44.43 41.5532 44.9068 40.7295 45.3857C41.5553 44.9068 42.381 44.43 43.2048 43.9511Z" fill="#C1C4C9"/>
<path d="M42.2802 47.9049L44.7575 46.4723L45.1189 48.0116L42.6436 49.4462L42.2802 47.9049Z" fill="#C1C4C9"/>
<path d="M39.9361 43.8284L42.4114 42.3937C42.2418 42.4923 42.0964 42.6372 41.9874 42.8223L39.5121 44.2569C39.6231 44.0718 39.7665 43.9269 39.9361 43.8284Z" fill="#C1C4C9"/>
<path d="M43.2048 43.9511C43.2533 43.9793 43.2997 43.9813 43.332 43.9632C40.675 45.4722 40.8627 45.4622 40.7295 45.3857C41.5553 44.9068 42.381 44.43 43.2048 43.9511Z" fill="#C1C4C9"/>
<path d="M44.8019 46.2872C44.7575 46.3133 44.7353 46.3777 44.7555 46.4703L42.2801 47.9049C42.26 47.8124 42.2801 47.746 42.3266 47.7218C43.0696 47.2912 44.0589 46.7178 44.8019 46.2872Z" fill="#C1C4C9"/>
<path d="M45.7246 47.8546C43.2452 49.2349 43.219 49.4422 42.6436 49.4442L45.1189 48.0095C45.343 48.0095 45.5469 47.9552 45.7225 47.8526L45.7246 47.8546Z" fill="#C1C4C9"/>
<path d="M43.332 43.9611L40.8567 45.3958C40.9011 45.3696 40.9233 45.3032 40.9011 45.2107L43.3764 43.776C43.3986 43.8686 43.3764 43.935 43.332 43.9611Z" fill="#1F3241"/>
<path d="M42.3265 47.7218C44.9452 46.2348 44.7918 46.2208 44.929 46.2992L42.4537 47.7339C42.4053 47.7057 42.3609 47.7037 42.3286 47.7218H42.3265Z" fill="#1F3241"/>
<path d="M42.4517 47.7339L44.927 46.2992C44.9452 46.3093 44.9654 46.3234 44.9836 46.3415L42.5083 47.7761C42.4881 47.758 42.4699 47.7439 42.4517 47.7339Z" fill="#1F3241"/>
<path d="M39.936 43.8283C42.4255 42.442 42.4436 42.2408 43.015 42.2388L40.5397 43.6734C40.3156 43.6734 40.1137 43.7277 39.9381 43.8304L39.936 43.8283Z" fill="#1F3241"/>
<path d="M40.5377 43.6714L40.8991 45.2107C40.9415 45.3978 40.8123 45.4743 40.6709 45.3415L39.51 44.2549C39.7341 43.8787 40.0955 43.6734 40.5377 43.6714Z" fill="#181E1E"/>
<path d="M45.1371 45.7399C45.1532 45.7781 45.1754 45.8204 45.2077 45.8566L42.7324 47.2912C46.1042 45.3374 45.9346 45.436 42.7324 47.2912C42.7001 47.255 42.6779 47.2148 42.6617 47.1745C43.4047 46.7439 44.3941 46.1705 45.1371 45.7399Z" fill="#C1C4C9"/>
<path d="M42.5082 47.7761L44.9856 46.3415L46.1465 47.428L43.6712 48.8627L42.5082 47.7761Z" fill="#1F3241"/>
<path d="M45.7246 47.8546L43.2493 49.2893C43.4189 49.1907 43.5622 49.0478 43.6733 48.8627L46.1486 47.428C46.0375 47.6132 45.8942 47.756 45.7246 47.8546Z" fill="#1F3241"/>
<path d="M42.5083 47.7761L43.6712 48.8627C43.4471 49.2389 43.0857 49.4442 42.6435 49.4462L42.2821 47.9069C42.2397 47.7218 42.371 47.6453 42.5103 47.7781L42.5083 47.7761Z" fill="#181E1E"/>
<path d="M45.1633 45.7177C45.1532 45.7238 45.1451 45.7318 45.1371 45.7419L42.6617 47.1765C42.6617 47.1765 42.6779 47.1584 42.688 47.1524C43.431 46.7218 44.4203 46.1483 45.1633 45.7177Z" fill="#C1C4C9"/>
<path d="M44.1982 44.0517C41.5815 45.5326 41.739 45.5547 41.5936 45.4722C41.5311 45.436 41.4664 45.3616 41.4341 45.269L43.9095 43.8344C43.9539 43.9611 44.0972 44.11 44.1962 44.0517H44.1982Z" fill="#C1C4C9"/>
<path d="M42.6859 47.1524L45.1612 45.7177C45.1754 45.7097 45.1915 45.7057 45.2097 45.7057L42.7344 47.1403C42.7162 47.1403 42.7 47.1443 42.6859 47.1524Z" fill="#1F3241"/>
<path d="M44.1982 44.0517L41.7229 45.4863C41.735 45.4783 41.7471 45.4682 41.7552 45.4541L44.2305 44.0195C44.2224 44.0336 44.2103 44.0457 44.1982 44.0517Z" fill="#1F3241"/>
<path d="M40.8749 43.7076L43.3522 42.273L43.9115 43.8344L41.4362 45.267L40.8749 43.7076Z" fill="#C1C4C9"/>
<path d="M44.9351 44.9471C44.1094 45.426 43.2836 45.9028 42.4598 46.3817C43.2856 45.9028 44.1114 45.426 44.9351 44.9471Z" fill="#C1C4C9"/>
<path d="M44.9351 44.9471C44.9533 44.9571 44.9715 44.9652 44.9917 44.9692C42.2902 46.5346 42.5325 46.424 42.4598 46.3817C43.2856 45.9028 44.1114 45.426 44.9351 44.9471Z" fill="#C1C4C9"/>
<path d="M44.7655 44.5769C44.7252 44.6936 44.818 44.8807 44.9351 44.9471C44.1094 45.426 43.2836 45.9029 42.4598 46.3817C42.3427 46.3153 42.2499 46.1282 42.2902 46.0115C43.0332 45.5809 44.0225 45.0075 44.7655 44.5769Z" fill="#C1C4C9"/>
<path d="M42.7303 47.2912L45.2077 45.8566L46.2858 47.1242L43.8105 48.5588L42.7303 47.2912Z" fill="#C1C4C9"/>
<path d="M40.8749 43.7076L43.3502 42.273C43.5783 42.3193 43.8206 42.4118 44.075 42.5587L41.5997 43.9933C41.3453 43.8465 41.103 43.7539 40.8749 43.7076Z" fill="#1F3241"/>
<path d="M43.9256 47.9029L46.4009 46.4683C46.3929 46.7137 46.3525 46.9351 46.2859 47.1242L43.8105 48.5589C43.8772 48.3697 43.9176 48.1484 43.9256 47.9029Z" fill="#1F3241"/>
<path d="M39.6816 43.3937L42.157 41.9591C42.6476 41.6754 43.326 41.7156 44.075 42.1462L41.5997 43.5809C40.8506 43.1503 40.1723 43.11 39.6816 43.3937Z" fill="#C1C4C9"/>
<path d="M42.7344 47.1403L45.2097 45.7057L46.2919 45.6815L43.8145 47.1142L42.7344 47.1403Z" fill="#1F3241"/>
<path d="M43.8146 47.1141L46.2899 45.6795C46.3545 45.9451 46.3929 46.2107 46.4009 46.4662L43.9256 47.9009C43.9175 47.6433 43.8792 47.3797 43.8146 47.1141Z" fill="#1F3241"/>
<path d="M42.3225 44.5406L44.7999 43.106L44.2325 44.0175L41.7552 45.4521L42.3225 44.5406Z" fill="#1F3241"/>
<path d="M42.3225 44.5406L41.7552 45.4521C41.7208 45.5085 41.6583 45.5085 41.5957 45.4722C41.4039 45.3616 41.4422 45.2006 40.8749 43.7076C41.4059 43.8143 41.9268 44.1644 42.3225 44.5406Z" fill="#181E1E"/>
<path d="M42.5164 46.4019L44.9917 44.9692L46.1546 45.2187L43.6773 46.6534L42.5164 46.4019Z" fill="#C1C4C9"/>
<path d="M42.6557 44.8908L45.133 43.4561L44.7655 44.5769L42.2902 46.0095L42.6557 44.8908Z" fill="#C1C4C9"/>
<path d="M42.6556 44.8908L45.1309 43.4561C45.5711 43.9652 45.9305 44.5849 46.1526 45.2187L43.6773 46.6534C43.4552 46.0196 43.0958 45.3998 42.6556 44.8908Z" fill="#1F3241"/>
<path d="M38.5086 42.0436L40.9859 40.6089L41.1131 40.8081L38.6378 42.2428L38.5086 42.0436Z" fill="#4F575F"/>
<path d="M43.9539 51.2108L46.4292 49.7762L46.5382 49.9875L44.0629 51.4221L43.9539 51.2108Z" fill="#3D4449"/>
<path d="M38.9871 41.7478L41.4644 40.3132L41.5715 40.5244L39.0961 41.9591L38.9871 41.7478Z" fill="#3D4449"/>
<path d="M44.4324 50.9613L46.9097 49.5267L47.0389 49.7279L44.5616 51.1605L44.4324 50.9613Z" fill="#3D4449"/>
<path d="M39.0961 41.9591L41.5714 40.5245L41.7047 40.4742L39.2274 41.9068L39.0961 41.9591Z" fill="#2A3134"/>
<path d="M44.5434 50.8748L47.0207 49.4402L46.9097 49.5267L44.4324 50.9613L44.5434 50.8748Z" fill="#2A3134"/>
<path d="M39.5444 41.5969L42.0217 40.1643L42.1065 40.3836L39.6312 41.8182L39.5444 41.5969Z" fill="#3D4449"/>
<path d="M44.8261 50.575L47.3014 49.1424L47.4508 49.3275L44.9735 50.7601L44.8261 50.575Z" fill="#3D4449"/>
<path d="M39.6312 41.8182L42.1065 40.3836L42.2559 40.3695L39.7806 41.8042L39.6312 41.8182Z" fill="#2A3134"/>
<path d="M44.9129 50.4543L47.3882 49.0216L47.3014 49.1424L44.8261 50.575L44.9129 50.4543Z" fill="#2A3134"/>
<path d="M40.1662 41.607L42.6415 40.1723L42.7001 40.3896L40.2247 41.8243L40.1662 41.607Z" fill="#3D4449"/>
<path d="M40.2248 41.8243L42.7001 40.3896L42.8636 40.4158L40.3883 41.8504L40.2248 41.8243Z" fill="#2A3134"/>
<path d="M45.1208 50.0659L47.5962 48.6333L47.7557 48.7923L45.2804 50.2249L45.1208 50.0659Z" fill="#3D4449"/>
<path d="M45.1794 49.915L47.6567 48.4804L47.5962 48.6333L45.1208 50.0659L45.1794 49.915Z" fill="#2A3134"/>
<path d="M45.9749 48.2912L43.4996 49.7259C43.964 49.4583 44.2588 48.8989 44.285 48.1102L46.7603 46.6755C46.7341 47.4663 46.4373 48.0236 45.9749 48.2912Z" fill="#C1C4C9"/>
<path d="M41.5997 43.9934L44.075 42.5587C44.3274 42.7036 44.5717 42.8907 44.7978 43.106L42.3225 44.5407C42.0964 44.3254 41.8521 44.1382 41.5997 43.9934Z" fill="#1F3241"/>
<path d="M39.4636 43.0175L41.9389 41.5828C42.4861 41.2669 43.2412 41.3112 44.0771 41.7901L41.6018 43.2247C40.7679 42.7438 40.0108 42.6995 39.4636 43.0175Z" fill="#385165"/>
<path d="M46.195 48.6675L43.7197 50.1021C44.2386 49.8023 44.5677 49.1766 44.5959 48.2892L47.0712 46.8546C47.043 47.7419 46.7139 48.3677 46.195 48.6675Z" fill="#385165"/>
<path d="M38.7832 41.8504C41.2827 40.4077 41.2807 40.3937 41.4645 40.3132L38.9891 41.7478C38.9185 41.778 38.8498 41.8122 38.7852 41.8504H38.7832Z" fill="#1F3241"/>
<path d="M40.8304 41.7659L43.3058 40.3313L43.334 40.5425L40.8587 41.9752L40.8304 41.7659Z" fill="#3D4449"/>
<path d="M40.8588 41.9752L43.3341 40.5426L43.5057 40.6049L41.0284 42.0396L40.8588 41.9752Z" fill="#2A3134"/>
<path d="M45.3087 49.4482L47.784 48.0135L47.9515 48.1443L45.4762 49.579L45.3087 49.4482Z" fill="#3D4449"/>
<path d="M45.3389 49.2691L47.8163 47.8345L47.784 48.0136L45.3087 49.4482L45.3389 49.2691Z" fill="#2A3134"/>
<path d="M41.5169 42.271L43.9922 40.8363L44.1658 40.9369L41.6905 42.3716L41.5169 42.271Z" fill="#2A3134"/>
<path d="M41.5997 43.5809L44.075 42.1462C45.5328 42.9853 46.7159 44.9913 46.7603 46.6755L44.285 48.1101C44.2406 46.426 43.0575 44.4199 41.5997 43.5809Z" fill="#C1C4C9"/>
<path d="M45.3127 47.9492L47.788 46.5145L47.8183 46.7318L45.343 48.1645L45.3127 47.9492Z" fill="#2A3134"/>
<path d="M41.6017 43.2267L44.0771 41.7921C45.7044 42.7297 47.0268 44.9753 47.0712 46.8546L44.5959 48.2892C44.5515 46.4099 43.2291 44.1644 41.6017 43.2267Z" fill="#385165"/>
<path d="M42.1771 42.6995L44.6524 41.2649L44.824 41.3977L42.3467 42.8323L42.1771 42.6995Z" fill="#2A3134"/>
<path d="M45.129 47.1182L47.6043 45.6835L47.6628 45.9049L45.1875 47.3375L45.129 47.1182Z" fill="#2A3134"/>
<path d="M44.8382 46.2711L47.3135 44.8364L47.4003 45.0578L44.923 46.4904L44.8382 46.2711Z" fill="#2A3134"/>
<path d="M44.4485 45.436L46.9259 44.0014L47.0349 44.2147L44.5596 45.6493L44.4485 45.436Z" fill="#2A3134"/>
<path d="M45.5065 49.3999L45.3389 49.2691L45.3066 49.4462L45.4742 49.577C45.4419 49.7541 45.3955 49.9191 45.3369 50.072L45.1774 49.913L45.1168 50.0659L45.2763 50.2249C45.2137 50.3758 45.139 50.5126 45.0563 50.6374L44.9089 50.4563L44.8221 50.577L44.9715 50.7621C44.8806 50.8808 44.7817 50.9855 44.6706 51.076L44.5414 50.8768L44.4304 50.9633L44.5596 51.1625C44.4445 51.2471 44.3213 51.3155 44.1921 51.3718L44.0831 51.1605L43.9519 51.2129L44.0609 51.4241C43.9276 51.4724 43.7843 51.5046 43.6349 51.5227L43.5481 51.3014L43.3987 51.3155L43.4835 51.5328C43.334 51.5408 43.1766 51.5368 43.013 51.5127L42.9545 51.2974L42.7929 51.2712L42.8515 51.4885C42.688 51.4603 42.5224 51.4161 42.3508 51.3537L42.3225 51.1444L42.1509 51.0821L42.1792 51.2913C42.0096 51.2229 41.838 51.1404 41.6623 51.0438V50.8507L41.4887 50.7501V50.9432C41.313 50.8386 41.1414 50.7239 40.9718 50.5971L41.0001 50.4201L40.8305 50.2853L40.8002 50.4603C40.6286 50.3235 40.461 50.1766 40.2995 50.0176L40.36 49.8688L40.1965 49.7078L40.1359 49.8567C39.9744 49.6937 39.8189 49.5186 39.6675 49.3376L39.7523 49.2188L39.6029 49.0337L39.5161 49.1545C39.3667 48.9633 39.2254 48.7681 39.0921 48.5669L39.2011 48.4824L39.0699 48.2792L38.9609 48.3657C38.8316 48.1605 38.7085 47.9492 38.5954 47.7339L38.7267 47.6836L38.6156 47.4683L38.4864 47.5186C38.3774 47.3033 38.2784 47.084 38.1876 46.8606L38.337 46.8465L38.2502 46.6272L38.1028 46.6393C38.02 46.42 37.9453 46.1986 37.8867 45.9773L38.0463 46.0015L37.9877 45.7801L37.8282 45.756C37.7717 45.5367 37.7272 45.3193 37.6949 45.1041L37.8625 45.1664L37.8322 44.9531L37.6647 44.8908C37.6142 44.4622 37.6101 44.1201 37.6687 43.7177L37.8363 43.8485L37.8666 43.6694L37.699 43.5386C37.7333 43.3616 37.7777 43.1966 37.8363 43.0436L37.9958 43.2026L38.0563 43.0497L37.8968 42.8907C37.9574 42.7398 38.0321 42.603 38.1169 42.4782L38.2643 42.6593L38.3511 42.5386L38.2017 42.3535C38.2946 42.2368 38.3935 42.1301 38.5025 42.0396L38.6318 42.2388L38.7428 42.1523L38.6136 41.9531C38.7287 41.8706 38.8518 41.8001 38.9811 41.7438L39.0901 41.9551L39.2213 41.9028L39.1123 41.6915C39.2455 41.6432 39.3889 41.613 39.5383 41.5929L39.6251 41.8142L39.7745 41.8001L39.6897 41.5828C39.8412 41.5748 39.9966 41.5788 40.1602 41.603L40.2187 41.8183L40.3822 41.8444L40.3237 41.6291C40.4852 41.6573 40.6528 41.7016 40.8244 41.7619L40.8527 41.9712L41.0223 42.0336L40.994 41.8243C41.1636 41.8907 41.3352 41.9752 41.5109 42.0718V42.267L41.6845 42.3676V42.1724C41.8602 42.277 42.0298 42.3917 42.2014 42.5185L42.1711 42.6935L42.3427 42.8263L42.373 42.6513C42.5446 42.7881 42.7102 42.935 42.8717 43.0939L42.8131 43.2428L42.9747 43.4038L43.0352 43.2549C43.1988 43.4179 43.3542 43.5929 43.5036 43.774L43.4188 43.8928L43.5682 44.0779L43.6551 43.9571C43.8045 44.1483 43.9458 44.3415 44.0791 44.5427L43.97 44.6292L44.1013 44.8324L44.2103 44.7459C44.3395 44.9511 44.4627 45.1624 44.5757 45.3777L44.4465 45.428L44.5555 45.6413L44.6868 45.591C44.7958 45.8063 44.8947 46.0256 44.9836 46.2489L44.8342 46.263L44.921 46.4844L45.0684 46.4723C45.1512 46.6916 45.2238 46.915 45.2844 47.1343L45.1249 47.1101L45.1835 47.3315L45.343 47.3556C45.3995 47.5749 45.4439 47.7902 45.4762 48.0055L45.3086 47.9432L45.3389 48.1585L45.5065 48.2208C45.557 48.6233 45.5651 48.9915 45.5025 49.3939L45.5065 49.3999ZM44.5939 48.2872C44.5515 46.4099 43.2291 44.1644 41.6017 43.2267C39.9744 42.2911 38.6439 43.0114 38.5894 44.8324C38.6318 46.7097 39.9542 48.9553 41.5815 49.8929C43.2089 50.8305 44.5394 50.1102 44.5939 48.2872Z" fill="#181E1E"/>
<path d="M42.6557 44.8907C43.0958 45.3998 43.4552 46.0195 43.6773 46.6534L42.5163 46.4018C42.375 46.3717 42.2438 46.1443 42.2902 46.0095L42.6577 44.8887L42.6557 44.8907Z" fill="#181E1E"/>
<path d="M41.5997 43.5809C43.0574 44.4199 44.2406 46.426 44.285 48.1101C44.2285 49.7359 43.0393 50.3778 41.5815 49.5388C40.1238 48.6997 38.9407 46.6916 38.8962 45.0095C38.9528 43.3837 40.142 42.7418 41.5997 43.5809ZM40.5377 43.6714C40.0955 43.6734 39.7362 43.8787 39.51 44.2549C40.3217 45.0115 40.6245 45.3234 40.7275 45.3837C40.8446 45.4501 40.9375 45.3716 40.8991 45.2107L40.5377 43.6714ZM43.6773 46.6534C43.4552 46.0195 43.0958 45.3998 42.6556 44.8907L42.2882 46.0115C42.2417 46.1463 42.375 46.3737 42.5143 46.4039L43.6752 46.6554M42.6435 49.4462C43.0857 49.4462 43.4471 49.2389 43.6712 48.8627C42.8495 48.0981 42.5527 47.7902 42.4517 47.7339C42.3366 47.6675 42.2438 47.746 42.2801 47.9069L42.6415 49.4462M39.504 46.4642C39.7261 47.098 40.0854 47.7158 40.5256 48.2268L40.893 47.1081C40.9375 46.9733 40.8062 46.7459 40.6669 46.7178L39.504 46.4662M41.5835 49.1263C41.8359 49.2711 42.0782 49.3657 42.3064 49.41C41.7552 47.9572 41.7834 47.758 41.5876 47.6453C41.525 47.6091 41.4604 47.6091 41.4261 47.6655L40.8607 48.579C41.0869 48.7963 41.3312 48.9814 41.5835 49.1283M41.5997 43.9933C41.3453 43.8465 41.103 43.7539 40.8749 43.7076L41.4362 45.269C41.4967 45.438 41.6825 45.5729 41.7572 45.4541L42.3245 44.5427C42.0984 44.3274 41.8541 44.1402 41.6017 43.9954M43.8105 48.5588C43.9801 48.08 43.9357 47.6091 43.8166 47.1162L42.7344 47.1403C42.7021 47.1403 42.6779 47.1544 42.6617 47.1765C42.7081 47.2952 42.7404 47.2892 43.8105 48.5609M39.2556 45.2167C39.2637 45.4723 39.3021 45.7379 39.3667 46.0035L40.4468 45.9793C40.4791 45.9793 40.5034 45.9652 40.5195 45.9451C40.4751 45.8284 40.4852 45.8827 39.3707 44.5608C39.3041 44.7519 39.2637 44.9712 39.2556 45.2187" fill="#C1C4C9"/>
<path d="M41.6017 43.2267C43.229 44.1644 44.5515 46.4099 44.5959 48.2892C44.5394 50.1102 43.2109 50.8305 41.5815 49.8929C39.9542 48.9552 38.6318 46.7097 38.5894 44.8324C38.6459 43.0114 39.9744 42.2911 41.6017 43.2267ZM44.285 48.1081C44.2426 46.424 43.0594 44.4179 41.6017 43.5788C40.144 42.7398 38.9548 43.3817 38.9003 45.0095C38.9427 46.6916 40.1258 48.6997 41.5836 49.5388C43.0413 50.3778 44.2305 49.7339 44.285 48.1081Z" fill="#4F575F"/>
<path d="M41.4261 47.6654L40.8588 48.579C41.2484 48.9512 41.7734 49.3073 42.3064 49.412L41.7471 47.8526C41.6866 47.6836 41.4988 47.5467 41.4261 47.6675V47.6654Z" fill="#181E1E"/>
<path d="M44.4001 51.2671C44.4566 51.235 44.5091 51.2007 44.5616 51.1625L47.0369 49.7279C46.9057 49.8245 44.2971 51.3255 44.4001 51.2671Z" fill="#1F3241"/>
<path d="M39.1204 41.6955L41.5957 40.2609C41.7289 40.2126 41.8723 40.1824 42.0217 40.1623L39.5464 41.5969C39.397 41.617 39.2556 41.6472 39.1204 41.6955Z" fill="#4F575F"/>
<path d="M44.9735 50.7601L47.4488 49.3255C47.358 49.4442 47.259 49.5488 47.148 49.6394L44.6727 51.074C44.7817 50.9835 44.8806 50.8788 44.9735 50.7601Z" fill="#4F575F"/>
<path d="M39.6958 41.5868L42.1711 40.1522C42.3225 40.1442 42.478 40.1482 42.6415 40.1723L40.1662 41.607C40.0047 41.5828 39.8472 41.5788 39.6958 41.5868Z" fill="#4F575F"/>
<path d="M45.2804 50.2249L47.7557 48.7903C47.6931 48.9412 47.6184 49.078 47.5356 49.2027L45.0603 50.6374C45.1431 50.5126 45.2178 50.3778 45.2804 50.2249Z" fill="#4F575F"/>
<path d="M43.8145 47.1141C43.9337 47.6071 43.9781 48.08 43.8085 48.5568C42.7001 47.2429 42.7061 47.2892 42.6577 47.1725C42.6758 47.1504 42.7001 47.1383 42.7303 47.1383L43.8125 47.1141H43.8145Z" fill="#181E1E"/>
<path d="M40.3298 41.6331L42.8051 40.1985C42.9666 40.2267 43.1342 40.2709 43.3058 40.3313L40.8305 41.7659C40.6589 41.7056 40.4913 41.6613 40.3298 41.6331Z" fill="#4F575F"/>
<path d="M45.4762 49.579L47.9515 48.1443C47.9192 48.3214 47.8728 48.4864 47.8142 48.6393L45.3389 50.074C45.3975 49.919 45.4439 49.7561 45.4762 49.579Z" fill="#4F575F"/>
<path d="M41.5169 42.0758L43.9942 40.6432L43.9922 40.8363L41.5169 42.271V42.0758Z" fill="#3D4449"/>
<path d="M41.0021 41.8303L43.4774 40.3957C43.647 40.4621 43.8186 40.5466 43.9942 40.6432L41.5189 42.0778C41.3433 41.9812 41.1717 41.8987 41.0021 41.8303Z" fill="#4F575F"/>
<path d="M45.343 48.1645L47.8183 46.7318L47.9858 46.7942L45.5105 48.2268L45.343 48.1645Z" fill="#3D4449"/>
<path d="M47.9859 46.7942L45.5106 48.2289C45.561 48.6293 45.5691 48.9975 45.5065 49.4019L47.9818 47.9673C48.0424 47.5669 48.0364 47.1987 47.9859 46.7942Z" fill="#4F575F"/>
<path d="M42.2054 42.5225L44.6827 41.0898L44.6524 41.2649L42.1771 42.6995L42.2054 42.5225Z" fill="#3D4449"/>
<path d="M41.6906 42.1764L44.1659 40.7418C44.3395 40.8464 44.5111 40.9611 44.6807 41.0878L42.2054 42.5225C42.0358 42.3937 41.8642 42.281 41.6906 42.1764Z" fill="#4F575F"/>
<path d="M42.8172 43.2488L45.2945 41.8142L45.456 41.9752L42.9807 43.4098L42.8172 43.2488Z" fill="#2A3134"/>
<path d="M45.1875 47.3375L47.6628 45.9048L47.8223 45.929L45.347 47.3616L45.1875 47.3375Z" fill="#3D4449"/>
<path d="M45.347 47.3616L47.8223 45.927C47.8788 46.1463 47.9232 46.3616 47.9555 46.5769L45.4802 48.0116C45.4479 47.7963 45.4035 47.579 45.347 47.3616Z" fill="#4F575F"/>
<path d="M42.8778 43.1L45.3531 41.6653L45.2945 41.8142L42.8172 43.2489L42.8778 43.1Z" fill="#3D4449"/>
<path d="M42.377 42.6573L44.8523 41.2227C45.0239 41.3595 45.1895 41.5064 45.351 41.6653L42.8757 43.1C42.7142 42.941 42.5486 42.7941 42.377 42.6573Z" fill="#4F575F"/>
<path d="M43.4229 43.9008L45.8982 42.4662L46.0476 42.6513L43.5723 44.0859L43.4229 43.9008Z" fill="#2A3134"/>
<path d="M43.972 44.6372L46.4474 43.2026L46.5786 43.4058L44.1033 44.8404L43.972 44.6372Z" fill="#2A3134"/>
<path d="M45.0724 46.4803L47.5477 45.0457C47.6305 45.267 47.7032 45.4884 47.7637 45.7077L45.2884 47.1423C45.2279 46.921 45.1531 46.6996 45.0724 46.4803Z" fill="#4F575F"/>
<path d="M44.923 46.4904L47.4004 45.0578L47.5478 45.0457L45.0724 46.4803L44.923 46.4904Z" fill="#3D4449"/>
<path d="M43.5077 43.7801L45.985 42.3474L45.8982 42.4662L43.4229 43.9008L43.5077 43.7801Z" fill="#3D4449"/>
<path d="M43.0392 43.2609L45.5146 41.8263C45.6781 41.9893 45.8336 42.1643 45.983 42.3454L43.5077 43.7801C43.3583 43.599 43.2028 43.4239 43.0392 43.2609Z" fill="#4F575F"/>
<path d="M44.6888 45.599L47.1641 44.1644C47.2731 44.3797 47.3721 44.599 47.4609 44.8223L44.9856 46.257C44.8947 46.0336 44.7978 45.8143 44.6888 45.599Z" fill="#4F575F"/>
<path d="M44.5596 45.6493L47.0349 44.2147L47.1661 44.1664L44.6888 45.599L44.5596 45.6493Z" fill="#3D4449"/>
<path d="M43.6591 43.9652L46.1344 42.5305C46.2838 42.7217 46.4252 42.9149 46.5584 43.1161L44.0831 44.5507C43.9499 44.3495 43.8085 44.1543 43.6591 43.9652Z" fill="#4F575F"/>
<path d="M44.0811 44.5507L46.5584 43.1161L46.4474 43.2026L43.972 44.6372L44.0811 44.5507Z" fill="#3D4449"/>
<path d="M44.2123 44.7539L46.6877 43.3193C46.8169 43.5245 46.94 43.7378 47.0531 43.9511L44.5778 45.3857C44.4647 45.1724 44.3416 44.9592 44.2123 44.7539Z" fill="#4F575F"/>
<path d="M38.7166 36.5404C38.6035 36.6149 37.9675 36.301 37.3739 35.9811C37.3679 35.7557 37.3557 35.5163 37.3497 35.2648C37.3497 34.9891 37.3436 34.6933 37.3436 34.3855C37.3436 33.3271 37.4062 32.2627 37.5072 31.3633C37.5758 31.4075 38.9003 32.1983 39.0133 32.9025C39.1325 33.6007 38.9245 36.3895 38.7166 36.5404Z" fill="#FF6161"/>
<path d="M37.8019 35.4096C37.7515 35.4418 37.5758 35.3714 37.3477 35.2648C37.3477 34.9891 37.3416 34.6933 37.3416 34.3855C37.3416 33.7456 37.3598 33.0595 37.4163 32.3572C37.6626 32.5524 37.9453 32.822 37.9897 33.0796C38.0644 33.5323 37.9332 35.3151 37.7999 35.4096H37.8019Z" fill="#FFB63C"/>
<path d="M38.335 36.9026C40.5801 38.1944 46.1385 41.9812 46.8774 48.1464L46.4716 48.2429C46.3303 47.0035 45.8619 45.6976 45.1774 44.5145C42.27 39.4963 37.3033 39.0516 37.2891 43.7197V44.2026L36.7925 43.8223C36.742 43.5869 35.7809 39.116 37.5415 38.0676C37.5375 38.0355 37.4567 37.4197 37.3982 36.4016C37.4163 36.4097 37.7575 36.5686 38.337 36.9026H38.335Z" fill="#39C988"/>
<path d="M46.6614 30.6449C46.942 30.5946 47.3478 30.6771 47.8304 30.8522L47.9818 36.8845L44.4061 34.3392C44.5737 33.2909 44.9735 30.9487 46.6614 30.6449Z" fill="#4F575F"/>
<path d="M60.7339 42.4078L60.7218 45.9511L55.856 42.4903L52.0622 39.79L48.2604 37.0897L48.109 30.9588C50.0311 31.7455 53.4473 34.0434 54.5194 34.8724C54.7273 35.0474 54.9353 35.2366 55.1432 35.4317C56.2598 36.462 57.3359 37.6934 58.3333 38.9872C59.2035 40.1119 60.0171 41.287 60.7339 42.4098V42.4078Z" fill="#4F575F"/>
<path d="M43.4956 28.5523L41.0223 31.6369C40.988 31.6771 40.3177 32.4438 37.5577 30.9689C37.7878 29.2747 38.232 27.5805 39.0477 26.2746L43.4956 28.5543V28.5523Z" fill="#3D4449"/>
<path d="M39.1688 31.1278C38.9508 31.0131 38.8034 30.7777 38.864 30.5403C39.1446 29.4457 39.7947 28.661 40.4247 27.9648C40.5943 27.7777 40.8709 27.7253 41.097 27.842L42.1671 28.3914C42.482 28.5523 42.5689 28.9588 42.3488 29.2344C42.3488 29.2344 40.9012 32.0413 39.1688 31.1298V31.1278Z" fill="#4F575F"/>
<path d="M62.5954 47.2993L62.763 47.418C62.7872 48.591 62.8942 56.1606 61.5899 57.3921L61.3921 57.2532C62.7246 56.2773 62.6136 48.3315 62.5934 47.2993H62.5954Z" fill="#189453"/>
<path d="M48.107 30.9588L48.2625 37.0857L47.9818 36.8865L47.8304 30.8542C47.9212 30.8864 48.0121 30.9226 48.107 30.9608V30.9588Z" fill="#3D4449"/>
<path d="M38.2219 24.5643L55.3936 14.6184C55.6823 14.7391 61.17 17.039 66.7687 20.2604C67.429 20.6407 68.0872 21.031 68.7332 21.4314L51.5615 31.3773C47.5154 28.8722 42.0742 26.178 38.2239 24.5643H38.2219Z" fill="#49E4A3"/>
<path d="M62.9124 58.3237C62.862 58.8448 62.8983 59.0682 62.8801 60.5954L62.5793 60.4545L46.512 51.1827C46.506 49.1363 46.5483 48.9049 46.4736 48.2409L46.8795 48.1443C46.1405 41.9792 40.5822 38.1924 38.337 36.9006C37.7576 36.5686 37.4164 36.4076 37.3982 36.3996C37.3901 36.2648 37.382 36.1259 37.376 35.9791C37.9635 36.299 38.6035 36.6149 38.7146 36.5364C38.9246 36.3855 39.1325 33.6007 39.0154 32.8985C38.8983 32.1963 37.5779 31.4055 37.5092 31.3633C37.5254 31.2305 37.5415 31.0977 37.5597 30.9669C40.3197 32.4418 40.988 31.6751 41.0243 31.6349L43.4976 28.5503L39.0518 26.2706L38.224 24.5623C42.1106 26.1921 47.5134 28.8682 51.5616 31.3753C52.7003 32.2265 54.0167 33.2486 55.4764 34.4458C56.4718 35.2607 57.3884 36.2004 58.2344 37.1984C61.8464 41.454 64.1602 46.7761 65.6018 48.1564C66.4013 48.923 67.0534 49.3818 67.5299 49.6555C68.1114 49.9895 68.4122 50.0438 68.4284 50.0458C69.022 50.8667 69.5712 51.6454 70.0678 52.3799C70.1587 52.5147 70.2596 52.6656 70.3666 52.8326L64.1602 48.4099C64.1501 48.3918 63.5989 47.259 62.6661 45.6111C62.1876 44.768 61.6102 43.7861 60.952 42.7478C60.8006 42.5104 60.7662 42.4581 60.7319 42.4058C59.038 39.7739 56.8554 36.8382 54.5214 34.8643C53.2818 33.9549 48.1696 30.3693 46.6634 30.6429C44.9735 30.9467 44.5738 33.2889 44.4082 34.3372C44.4082 34.3472 44.3941 34.5444 44.392 34.9147C44.3819 38.3332 45.3733 42.0818 47.5013 45.2348C49.3265 47.9472 51.5232 50.2551 53.839 51.9251C54.0853 52.0982 61.3618 57.2251 62.9165 58.3217L62.9124 58.3237Z" fill="#39C988"/>
<path d="M60.7299 42.4078C60.7642 42.4601 60.7985 42.5124 60.8308 42.5667C60.849 42.5949 60.8652 42.6211 60.8813 42.6452C60.8874 42.6533 60.8914 42.6613 60.8975 42.6694C60.9177 42.6995 60.9298 42.7217 60.9439 42.7418C61.6061 43.7861 62.1856 44.768 62.6641 45.6131C63.5969 47.261 64.1481 48.3938 64.1582 48.4119C63.8149 48.1665 60.5098 45.8002 60.7198 45.9511L60.7299 42.4058V42.4078Z" fill="#3D4449"/>
<path d="M51.5615 31.3773C54.6001 33.2587 57.3682 35.3271 58.8461 37.307L58.2344 37.2004C57.3884 36.2024 56.4697 35.2647 55.4764 34.4478C54.0166 33.2506 52.7002 32.2284 51.5615 31.3773Z" fill="#39C988"/>
<path d="M70.3646 52.8346L87.5363 42.8887C88.4792 44.3535 89.8945 46.8847 89.9087 48.251C89.9268 49.8466 90.1207 53.5348 89.4503 55.0358L72.2786 64.9818C72.6824 64.0823 72.7733 62.3761 72.7773 60.8267C72.7814 59.7824 72.745 58.8086 72.737 58.1969C72.7228 56.8307 71.3075 54.2994 70.3646 52.8346Z" fill="#49E4A3"/>
<path d="M89.9248 52.1304C89.8743 53.2793 89.7451 54.3719 89.4503 55.0359L72.2766 64.9818C72.5714 64.3178 72.6986 63.2252 72.745 62.0763L89.9268 52.1304H89.9248Z" fill="#4F575F"/>
<path d="M87.5363 42.8907C89.5856 45.6594 72.1373 55.2854 70.3646 52.8366C70.2576 52.6696 70.1586 52.5187 70.0658 52.3839C69.5671 51.6495 69.0179 50.8708 68.4263 50.0498L85.598 40.1039C86.1169 40.8202 87.0638 42.1522 87.5363 42.8907Z" fill="#EBF2FF"/>
<path d="M44.4061 34.3392L62.5974 47.2992C62.6176 48.3315 62.7287 56.2773 61.3961 57.2532L61.594 57.392C62.8983 56.1626 62.7913 48.591 62.767 47.418C62.9225 47.5286 70.6392 53.0278 70.3686 52.8346C71.3115 54.2994 72.7268 56.8307 72.741 58.1969C72.747 58.8086 72.7834 59.7824 72.7813 60.8267C72.7773 62.3761 72.6864 64.0824 72.2826 64.9818L72.1151 64.9033V64.185C72.1252 61.2654 70.0637 57.712 67.5178 56.2471C65.1374 54.8769 63.1708 55.8145 62.9164 58.3237C61.3679 57.2331 54.0611 52.0841 53.839 51.9271C51.2688 50.0719 49.1104 47.6494 47.366 45.0336C44.6383 40.9389 44.388 36.476 44.394 34.9167C44.394 34.5464 44.4102 34.3492 44.4102 34.3392H44.4061Z" fill="#CBDBF4"/>
<path d="M46.8956 51.406L46.51 51.1847C46.51 51.1847 46.5282 48.6514 46.4716 48.2409L46.8774 48.1443C46.8774 48.1443 47.0793 50.2088 46.8956 51.406Z" fill="#39C988"/>
<path d="M83.7486 37.7055C83.6517 37.6049 82.1798 36.0938 82.2767 36.1944C82.2767 36.1944 82.9127 34.6028 83.6214 34.6088C83.7062 34.6088 83.795 34.633 83.8798 34.6853C84.6773 35.1742 84.9055 36.639 83.7486 37.7055Z" fill="#3D4449"/>
<path d="M83.5467 37.4982L82.2767 36.1944C82.2767 36.1944 82.9127 34.6028 83.6214 34.6088C84.3563 35.1078 84.5663 36.466 83.5487 37.4982H83.5467Z" fill="#4F575F"/>
<path d="M64.6265 49.0418C62.5389 49.5548 61.4547 49.1363 61.4547 49.1363C59.6174 48.2691 61.596 47.2811 63.5565 46.7137C63.6332 46.6916 63.7139 46.6976 63.7866 46.7318C64.4105 47.0256 64.8547 47.8928 64.8688 48.6836C64.8829 48.8747 64.7739 49.0055 64.6265 49.0418Z" fill="#3D4449"/>
<path d="M64.8688 48.6856C64.8466 48.6997 64.8224 48.7077 64.7981 48.7138C62.7105 49.2269 61.6263 48.8083 61.6263 48.8083C61.0468 48.5347 60.853 48.257 60.8974 47.9914C61.4506 47.3556 63.1183 46.8405 63.5564 46.7137C63.6332 46.6916 63.7139 46.6976 63.7866 46.7318C64.4105 47.0256 64.8547 47.8928 64.8688 48.6836V48.6856Z" fill="#4F575F"/>
<path d="M71.1278 55.1747C71.1278 55.1747 71.8748 58.0963 73.7243 58.3358C75.5737 58.5752 76.8194 57.7824 76.8194 57.7824C76.8194 57.7824 75.9472 56.0057 74.6732 55.7683C73.3992 55.5288 71.1278 55.1767 71.1278 55.1767V55.1747Z" fill="white"/>
<path d="M88.5963 51.7923C87.7786 50.5851 88.027 47.0196 89.1172 45.7097C89.408 46.3153 89.6442 46.917 89.7996 47.5085C90.367 50.07 88.5963 51.7923 88.5963 51.7923Z" fill="white"/>
<path d="M75.7231 57.1224C75.7231 57.6053 75.291 57.9977 74.758 57.9977C74.225 57.9977 73.7929 57.6053 73.7929 57.1224C73.7929 56.6395 74.225 56.2472 74.758 56.2472C75.291 56.2472 75.7231 56.6395 75.7231 57.1224Z" fill="#FFB63C"/>
<path d="M89.5291 49.5971C89.5291 49.921 89.2404 50.1826 88.883 50.1826C88.5257 50.1826 88.2369 49.921 88.2369 49.5971C88.2369 49.2731 88.5257 49.0116 88.883 49.0116C89.2404 49.0116 89.5291 49.2731 89.5291 49.5971Z" fill="#FFB63C"/>
<path d="M73.3002 56.3357C73.3002 56.5792 73.0822 56.7764 72.8157 56.7764C72.5492 56.7764 72.3311 56.5792 72.3311 56.3357C72.3311 56.0922 72.5492 55.8951 72.8157 55.8951C73.0822 55.8951 73.3002 56.0922 73.3002 56.3357Z" fill="#FF6161"/>
<path d="M89.1596 47.915C89.3491 47.915 89.5028 47.7753 89.5028 47.6031C89.5028 47.4308 89.3491 47.2912 89.1596 47.2912C88.97 47.2912 88.8163 47.4308 88.8163 47.6031C88.8163 47.7753 88.97 47.915 89.1596 47.915Z" fill="#FF6161"/>
<path d="M58.8461 37.305C62.4662 42.1522 66.2761 46.752 68.8443 50.3094C68.8281 50.3074 68.5273 50.253 67.9458 49.919C67.4693 49.6454 66.3993 48.925 65.5997 48.1584C64.1602 46.7801 61.8464 41.456 58.2344 37.2024L58.8461 37.3071V37.305Z" fill="#3D4449"/>
<path d="M58.8461 37.305L76.0178 27.3591C79.6379 32.2063 83.0299 36.5445 85.598 40.1019C86.9649 42.448 69.7932 52.3919 68.4263 50.0478C65.8561 46.4904 62.4662 42.1543 58.8461 37.305Z" fill="#2A3134"/>
<path d="M79.4118 43.6714C78.7516 44.106 78.0611 44.5326 77.3564 44.9551C76.4661 45.4843 75.5555 45.9894 74.659 46.4562C71.6346 48.0276 68.81 49.1001 67.7157 48.7983C67.5299 48.748 67.3886 48.6574 67.3119 48.5246C64.7437 44.9692 62.4682 42.1543 58.8441 37.3071C60.6047 36.2869 52.4762 40.9953 76.0178 27.3611C76.0562 27.4195 76.1006 27.4698 76.139 27.5261C76.991 28.663 77.7663 29.6831 78.4891 30.6349C79.1231 31.4639 79.7126 32.2365 80.2759 32.9709C81.768 34.9187 83.0824 36.635 84.4856 38.5767C85.0045 39.4701 82.5897 41.5909 79.4118 43.6714Z" fill="#4F575F"/>
<path d="M48.2181 38.7156C48.3372 38.6693 48.42 38.5204 48.6441 38.6492L48.4866 38.7417C48.3816 38.6813 48.2867 38.6753 48.2181 38.7156Z" fill="#2A3134"/>
<path d="M48.4866 38.7417L48.6441 38.6492L49.7303 39.2749L49.5708 39.3655L48.4866 38.7417Z" fill="#2A3134"/>
<path d="M49.9988 40.1643L49.8413 40.2568C50.0897 40.114 49.8898 39.5506 49.5708 39.3675L49.7283 39.2749C49.9383 39.3957 50.1079 39.6874 50.1079 39.9269C50.1079 40.0436 50.0655 40.1261 49.9988 40.1663V40.1643Z" fill="#2A3134"/>
<path d="M49.5708 39.3655C49.7808 39.4862 49.9504 39.778 49.9504 40.0174C49.9504 40.2548 49.7788 40.3494 49.5688 40.2287L48.4825 39.6049C48.2746 39.4862 48.105 39.1965 48.107 38.957C48.107 38.7196 48.2786 38.623 48.4866 38.7417L49.5728 39.3655H49.5708Z" fill="#4F575F"/>
<path d="M64.6205 52.4704C64.7397 52.4241 64.8224 52.2752 65.0466 52.404L64.8891 52.4966C64.7841 52.4362 64.6892 52.4302 64.6205 52.4704Z" fill="#FFA20D"/>
<path d="M64.889 52.4966L65.0465 52.406L66.1327 53.0298L65.9732 53.1224L64.889 52.4966Z" fill="#FFA20D"/>
<path d="M66.4033 53.9191L66.2458 54.0117C66.4942 53.8688 66.2943 53.3054 65.9753 53.1223L66.1328 53.0298C66.3427 53.1505 66.5123 53.4423 66.5123 53.6817C66.5123 53.7984 66.4699 53.8809 66.4033 53.9212V53.9191Z" fill="#FFA20D"/>
<path d="M65.9733 53.1224C66.1832 53.2431 66.3528 53.5348 66.3528 53.7743C66.3528 54.0117 66.1812 54.1063 65.9712 53.9856L64.885 53.3618C64.6771 53.2431 64.5075 52.9533 64.5095 52.7139C64.5095 52.4765 64.6811 52.3799 64.8891 52.4986L65.9753 53.1224H65.9733Z" fill="#FFCA6C"/>
<g opacity="0.15">
<path d="M76.139 27.5261L74.659 46.4542C71.6345 48.0256 68.8099 49.0981 67.7156 48.7963L69.0987 31.3673L76.0178 27.3571C76.0562 27.4155 76.1006 27.4658 76.139 27.5221V27.5261Z" fill="white"/>
<path d="M80.2779 32.9709L79.4138 43.6714C78.7536 44.106 78.0631 44.5326 77.3585 44.9551L78.4931 30.6349C79.1271 31.4639 79.7167 32.2365 80.28 32.9709H80.2779Z" fill="white"/>
</g>
<path d="M75.0427 61.4344C74.8892 61.5229 74.762 61.7422 74.762 61.9173V62.5209C74.764 62.702 74.8912 62.7644 75.0467 62.6759L77.0415 61.529C77.1949 61.4404 77.3221 61.2312 77.3221 61.0501V60.4464C77.3201 60.2694 77.1929 60.1969 77.0374 60.2855L75.0427 61.4324V61.4344Z" fill="#FFCA6C"/>
<path d="M86.3027 54.903C86.1492 54.9916 86.022 55.2109 86.022 55.386V55.9896C86.0241 56.1707 86.1513 56.2331 86.3067 56.1445L88.3015 54.9976C88.4549 54.9091 88.5821 54.6998 88.5821 54.5187V53.9151C88.5801 53.738 88.4529 53.6656 88.2975 53.7541L86.3027 54.901V54.903Z" fill="#FFCA6C"/>
<path d="M25.381 13.7814C25.486 13.721 25.5728 13.7693 25.5728 13.89L25.5789 16.0591C25.5789 16.1798 25.4941 16.3267 25.3891 16.3871L20.0528 19.4576C19.9479 19.5179 19.861 19.4696 19.861 19.3489L19.855 17.1798C19.855 17.0591 19.9398 16.9122 20.0448 16.8519L25.381 13.7814Z" fill="#39C988"/>
<path d="M25.379 13.0248C25.8494 12.7532 26.231 12.9725 26.231 13.5097L26.2371 15.6788C26.2371 16.218 25.8615 16.87 25.3891 17.1416L20.0528 20.2121C19.5824 20.4837 19.2008 20.2664 19.2008 19.7272L19.1948 17.5581C19.1948 17.0229 19.5703 16.3669 20.0427 16.0953L25.379 13.0248ZM25.5789 16.0591L25.5728 13.89C25.5728 13.7693 25.486 13.721 25.381 13.7813L20.0448 16.8518C19.9398 16.9122 19.853 17.0591 19.855 17.1798L19.861 19.3489C19.861 19.4696 19.9479 19.5179 20.0528 19.4575L25.3891 16.387C25.4941 16.3267 25.5809 16.1798 25.5789 16.0591Z" fill="#4F575F"/>
<path d="M28.3571 18.6507V33.5987L17.0768 40.0858V25.1377L28.3571 18.6507Z" fill="#CBDBF4"/>
<path d="M28.3571 33.5887L17.0768 40.0858V28.0513L25.5527 23.1759L28.3571 33.5887Z" fill="white"/>
<path d="M17.0768 29.2083L24.9227 24.6951L26.861 31.8985L17.0768 37.5324V29.2083Z" fill="#4F575F"/>
<path d="M28.3571 18.6507V33.5887L25.5931 23.3369L25.5527 23.1759L28.3571 18.6507Z" fill="#BBCFEF"/>
<path d="M19.3401 36.8201C19.5905 36.6692 19.8489 36.8061 19.9236 37.128C19.9983 37.4499 19.857 37.8302 19.6066 37.9811C19.3603 38.13 19.0999 37.9932 19.0272 37.6713C18.9525 37.3493 19.0938 36.969 19.3401 36.8201Z" fill="#39C988"/>
<path d="M26.2088 32.9146L26.6752 33.9327L23.6002 35.7014L23.1359 34.6833L26.2088 32.9146Z" fill="#9FB0CB"/>
<path d="M20.5879 36.0636C20.8382 35.9127 21.0967 36.0495 21.1714 36.3714C21.2461 36.6934 21.1047 37.0737 20.8564 37.2246C20.6101 37.3735 20.3496 37.2366 20.2769 36.9147C20.2022 36.5928 20.3436 36.2125 20.5899 36.0636H20.5879Z" fill="#F04343"/>
<g opacity="0.4">
<path d="M4.96881 18.2965C4.96881 20.4555 6.48509 23.0451 8.34662 24.1659C10.2081 25.2021 11.7688 24.3812 11.7688 22.2242C11.8112 20.0229 10.2526 17.3911 8.39104 16.3548C6.48509 15.2321 4.96881 16.0953 4.96881 18.2965Z" fill="#28AF6E"/>
</g>
<g opacity="0.4">
<path d="M5.90765 18.8318C5.90765 20.3932 7.006 22.2685 8.35268 23.0814C9.70138 23.8319 10.83 23.2383 10.83 21.6749C10.8623 20.0813 9.73368 18.1758 8.38498 17.4253C7.006 16.6124 5.90765 17.2382 5.90765 18.8318Z" fill="#49E4A3"/>
</g>
<path d="M9.03708 18.6708L8.44753 19.7815L9.241 20.3086L7.52282 22.027L8.09017 20.1879L7.4986 19.7935L8.09622 18.045L9.03708 18.6708Z" fill="white"/>
<path d="M41.1899 37.458L40.7134 37.1843C40.4166 37.0133 40.1864 36.6149 40.1884 36.2748V35.7295C40.1884 35.3291 40.5195 35.14 40.8688 35.3432L41.3453 35.6169C41.6421 35.7859 41.8723 36.1863 41.8723 36.5243V37.0696C41.8723 37.472 41.5371 37.6572 41.1899 37.458ZM40.4913 35.7316V36.2768C40.4893 36.5102 40.6609 36.806 40.8648 36.9247C41.2 37.0757 41.5634 37.462 41.5694 37.0696V36.5243C41.5694 36.2909 41.3998 35.9951 41.1959 35.8784L40.7194 35.6048C40.572 35.5203 40.4933 35.5625 40.4933 35.7316H40.4913Z" fill="#BBCFEF"/>
<path d="M19.5138 69.0785C16.247 67.839 8.81905 63.7926 9.81846 61.1447C9.52166 60.4887 5.18886 60.0581 4.85774 58.6738C4.51249 57.2351 6.38816 56.6214 7.41381 56.0319C8.24565 55.553 8.25978 54.8729 8.25978 54.8447L7.65004 29.3572C7.65004 29.2968 7.68234 29.2425 7.73887 29.2163L9.04719 28.6248C9.22891 28.5423 9.35408 28.8159 9.17237 28.8984L7.95491 29.4477L8.56263 54.8387C8.56263 54.8769 8.55657 55.72 7.56524 56.2894C6.62842 56.8327 4.86178 57.3921 5.15252 58.6013C5.42509 59.7442 9.70741 60.2151 10.087 60.9817C10.1294 61.0682 10.1354 61.1608 10.1011 61.2493C9.26121 63.4747 15.9502 67.4024 19.6208 68.7968C23.0571 70.1006 33.5903 72.9095 36.8086 68.843C39.8492 64.9979 36.9156 60.6396 32.5909 59.4786C31.8741 59.2855 31.4502 58.9615 31.329 58.5148C31.0504 57.5027 32.393 56.1325 33.4732 55.0298C33.9557 54.5348 34.62 53.8588 34.5816 53.6877C34.5816 53.6877 34.509 53.6394 34.2081 53.6737C33.2188 53.7823 32.5828 53.6394 32.2618 53.233C31.2705 51.9794 33.7337 48.6313 33.4995 46.2731C33.2067 43.2307 32.3405 38.4278 35.2358 37.5586C37.9494 36.7437 40.9476 36.2547 40.9779 36.2507C41.1919 36.2306 41.2101 36.5163 41.0263 36.5485C40.996 36.5525 38.016 37.0374 35.3246 37.8463C32.6818 38.6411 33.5116 43.3354 33.8003 46.2449C34.0325 48.6293 31.6743 52.0056 32.498 53.0479C32.7504 53.3658 33.3016 53.4724 34.1738 53.3759C34.4322 53.3477 34.7452 53.3417 34.8522 53.559C35.0056 53.8729 34.5816 54.3256 33.6872 55.2391C32.7161 56.2311 31.3855 57.5892 31.6198 58.4343C31.7126 58.7704 32.066 59.0239 32.6696 59.1869C37.271 60.4223 40.2046 65.0361 37.0448 69.0281C33.9537 72.9357 24.1555 70.8391 19.5117 69.0744L19.5138 69.0785Z" fill="#2A3134"/>
<path d="M28.5145 43.4662C28.7265 43.3434 28.8982 43.444 28.9002 43.6875C28.9002 43.941 28.7225 44.2328 28.5186 44.3495L16.9072 51.0317C16.6932 51.1545 16.5196 51.0579 16.5196 50.8124C16.5196 50.581 16.6831 50.2752 16.9052 50.1484L28.5166 43.4662H28.5145Z" fill="#CBDBF4"/>
<path d="M28.5206 45.5286C28.7326 45.4059 28.9042 45.5065 28.9062 45.7499C28.9062 46.0035 28.7285 46.2952 28.5246 46.4119L16.9133 53.0942C16.6993 53.2169 16.5256 53.1203 16.5256 52.8748C16.5256 52.6435 16.6892 52.3376 16.9113 52.2108L28.5226 45.5286H28.5206Z" fill="#CBDBF4"/>
<path d="M28.5307 49.6554C28.874 49.4583 29.0436 49.8426 28.8033 50.2551C28.5893 50.6253 29.1203 50.1504 16.9214 57.221C16.7074 57.3438 16.5338 57.2472 16.5338 57.0017C16.5338 56.7703 16.6973 56.4645 16.9194 56.3377L28.5307 49.6554Z" fill="#CBDBF4"/>
<path d="M28.5246 47.593C28.7366 47.4703 28.9082 47.5709 28.9103 47.8143C28.9103 48.0679 28.7326 48.3596 28.5287 48.4763L16.9173 55.1586C16.568 55.3598 16.4045 54.9735 16.6407 54.563C16.8527 54.1888 16.3581 54.6455 28.5266 47.593H28.5246Z" fill="#CBDBF4"/>
<path d="M51.5615 31.3773L68.7332 21.4314C71.7718 23.3128 74.5399 25.3812 76.0178 27.3611C76.7911 28.6871 59.6194 38.631 58.8461 37.3071C57.3682 35.3271 54.6001 33.2587 51.5615 31.3773Z" fill="#49E4A3"/>
</g>
<defs>
<clipPath id="clip0_4078_343">
<rect width="96" height="83" fill="white" transform="translate(0 0.372559)"/>
</clipPath>
</defs>
</svg>
