<svg width="74" height="84" viewBox="0 0 74 84" fill="none" xmlns="http://www.w3.org/2000/svg">
<g clip-path="url(#clip0_4078_166)">
<g opacity="0.8">
<g opacity="0.7">
<path d="M73.995 51.0504V61.7738L35.4556 84L35.5483 73.2254L73.995 51.0504Z" fill="#457AEF"/>
<path d="M35.5483 73.2254L35.4556 84L-0.00500488 63.6898V52.8621L35.5483 73.2254Z" fill="#3A63DF"/>
<path d="M73.995 51.0505L35.5483 73.2254L-0.00500488 52.8621L38.4417 30.6872L73.995 51.0505Z" fill="#4F91FF"/>
</g>
</g>
<g opacity="0.4">
<path d="M53.7481 52.187L53.757 61.6236C53.757 62.2263 54.1578 62.8272 54.9543 63.2868C56.5595 64.2112 59.1715 64.2112 60.7857 63.2868C61.5981 62.8219 62.0043 62.2104 62.0025 61.6006L61.9936 52.187H53.7463H53.7481Z" fill="#CBDBF4"/>
</g>
<g opacity="0.4">
<path d="M32.0954 64.6301L32.0865 74.0455C32.0865 74.6553 32.4909 75.2669 33.3034 75.7317C34.9176 76.6561 37.5295 76.6561 39.1348 75.7317C39.933 75.2722 40.3321 74.6712 40.3321 74.0685L40.341 64.6301H32.0936H32.0954Z" fill="#CBDBF4"/>
</g>
<g opacity="0.4">
<path d="M10.4517 52.293L10.4427 61.6024C10.4427 62.2122 10.8472 62.8237 11.6596 63.2886C13.2738 64.213 15.8858 64.213 17.491 63.2886C18.2892 62.829 18.6883 62.2281 18.6901 61.6254L18.699 52.293H10.4517Z" fill="#CBDBF4"/>
</g>
<path d="M40.3463 52.088L40.3339 65.1674C40.3339 65.7701 39.933 66.3711 39.1348 66.8306C37.5295 67.755 34.9194 67.755 33.3034 66.8306C32.4909 66.3658 32.0847 65.7542 32.0865 65.1444L32.099 52.065C32.099 52.6748 32.5034 53.2863 33.3158 53.7512C34.93 54.6756 37.542 54.6756 39.1473 53.7512C39.9455 53.2916 40.3445 52.6907 40.3463 52.088Z" fill="#DBE6FA"/>
<path d="M18.7008 39.6431L18.6883 52.7225C18.6883 53.3252 18.2874 53.9262 17.4892 54.3857C15.8839 55.3101 13.2738 55.3101 11.6578 54.3857C10.8454 53.9209 10.4391 53.3093 10.4409 52.6995L10.4534 39.6201C10.4445 42.6867 18.6919 42.7963 18.7008 39.6431Z" fill="#DBE6FA"/>
<path d="M53.7445 39.6431L53.757 52.7225C53.757 53.3252 54.1579 53.9262 54.956 54.3857C56.5613 55.3101 59.1715 55.3101 60.7875 54.3857C61.5999 53.9209 62.0061 53.3093 62.0043 52.6995L61.9919 39.6201C62.0008 42.7945 53.7534 42.6955 53.7445 39.6431Z" fill="#DBE6FA"/>
<path d="M64.8871 36.276L64.8782 39.7951C64.8782 40.0019 64.7392 40.2087 64.4702 40.3642L37.052 56.1726C36.505 56.4837 35.5999 56.4837 35.0441 56.1638L7.45842 40.3642C7.18047 40.2087 7.0415 39.993 7.0415 39.7862L7.05041 36.2672C7.05041 36.4828 7.18938 36.6896 7.46732 36.854L35.0512 52.6536C35.616 52.9717 36.5122 52.9717 37.0591 52.6536L64.4773 36.8451C64.7463 36.6896 64.8853 36.4828 64.8853 36.276H64.8871Z" fill="#FFCA6C"/>
<path d="M64.4773 36.8451L37.0591 52.6536C36.7634 52.825 36.3696 52.8975 35.9777 52.8833V56.3953C36.3661 56.4077 36.758 56.337 37.0502 56.1709L64.4684 40.3624C64.7374 40.2069 64.8764 40.0001 64.8764 39.7933L64.8853 36.2742C64.8853 36.481 64.7463 36.6878 64.4773 36.8434V36.8451Z" fill="#FFB63C"/>
<path d="M64.4648 35.6945C65.026 36.0162 65.0278 36.5305 64.4773 36.8487L37.0609 52.6553C36.5104 52.9735 35.6142 52.9735 35.053 52.6518L7.46731 36.8504C6.91321 36.5323 6.90965 36.0179 7.46019 35.6998L34.8766 19.8931C35.4289 19.575 36.3251 19.575 36.8792 19.8931L64.4648 35.6927V35.6945Z" fill="#FFDE9B"/>
<path d="M53.9351 10.3787L53.8781 34.8249C53.871 37.4496 52.1321 40.0726 48.656 42.0751C41.663 46.1068 30.2799 46.1068 23.2405 42.0751C19.6967 40.0461 17.9275 37.3825 17.9347 34.7224L17.9917 10.2762C17.9845 12.9363 19.7537 15.5999 23.2975 17.629C30.3369 21.6606 41.72 21.6606 48.7131 17.629C52.1891 15.6246 53.928 13.0035 53.9351 10.3787Z" fill="#CBDBF4"/>
<path d="M48.713 17.6307C44.5724 20.0186 38.896 20.9801 33.4904 20.54V44.9915C38.8782 45.4192 44.5297 44.4559 48.656 42.0769C52.1321 40.0726 53.871 37.4514 53.8781 34.8267L53.9351 10.3805C53.928 13.0052 52.1891 15.6282 48.713 17.6307Z" fill="#BBCFEF"/>
<path d="M53.8817 17.7332V22.4489C53.8728 25.0736 52.1356 27.6984 48.6596 29.7027C41.6647 33.7361 30.2781 33.7361 23.2405 29.7027C19.6949 27.6718 17.9311 25.0135 17.94 22.3535L17.9489 17.9259C18.0629 20.4976 19.8268 23.0357 23.2405 24.987C30.2798 29.0204 41.6665 29.0204 48.6596 24.987C52.1338 22.9827 53.8728 20.358 53.8817 17.7332Z" fill="#FF6161"/>
<path d="M48.6596 24.987C44.5742 27.3431 38.994 28.3117 33.6544 27.9158V32.6314C38.994 33.0273 44.5742 32.057 48.6596 29.7027C52.1339 27.6984 53.8728 25.0736 53.8817 22.4489V17.7332C53.8728 20.358 52.1357 22.9827 48.6596 24.987Z" fill="#F04343"/>
<path d="M48.6293 3.02596C55.6687 7.05761 55.7097 13.5956 48.713 17.6307C41.72 21.6624 30.3369 21.6624 23.2975 17.6307C16.2545 13.5956 16.2207 7.05761 23.2137 3.02596C30.2121 -1.00922 41.5846 -1.00922 48.6293 3.02596Z" fill="#EBF2FF"/>
<path d="M36.0917 8.83217L36.0721 11.8652C36.0703 12.7472 35.4859 13.6274 34.3189 14.3008C30.5685 16.4624 23.9942 14.9335 24.0031 11.8316L24.0227 8.79858C24.0209 9.69117 24.6142 10.5855 25.8043 11.2678C28.1686 12.6217 31.9903 12.6217 34.3385 11.2678C35.5055 10.5944 36.0899 9.71414 36.0917 8.83217Z" fill="#CBDBF4"/>
<path d="M34.31 6.36299C36.6743 7.71689 36.6885 9.91211 34.3385 11.2678C31.9903 12.6217 28.1686 12.6217 25.8043 11.2678C23.4382 9.91388 23.4276 7.71689 25.7758 6.36299C28.1258 5.00909 31.944 5.00909 34.31 6.36299Z" fill="white"/>
<path d="M24.8262 44.8271C24.705 44.8271 24.6052 44.7299 24.6052 44.608L24.5375 17.0545C24.534 14.9936 25.6475 13.0742 27.4452 12.0437L30.2995 10.4088C30.4028 10.3487 30.5382 10.3823 30.6006 10.4883C30.6612 10.5926 30.6255 10.7269 30.5204 10.787L27.6662 12.4219C26.0039 13.3746 24.9741 15.1492 24.9794 17.0528L25.0471 44.6062C25.0471 44.7264 24.9491 44.8254 24.828 44.8254L24.8262 44.8271Z" fill="#4F575F"/>
<path d="M21.3572 42.8405C21.2361 42.8405 21.1363 42.7432 21.1363 42.6213L21.0686 15.0679C21.065 13.007 22.1786 11.0875 23.9763 10.057L26.8305 8.42211C26.9339 8.36202 27.0693 8.3956 27.1316 8.50165C27.1922 8.60593 27.1566 8.74026 27.0515 8.80035L24.1972 10.4353C22.5349 11.388 21.5051 13.1625 21.5105 15.0661L21.5782 42.6195C21.5782 42.7397 21.4802 42.8387 21.359 42.8387L21.3572 42.8405Z" fill="#4F575F"/>
<path d="M24.648 42.236L21.2717 40.3023C21.1666 40.2422 21.131 40.1079 21.1915 40.0036C21.2539 39.8993 21.3893 39.8622 21.4927 39.9241L24.8689 41.8577C24.974 41.9178 25.0097 42.0522 24.9491 42.1564C24.8867 42.2625 24.7495 42.2961 24.648 42.236Z" fill="#4F575F"/>
<path d="M24.7585 39.1376C24.6462 39.1376 24.8297 39.1994 21.2717 37.1739C21.1666 37.1138 21.131 36.9795 21.1915 36.8752C21.2539 36.7709 21.3893 36.7338 21.4927 36.7956L24.8689 38.7293C24.974 38.7894 25.0097 38.9237 24.9491 39.028C24.9081 39.0987 24.8333 39.1376 24.7585 39.1376Z" fill="#4F575F"/>
<path d="M24.648 35.9791L21.2717 34.0454C21.1666 33.9853 21.131 33.851 21.1915 33.7467C21.2539 33.6425 21.3893 33.6053 21.4927 33.6672L24.8689 35.6008C24.974 35.6609 25.0097 35.7953 24.9491 35.8995C24.8867 36.0056 24.7495 36.0392 24.648 35.9791Z" fill="#4F575F"/>
<path d="M24.648 32.8506L21.2717 30.917C21.1666 30.8569 21.131 30.7225 21.1915 30.6183C21.2539 30.514 21.3893 30.4769 21.4927 30.5387L24.8689 32.4724C24.974 32.5324 25.0097 32.6668 24.9491 32.7711C24.8867 32.8771 24.7495 32.9107 24.648 32.8506Z" fill="#4F575F"/>
<path d="M24.648 29.7221L21.2717 27.7885C21.1666 27.7284 21.131 27.5941 21.1915 27.4898C21.2539 27.3855 21.3893 27.3484 21.4927 27.4103L24.8689 29.3439C24.974 29.404 25.0097 29.5383 24.9491 29.6426C24.8867 29.7487 24.7495 29.7822 24.648 29.7221Z" fill="#4F575F"/>
<path d="M24.7585 26.622C24.6462 26.622 24.8297 26.6838 21.2717 24.6583C21.1666 24.5982 21.131 24.4639 21.1915 24.3596C21.2539 24.2553 21.3893 24.2182 21.4927 24.28L24.8689 26.2137C25.0631 26.325 24.9829 26.622 24.7585 26.622Z" fill="#4F575F"/>
<path d="M24.648 23.4634L21.2717 21.5298C21.1666 21.4697 21.131 21.3354 21.1915 21.2311C21.2539 21.1268 21.3893 21.0897 21.4927 21.1516L24.8689 23.0852C24.974 23.1453 25.0097 23.2796 24.9491 23.3839C24.8867 23.49 24.7495 23.5235 24.648 23.4634Z" fill="#4F575F"/>
<path d="M24.7585 20.365C24.6462 20.365 24.8297 20.4269 21.2717 18.4014C21.1666 18.3413 21.131 18.2069 21.1915 18.1027C21.2539 17.9984 21.3893 17.9613 21.4927 18.0231L24.8689 19.9568C24.974 20.0169 25.0097 20.1512 24.9491 20.2555C24.9081 20.3262 24.8333 20.365 24.7585 20.365Z" fill="#4F575F"/>
<path d="M24.648 17.2066L21.2717 15.2729C21.1666 15.2128 21.131 15.0785 21.1915 14.9742C21.2539 14.8699 21.3893 14.8328 21.4927 14.8947L24.8689 16.8283C24.974 16.8884 25.0097 17.0227 24.9491 17.127C24.8867 17.2331 24.7495 17.2666 24.648 17.2066Z" fill="#4F575F"/>
<path d="M25.3553 14.4828L21.8436 12.4714C21.7385 12.4113 21.7029 12.277 21.7634 12.1727C21.824 12.0684 21.9612 12.0313 22.0646 12.0932L25.5762 14.1046C25.6813 14.1647 25.717 14.299 25.6564 14.4033C25.594 14.5094 25.4569 14.5429 25.3553 14.4828Z" fill="#4F575F"/>
<path d="M46.7283 33.3579C46.8673 33.4462 46.7817 33.3967 46.8245 39.157C46.8245 39.6077 46.4058 39.8375 46.2775 39.7473C46.135 39.6572 46.2187 39.4946 46.1884 37.0042L42.928 38.8724C42.9102 41.4441 42.9939 41.453 42.8567 41.7075C42.7373 41.939 42.3026 42.2042 42.3008 41.7481L42.2848 36.1841C42.2848 35.7281 42.707 35.5071 42.8353 35.5884C42.985 35.6839 42.8923 35.9349 42.9244 38.2485L46.1849 36.3803C46.2027 33.9129 46.1172 33.8687 46.2597 33.6265C46.3434 33.4781 46.5911 33.2801 46.7283 33.3579Z" fill="#3D4449"/>
<path d="M49.7233 31.5303C50.7406 30.9488 51.4105 31.0725 51.4141 32.232C51.4177 33.6336 50.3522 35.1607 48.9821 37.6228C51.3731 36.2778 51.4961 36.1222 51.6332 36.1788C51.7526 36.2283 51.7063 36.5199 51.6332 36.6383C51.5085 36.8522 51.4996 36.7709 48.4904 38.5207C48.2107 38.6816 47.9915 38.5083 48.3176 37.8968C49.93 34.9415 50.7763 33.7927 50.7745 32.6509C50.7727 31.8891 50.3308 31.8219 49.6698 32.2019C48.7826 32.7092 48.453 33.4798 48.2605 33.5912C48.2534 33.5947 48.2481 33.5983 48.2409 33.6C48.0378 33.7025 47.8739 33.4356 48.1376 33.0645C48.5189 32.4794 49.1086 31.882 49.7233 31.5303Z" fill="#3D4449"/>
</g>
<defs>
<clipPath id="clip0_4078_166">
<rect width="74" height="84" fill="white" transform="translate(-0.00500488)"/>
</clipPath>
</defs>
</svg>
