<svg width="295" height="269" viewBox="0 0 295 269" fill="none" xmlns="http://www.w3.org/2000/svg">
<path d="M7.3593 156.309C7.7244 155.432 8.12934 154.568 8.68031 153.777C9.96811 151.173 11.5812 149.05 14.9932 149.61C16.6925 150.138 17.6484 151.509 18.6375 152.834C18.85 153.071 19.0889 153.282 19.3611 153.46C20.6887 154.285 22.1093 154.542 23.6361 154.113C24.7247 153.704 25.4615 152.887 26.1718 152.023C26.3378 151.766 26.4905 151.509 26.6099 151.226C27.0149 149.558 28.5483 149.848 29.6967 149.465C31.0509 148.898 32.5046 149.248 33.892 149.004C35.5847 148.608 36.8924 147.514 38.3064 146.617C39.1029 145.892 39.7137 145.035 40.1053 144.026C41.194 141.818 40.8156 139.484 40.7293 137.17C40.0721 135.205 39.873 133.24 40.6695 131.269C41.6254 127.103 40.5368 125.224 35.5714 122.435C34.1575 121.624 32.4781 121.664 30.9978 121.044C28.8935 120.325 28.7872 118.967 29.6768 117.207C30.553 115.473 32.0997 114.121 32.5378 112.157C33.2083 109.381 32.737 106.553 32.8697 103.751C32.9427 100.692 31.0044 98.022 31.1637 94.9497C31.1438 94.6201 31.0841 94.3037 30.9712 93.9872C29.0063 91.2314 29.5706 88.5745 31.1305 85.8451C32.0466 84.2431 33.8389 83.3003 34.3368 81.428C34.3832 80.0831 33.507 79.5886 32.3785 79.371C31.3894 79.1799 30.5264 78.8634 30.3472 77.7097C30.1282 76.7076 30.3007 75.6527 29.9688 74.6638C29.5374 71.8685 28.1699 70.2533 25.0566 70.8202C20.3435 72.0003 19.7594 71.7169 17.7679 67.3393C17.5422 66.8514 17.2435 66.4097 16.8054 66.0669C14.887 64.8736 12.8889 65.8889 10.9306 65.8823C10.4394 65.9086 9.97475 66.0207 9.52999 66.2383C5.55374 67.4975 5.03595 67.2536 3.62867 63.4693C3.33659 62.0782 2.67277 60.852 1.88283 59.6851C1.65713 59.4477 1.42481 59.2763 1.18583 59.1576C0.62159 58.0171 1.47792 57.4172 2.72589 56.9623C4.60448 57.1007 6.24409 56.3755 7.83725 55.525C8.93255 54.0483 8.01648 52.3407 8.39485 50.7848C10.1938 48.6158 13.2606 48.7806 15.3118 47.0731C16.6527 46.671 16.3009 45.5436 16.2744 44.6404C16.2412 43.3087 16.9116 42.9329 18.0866 43.0449C19.7793 43.4537 21.0339 46.1435 23.2179 44.0273C23.6892 44.0075 24.1671 43.9943 24.6384 43.9745C25.3022 42.5241 26.7626 41.944 27.9243 41.0342C29.8626 39.7881 32.3785 40.9748 34.2704 39.5376C36.1556 38.8651 37.928 37.9619 39.634 36.9269C42.7207 35.6281 42.3623 32.7207 42.8137 30.1957C44.5064 28.7519 45.7544 26.7872 47.8918 25.8444C48.4959 25.5807 49.1531 25.172 49.7505 25.2907C54.4769 26.2202 57.7628 23.8139 60.4512 20.5175C62.3763 18.1573 64.9121 17.3398 67.6204 16.6212C68.2776 16.3113 68.6892 15.362 69.5721 15.6784C70.4018 15.9751 70.0367 16.786 70.0367 17.3859C70.0301 21.4273 70.8598 22.5019 74.9091 23.2073C76.104 23.4183 77.2723 23.5633 78.3145 24.2292C78.746 24.0183 79.1775 23.8007 79.6089 23.5897C82.6492 25.6203 85.6364 25.1852 88.5903 23.3788C89.8848 22.3832 89.9313 20.6823 90.8141 19.4561C93.3034 15.8498 97.3527 14.5181 101.004 12.626C102.066 12.0722 103.287 11.8151 104.27 11.0767L104.23 11.103C105.896 9.96908 106.706 8.19563 107.702 6.55403C108.883 4.60257 110.304 2.88846 112.527 2.02481C113.039 1.87977 113.563 1.85999 114.094 1.85339C116.696 1.84021 119.298 1.85339 121.901 1.85339C123.162 1.86658 124.423 1.82043 125.678 1.89954C128.439 4.69487 133.378 4.50368 135.137 8.6769C137.553 12.0656 141.078 12.4282 144.829 12.1908C147.013 13.3578 149.363 13.872 151.825 13.9445C154.036 14.5576 154.242 16.9047 155.609 18.2496C156.89 19.4627 157.627 20.9526 157.946 22.6667C157.879 24.0512 158.331 25.5016 157.435 26.7872L157.375 27.6575C157.574 29.1079 156.897 30.4198 156.678 31.7977C156.505 33.3074 156.127 34.8238 156.85 36.294C157.554 37.3422 158.782 37.6784 159.731 38.3971C163.502 40.4342 167.578 41.9967 170.525 45.2997C171.016 45.3194 171.501 45.3458 171.992 45.3656C173.758 46.7962 173.419 48.8795 173.691 50.7783C174.076 52.8418 174.674 54.7405 177.13 55.2284C180.522 55.2877 182.593 56.9359 183.589 60.1795C184.093 61.8277 185.069 63.3243 186.131 64.7153C186.603 66.2383 189.245 65.4076 189.145 67.0558C189.065 68.4666 186.948 68.0777 186.038 69.1391C184.83 70.5565 183.383 71.7696 182.865 73.6485C182.367 75.0132 182.414 76.3779 182.832 77.7492C184.007 80.1292 184.81 82.6345 185.434 85.2056C186.125 86.3792 187.519 87.078 187.724 88.5811C189.61 90.7765 191.004 93.2752 192.298 95.8398C193.254 97.244 194.309 98.556 194.807 100.257C195.431 102.38 198.053 102.169 199.268 103.665C201.054 104.41 201.95 106.171 203.444 107.245C204.778 108.03 206.258 107.417 207.646 107.694C210.951 109.942 210.792 111.3 208.137 114.069C206.019 116.277 203.251 118.328 203.065 121.881C202.813 122.119 202.554 122.356 202.302 122.593C197.881 125.217 198.784 129.028 199.985 132.898C199.54 135.996 202.401 136.464 204.028 137.915C205.488 140.268 208.097 141.626 209.431 144.086C210.619 145.622 211.781 147.197 212.027 149.175C212.226 150.771 213.454 151.483 214.456 152.419C215.99 152.696 216.574 155.089 218.605 154.252C219.807 153.751 219.581 152.557 219.9 151.621C219.886 150.342 220.411 149.175 220.676 147.956C220.709 146.953 220.603 145.945 220.769 144.949C221.692 143.189 223.418 142.925 225.124 142.629C226.465 142.543 227.812 142.589 229.153 142.596C230.866 143.064 232.047 144.567 233.787 144.982C234.955 145.312 236.01 146.116 237.325 145.852C238.559 145.213 238.991 144.066 239.276 142.82C239.402 142.193 239.768 141.574 239.734 140.974C239.575 138.014 241.162 137.025 243.857 137.17C246.406 137.796 247.368 140.769 250.017 141.257C251.524 141.165 253.057 141.554 254.524 140.928L254.816 140.961C255.467 140.104 256.071 139.214 256.635 138.297C259.184 135.634 262.875 135.403 266.36 137.631C267.07 138.086 267.422 139.088 268.484 138.996C268.836 139.471 269.195 139.945 269.546 140.413C271.153 142.418 273.987 142.714 275.6 144.705C278.368 146.433 280.493 148.832 282.544 151.298C282.862 151.364 283.174 151.43 283.493 151.496C284.947 152.821 286.772 153.876 286.971 156.124C286.985 157.245 287.635 158.161 287.954 159.183C289.501 161.926 292.919 163.383 293.318 166.91C293.364 167.912 293.351 168.914 293.337 169.916C293.331 170.621 293.132 171.261 292.733 171.848C292.694 172.065 292.667 172.283 292.66 172.5C292.68 174.491 292.109 176.298 290.948 177.926C288.976 180.735 285.923 179.759 283.241 180.089C281.814 180.438 281.707 181.743 281.263 182.798C280.353 185.093 281.495 187.004 282.418 188.962C282.862 189.965 283.075 190.973 282.57 192.022C281.601 194.883 280.028 197.302 277.386 198.924L277.413 198.904C276.722 200.553 277.24 202.273 277.107 203.948C277.824 206.209 278.68 208.424 279.298 210.712C279.902 212.677 278.561 213.896 277.552 215.248C277.512 215.485 277.466 215.716 277.426 215.953C276.782 216.593 276.749 217.404 276.762 218.234C276.138 221.583 275.634 224.755 278.388 227.715C279.623 229.046 278.202 231.301 278.355 233.154C277.804 235.745 278.216 238.375 278.09 240.979C278.076 243.867 278.979 246.563 279.822 249.273C280.506 251.112 281.289 252.906 282.736 254.31C284.31 256.683 281.422 258.041 281.422 260.059C280.944 261.166 280.134 261.859 278.933 262.089C275.939 262.854 273.177 263.968 271.551 266.83C271.066 267.126 270.602 267.317 270.137 267.429C267.555 268.062 265.231 266.19 262.769 265.841C259.974 265.445 257.438 263.711 254.451 264.054C251.331 263.757 251.112 260.758 249.612 258.945C248.298 256.894 245.888 255.721 245.018 253.301C244.852 252.167 244.759 251.02 244.507 249.893C244.029 248.535 243.631 247.137 242.834 245.911C242.084 244.111 241.148 242.41 240.212 240.702C239.436 238.817 238.958 236.654 236.263 236.589C235.3 236.186 234.278 235.942 233.315 235.534C232.174 235.171 231.032 234.934 229.857 235.402C225.177 234.558 220.663 234.789 216.527 237.452C213.925 237.729 211.967 236.483 210.181 234.828C209.219 234.037 208.183 233.325 207.201 232.56C205.375 231.024 203.417 230.279 200.921 230.906C199.388 231.288 197.708 231.196 196.108 230.859C193.958 230.589 192.756 228.697 190.931 227.873C189.517 226.429 187.532 225.486 186.908 223.35C187.3 221.728 188.826 221.379 189.995 220.627C191.03 219.962 190.99 218.992 190.698 217.997C190.34 216.771 190.393 215.617 191.103 214.523C191.92 213.534 192.723 212.532 192.842 211.187C192.982 209.829 193.486 208.339 191.548 207.758C190.957 207.271 190.473 206.677 189.942 206.13C188.003 204.119 185.321 204.271 182.892 203.908C180.024 203.486 178.272 202.102 177.628 199.326C177.163 197.335 176.586 195.47 174.037 195.351C172.098 195.694 170.213 195.694 168.514 194.5C167.558 194.019 166.662 193.386 165.54 193.314C163.947 193.202 162.911 192.285 162.134 191C161.743 190.373 161.53 189.628 160.966 189.108C158.882 187.598 157.023 188.633 155.257 189.701C154.062 190.426 153.04 191.422 151.805 192.12C150.916 192.641 149.933 192.641 148.951 192.661C145.194 192.74 144.45 192.068 143.295 187.578C142.187 185.231 139.737 185.554 137.799 184.868C135.17 184.163 133.146 184.479 132.827 187.73C132.342 188.857 131.612 189.826 130.809 190.743C130.291 191.27 129.793 191.804 129.468 192.483C128.101 194.085 128.32 196.498 126.673 197.962C125.578 198.918 124.602 199.959 124.184 201.403C123.168 203.19 121.602 204.416 119.969 205.589C119.212 206.282 118.455 206.77 117.692 206.994C116.384 207.383 115.07 207.013 113.749 205.636C112.089 204.62 110.901 202.959 109.042 202.207C106.606 201.179 105.06 199.3 104.017 196.959C102.71 194.547 99.7424 195.259 97.9302 193.795C96.8416 193.063 95.6998 192.443 94.4253 192.094C93.5291 191.975 92.6264 192.028 91.7236 192.035C90.9203 192.068 90.1503 192.41 89.3272 192.246C86.3068 192.054 85.6032 189.681 84.634 187.459C83.9768 185.956 83.4259 184.433 82.9479 182.877C82.7886 177.656 79.8678 174.28 75.4733 171.887C71.0258 171.472 66.5583 171.195 62.1838 170.246C57.5305 168.815 52.7112 168.644 47.9118 168.294C40.6496 169.125 34.2106 165.835 27.4264 164.246C23.3772 162.822 19.2283 161.721 15.1127 160.488C13.6722 160.04 12.2184 159.618 10.9107 158.847C10.6386 158.682 10.373 158.504 10.0876 158.365C8.30857 157.482 7.47879 157.073 7.33939 156.368" fill="#151329"/>
<path d="M7.3593 156.309C7.7244 155.432 8.12934 154.568 8.68031 153.777C9.96811 151.173 11.5812 149.05 14.9932 149.61C16.6925 150.138 17.6484 151.509 18.6375 152.834C18.85 153.071 19.0889 153.282 19.3611 153.46C20.6887 154.285 22.1093 154.542 23.6361 154.113C24.7247 153.704 25.4615 152.887 26.1718 152.023C26.3378 151.766 26.4905 151.509 26.6099 151.226C27.0149 149.558 28.5483 149.848 29.6967 149.465C31.0509 148.898 32.5046 149.248 33.892 149.004C35.5847 148.608 36.8924 147.514 38.3064 146.617C39.1029 145.892 39.7137 145.035 40.1053 144.026C41.194 141.818 40.8156 139.484 40.7293 137.17C40.0721 135.205 39.873 133.24 40.6695 131.269C41.6254 127.103 40.5368 125.224 35.5714 122.435C34.1575 121.624 32.4781 121.664 30.9978 121.044C28.8935 120.325 28.7872 118.967 29.6768 117.207C30.553 115.473 32.0997 114.121 32.5378 112.157C33.2083 109.381 32.737 106.553 32.8697 103.751C32.9427 100.692 31.0044 98.022 31.1637 94.9497C31.1438 94.6201 31.0841 94.3037 30.9712 93.9872C29.0063 91.2314 29.5706 88.5745 31.1305 85.8451C32.0466 84.2431 33.8389 83.3003 34.3368 81.428C34.3832 80.0831 33.507 79.5886 32.3785 79.371C31.3894 79.1799 30.5264 78.8634 30.3472 77.7097C30.1282 76.7076 30.3007 75.6527 29.9688 74.6638C29.5374 71.8685 28.1699 70.2533 25.0566 70.8202C20.3435 72.0003 19.7594 71.7169 17.7679 67.3393C17.5422 66.8514 17.2435 66.4097 16.8054 66.0669C14.887 64.8736 12.8889 65.8889 10.9306 65.8823C10.4394 65.9086 9.97475 66.0207 9.52999 66.2383C5.55374 67.4975 5.03595 67.2536 3.62867 63.4693C3.33659 62.0782 2.67277 60.852 1.88283 59.6851C1.65713 59.4477 1.42481 59.2763 1.18583 59.1576C0.62159 58.0171 1.47792 57.4172 2.72589 56.9623C4.60448 57.1007 6.24409 56.3755 7.83725 55.525C8.93255 54.0483 8.01648 52.3407 8.39485 50.7848C10.1938 48.6158 13.2606 48.7806 15.3118 47.0731C16.6527 46.671 16.3009 45.5436 16.2744 44.6404C16.2412 43.3087 16.9116 42.9329 18.0866 43.0449C19.7793 43.4537 21.0339 46.1435 23.2179 44.0273C23.6892 44.0075 24.1671 43.9943 24.6384 43.9745C25.3022 42.5241 26.7626 41.944 27.9243 41.0342C29.8626 39.7881 32.3785 40.9748 34.2704 39.5376C36.1556 38.8651 37.928 37.9619 39.634 36.9269C42.7207 35.6281 42.3623 32.7207 42.8137 30.1957C44.5064 28.7519 45.7544 26.7872 47.8918 25.8444C48.4959 25.5807 49.1531 25.172 49.7505 25.2907C54.4769 26.2202 57.7628 23.8139 60.4512 20.5175C62.3763 18.1573 64.9121 17.3398 67.6204 16.6212C68.2776 16.3113 68.6892 15.362 69.5721 15.6784C70.4018 15.9751 70.0367 16.786 70.0367 17.3859C70.0301 21.4273 70.8598 22.5019 74.9091 23.2073C76.104 23.4183 77.2723 23.5633 78.3145 24.2292C78.746 24.0183 79.1775 23.8007 79.6089 23.5897C82.6492 25.6203 85.6364 25.1852 88.5903 23.3788C89.8848 22.3832 89.9313 20.6823 90.8141 19.4561C93.3034 15.8498 97.3527 14.5181 101.004 12.626C102.066 12.0722 103.287 11.8151 104.27 11.0767L104.23 11.103C105.896 9.96908 106.706 8.19563 107.702 6.55403C108.883 4.60257 110.304 2.88846 112.527 2.02481C113.039 1.87977 113.563 1.85999 114.094 1.85339C116.696 1.84021 119.298 1.85339 121.901 1.85339C123.162 1.86658 124.423 1.82043 125.678 1.89954C128.439 4.69487 133.378 4.50368 135.137 8.6769C137.553 12.0656 141.078 12.4282 144.829 12.1908C147.013 13.3578 149.363 13.872 151.825 13.9445C154.036 14.5576 154.242 16.9047 155.609 18.2496C156.89 19.4627 157.627 20.9526 157.946 22.6667C157.879 24.0512 158.331 25.5016 157.435 26.7872L157.375 27.6575C157.574 29.1079 156.897 30.4198 156.678 31.7977C156.505 33.3074 156.127 34.8238 156.85 36.294C157.554 37.3422 158.782 37.6784 159.731 38.3971C163.502 40.4342 167.578 41.9967 170.525 45.2997C171.016 45.3194 171.501 45.3458 171.992 45.3656C173.758 46.7962 173.419 48.8795 173.691 50.7783C174.076 52.8418 174.674 54.7405 177.13 55.2284C180.522 55.2877 182.593 56.9359 183.589 60.1795C184.093 61.8277 185.069 63.3243 186.131 64.7153C186.603 66.2383 189.245 65.4076 189.145 67.0558C189.065 68.4666 186.948 68.0777 186.038 69.1391C184.83 70.5565 183.383 71.7696 182.865 73.6485C182.367 75.0132 182.414 76.3779 182.832 77.7492C184.007 80.1292 184.81 82.6345 185.434 85.2056C186.125 86.3792 187.519 87.078 187.724 88.5811C189.61 90.7765 191.004 93.2752 192.298 95.8398C193.254 97.244 194.309 98.556 194.807 100.257C195.431 102.38 198.053 102.169 199.268 103.665C201.054 104.41 201.95 106.171 203.444 107.245C204.778 108.03 206.258 107.417 207.646 107.694C210.951 109.942 210.792 111.3 208.137 114.069C206.019 116.277 203.251 118.328 203.065 121.881C202.813 122.119 202.554 122.356 202.302 122.593C197.881 125.217 198.784 129.028 199.985 132.898C199.54 135.996 202.401 136.464 204.028 137.915C205.488 140.268 208.097 141.626 209.431 144.086C210.619 145.622 211.781 147.197 212.027 149.175C212.226 150.771 213.454 151.483 214.456 152.419C215.99 152.696 216.574 155.089 218.605 154.252C219.807 153.751 219.581 152.557 219.9 151.621C219.886 150.342 220.411 149.175 220.676 147.956C220.709 146.953 220.603 145.945 220.769 144.949C221.692 143.189 223.418 142.925 225.124 142.629C226.465 142.543 227.812 142.589 229.153 142.596C230.866 143.064 232.047 144.567 233.787 144.982C234.955 145.312 236.01 146.116 237.325 145.852C238.559 145.213 238.991 144.066 239.276 142.82C239.402 142.193 239.768 141.574 239.734 140.974C239.575 138.014 241.162 137.025 243.857 137.17C246.406 137.796 247.368 140.769 250.017 141.257C251.524 141.165 253.057 141.554 254.524 140.928L254.816 140.961C255.467 140.104 256.071 139.214 256.635 138.297C259.184 135.634 262.875 135.403 266.36 137.631C267.07 138.086 267.422 139.088 268.484 138.996C268.836 139.471 269.195 139.945 269.546 140.413C271.153 142.418 273.987 142.714 275.6 144.705C278.368 146.433 280.493 148.832 282.544 151.298C282.862 151.364 283.174 151.43 283.493 151.496C284.947 152.821 286.772 153.876 286.971 156.124C286.985 157.245 287.635 158.161 287.954 159.183C289.501 161.926 292.919 163.383 293.318 166.91C293.364 167.912 293.351 168.914 293.337 169.916C293.331 170.621 293.132 171.261 292.733 171.848C292.694 172.065 292.667 172.283 292.66 172.5C292.68 174.491 292.109 176.298 290.948 177.926C288.976 180.735 285.923 179.759 283.241 180.089C281.814 180.438 281.707 181.743 281.263 182.798C280.353 185.093 281.495 187.004 282.418 188.962C282.862 189.965 283.075 190.973 282.57 192.022C281.601 194.883 280.028 197.302 277.386 198.924L277.413 198.904C276.722 200.553 277.24 202.273 277.107 203.948C277.824 206.209 278.68 208.424 279.298 210.712C279.902 212.677 278.561 213.896 277.552 215.248C277.512 215.485 277.466 215.716 277.426 215.953C276.782 216.593 276.749 217.404 276.762 218.234C276.138 221.583 275.634 224.755 278.388 227.715C279.623 229.046 278.202 231.301 278.355 233.154C277.804 235.745 278.216 238.375 278.09 240.979C278.076 243.867 278.979 246.563 279.822 249.273C280.506 251.112 281.289 252.906 282.736 254.31C284.31 256.683 281.422 258.041 281.422 260.059C280.944 261.166 280.134 261.859 278.933 262.089C275.939 262.854 273.177 263.968 271.551 266.83C271.066 267.126 270.602 267.317 270.137 267.429C267.555 268.062 265.231 266.19 262.769 265.841C259.974 265.445 257.438 263.711 254.451 264.054C251.331 263.757 251.112 260.758 249.612 258.945C248.298 256.894 245.888 255.721 245.018 253.301C244.852 252.167 244.759 251.02 244.507 249.893C244.029 248.535 243.631 247.137 242.834 245.911C242.084 244.111 241.148 242.41 240.212 240.702C239.436 238.817 238.958 236.654 236.263 236.589C235.3 236.186 234.278 235.942 233.315 235.534C232.174 235.171 231.032 234.934 229.857 235.402C225.177 234.558 220.663 234.789 216.527 237.452C213.925 237.729 211.967 236.483 210.181 234.828C209.219 234.037 208.183 233.325 207.201 232.56C205.375 231.024 203.417 230.279 200.921 230.906C199.388 231.288 197.708 231.196 196.108 230.859C193.958 230.589 192.756 228.697 190.931 227.873C189.517 226.429 187.532 225.486 186.908 223.35C187.3 221.728 188.826 221.379 189.995 220.627C191.03 219.962 190.99 218.992 190.698 217.997C190.34 216.771 190.393 215.617 191.103 214.523C191.92 213.534 192.723 212.532 192.842 211.187C192.982 209.829 193.486 208.339 191.548 207.758C190.957 207.271 190.473 206.677 189.942 206.13C188.003 204.119 185.321 204.271 182.892 203.908C180.024 203.486 178.272 202.102 177.628 199.326C177.163 197.335 176.586 195.47 174.037 195.351C172.098 195.694 170.213 195.694 168.514 194.5C167.558 194.019 166.662 193.386 165.54 193.314C163.947 193.202 162.911 192.285 162.134 191C161.743 190.373 161.53 189.628 160.966 189.108C158.882 187.598 157.023 188.633 155.257 189.701C154.062 190.426 153.04 191.422 151.805 192.12C150.916 192.641 149.933 192.641 148.951 192.661C145.194 192.74 144.45 192.068 143.295 187.578C142.187 185.231 139.737 185.554 137.799 184.868C135.17 184.163 133.146 184.479 132.827 187.73C132.342 188.857 131.612 189.826 130.809 190.743C130.291 191.27 129.793 191.804 129.468 192.483C128.101 194.085 128.32 196.498 126.673 197.962C125.578 198.918 124.602 199.959 124.184 201.403C123.168 203.19 121.602 204.416 119.969 205.589C119.212 206.282 118.455 206.77 117.692 206.994C116.384 207.383 115.07 207.013 113.749 205.636C112.089 204.62 110.901 202.959 109.042 202.207C106.606 201.179 105.06 199.3 104.017 196.959C102.71 194.547 99.7424 195.259 97.9302 193.795C96.8416 193.063 95.6998 192.443 94.4253 192.094C93.5291 191.975 92.6264 192.028 91.7236 192.035C90.9203 192.068 90.1503 192.41 89.3272 192.246C86.3068 192.054 85.6032 189.681 84.634 187.459C83.9768 185.956 83.4259 184.433 82.9479 182.877C82.7886 177.656 79.8678 174.28 75.4733 171.887C71.0258 171.472 66.5583 171.195 62.1838 170.246C57.5305 168.815 52.7112 168.644 47.9118 168.294C40.6496 169.125 34.2106 165.835 27.4264 164.246C23.3772 162.822 19.2283 161.721 15.1127 160.488C13.6722 160.04 12.2184 159.618 10.9107 158.847C10.6386 158.682 10.373 158.504 10.0876 158.365C8.30857 157.482 7.47879 157.073 7.33939 156.368" stroke="white" stroke-width="2" stroke-linecap="round" stroke-linejoin="round"/>
</svg>
