<svg width="202" height="202" viewBox="0 0 202 202" fill="none" xmlns="http://www.w3.org/2000/svg">
<path d="M101.299 101.018L101.299 1.01819C156.527 1.01819 201.299 45.7897 201.299 101.018C201.299 115.738 198.049 130.277 191.782 143.596L101.299 101.018Z" fill="#D2B3F2" stroke="white"/>
<path d="M101.299 101.018L191.781 143.596C168.266 193.568 108.693 215.016 58.7209 191.501C53.0315 188.824 47.6072 185.616 42.5203 181.92L101.299 101.018Z" fill="#6A3E9D" stroke="white"/>
<path d="M101.299 101.018L42.5203 181.92C7.47155 156.455 -7.19427 111.319 6.19316 70.1165L101.299 101.018Z" fill="#B48AE0" stroke="white"/>
<path d="M101.299 101.018L6.19312 70.1165C14.0529 45.9267 30.8348 25.6408 53.1234 13.3875L101.299 101.018Z" fill="#8E5CB6" stroke="white"/>
<path d="M101.299 101.018L53.1235 13.3875C67.884 5.2729 84.455 1.01819 101.299 1.01819V101.018Z" fill="#A275D5" stroke="white"/>
</svg>
