<svg width="156" height="180" viewBox="0 0 156 180" fill="none" xmlns="http://www.w3.org/2000/svg">
<path d="M1.70533 23.9277C2.46872 23.7036 3.2255 23.2157 3.98225 22.5234C5.61524 21.3565 7.18846 20.1237 8.19746 18.337C8.61566 16.8932 9.59147 15.8516 10.6868 14.8956C12.3397 13.432 12.114 11.0191 13.4814 9.41704C13.8001 8.73799 14.3045 8.20398 14.8223 7.67656C15.6255 6.76017 16.3558 5.79103 16.8403 4.66367C17.159 1.41344 19.1836 1.09699 21.8123 1.80241C23.7507 2.49465 26.2001 2.165 27.3087 4.51203C28.4637 8.9951 29.2072 9.66758 32.9644 9.59506C33.9468 9.57528 34.9293 9.56868 35.8188 9.05445C37.0535 8.35561 38.0824 7.3601 39.2706 6.63489C41.0364 5.56687 42.895 4.53181 44.9794 6.04155C45.5503 6.56238 45.7561 7.30736 46.1477 7.93367C46.9244 9.21926 47.96 10.1357 49.5531 10.2477C50.675 10.3268 51.5711 10.9532 52.527 11.4344C54.2264 12.6277 56.1116 12.6277 58.0499 12.2849C60.599 12.4036 61.1832 14.2693 61.6412 16.2603C62.2851 19.0359 64.0376 20.4204 66.9053 20.8423C69.3348 21.2049 72.01 21.0533 73.955 23.0641C74.486 23.6113 74.9639 24.2046 75.5614 24.6925C77.4997 25.2792 76.9952 26.7626 76.8558 28.1207C76.7297 29.4722 75.9265 30.4677 75.1166 31.4566C74.4064 32.551 74.3533 33.7048 74.7117 34.931C75.0038 35.9265 75.037 36.8957 74.0081 37.5615C72.8398 38.3065 71.313 38.6559 70.9213 40.2843C71.5453 42.4204 73.5368 43.3632 74.944 44.807C76.7695 45.6311 77.971 47.5232 80.1218 47.7935C81.7282 48.1297 83.401 48.222 84.9344 47.8396C87.4304 47.2133 89.382 47.9583 91.2142 49.4944C92.1966 50.2592 93.2321 50.9646 94.1947 51.7623C95.9803 53.4237 97.9386 54.6632 100.541 54.3863C104.676 51.7228 109.19 51.492 113.87 52.3359C115.045 51.8744 116.194 52.1118 117.329 52.4678C118.291 52.8699 119.313 53.1139 120.276 53.5226C122.978 53.5885 123.456 55.751 124.226 57.6365C125.162 59.344 126.098 61.0449 126.848 62.8448C127.644 64.0776 128.043 65.4687 128.521 66.8268C128.773 67.9542 128.866 69.1013 129.032 70.2352C129.895 72.6482 132.311 73.8217 133.625 75.8786C135.126 77.6916 135.345 80.6913 138.464 80.988C141.452 80.6452 143.987 82.3791 146.782 82.7747C149.252 83.1241 151.568 84.9964 154.15 84.3635C155.744 84.9371 154.801 86.0644 153.653 86.9017C152.471 88.7543 150.36 89.8487 149.517 91.9716C148.209 93.4681 146.264 94.6087 147.234 97.193C147.638 98.2808 146.55 98.9203 145.627 99.3291C141.359 101.201 137.144 103.232 132.576 104.346C130.977 104.636 130.983 106.047 130.585 107.181C130.426 108.229 130.93 109.37 130.147 110.332C129.138 111.064 128.009 111.664 127.339 112.778C127.18 114.209 127.273 115.646 127.286 117.083C128.076 118.982 130.439 120.182 129.795 122.707C127.903 124.968 128.6 127.394 129.33 129.827C131.707 134.04 130.797 136.262 126.217 137.415C125.022 137.626 123.774 137.264 122.593 137.692C119.34 138.793 116.466 140.962 112.868 141.101C110.803 141.246 108.712 140.824 106.674 141.384C103.661 143.56 100.474 145.287 96.6043 145.254C93.6437 145.828 92.1568 148.768 89.4086 149.691C89.2028 149.678 89.1098 149.77 89.1231 149.975C88.061 151.333 86.7799 152.5 85.6846 153.851C83.3546 156.732 81.1308 159.409 83.0758 163.391C83.3347 163.925 83.1422 164.683 83.0359 165.329C82.7771 166.094 82.3124 166.694 81.5822 167.07C79.8961 168.118 78.5552 169.516 77.44 171.144C76.3513 172.641 75.6278 174.447 73.8288 175.35C69.5008 178.06 65.0068 179.299 60.2007 176.616C59.2448 176.082 58.5279 176.398 57.7446 176.774C56.7157 177.269 55.7001 177.644 54.6844 176.774C54.5251 176.689 54.3459 176.642 54.1666 176.642C52.6133 176.583 51.445 175.574 50.1041 174.988C48.4512 174.19 46.7452 174.427 45.0325 174.717C43.758 174.691 42.4835 174.823 41.2223 174.579C39.3105 172.97 40.7642 170.841 40.3327 169.008C39.9278 167.076 38.4874 166.193 36.8013 165.527C34.0199 164.433 32.1081 162.428 30.8269 159.791C30.1764 158.315 30.2693 156.653 29.6984 155.157C28.7956 154.187 28.2978 153.04 28.1517 151.735C28.0522 150.924 27.9791 150.113 27.7402 149.329C27.4348 146.434 25.4035 144.43 23.4652 142.782C21.8389 141.404 21.0157 140.771 20.79 139.769C21.029 139.156 21.2348 138.319 21.5202 137.152C21.6729 136.525 21.7128 135.879 21.8654 135.246C21.9451 134.923 21.9849 134.6 21.965 134.271C21.4472 133.11 21.4738 131.963 21.965 130.816C21.9982 129.972 21.6928 129.247 21.1419 128.614C20.1395 127.19 17.5506 127.091 17.7564 124.672C18.075 120.861 16.2694 118.066 13.4947 115.719C11.1647 114.301 10.4943 112.264 11.2245 109.713C9.42552 107.32 9.02058 104.768 9.55163 101.775C9.85698 100.048 10.8195 98.1753 9.80388 96.3228C9.02722 94.7339 10.3416 94.345 11.2975 93.745C13.415 92.9473 15.7052 93.389 17.8493 92.8088C18.1414 92.71 18.4136 92.5781 18.6592 92.3935C20.79 89.9344 22.1973 86.9017 24.7065 84.7459C25.2177 83.6317 25.7288 82.5176 26.4988 81.5418C28.4704 79.0036 30.7605 77.1313 34.0132 76.0764C37.5779 74.9227 38.1621 72.3647 36.3831 69.0551C35.0289 68.0267 32.9378 68.3761 32.0085 66.451C30.6477 63.6095 28.4438 61.2164 27.3817 58.1969C27.2158 57.9332 27.0166 57.6958 26.7843 57.4914C24.607 56.1597 22.3633 54.8873 22.0579 51.9799C21.4804 50.747 20.8896 49.5208 20.0465 48.433C18.7123 47.2397 17.763 45.8091 17.2054 44.1147C16.9997 43.7192 16.7474 43.3566 16.4288 43.0401C15.5326 42.2753 14.8356 41.3524 14.2183 40.3634C13.6208 39.48 12.8906 38.735 12.0011 38.1483C10.7133 37.3506 9.71098 36.2562 8.79491 35.0761C7.78591 33.9091 7.65314 32.3071 6.79018 31.0611C6.36534 30.5007 5.86082 30.0853 5.23683 29.9205C4.61948 29.4854 3.93577 29.1294 3.3848 28.6086C1.12119 26.4659 0.523762 25.3386 1.68544 23.9013" fill="white" fill-opacity="0.25"/>
<path d="M1.70533 23.9277C2.46872 23.7036 3.2255 23.2157 3.98225 22.5234C5.61524 21.3565 7.18846 20.1237 8.19746 18.337C8.61566 16.8932 9.59147 15.8516 10.6868 14.8956C12.3397 13.432 12.114 11.0191 13.4814 9.41704C13.8001 8.73799 14.3045 8.20398 14.8223 7.67656C15.6255 6.76017 16.3558 5.79103 16.8403 4.66367C17.159 1.41344 19.1836 1.09699 21.8123 1.80241C23.7507 2.49465 26.2001 2.165 27.3087 4.51203C28.4637 8.9951 29.2072 9.66758 32.9644 9.59506C33.9468 9.57528 34.9293 9.56868 35.8188 9.05445C37.0535 8.35561 38.0824 7.3601 39.2706 6.63489C41.0364 5.56687 42.895 4.53181 44.9794 6.04155C45.5503 6.56238 45.7561 7.30736 46.1477 7.93367C46.9244 9.21926 47.96 10.1357 49.5531 10.2477C50.675 10.3268 51.5711 10.9532 52.527 11.4344C54.2264 12.6277 56.1116 12.6277 58.0499 12.2849C60.599 12.4036 61.1832 14.2693 61.6412 16.2603C62.2851 19.0359 64.0376 20.4204 66.9053 20.8423C69.3348 21.2049 72.01 21.0533 73.955 23.0641C74.486 23.6113 74.9639 24.2046 75.5614 24.6925C77.4997 25.2792 76.9952 26.7626 76.8558 28.1207C76.7297 29.4722 75.9265 30.4677 75.1166 31.4566C74.4064 32.551 74.3533 33.7048 74.7117 34.931C75.0038 35.9265 75.037 36.8957 74.0081 37.5615C72.8398 38.3065 71.313 38.6559 70.9213 40.2843C71.5453 42.4204 73.5368 43.3632 74.944 44.807C76.7695 45.6311 77.971 47.5232 80.1218 47.7935C81.7282 48.1297 83.401 48.222 84.9344 47.8396C87.4304 47.2133 89.382 47.9583 91.2142 49.4944C92.1966 50.2592 93.2321 50.9646 94.1947 51.7623C95.9803 53.4237 97.9386 54.6632 100.541 54.3863C104.676 51.7228 109.19 51.492 113.87 52.3359C115.045 51.8744 116.194 52.1118 117.329 52.4678C118.291 52.8699 119.313 53.1139 120.276 53.5226C122.978 53.5885 123.456 55.751 124.226 57.6365C125.162 59.344 126.098 61.0449 126.848 62.8448C127.644 64.0776 128.043 65.4687 128.521 66.8268C128.773 67.9542 128.866 69.1013 129.032 70.2352C129.895 72.6482 132.311 73.8217 133.625 75.8786C135.126 77.6916 135.345 80.6913 138.464 80.988C141.452 80.6452 143.987 82.3791 146.782 82.7747C149.252 83.1241 151.568 84.9964 154.15 84.3635C155.744 84.9371 154.801 86.0644 153.653 86.9017C152.471 88.7543 150.36 89.8487 149.517 91.9716C148.209 93.4681 146.264 94.6087 147.234 97.193C147.638 98.2808 146.55 98.9203 145.627 99.3291C141.359 101.201 137.144 103.232 132.576 104.346C130.977 104.636 130.983 106.047 130.585 107.181C130.426 108.229 130.93 109.37 130.147 110.332C129.138 111.064 128.009 111.664 127.339 112.778C127.18 114.209 127.273 115.646 127.286 117.083C128.076 118.982 130.439 120.182 129.795 122.707C127.903 124.968 128.6 127.394 129.33 129.827C131.707 134.04 130.797 136.262 126.217 137.415C125.022 137.626 123.774 137.264 122.593 137.692C119.34 138.793 116.466 140.962 112.868 141.101C110.803 141.246 108.712 140.824 106.674 141.384C103.661 143.56 100.474 145.287 96.6043 145.254C93.6437 145.828 92.1568 148.768 89.4086 149.691C89.2028 149.678 89.1098 149.77 89.1231 149.975C88.061 151.333 86.7799 152.5 85.6846 153.851C83.3546 156.732 81.1308 159.409 83.0758 163.391C83.3347 163.925 83.1422 164.683 83.0359 165.329C82.7771 166.094 82.3124 166.694 81.5822 167.07C79.8961 168.118 78.5552 169.516 77.44 171.144C76.3513 172.641 75.6278 174.447 73.8288 175.35C69.5008 178.06 65.0068 179.299 60.2007 176.616C59.2448 176.082 58.5279 176.398 57.7446 176.774C56.7157 177.269 55.7001 177.644 54.6844 176.774C54.5251 176.689 54.3459 176.642 54.1666 176.642C52.6133 176.583 51.445 175.574 50.1041 174.988C48.4512 174.19 46.7452 174.427 45.0325 174.717C43.758 174.691 42.4835 174.823 41.2223 174.579C39.3105 172.97 40.7642 170.841 40.3327 169.008C39.9278 167.076 38.4874 166.193 36.8013 165.527C34.0199 164.433 32.1081 162.428 30.8269 159.791C30.1764 158.315 30.2693 156.653 29.6984 155.157C28.7956 154.187 28.2978 153.04 28.1517 151.735C28.0522 150.924 27.9791 150.113 27.7402 149.329C27.4348 146.434 25.4035 144.43 23.4652 142.782C21.8389 141.404 21.0157 140.771 20.79 139.769C21.029 139.156 21.2348 138.319 21.5202 137.152C21.6729 136.525 21.7128 135.879 21.8654 135.246C21.9451 134.923 21.9849 134.6 21.965 134.271C21.4472 133.11 21.4738 131.963 21.965 130.816C21.9982 129.972 21.6928 129.247 21.1419 128.614C20.1395 127.19 17.5506 127.091 17.7564 124.672C18.075 120.861 16.2694 118.066 13.4947 115.719C11.1647 114.301 10.4943 112.264 11.2245 109.713C9.42552 107.32 9.02058 104.768 9.55163 101.775C9.85698 100.048 10.8195 98.1753 9.80388 96.3228C9.02722 94.7339 10.3416 94.345 11.2975 93.745C13.415 92.9473 15.7052 93.389 17.8493 92.8088C18.1414 92.71 18.4136 92.5781 18.6592 92.3935C20.79 89.9344 22.1973 86.9017 24.7065 84.7459C25.2177 83.6317 25.7288 82.5176 26.4988 81.5418C28.4704 79.0036 30.7605 77.1313 34.0132 76.0764C37.5779 74.9227 38.1621 72.3647 36.3831 69.0551C35.0289 68.0267 32.9378 68.3761 32.0085 66.451C30.6477 63.6095 28.4438 61.2164 27.3817 58.1969C27.2158 57.9332 27.0166 57.6958 26.7843 57.4914C24.607 56.1597 22.3633 54.8873 22.0579 51.9799C21.4804 50.747 20.8896 49.5208 20.0465 48.433C18.7123 47.2397 17.763 45.8091 17.2054 44.1147C16.9997 43.7192 16.7474 43.3566 16.4288 43.0401C15.5326 42.2753 14.8356 41.3524 14.2183 40.3634C13.6208 39.48 12.8906 38.735 12.0011 38.1483C10.7133 37.3506 9.71098 36.2562 8.79491 35.0761C7.78591 33.9091 7.65314 32.3071 6.79018 31.0611C6.36534 30.5007 5.86082 30.0853 5.23683 29.9205C4.61948 29.4854 3.93577 29.1294 3.3848 28.6086C1.12119 26.4659 0.523762 25.3386 1.68544 23.9013" fill="#151329"/>
<path d="M1.70533 23.9277C2.46872 23.7036 3.2255 23.2157 3.98225 22.5234C5.61524 21.3565 7.18846 20.1237 8.19746 18.337C8.61566 16.8932 9.59147 15.8516 10.6868 14.8956C12.3397 13.432 12.114 11.0191 13.4814 9.41704C13.8001 8.73799 14.3045 8.20398 14.8223 7.67656C15.6255 6.76017 16.3558 5.79103 16.8403 4.66367C17.159 1.41344 19.1836 1.09699 21.8123 1.80241C23.7507 2.49465 26.2001 2.165 27.3087 4.51203C28.4637 8.9951 29.2072 9.66758 32.9644 9.59506C33.9468 9.57528 34.9293 9.56868 35.8188 9.05445C37.0535 8.35561 38.0824 7.3601 39.2706 6.63489C41.0364 5.56687 42.895 4.53181 44.9794 6.04155C45.5503 6.56238 45.7561 7.30736 46.1477 7.93367C46.9244 9.21926 47.96 10.1357 49.5531 10.2477C50.675 10.3268 51.5711 10.9532 52.527 11.4344C54.2264 12.6277 56.1116 12.6277 58.0499 12.2849C60.599 12.4036 61.1832 14.2693 61.6412 16.2603C62.2851 19.0359 64.0376 20.4204 66.9053 20.8423C69.3348 21.2049 72.01 21.0533 73.955 23.0641C74.486 23.6113 74.9639 24.2046 75.5614 24.6925C77.4997 25.2792 76.9952 26.7626 76.8558 28.1207C76.7297 29.4722 75.9265 30.4677 75.1166 31.4566C74.4064 32.551 74.3533 33.7048 74.7117 34.931C75.0038 35.9265 75.037 36.8957 74.0081 37.5615C72.8398 38.3065 71.313 38.6559 70.9213 40.2843C71.5453 42.4204 73.5368 43.3632 74.944 44.807C76.7695 45.6311 77.971 47.5232 80.1218 47.7935C81.7282 48.1297 83.401 48.222 84.9344 47.8396C87.4304 47.2133 89.382 47.9583 91.2142 49.4944C92.1966 50.2592 93.2321 50.9646 94.1947 51.7623C95.9803 53.4237 97.9386 54.6632 100.541 54.3863C104.676 51.7228 109.19 51.492 113.87 52.3359C115.045 51.8744 116.194 52.1118 117.329 52.4678C118.291 52.8699 119.313 53.1139 120.276 53.5226C122.978 53.5885 123.456 55.751 124.226 57.6365C125.162 59.344 126.098 61.0449 126.848 62.8448C127.644 64.0776 128.043 65.4687 128.521 66.8268C128.773 67.9542 128.866 69.1013 129.032 70.2352C129.895 72.6482 132.311 73.8217 133.625 75.8786C135.126 77.6916 135.345 80.6913 138.464 80.988C141.452 80.6452 143.987 82.3791 146.782 82.7747C149.252 83.1241 151.568 84.9964 154.15 84.3635C155.744 84.9371 154.801 86.0644 153.653 86.9017C152.471 88.7543 150.36 89.8487 149.517 91.9716C148.209 93.4681 146.264 94.6087 147.234 97.193C147.638 98.2808 146.55 98.9203 145.627 99.3291C141.359 101.201 137.144 103.232 132.576 104.346C130.977 104.636 130.983 106.047 130.585 107.181C130.426 108.229 130.93 109.37 130.147 110.332C129.138 111.064 128.009 111.664 127.339 112.778C127.18 114.209 127.273 115.646 127.286 117.083C128.076 118.982 130.439 120.182 129.795 122.707C127.903 124.968 128.6 127.394 129.33 129.827C131.707 134.04 130.797 136.262 126.217 137.415C125.022 137.626 123.774 137.264 122.593 137.692C119.34 138.793 116.466 140.962 112.868 141.101C110.803 141.246 108.712 140.824 106.674 141.384C103.661 143.56 100.474 145.287 96.6043 145.254C93.6437 145.828 92.1568 148.768 89.4086 149.691C89.2028 149.678 89.1098 149.77 89.1231 149.975C88.061 151.333 86.7799 152.5 85.6846 153.851C83.3546 156.732 81.1308 159.409 83.0758 163.391C83.3347 163.925 83.1422 164.683 83.0359 165.329C82.7771 166.094 82.3124 166.694 81.5822 167.07C79.8961 168.118 78.5552 169.516 77.44 171.144C76.3513 172.641 75.6278 174.447 73.8288 175.35C69.5008 178.06 65.0068 179.299 60.2007 176.616C59.2448 176.082 58.5279 176.398 57.7446 176.774C56.7157 177.269 55.7001 177.644 54.6844 176.774C54.5251 176.689 54.3459 176.642 54.1666 176.642C52.6133 176.583 51.445 175.574 50.1041 174.988C48.4512 174.19 46.7452 174.427 45.0325 174.717C43.758 174.691 42.4835 174.823 41.2223 174.579C39.3105 172.97 40.7642 170.841 40.3327 169.008C39.9278 167.076 38.4874 166.193 36.8013 165.527C34.0199 164.433 32.1081 162.428 30.8269 159.791C30.1764 158.315 30.2693 156.653 29.6984 155.157C28.7956 154.187 28.2978 153.04 28.1517 151.735C28.0522 150.924 27.9791 150.113 27.7402 149.329C27.4348 146.434 25.4035 144.43 23.4652 142.782C21.8389 141.404 21.0157 140.771 20.79 139.769C21.029 139.156 21.2348 138.319 21.5202 137.152C21.6729 136.525 21.7128 135.879 21.8654 135.246C21.9451 134.923 21.9849 134.6 21.965 134.271C21.4472 133.11 21.4738 131.963 21.965 130.816C21.9982 129.972 21.6928 129.247 21.1419 128.614C20.1395 127.19 17.5506 127.091 17.7564 124.672C18.075 120.861 16.2694 118.066 13.4947 115.719C11.1647 114.301 10.4943 112.264 11.2245 109.713C9.42552 107.32 9.02058 104.768 9.55163 101.775C9.85698 100.048 10.8195 98.1753 9.80388 96.3228C9.02722 94.7339 10.3416 94.345 11.2975 93.745C13.415 92.9473 15.7052 93.389 17.8493 92.8088C18.1414 92.71 18.4136 92.5781 18.6592 92.3935C20.79 89.9344 22.1973 86.9017 24.7065 84.7459C25.2177 83.6317 25.7288 82.5176 26.4988 81.5418C28.4704 79.0036 30.7605 77.1313 34.0132 76.0764C37.5779 74.9227 38.1621 72.3647 36.3831 69.0551C35.0289 68.0267 32.9378 68.3761 32.0085 66.451C30.6477 63.6095 28.4438 61.2164 27.3817 58.1969C27.2158 57.9332 27.0166 57.6958 26.7843 57.4914C24.607 56.1597 22.3633 54.8873 22.0579 51.9799C21.4804 50.747 20.8896 49.5208 20.0465 48.433C18.7123 47.2397 17.763 45.8091 17.2054 44.1147C16.9997 43.7192 16.7474 43.3566 16.4288 43.0401C15.5326 42.2753 14.8356 41.3524 14.2183 40.3634C13.6208 39.48 12.8906 38.735 12.0011 38.1483C10.7133 37.3506 9.71098 36.2562 8.79491 35.0761C7.78591 33.9091 7.65314 32.3071 6.79018 31.0611C6.36534 30.5007 5.86082 30.0853 5.23683 29.9205C4.61948 29.4854 3.93577 29.1294 3.3848 28.6086C1.12119 26.4659 0.523762 25.3386 1.68544 23.9013" stroke="white" stroke-width="2" stroke-linecap="round" stroke-linejoin="round"/>
</svg>
