<svg width="347" height="367" viewBox="0 0 347 367" fill="none" xmlns="http://www.w3.org/2000/svg">
<path d="M253.001 321.259C253.021 322.769 252.636 324.266 251.614 325.736C250.605 326.672 249.337 327.331 248.48 328.452C248.168 328.788 247.803 329.072 247.412 329.309C245.659 329.902 244.444 331.168 243.329 332.553C241.949 334.267 240.827 336.126 240.123 338.222C240.01 338.499 239.858 338.756 239.678 339C237.408 341.552 234.832 343.859 233.326 347.011C231.938 348.461 232.117 350.676 230.777 352.146C229.854 353.689 228.466 354.876 227.484 356.372C227.318 356.623 227.119 356.854 226.907 357.065C225.931 357.988 225.001 358.957 223.886 359.728C222.917 360.486 221.954 361.251 220.985 362.016C220.693 362.187 220.388 362.306 220.069 362.385C215.197 364.574 209.621 363.479 204.742 365.668C204.118 365.945 203.434 365.932 202.797 365.655C202.604 365.569 202.412 365.464 202.232 365.332C201.595 364.653 201.954 363.769 201.755 363.005C201.376 361.818 201.031 360.612 199.723 360.058C196.464 358.291 195.807 354.632 193.769 351.975C190.695 349.944 192.348 347.426 193.032 345.006C194.014 342.442 193.477 340.286 191.041 338.921C189.959 338.315 189.952 337.425 189.72 336.522C189.208 334.531 188.306 332.678 187.655 330.733C187.396 329.316 187.828 327.832 187.297 326.435C186.341 324.18 183.898 324.43 182.199 323.435C181.614 323.646 181.03 323.85 180.446 324.061C176.496 324.358 174.1 322.65 173.416 318.715C172.819 316.354 171.551 314.376 169.918 312.603C169.141 311.12 168.783 309.346 167.077 308.496C166.267 307.56 166.957 306.346 166.486 305.351C166.3 304.085 165.743 302.674 164.501 302.615C160.552 302.424 159.204 299.18 157.033 296.873C156.257 296.398 155.467 295.93 154.61 295.594C151.975 294.684 149.565 293.385 147.508 291.486C145.649 291.117 144.354 290.293 144.248 288.137C144.202 287.195 143.611 286.291 142.987 285.54C141.693 283.971 140.159 282.487 137.988 283.727C136.097 284.808 135.99 286.647 136.873 288.546C137.783 289.693 137.364 290.735 136.628 291.757C134.782 292.581 132.837 291.981 130.952 292.146C128.987 291.717 127.089 290.741 124.991 291.467C123.172 291.407 121.294 291.882 119.574 290.873C117.49 290.484 116.627 288.414 114.908 287.524C113.573 286.766 112.173 286.667 110.719 287.142C109.424 287.926 107.898 287.583 106.524 287.992C105.933 288.157 105.335 288.328 104.745 288.493C101.578 289.166 99.932 287.069 98.2791 284.993C96.0022 281.894 92.537 281.61 89.8486 284.307C88.9724 285.955 88.9259 287.933 87.7377 289.456C86.2706 290.405 84.9696 291.598 83.3698 292.35C82.4471 292.521 81.5775 292.489 81.0929 291.526C80.21 289.766 78.816 289.687 77.1897 290.28C74.3884 290.715 74.8464 288.045 73.8108 286.799C73.2267 285.731 72.2641 285.527 71.1357 285.553C70.1067 285.579 69.0048 285.79 68.1419 284.946C67.1727 283.911 65.7654 283.977 64.5573 283.72C61.663 283.1 60.8133 284.175 61.4971 287.274C61.736 287.755 62.0746 288.177 62.3335 288.638C63.9001 291.453 63.7872 291.711 60.5744 292.785C59.0277 292.93 57.4611 292.62 55.921 292.976C52.2833 295.831 48.1212 297.387 43.5542 297.961C42.7177 298.158 41.8681 298.086 41.025 298.04C39.8899 297.591 38.6618 297.901 37.5134 297.604C35.356 296.602 35.2897 295.211 36.8164 293.609C37.6462 292.739 38.3432 291.836 38.5955 290.649C39.1132 288.592 38.9738 286.522 38.7282 284.452C38.5224 284.01 38.2038 283.667 37.7657 283.43C35.2299 282.922 33.0327 281.841 31.2337 279.949C29.7335 278.373 27.9611 278.36 26.0759 279.244C24.4894 279.989 23.0091 281.004 21.2101 281.254C20.1613 281.281 19.1125 281.327 18.2495 280.569C18.1035 280.312 17.9574 280.055 17.8114 279.797C17.7649 279.593 17.6919 279.409 17.5923 279.23C16.7759 278.848 16.5833 278.143 16.6829 277.352C17.121 273.745 15.103 271.853 12.0097 270.706C12.0097 270.521 11.9234 270.429 11.7375 270.429C11.379 269.783 10.3368 269.196 10.7617 268.478C12.5208 265.491 11.5782 262.419 11.3259 259.353C11.7574 257.685 13.1249 256.373 13.1846 254.567C13.5497 253.051 13.251 251.508 13.3771 249.985C14.6649 246.313 14.5786 242.377 15.6275 238.652C16.1917 236.648 15.2624 234.848 13.9812 233.266C13.2842 232.389 13.3572 231.281 13.0651 230.279C13.0054 228.657 12.9855 227.029 13.0784 225.407C13.9613 222.731 12.8593 221.794 10.1842 221.946C8.09979 222.065 5.98222 222.15 3.93767 221.537C2.24494 221.036 0.6717 220.08 0.718167 218.247C0.764634 216.369 2.61668 216.56 4.02397 216.349C6.02869 216.039 7.79444 215.188 9.18181 213.666C9.93192 211.707 9.81907 209.262 12.2486 208.24C12.5009 207.805 12.7598 207.363 13.012 206.928C14.1737 205.471 13.5563 204.205 12.3947 203.216C10.7086 201.779 10.9741 200.625 12.3615 199.115C13.3838 198.001 14.1604 196.65 15.3155 195.634C16.8024 194.322 17.2272 192.793 16.3245 190.973L16.3643 191C14.3994 188.817 13.7754 186.431 15.2557 183.728C15.8399 182.858 16.4174 181.994 17.0015 181.124C17.3866 178.796 18.827 177.946 21.0906 178.256C22.956 178.882 25.047 177.867 26.8393 179.034C27.1247 179.04 27.4035 179.054 27.689 179.06C29.4946 176.68 31.4462 174.498 34.6391 173.984C37.0023 172.955 39.7439 172.79 41.7154 170.879C42.4257 169.929 43.5741 169.303 43.8661 168.037C43.428 166.356 44.8552 164.358 42.9766 162.928C41.888 161.978 40.5139 161.649 39.1995 161.181C38.0578 160.851 36.6173 161.233 35.9269 159.822C34.6458 157.752 33.1123 155.873 31.5856 153.981C31.34 153.546 31.0877 153.111 30.8421 152.676C29.5211 152.089 29.229 150.705 29.4016 149.703C29.7601 147.685 28.9104 146.222 27.9545 144.685C27.1646 143.275 26.0958 142.141 24.662 141.35C23.8654 140.743 22.8431 140.492 22.1328 139.754C21.3562 139.148 20.3472 138.778 19.9622 137.743C18.8337 136.207 17.6853 134.678 16.6298 133.089C16.0589 132.166 15.581 131.184 15.03 130.247C14.5521 128.955 14.2666 127.736 15.7536 126.832C17.0215 126.061 18.2562 126.213 19.4842 126.839C20.5596 127.393 21.2566 128.448 22.3187 129.034L23.6795 128.975C25.1001 127.155 26.5671 125.547 28.9502 127.722C29.3352 127.94 29.7202 128.151 30.0986 128.368C31.9175 129.074 33.4442 127.531 35.1901 127.716C36.4181 127.656 37.6595 127.867 38.861 127.465C39.173 127.412 39.485 127.34 39.7903 127.248C41.3237 126.7 42.5916 127.676 43.979 127.953C44.9216 128.349 45.2602 129.252 45.7447 130.03C46.4218 131.315 47.537 131.902 48.951 132.008C50.3848 132.535 51.2013 131.981 51.6062 130.577C51.9315 129.443 51.9846 128.25 52.4758 127.155C54.2416 125.395 52.582 123.866 52.1439 122.257C51.6859 121.545 51.4071 120.787 51.5332 119.923C52.0709 118.736 52.9339 117.728 53.4583 116.528C53.2591 116.126 53.06 115.724 52.8608 115.321C52.7812 111.999 53.0002 108.953 56.1799 106.672C57.9125 105.432 57.2951 102.821 57.7133 100.844C57.9988 99.4987 58.3373 98.4175 59.6583 98.1736C62.3866 97.6659 63.6478 95.7343 64.7033 93.5191C64.783 93.3147 64.8161 93.0972 64.8095 92.8796C64.4046 90.6381 65.4202 88.8712 66.7147 87.1901C68.1817 84.4277 70.7307 85.8187 72.8616 85.6078C75.0721 86.7615 74.4415 89.8997 76.6852 91.027C78.0858 91.5017 78.889 92.6555 79.7984 93.6905C80.9867 94.6992 82.6396 94.8113 83.8676 95.7606C87.346 97.4022 90.5257 100.125 94.8405 98.7735C95.6835 97.8967 96.1283 96.743 96.8651 95.787C97.8144 94.2311 99.4474 95.9189 100.536 95.0288C102.149 93.8949 103.656 92.6159 105.415 91.6863C106.457 91.1984 107.553 91.0402 108.694 91.1457C110.46 91.5808 112.226 91.8841 114.045 91.5017C114.655 91.0073 115.319 91.3765 115.956 91.383C116.999 88.6405 116.979 85.3111 120.205 83.7684C122.608 82.4762 121.552 80.1226 121.937 78.2107C122.648 76.813 121.579 75.7846 121.181 74.6177C121.254 74.5056 121.247 74.4001 121.167 74.2946C120.125 73.5298 118.924 72.8904 118.864 71.3674C118.671 68.5523 121.161 66.3042 120.583 63.4034C121.606 60.8784 124.135 60.0411 126.08 58.5445C126.398 58.2149 126.71 57.8852 126.916 57.4765C127.321 56.448 127.082 55.3734 127.175 54.3186C127.454 53.2967 127.195 52.0572 128.35 51.3848C128.655 51.0749 128.961 50.7651 129.273 50.4618C130.043 48.0818 129.923 45.2205 132.824 43.9877C132.937 44.0536 133.05 44.0536 133.163 43.9745C135.672 42.1681 136.926 39.7288 136.893 36.65C136.966 36.439 137.099 36.2082 137.052 36.0171C136.017 31.8636 136.814 28.3431 139.655 24.8951C140.856 23.4381 142.097 21.8888 143.266 20.3461C144.069 18.6385 145.729 17.6299 146.744 16.0937C147.01 15.1642 148.005 14.6895 148.224 13.7335C149.313 12.1315 150.448 11.4129 152.181 13.1006C154.418 15.2828 157.219 13.5423 159.728 13.9313C163.333 13.0215 166.479 11.67 167.641 7.60887C168.438 4.81354 170.993 4.59597 173.423 4.47731C174.624 4.41797 175.826 4.44434 177.021 4.47731C177.253 4.42456 177.492 4.37841 177.724 4.32567C180.805 1.12159 183.931 0.71284 187.761 3.01371C190.822 6.15187 191.041 7.86598 188.883 11.6239C187.967 13.1402 186.547 14.373 186.248 16.2388C185.856 19.0869 186.268 22.2184 183.367 24.1699C182.152 26.3784 180.134 27.8684 178.428 29.6419C177.379 30.7297 176.317 31.7713 175.945 33.2943C175.919 34.5798 175.965 35.872 175.912 37.1576C174.213 42.8142 174.903 45.5172 178.78 48.2994C180.831 49.5586 183.101 48.6686 185.252 48.9652C187.038 49.3212 188.989 49.2421 190.304 50.8508C191.12 50.9958 191.957 50.8639 192.78 50.9826C194.804 51.543 196.802 52.4067 198.973 51.6353C199.949 51.5562 201.15 51.1408 201.788 52.0177C203.905 54.9251 207.364 55.2283 210.271 56.6062C211.705 58.8082 213.57 60.6806 215.031 62.8628C217.407 64.6692 219.571 66.8712 222.831 67.0821C223.003 67.1085 223.176 67.1085 223.348 67.0755C224.583 67.8996 226.057 67.8667 227.438 68.1633C232.217 67.6227 235.032 70.9653 238.205 73.5628C239.134 74.321 239.831 75.3626 241.032 75.7912C242.148 76.1669 243.296 75.9296 244.431 75.9692C245.938 75.2703 247.279 76.3515 248.719 76.3515C248.865 76.3713 249.005 76.3581 249.144 76.3186C250.399 76.8065 251.169 75.9758 251.992 75.2835C252.795 74.5979 253.459 73.5694 254.78 74.1628C255.577 75.033 255.012 76.3054 255.703 77.202C257.309 79.2062 258.922 78.1316 260.535 77.2152C262.188 74.7759 265.029 74.2419 267.426 72.9958C268.003 72.4684 267.419 72.1651 267.193 71.7894C268.634 70.5763 270.473 70.0621 272.033 69.0534C272.444 68.8094 272.862 68.5721 273.274 68.3282C274.675 67.0624 276.474 68.4007 277.947 67.6096C279.202 66.9107 280.091 65.8097 281.1 64.834C282.143 63.7594 283.364 64.1615 284.572 64.4121C286.67 64.5769 288.104 63.7396 288.748 61.7024C288.708 60.7267 289.225 59.9817 289.743 59.2302C289.551 58.8148 289.352 58.4061 289.159 57.9907C288.834 56.8568 288.263 55.6833 289.451 54.7075C290.527 53.8241 291.715 54.0482 292.81 54.6284C294.065 55.2943 295.465 55.5646 296.733 56.1777C298.672 56.6062 299.86 58.1358 301.333 59.2499C302.322 59.7444 303.345 59.9422 304.347 59.362C305.024 58.9664 305.628 58.8873 306.199 59.151C306.438 59.2631 306.671 59.4345 306.896 59.6785C307.693 60.8454 308.35 62.0716 308.642 63.4627C310.049 67.247 310.567 67.4909 314.543 66.2317C314.988 66.0141 315.453 65.902 315.944 65.8757C317.902 65.8757 319.9 64.8736 321.819 66.0603C322.25 66.3965 322.556 66.8382 322.781 67.3327C324.766 71.7102 325.357 71.9937 330.07 70.8136C333.183 70.2467 334.551 71.8619 334.982 74.6572C335.307 75.6461 335.142 76.701 335.361 77.7031C335.54 78.8568 336.403 79.1733 337.392 79.3644C338.527 79.582 339.403 80.0765 339.35 81.4214C338.852 83.2937 337.067 84.2365 336.144 85.8385C334.577 88.5679 334.02 91.2248 335.985 93.9806C336.097 94.2904 336.157 94.6135 336.177 94.9431C336.024 98.0154 337.956 100.692 337.883 103.744C337.75 106.546 338.222 109.375 337.551 112.15C337.113 114.115 335.56 115.466 334.69 117.2C333.801 118.967 333.913 120.325 336.011 121.037C337.485 121.657 339.164 121.617 340.585 122.428C345.55 125.217 346.639 127.103 345.683 131.263C344.886 133.234 345.085 135.199 345.743 137.163C345.822 139.477 346.207 141.818 345.119 144.02C344.727 145.028 344.123 145.885 343.32 146.611C341.906 147.507 340.591 148.602 338.905 148.997C337.518 149.241 336.064 148.892 334.71 149.459C333.562 149.841 332.035 149.551 331.623 151.219C331.504 151.502 331.358 151.76 331.185 152.017C330.475 152.88 329.738 153.698 328.649 154.107C327.123 154.535 325.702 154.278 324.374 153.454C324.102 153.282 323.87 153.065 323.651 152.828C322.662 151.502 321.713 150.138 320.007 149.604C316.595 149.043 314.981 151.166 313.694 153.77C313.149 154.561 312.744 155.425 312.373 156.302C311.815 157.634 311.344 159.012 310.594 160.251C309.757 161.312 310.142 162.433 310.421 163.561C310.487 164.187 310.414 164.8 310.175 165.387C308.443 167.187 309.903 170.213 307.679 171.821C305.489 173.232 302.814 172.434 300.524 173.364C298.572 174.636 296.302 175.289 294.33 176.515C291.489 179.1 288.17 181.414 288.82 185.996C289.345 187.644 290.56 188.883 291.409 190.34C292.418 192.292 292.166 194.223 291.336 196.142C289.577 199.234 289.079 202.227 291.794 205.148C293.062 206.506 293.454 208.503 294.961 209.736C295.372 210.27 295.645 210.857 295.711 211.529C295.445 213.329 295.167 215.129 295.95 216.883C296.282 218.861 295.724 220.918 296.481 222.862C297.085 224.768 297.224 226.739 297.158 228.71C297.105 230.339 296.295 232.02 294.987 232.6C290.009 234.808 287.3 239.865 282.421 242.113C280.848 242.845 279.992 244.065 279.912 245.805C279.228 247.394 279.972 248.693 280.755 249.985C283.138 252.761 285.116 255.661 283.842 259.597C283.152 261.364 281.93 262.828 280.417 263.83C276.792 266.216 276.905 269.605 277.443 273.211C277.702 274.358 277.403 275.295 276.361 275.934C274.681 276.567 272.935 276.251 271.216 276.277C269.43 276.132 267.479 274.378 265.945 276.791C265.302 278.228 264.883 279.718 264.817 281.307C264.452 283.608 262.812 284.149 260.794 284.294C259.613 284.379 258.491 284.973 257.263 284.801C254.866 284.05 253.844 284.986 254.375 287.353C254.747 289.021 254.84 290.873 256.413 292.067C258.086 293.748 257.296 295.983 257.774 297.928C257.814 298.033 257.84 298.139 257.887 298.237C259.885 302.78 259.254 303.775 254.222 304.039C252.39 304.25 251.527 305.562 250.797 307.032C250.492 309.874 248.905 312.755 251.136 315.491C251.488 315.84 251.753 316.242 251.972 316.684C252.57 318.213 253.001 319.743 253.021 321.253L253.001 321.259Z" fill="#151329" stroke="#F3EFEF" stroke-width="2" stroke-linecap="round" stroke-linejoin="round"/>
</svg>
