<svg width="68" height="78" viewBox="0 0 68 78" fill="none" xmlns="http://www.w3.org/2000/svg">
<g clip-path="url(#clip0_4078_116)">
<path d="M68 48.7959V54.6551C68 55.2169 67.6222 55.7855 66.8856 56.2176L30.7576 77.2505C29.2602 78.1199 26.826 78.1199 25.3217 77.2505L1.14895 63.2643C0.388166 62.8253 0.012085 62.248 0.012085 61.6794V55.8201C0.0138101 56.3887 0.664189 56.2919 1.42498 56.7292L25.5252 70.6895C27.0296 71.5589 29.2464 71.7335 30.7438 70.8641L66.632 49.8554C67.3686 49.4164 68 49.3576 68 48.7959Z" fill="#1D2943"/>
<path d="M66.8614 47.2023C68.3657 48.0734 68.3795 49.482 66.8838 50.3532L30.7593 71.3861C29.2636 72.2572 26.8312 72.2572 25.3251 71.3861L1.15239 57.4033C-0.351932 56.5322 -0.360557 55.1201 1.13514 54.2507L37.2597 33.2178C38.7554 32.3467 41.1844 32.3501 42.6887 33.2213L66.8631 47.204L66.8614 47.2023Z" fill="#4C5C75"/>
<path d="M66.8458 22.8681L66.7786 47.9196C66.7786 48.4623 66.4146 49.0119 65.7038 49.4285L30.8041 69.7458C29.3585 70.5858 27.0071 70.5858 25.5528 69.7458L2.20126 56.2349C1.46635 55.8114 1.10406 55.2532 1.10406 54.7035L1.17135 29.6521C1.17135 30.2017 1.53535 30.76 2.26854 31.1835L25.6201 44.6944C27.0744 45.5344 29.4258 45.5344 30.8714 44.6944L65.7711 24.377C66.4836 23.9536 66.8458 23.4109 66.8458 22.8681Z" fill="#F3F1FC"/>
<path d="M65.7452 21.3299C67.1995 22.1716 67.2116 23.5319 65.7676 24.3736L30.8697 44.6927C29.4257 45.5344 27.0744 45.5344 25.6201 44.6927L2.26852 31.1835C0.814223 30.3418 0.807323 28.978 2.25127 28.138L37.1492 7.81896C38.5931 6.97723 40.9393 6.98069 42.3936 7.82242L65.7469 21.3299H65.7452Z" fill="#E3E7F0"/>
<path d="M66.8614 21.1138C68.3657 21.9849 68.383 23.8188 66.8873 24.6881L31.1095 46.6215C29.6138 47.4927 25.8513 47.0329 24.347 46.1618L1.15239 31.3148C-0.351932 30.4437 -0.360557 29.0316 1.13514 28.1622L37.2597 7.12759C38.7554 6.25648 41.1844 6.25994 42.6887 7.13105L66.8631 21.1138H66.8614Z" fill="#4C5C75"/>
<path d="M66.8873 24.2683L30.7593 45.3012C29.2619 46.1706 26.8277 46.1706 25.3234 45.3012L4.82178 33.4392L4.80453 26.8177C4.80453 25.6977 5.58429 24.3547 6.55037 23.7947L44.074 1.92698C44.5656 1.63834 45.0056 1.62106 45.3282 1.80772L40.5236 -0.980185C40.201 -1.16685 39.7611 -1.13228 39.2695 -0.860926L1.74585 21.0051C0.779765 21.5651 0 22.9063 0 24.028L0.0155263 29.7369C0.0155263 29.7369 0.0155263 29.7335 0.0155263 29.7318V35.591C0.0155263 36.1597 0.389883 36.737 1.15067 37.176L25.3217 51.1622C26.826 52.0316 29.2602 52.0316 30.7576 51.1622L66.8856 30.1293C67.6222 29.6989 67.9983 29.1286 67.9983 28.5668V22.7075C67.9983 23.2693 67.6239 23.831 66.8873 24.27V24.2683Z" fill="#1D2943"/>
<path d="M44.0774 1.92857C45.04 1.37202 45.8336 1.81103 45.837 2.92067L45.8543 8.96316L4.82348 33.4494L4.80622 26.8123C4.80277 25.7027 5.57909 24.3563 6.54344 23.798L44.0774 1.92857Z" fill="#4C5C75"/>
<path d="M25.1561 28.724C27.297 29.9632 27.309 31.9647 25.1871 33.1988C23.0669 34.4329 19.6166 34.4329 17.4757 33.1953C15.3417 31.9613 15.3296 29.9598 17.4499 28.724C19.5701 27.4899 23.0203 27.4899 25.1543 28.724H25.1561Z" fill="#1D2943"/>
<path d="M24.6385 28.6531C26.4861 29.7264 26.493 31.4566 24.6592 32.5195C22.8254 33.5825 19.8443 33.5773 17.9967 32.504C16.1542 31.4341 16.1473 29.704 17.9811 28.641C19.815 27.578 22.796 27.5832 24.6385 28.6531Z" fill="#5094FF"/>
<path d="M24.8628 21.3057L26.029 30.5803H16.6097L17.7862 21.1743L24.8628 21.3057Z" fill="#5094FF"/>
<path d="M23.8121 19.8504C25.2043 20.6558 25.2112 21.9556 23.8328 22.7593C22.4544 23.5612 20.2135 23.5612 18.8213 22.7575C17.4343 21.9556 17.4274 20.6541 18.8058 19.8521C20.1842 19.0501 22.4268 19.0501 23.8139 19.8521L23.8121 19.8504Z" fill="#57B3FE"/>
<path d="M45.8682 16.6649C48.0091 17.9042 48.0211 19.9057 45.8992 21.1397C43.779 22.3738 40.3287 22.3738 38.1878 21.1363C36.0538 19.9022 36.0417 17.9007 38.1619 16.6649C40.2822 15.4308 43.7324 15.4308 45.8664 16.6649H45.8682Z" fill="#1D2943"/>
<path d="M45.3506 16.5941C47.1982 17.6674 47.2051 19.3975 45.3713 20.4605C43.5374 21.5235 40.5564 21.5183 38.7088 20.4449C36.8663 19.3751 36.8594 17.6449 38.6932 16.582C40.5271 15.519 43.5081 15.5242 45.3506 16.5941Z" fill="#FEBC1F"/>
<path d="M45.5749 9.24662L46.7411 18.5212H37.3218L38.4983 9.11526L45.5749 9.24662Z" fill="#FEBC1F"/>
<path d="M44.526 7.79131C45.9182 8.59675 45.9251 9.89651 44.5467 10.7002C43.1683 11.5022 40.9274 11.5022 39.5352 10.6985C38.1481 9.89651 38.1412 8.59502 39.5196 7.79304C40.898 6.99106 43.1407 6.99106 44.5277 7.79304L44.526 7.79131Z" fill="#FFD06C"/>
<path d="M32.726 38.6657V39.6526C32.726 40.1625 32.3982 40.6568 31.7237 41.0509C30.3763 41.8408 28.2078 41.8252 26.8605 41.0509C26.1877 40.6551 25.8427 40.1452 25.8427 39.6198V38.6484C25.8427 38.1386 26.1704 37.6287 26.845 37.2502C28.1923 36.4603 30.3763 36.4758 31.7237 37.2502C32.3965 37.646 32.726 38.1558 32.726 38.6657Z" fill="#DEDFFB"/>
<path d="M42.1056 33.2005V34.1875C42.1056 34.6973 41.7605 35.2072 41.1032 35.5857C39.7559 36.3756 37.5874 36.3756 36.2401 35.5857C35.5673 35.2072 35.2222 34.6801 35.2222 34.1702V33.1988C35.2222 32.6889 35.55 32.1791 36.2245 31.7833C37.5546 31.0089 39.7559 31.0089 41.0877 31.7833C41.7605 32.1791 42.1056 32.6889 42.1056 33.1988V33.2005Z" fill="#DEDFFB"/>
<path d="M60.8665 22.2891V23.2605C60.8493 23.7704 60.5215 24.2803 59.8487 24.6761C58.5186 25.4504 56.3329 25.4504 55.0028 24.6761C54.3127 24.2803 53.9677 23.7704 53.9849 23.2449V22.2736C53.9849 21.7637 54.3127 21.2538 54.97 20.8753C56.3173 20.0854 58.5014 20.0854 59.8487 20.8753C60.5215 21.2711 60.8665 21.781 60.8665 22.2909V22.2891Z" fill="#DEDFFB"/>
<path d="M51.4869 27.7544V28.7257C51.4869 29.2356 51.1419 29.7455 50.4846 30.1413C49.1373 30.9156 46.9688 30.9156 45.6214 30.1413C44.9314 29.7455 44.6036 29.22 44.6036 28.7102V27.7388C44.6036 27.2289 44.9314 26.719 45.6059 26.3232C46.936 25.5489 49.1217 25.5489 50.4691 26.3232C51.1419 26.719 51.4869 27.2445 51.4869 27.7544Z" fill="#DEDFFB"/>
<path d="M32.7277 38.6675L32.7243 39.6475C32.7243 40.1556 32.3896 40.6638 31.7219 41.0527C30.3798 41.8339 28.2061 41.8304 26.8622 41.0527C26.1825 40.6603 25.8409 40.1418 25.8427 39.6267L25.8461 38.6467C25.8461 39.1635 26.186 39.6803 26.8657 40.0727C28.2096 40.8504 30.3832 40.8539 31.7254 40.0727C32.393 39.6838 32.7277 39.1756 32.7294 38.6675H32.7277Z" fill="#DEDFFB"/>
<path d="M31.7168 37.2485C33.0606 38.0262 33.0675 39.2914 31.7254 40.0727C30.3832 40.8539 28.2095 40.8504 26.8657 40.0727C25.5218 39.2949 25.5011 38.0297 26.8432 37.2485C28.1854 36.4672 30.3729 36.4707 31.7168 37.2485Z" fill="#F3F1FC"/>
<path d="M31.1095 37.9104L29.8157 38.664L31.1112 39.4124L30.5851 39.7201L29.2895 38.9699L28.0008 39.7201L27.4729 39.4124L28.7599 38.664L27.4643 37.9139L27.9905 37.6079L29.286 38.3581L30.5799 37.6045L31.1095 37.9104Z" fill="#9EA9C9"/>
<path d="M42.1056 33.2074L42.1021 34.1874C42.1021 34.6956 41.7675 35.2037 41.0981 35.5926C39.7559 36.3739 37.5823 36.3704 36.2384 35.5926C35.5587 35.2003 35.2171 34.6818 35.2188 34.1667L35.2223 33.1867C35.2223 33.7035 35.5621 34.2203 36.2418 34.6126C37.5857 35.3904 39.7594 35.3939 41.1016 34.6126C41.7692 34.2237 42.1039 33.7156 42.1056 33.2074Z" fill="#DEDFFB"/>
<path d="M41.0949 31.7884C42.4388 32.5662 42.4457 33.8314 41.1035 34.6126C39.7613 35.3939 37.5877 35.3904 36.2438 34.6126C34.8999 33.8349 34.8792 32.5697 36.2213 31.7884C37.5635 31.0072 39.751 31.0106 41.0949 31.7884Z" fill="#F3F1FC"/>
<path d="M40.4874 32.4504L39.1918 33.204L40.4874 33.9524L39.9629 34.2583L38.6674 33.5099L37.3787 34.26L36.8508 33.9524L38.1377 33.204L36.8422 32.4539L37.3683 32.1479L38.6639 32.8981L39.9578 32.1445L40.4874 32.4504Z" fill="#9EA9C9"/>
<path d="M51.4834 27.7474L51.48 28.7274C51.48 29.2356 51.1453 29.7437 50.4777 30.1326C49.1355 30.9139 46.9618 30.9104 45.618 30.1326C44.9382 29.7403 44.5967 29.2218 44.5984 28.7067L44.6018 27.7267C44.6018 28.2435 44.9417 28.7603 45.6214 29.1526C46.9653 29.9304 49.139 29.9339 50.4811 29.1526C51.1488 28.7637 51.4834 28.2556 51.4852 27.7474H51.4834Z" fill="#DEDFFB"/>
<path d="M50.4725 26.3284C51.8164 27.1062 51.8233 28.3714 50.4811 29.1526C49.139 29.9339 46.9653 29.9304 45.6214 29.1526C44.2775 28.3748 44.2568 27.1096 45.599 26.3284C46.9411 25.5472 49.1286 25.5506 50.4725 26.3284Z" fill="#F3F1FC"/>
<path d="M49.8653 26.9904L48.5697 27.744L49.8653 28.4924L49.3408 28.7983L48.0435 28.0499L46.7565 28.7983L46.2269 28.4924L47.5156 27.744L46.22 26.9938L46.7445 26.6879L48.0418 27.438L49.3356 26.6844L49.8653 26.9904Z" fill="#9EA9C9"/>
<path d="M60.8614 22.2874L60.8579 23.2674C60.8579 23.7756 60.5232 24.2837 59.8556 24.6726C58.5135 25.4538 56.3398 25.4504 54.9959 24.6726C54.3162 24.2803 53.9746 23.7617 53.9763 23.2467L53.9798 22.2667C53.9798 22.7835 54.3196 23.3002 54.9993 23.6926C56.3432 24.4704 58.5169 24.4738 59.8591 23.6926C60.5267 23.3037 60.8614 22.7956 60.8631 22.2874H60.8614Z" fill="#DEDFFB"/>
<path d="M59.849 20.8684C61.1929 21.6462 61.1998 22.9114 59.8576 23.6926C58.5155 24.4738 56.3418 24.4704 54.9979 23.6926C53.654 22.9148 53.6333 21.6496 54.9755 20.8684C56.3177 20.0871 58.5051 20.0906 59.849 20.8684Z" fill="#F3F1FC"/>
<path d="M59.2415 21.5304L57.9476 22.2839L59.2432 23.0323L58.717 23.3383L57.4215 22.5899L56.1345 23.3383L55.6049 23.0323L56.8936 22.2839L55.5963 21.5338L56.1224 21.2279L57.418 21.978L58.7136 21.2244L59.2415 21.5304Z" fill="#9EA9C9"/>
<path d="M45.6146 58.4818L47.0119 52.3823C47.0343 52.2838 46.9291 52.2077 46.8429 52.2579L44.143 53.8203C43.8842 53.9707 43.5754 53.727 43.6582 53.4401L46.2063 44.6494C46.2304 44.5665 46.2856 44.4973 46.3598 44.4541L50.4122 42.1104C50.6761 41.9566 50.9901 42.2141 50.8918 42.5045L49.1649 47.6413C49.1304 47.7416 49.2391 47.8297 49.3305 47.7779L51.6301 46.4487C51.9148 46.2845 52.2391 46.5887 52.0925 46.8843L46.2356 58.7083C46.0614 59.0608 45.5266 58.8707 45.6146 58.487V58.4818Z" fill="#F45170"/>
<path d="M13.1732 29.2235C11.3221 29.2235 9.82472 30.7237 9.82472 32.5783C9.82472 31.6519 9.44864 30.8119 8.84484 30.2035C8.23931 29.5985 7.39916 29.2217 6.47449 29.2217C8.32557 29.2217 9.82299 27.7215 9.82299 25.8669C9.82299 26.7933 10.1991 27.6333 10.8029 28.2417C11.4084 28.8467 12.2485 29.2235 13.1732 29.2235Z" fill="white"/>
</g>
<defs>
<clipPath id="clip0_4078_116">
<rect width="68" height="79" fill="white" transform="translate(0 -1.09787)"/>
</clipPath>
</defs>
</svg>
