<svg width="288" height="198" viewBox="0 0 288 198" fill="none" xmlns="http://www.w3.org/2000/svg">
<path d="M80.6757 116.319C81.0674 115.244 81.6449 114.281 82.8663 113.668C83.8355 112.778 84.2271 111.519 84.9242 110.458C85.7075 109.271 86.5903 108.394 87.9711 109.785C88.4822 110.451 88.4822 111.269 88.6282 112.04C88.9668 113.22 89.6837 114.163 90.4205 115.125C92.9519 118.439 95.9103 118.894 99.2957 116.49C102.29 114.328 104.394 116.22 106.511 118.046C107.633 119.707 108.841 120.472 110.78 118.969C112.758 117.433 115.499 117.393 117.524 115.857C119.695 114.4 121.6 112.627 123.578 110.946C124.401 110.352 124.813 109.462 125.277 108.618C125.961 107.366 126.924 106.746 128.444 106.911C130.522 107.135 132.513 106.634 134.412 105.79C135.66 104.88 136.038 103.311 137.113 102.276C138.248 101.762 139.145 100.905 140.087 100.114C142.623 99.8829 144.462 98.8347 145.949 96.58C147.701 93.9297 151.445 94.1406 153.768 92.1232C156.304 91.7738 159.013 92.2683 161.303 90.6597C163.759 90.1059 166.208 89.3807 168.691 90.5014C169.156 90.5542 169.6 90.6728 170.038 90.8179C171.764 90.4882 174.061 90.9431 173.822 88.0028C173.218 86.1634 174.068 85.392 175.834 85.2338C177.334 85.1019 178.881 85.458 180.334 84.8185C180.991 84.4295 181.576 83.9218 182.273 83.5856C184.045 82.3528 186.315 84.0273 188.054 82.6099C188.785 81.5485 189.243 80.3354 189.873 79.2212C190.829 78.1334 190.776 77.0852 189.84 75.9842C188.114 73.947 188.732 72.1933 190.517 70.5386C191.805 69.3453 193.066 68.0992 193.962 66.5631C195.058 65.3632 196.319 64.8094 197.912 65.5808C199.226 66.3917 200.587 67.1235 202.048 67.6575C204.65 68.6135 207.046 69.9979 209.522 71.2044C212.343 71.7384 214.308 69.3716 216.95 69.042C218.377 68.864 217.136 66.906 217.674 65.8643C218.072 62.1855 218.371 58.5199 217.455 54.8676C215.815 51.0438 214.707 47.1606 215.988 42.9874C217.322 40.647 217.023 38.6889 215.317 36.4342C213.591 34.1465 213.246 30.9425 210.817 28.9844C211.932 26.3209 214.029 24.3958 215.994 22.3982C216.831 21.5478 217.992 21.0072 217.388 19.5238C216.937 18.4228 216.154 17.5328 215.497 16.5505C214.204 14.2957 214.631 12.0938 216.778 9.94452C217.176 9.66763 217.614 9.48302 218.092 9.39731C220.462 8.32929 222.752 7.08327 225.361 6.58881C226.682 6.33829 227.631 5.34937 228.501 4.36046C230.552 2.02003 233.446 1.65083 236.247 1.0443C240.124 0.668512 240.881 3.86599 242.321 6.27235C244.492 9.37095 247.552 9.45005 250.845 8.73804C251.615 8.57981 252.205 7.97329 253.002 7.86781C253.334 7.83484 253.633 7.8612 253.911 7.93372C254.535 8.09854 255.033 8.51389 255.465 9.07427C256.321 10.3137 256.454 11.9158 257.47 13.0893C258.386 14.2694 259.388 15.3638 260.676 16.1615C261.572 16.7482 262.302 17.4932 262.893 18.3767C263.504 19.3656 264.201 20.2952 265.103 21.0533C265.422 21.3698 265.674 21.7324 265.88 22.1279C266.431 23.8223 267.387 25.2529 268.721 26.4462C269.558 27.534 270.155 28.7603 270.733 29.9931C271.038 32.9005 273.282 34.1729 275.459 35.5046C275.698 35.709 275.89 35.9529 276.056 36.2101C277.118 39.2295 279.316 41.6227 280.683 44.4642C281.606 46.3893 283.703 46.0399 285.058 47.0683C286.837 50.3713 286.253 52.9293 282.688 54.0896C279.435 55.1445 277.145 57.0168 275.173 59.555C274.41 60.5308 273.892 61.6449 273.381 62.7591C270.865 64.9149 269.465 67.9476 267.334 70.4067C267.088 70.5913 266.816 70.7232 266.524 70.822C264.38 71.4022 262.083 70.9605 259.972 71.7582C259.016 72.3582 257.702 72.7471 258.479 74.336C259.488 76.1885 258.532 78.0609 258.226 79.7882C257.695 82.7747 258.1 85.3327 259.899 87.7259C259.169 90.2773 259.846 92.3078 262.169 93.7319C264.951 96.0789 266.756 98.8808 266.431 102.685C266.225 105.111 268.814 105.21 269.816 106.627C270.367 107.26 270.673 107.979 270.64 108.829C270.142 109.976 270.115 111.124 270.64 112.284C270.66 112.614 270.62 112.937 270.54 113.26C270.381 113.886 270.348 114.532 270.195 115.165C269.909 116.325 269.71 117.169 269.465 117.782C268.841 119.384 267.971 119.411 264.825 119.503C263.424 119.872 262.196 120.512 261.233 121.626C260.41 122.582 259.348 123.083 258.06 123.037L256.952 123.683C254.854 123.815 253.48 124.731 253.141 126.94C252.962 128.133 252.338 129.161 251.482 130.038C250.918 131.126 250.267 132.122 249.105 132.675C248.183 133.117 247.114 133.829 246.961 134.633C246.012 139.558 242.069 139.163 238.538 139.571C238.206 139.611 237.887 139.69 237.568 139.789C236.918 139.888 236.267 139.888 235.617 139.749C232.039 138.991 229.125 139.723 226.622 142.716C224.06 145.775 223.887 145.511 220.502 143.435C218.198 142.024 215.722 140.89 213.764 138.965C212.901 139.143 212.038 139.314 211.175 139.492C208.195 140.666 206.256 143.323 203.462 144.799C200.873 146.171 198.078 147.258 196.425 150.074C195.881 150.997 193.969 150.674 192.734 151.122C191.347 151.999 189.82 152.19 188.353 151.544C185.061 150.08 181.622 149.23 178.064 148.775C177.526 148.709 177.095 148.294 176.703 147.918C176.272 147.575 176.046 147.1 175.807 146.619C174.201 143.382 173.231 143.046 169.733 144.483C167.031 143.323 165.956 144.951 164.874 147.048C163.48 149.737 162.876 153.159 159.178 154.029C158.986 154.22 158.8 154.418 158.608 154.609C156.968 154.741 155.72 155.605 154.585 156.699L154.618 156.68C152.574 157.332 152.886 159.653 151.618 160.859C150.841 162.646 149.128 163.872 148.617 165.817C148.391 167.459 147.927 168.916 145.955 169.206C145.557 169.193 145.159 169.186 144.76 169.173C143.234 169.173 141.7 169.377 140.187 168.995C138.375 169.054 136.536 166.964 134.75 169.067C134.285 172.146 132.301 173.524 129.347 173.801L127.973 174.546C126.778 174.895 125.775 175.607 124.72 176.227C120.75 175.733 117.099 176.339 114.013 179.108C113.747 179.345 113.189 179.352 112.784 179.088C112.539 179.121 112.293 179.154 112.048 179.194C109.611 182.774 107.262 186.406 106.279 190.711C105.695 192.518 105.655 194.937 102.588 193.948C99.455 193.915 96.3218 193.922 93.1886 193.948C90.9582 194.225 89.6704 195.986 88.0242 197.179C85.2627 197.443 82.8995 196.922 81.7909 193.995C81.0076 192.34 81.5121 190.415 80.6691 188.773C80.2774 187.738 79.6734 186.815 79.1091 185.879C77.7749 183.215 76.2813 180.882 72.6104 181.983C71.5947 182.286 71.1168 181.416 70.6123 180.657C69.4905 178.956 68.2425 177.803 66.0917 179.444C65.1159 180.189 63.7219 179.543 62.5735 179.965C61.8101 180.117 61.1795 180.598 60.4427 180.809C57.7011 184.013 53.8642 185.899 50.8107 188.727C47.8169 191.371 44.0265 191.661 40.3357 192.274C38.9616 192.432 38.1584 193.797 36.771 193.922C35.4301 193.942 34.0826 193.962 32.7417 193.909C31.268 193.454 29.8275 192.9 28.3472 192.485C24.517 190.87 23.6474 189.261 24.0656 184.6C24.0656 183.242 24.663 182.002 24.8954 180.69C26.1367 178.937 24.7759 177.368 24.5303 175.719C24.517 175.291 24.5037 174.862 24.4904 174.44C23.3951 173.636 22.2467 172.95 20.8926 172.667C19.0272 172.509 17.1686 172.238 15.3364 172.871C10.8092 174.467 9.00363 178.165 8.09421 182.398C6.34837 182.629 6.48777 180.98 5.64473 180.44C5.28627 180.011 4.92118 179.55 4.9942 178.983C5.41905 175.673 3.24173 173.544 1.46935 171.223C1.06442 169.516 1.85436 168.27 3.04259 167.175C4.66893 165.164 6.96574 164.782 9.35547 164.63C9.74048 164.4 10.1255 164.169 10.5105 163.945C11.878 164.452 13.1326 163.45 14.4801 163.668C15.0709 163.892 15.6883 163.945 16.3122 163.945C17.2681 163.945 18.224 163.945 19.1866 163.945C22.7977 163.852 26.3425 163.51 29.4491 161.407C29.6483 161.136 29.9005 160.932 30.1926 160.774C30.2922 160.734 30.3984 160.695 30.498 160.655C31.1352 160.932 31.819 160.952 32.443 160.668C37.322 158.479 42.898 159.567 47.7704 157.385C48.0957 157.306 48.4011 157.187 48.6865 157.016C49.6557 156.251 50.6182 155.486 51.5874 154.728C52.7026 153.957 53.6319 152.988 54.6077 152.065C54.8201 151.854 55.0193 151.629 55.1852 151.372C56.1677 149.869 57.5484 148.689 58.4778 147.146C59.8187 145.676 59.6394 143.461 61.0268 142.011C62.5337 138.866 65.1093 136.552 67.3795 134C67.5587 133.757 67.7114 133.499 67.8243 133.222C68.5279 131.133 69.6564 129.273 71.0305 127.553C72.1457 126.162 73.3605 124.902 75.113 124.309C75.5046 124.072 75.8631 123.788 76.1817 123.452C77.038 122.331 78.2993 121.679 79.3149 120.736C80.3438 119.266 80.7288 117.769 80.7023 116.259" fill="white" fill-opacity="0.25"/>
<path d="M80.6757 116.319C81.0674 115.244 81.6449 114.281 82.8663 113.668C83.8355 112.778 84.2271 111.519 84.9242 110.458C85.7075 109.271 86.5903 108.394 87.9711 109.785C88.4822 110.451 88.4822 111.269 88.6282 112.04C88.9668 113.22 89.6837 114.163 90.4205 115.125C92.9519 118.439 95.9103 118.894 99.2957 116.49C102.29 114.328 104.394 116.22 106.511 118.046C107.633 119.707 108.841 120.472 110.78 118.969C112.758 117.433 115.499 117.393 117.524 115.857C119.695 114.4 121.6 112.627 123.578 110.946C124.401 110.352 124.813 109.462 125.277 108.618C125.961 107.366 126.924 106.746 128.444 106.911C130.522 107.135 132.513 106.634 134.412 105.79C135.66 104.88 136.038 103.311 137.113 102.276C138.248 101.762 139.145 100.905 140.087 100.114C142.623 99.8829 144.462 98.8347 145.949 96.58C147.701 93.9297 151.445 94.1406 153.768 92.1232C156.304 91.7738 159.013 92.2683 161.303 90.6597C163.759 90.1059 166.208 89.3807 168.691 90.5014C169.156 90.5542 169.6 90.6728 170.038 90.8179C171.764 90.4882 174.061 90.9431 173.822 88.0028C173.218 86.1634 174.068 85.392 175.834 85.2338C177.334 85.1019 178.881 85.458 180.334 84.8185C180.991 84.4295 181.576 83.9218 182.273 83.5856C184.045 82.3528 186.315 84.0273 188.054 82.6099C188.785 81.5485 189.243 80.3354 189.873 79.2212C190.829 78.1334 190.776 77.0852 189.84 75.9842C188.114 73.947 188.732 72.1933 190.517 70.5386C191.805 69.3453 193.066 68.0992 193.962 66.5631C195.058 65.3632 196.319 64.8094 197.912 65.5808C199.226 66.3917 200.587 67.1235 202.048 67.6575C204.65 68.6135 207.046 69.9979 209.522 71.2044C212.343 71.7384 214.308 69.3716 216.95 69.042C218.377 68.864 217.136 66.906 217.674 65.8643C218.072 62.1855 218.371 58.5199 217.455 54.8676C215.815 51.0438 214.707 47.1606 215.988 42.9874C217.322 40.647 217.023 38.6889 215.317 36.4342C213.591 34.1465 213.246 30.9425 210.817 28.9844C211.932 26.3209 214.029 24.3958 215.994 22.3982C216.831 21.5478 217.992 21.0072 217.388 19.5238C216.937 18.4228 216.154 17.5328 215.497 16.5505C214.204 14.2957 214.631 12.0938 216.778 9.94452C217.176 9.66763 217.614 9.48302 218.092 9.39731C220.462 8.32929 222.752 7.08327 225.361 6.58881C226.682 6.33829 227.631 5.34937 228.501 4.36046C230.552 2.02003 233.446 1.65083 236.247 1.0443C240.124 0.668512 240.881 3.86599 242.321 6.27235C244.492 9.37095 247.552 9.45005 250.845 8.73804C251.615 8.57981 252.205 7.97329 253.002 7.86781C253.334 7.83484 253.633 7.8612 253.911 7.93372C254.535 8.09854 255.033 8.51389 255.465 9.07427C256.321 10.3137 256.454 11.9158 257.47 13.0893C258.386 14.2694 259.388 15.3638 260.676 16.1615C261.572 16.7482 262.302 17.4932 262.893 18.3767C263.504 19.3656 264.201 20.2952 265.103 21.0533C265.422 21.3698 265.674 21.7324 265.88 22.1279C266.431 23.8223 267.387 25.2529 268.721 26.4462C269.558 27.534 270.155 28.7603 270.733 29.9931C271.038 32.9005 273.282 34.1729 275.459 35.5046C275.698 35.709 275.89 35.9529 276.056 36.2101C277.118 39.2295 279.316 41.6227 280.683 44.4642C281.606 46.3893 283.703 46.0399 285.058 47.0683C286.837 50.3713 286.253 52.9293 282.688 54.0896C279.435 55.1445 277.145 57.0168 275.173 59.555C274.41 60.5308 273.892 61.6449 273.381 62.7591C270.865 64.9149 269.465 67.9476 267.334 70.4067C267.088 70.5913 266.816 70.7232 266.524 70.822C264.38 71.4022 262.083 70.9605 259.972 71.7582C259.016 72.3582 257.702 72.7471 258.479 74.336C259.488 76.1885 258.532 78.0609 258.226 79.7882C257.695 82.7747 258.1 85.3327 259.899 87.7259C259.169 90.2773 259.846 92.3078 262.169 93.7319C264.951 96.0789 266.756 98.8808 266.431 102.685C266.225 105.111 268.814 105.21 269.816 106.627C270.367 107.26 270.673 107.979 270.64 108.829C270.142 109.976 270.115 111.124 270.64 112.284C270.66 112.614 270.62 112.937 270.54 113.26C270.381 113.886 270.348 114.532 270.195 115.165C269.909 116.325 269.71 117.169 269.465 117.782C268.841 119.384 267.971 119.411 264.825 119.503C263.424 119.872 262.196 120.512 261.233 121.626C260.41 122.582 259.348 123.083 258.06 123.037L256.952 123.683C254.854 123.815 253.48 124.731 253.141 126.94C252.962 128.133 252.338 129.161 251.482 130.038C250.918 131.126 250.267 132.122 249.105 132.675C248.183 133.117 247.114 133.829 246.961 134.633C246.012 139.558 242.069 139.163 238.538 139.571C238.206 139.611 237.887 139.69 237.568 139.789C236.918 139.888 236.267 139.888 235.617 139.749C232.039 138.991 229.125 139.723 226.622 142.716C224.06 145.775 223.887 145.511 220.502 143.435C218.198 142.024 215.722 140.89 213.764 138.965C212.901 139.143 212.038 139.314 211.175 139.492C208.195 140.666 206.256 143.323 203.462 144.799C200.873 146.171 198.078 147.258 196.425 150.074C195.881 150.997 193.969 150.674 192.734 151.122C191.347 151.999 189.82 152.19 188.353 151.544C185.061 150.08 181.622 149.23 178.064 148.775C177.526 148.709 177.095 148.294 176.703 147.918C176.272 147.575 176.046 147.1 175.807 146.619C174.201 143.382 173.231 143.046 169.733 144.483C167.031 143.323 165.956 144.951 164.874 147.048C163.48 149.737 162.876 153.159 159.178 154.029C158.986 154.22 158.8 154.418 158.608 154.609C156.968 154.741 155.72 155.605 154.585 156.699L154.618 156.68C152.574 157.332 152.886 159.653 151.618 160.859C150.841 162.646 149.128 163.872 148.617 165.817C148.391 167.459 147.927 168.916 145.955 169.206C145.557 169.193 145.159 169.186 144.76 169.173C143.234 169.173 141.7 169.377 140.187 168.995C138.375 169.054 136.536 166.964 134.75 169.067C134.285 172.146 132.301 173.524 129.347 173.801L127.973 174.546C126.778 174.895 125.775 175.607 124.72 176.227C120.75 175.733 117.099 176.339 114.013 179.108C113.747 179.345 113.189 179.352 112.784 179.088C112.539 179.121 112.293 179.154 112.048 179.194C109.611 182.774 107.262 186.406 106.279 190.711C105.695 192.518 105.655 194.937 102.588 193.948C99.455 193.915 96.3218 193.922 93.1886 193.948C90.9582 194.225 89.6704 195.986 88.0242 197.179C85.2627 197.443 82.8995 196.922 81.7909 193.995C81.0076 192.34 81.5121 190.415 80.6691 188.773C80.2774 187.738 79.6734 186.815 79.1091 185.879C77.7749 183.215 76.2813 180.882 72.6104 181.983C71.5947 182.286 71.1168 181.416 70.6123 180.657C69.4905 178.956 68.2425 177.803 66.0917 179.444C65.1159 180.189 63.7219 179.543 62.5735 179.965C61.8101 180.117 61.1795 180.598 60.4427 180.809C57.7011 184.013 53.8642 185.899 50.8107 188.727C47.8169 191.371 44.0265 191.661 40.3357 192.274C38.9616 192.432 38.1584 193.797 36.771 193.922C35.4301 193.942 34.0826 193.962 32.7417 193.909C31.268 193.454 29.8275 192.9 28.3472 192.485C24.517 190.87 23.6474 189.261 24.0656 184.6C24.0656 183.242 24.663 182.002 24.8954 180.69C26.1367 178.937 24.7759 177.368 24.5303 175.719C24.517 175.291 24.5037 174.862 24.4904 174.44C23.3951 173.636 22.2467 172.95 20.8926 172.667C19.0272 172.509 17.1686 172.238 15.3364 172.871C10.8092 174.467 9.00363 178.165 8.09421 182.398C6.34837 182.629 6.48777 180.98 5.64473 180.44C5.28627 180.011 4.92118 179.55 4.9942 178.983C5.41905 175.673 3.24173 173.544 1.46935 171.223C1.06442 169.516 1.85436 168.27 3.04259 167.175C4.66893 165.164 6.96574 164.782 9.35547 164.63C9.74048 164.4 10.1255 164.169 10.5105 163.945C11.878 164.452 13.1326 163.45 14.4801 163.668C15.0709 163.892 15.6883 163.945 16.3122 163.945C17.2681 163.945 18.224 163.945 19.1866 163.945C22.7977 163.852 26.3425 163.51 29.4491 161.407C29.6483 161.136 29.9005 160.932 30.1926 160.774C30.2922 160.734 30.3984 160.695 30.498 160.655C31.1352 160.932 31.819 160.952 32.443 160.668C37.322 158.479 42.898 159.567 47.7704 157.385C48.0957 157.306 48.4011 157.187 48.6865 157.016C49.6557 156.251 50.6182 155.486 51.5874 154.728C52.7026 153.957 53.6319 152.988 54.6077 152.065C54.8201 151.854 55.0193 151.629 55.1852 151.372C56.1677 149.869 57.5484 148.689 58.4778 147.146C59.8187 145.676 59.6394 143.461 61.0268 142.011C62.5337 138.866 65.1093 136.552 67.3795 134C67.5587 133.757 67.7114 133.499 67.8243 133.222C68.5279 131.133 69.6564 129.273 71.0305 127.553C72.1457 126.162 73.3605 124.902 75.113 124.309C75.5046 124.072 75.8631 123.788 76.1817 123.452C77.038 122.331 78.2993 121.679 79.3149 120.736C80.3438 119.266 80.7288 117.769 80.7023 116.259" fill="#151329"/>
<path d="M80.6757 116.319C81.0674 115.244 81.6449 114.281 82.8663 113.668C83.8355 112.778 84.2271 111.519 84.9242 110.458C85.7075 109.271 86.5903 108.394 87.9711 109.785C88.4822 110.451 88.4822 111.269 88.6282 112.04C88.9668 113.22 89.6837 114.163 90.4205 115.125C92.9519 118.439 95.9103 118.894 99.2957 116.49C102.29 114.328 104.394 116.22 106.511 118.046C107.633 119.707 108.841 120.472 110.78 118.969C112.758 117.433 115.499 117.393 117.524 115.857C119.695 114.4 121.6 112.627 123.578 110.946C124.401 110.352 124.813 109.462 125.277 108.618C125.961 107.366 126.924 106.746 128.444 106.911C130.522 107.135 132.513 106.634 134.412 105.79C135.66 104.88 136.038 103.311 137.113 102.276C138.248 101.762 139.145 100.905 140.087 100.114C142.623 99.8829 144.462 98.8347 145.949 96.58C147.701 93.9297 151.445 94.1406 153.768 92.1232C156.304 91.7738 159.013 92.2683 161.303 90.6597C163.759 90.1059 166.208 89.3807 168.691 90.5014C169.156 90.5542 169.6 90.6728 170.038 90.8179C171.764 90.4882 174.061 90.9431 173.822 88.0028C173.218 86.1634 174.068 85.392 175.834 85.2338C177.334 85.1019 178.881 85.458 180.334 84.8185C180.991 84.4295 181.576 83.9218 182.273 83.5856C184.045 82.3528 186.315 84.0273 188.054 82.6099C188.785 81.5485 189.243 80.3354 189.873 79.2212C190.829 78.1334 190.776 77.0852 189.84 75.9842C188.114 73.947 188.732 72.1933 190.517 70.5386C191.805 69.3453 193.066 68.0992 193.962 66.5631C195.058 65.3632 196.319 64.8094 197.912 65.5808C199.226 66.3917 200.587 67.1235 202.048 67.6575C204.65 68.6135 207.046 69.9979 209.522 71.2044C212.343 71.7384 214.308 69.3716 216.95 69.042C218.377 68.864 217.136 66.906 217.674 65.8643C218.072 62.1855 218.371 58.5199 217.455 54.8676C215.815 51.0438 214.707 47.1606 215.988 42.9874C217.322 40.647 217.023 38.6889 215.317 36.4342C213.591 34.1465 213.246 30.9425 210.817 28.9844C211.932 26.3209 214.029 24.3958 215.994 22.3982C216.831 21.5478 217.992 21.0072 217.388 19.5238C216.937 18.4228 216.154 17.5328 215.497 16.5505C214.204 14.2957 214.631 12.0938 216.778 9.94452C217.176 9.66763 217.614 9.48302 218.092 9.39731C220.462 8.32929 222.752 7.08327 225.361 6.58881C226.682 6.33829 227.631 5.34937 228.501 4.36046C230.552 2.02003 233.446 1.65083 236.247 1.0443C240.124 0.668512 240.881 3.86599 242.321 6.27235C244.492 9.37095 247.552 9.45005 250.845 8.73804C251.615 8.57981 252.205 7.97329 253.002 7.86781C253.334 7.83484 253.633 7.8612 253.911 7.93372C254.535 8.09854 255.033 8.51389 255.465 9.07427C256.321 10.3137 256.454 11.9158 257.47 13.0893C258.386 14.2694 259.388 15.3638 260.676 16.1615C261.572 16.7482 262.302 17.4932 262.893 18.3767C263.504 19.3656 264.201 20.2952 265.103 21.0533C265.422 21.3698 265.674 21.7324 265.88 22.1279C266.431 23.8223 267.387 25.2529 268.721 26.4462C269.558 27.534 270.155 28.7603 270.733 29.9931C271.038 32.9005 273.282 34.1729 275.459 35.5046C275.698 35.709 275.89 35.9529 276.056 36.2101C277.118 39.2295 279.316 41.6227 280.683 44.4642C281.606 46.3893 283.703 46.0399 285.058 47.0683C286.837 50.3713 286.253 52.9293 282.688 54.0896C279.435 55.1445 277.145 57.0168 275.173 59.555C274.41 60.5308 273.892 61.6449 273.381 62.7591C270.865 64.9149 269.465 67.9476 267.334 70.4067C267.088 70.5913 266.816 70.7232 266.524 70.822C264.38 71.4022 262.083 70.9605 259.972 71.7582C259.016 72.3582 257.702 72.7471 258.479 74.336C259.488 76.1885 258.532 78.0609 258.226 79.7882C257.695 82.7747 258.1 85.3327 259.899 87.7259C259.169 90.2773 259.846 92.3078 262.169 93.7319C264.951 96.0789 266.756 98.8808 266.431 102.685C266.225 105.111 268.814 105.21 269.816 106.627C270.367 107.26 270.673 107.979 270.64 108.829C270.142 109.976 270.115 111.124 270.64 112.284C270.66 112.614 270.62 112.937 270.54 113.26C270.381 113.886 270.348 114.532 270.195 115.165C269.909 116.325 269.71 117.169 269.465 117.782C268.841 119.384 267.971 119.411 264.825 119.503C263.424 119.872 262.196 120.512 261.233 121.626C260.41 122.582 259.348 123.083 258.06 123.037L256.952 123.683C254.854 123.815 253.48 124.731 253.141 126.94C252.962 128.133 252.338 129.161 251.482 130.038C250.918 131.126 250.267 132.122 249.105 132.675C248.183 133.117 247.114 133.829 246.961 134.633C246.012 139.558 242.069 139.163 238.538 139.571C238.206 139.611 237.887 139.69 237.568 139.789C236.918 139.888 236.267 139.888 235.617 139.749C232.039 138.991 229.125 139.723 226.622 142.716C224.06 145.775 223.887 145.511 220.502 143.435C218.198 142.024 215.722 140.89 213.764 138.965C212.901 139.143 212.038 139.314 211.175 139.492C208.195 140.666 206.256 143.323 203.462 144.799C200.873 146.171 198.078 147.258 196.425 150.074C195.881 150.997 193.969 150.674 192.734 151.122C191.347 151.999 189.82 152.19 188.353 151.544C185.061 150.08 181.622 149.23 178.064 148.775C177.526 148.709 177.095 148.294 176.703 147.918C176.272 147.575 176.046 147.1 175.807 146.619C174.201 143.382 173.231 143.046 169.733 144.483C167.031 143.323 165.956 144.951 164.874 147.048C163.48 149.737 162.876 153.159 159.178 154.029C158.986 154.22 158.8 154.418 158.608 154.609C156.968 154.741 155.72 155.605 154.585 156.699L154.618 156.68C152.574 157.332 152.886 159.653 151.618 160.859C150.841 162.646 149.128 163.872 148.617 165.817C148.391 167.459 147.927 168.916 145.955 169.206C145.557 169.193 145.159 169.186 144.76 169.173C143.234 169.173 141.7 169.377 140.187 168.995C138.375 169.054 136.536 166.964 134.75 169.067C134.285 172.146 132.301 173.524 129.347 173.801L127.973 174.546C126.778 174.895 125.775 175.607 124.72 176.227C120.75 175.733 117.099 176.339 114.013 179.108C113.747 179.345 113.189 179.352 112.784 179.088C112.539 179.121 112.293 179.154 112.048 179.194C109.611 182.774 107.262 186.406 106.279 190.711C105.695 192.518 105.655 194.937 102.588 193.948C99.455 193.915 96.3218 193.922 93.1886 193.948C90.9582 194.225 89.6704 195.986 88.0242 197.179C85.2627 197.443 82.8995 196.922 81.7909 193.995C81.0076 192.34 81.5121 190.415 80.6691 188.773C80.2774 187.738 79.6734 186.815 79.1091 185.879C77.7749 183.215 76.2813 180.882 72.6104 181.983C71.5947 182.286 71.1168 181.416 70.6123 180.657C69.4905 178.956 68.2425 177.803 66.0917 179.444C65.1159 180.189 63.7219 179.543 62.5735 179.965C61.8101 180.117 61.1795 180.598 60.4427 180.809C57.7011 184.013 53.8642 185.899 50.8107 188.727C47.8169 191.371 44.0265 191.661 40.3357 192.274C38.9616 192.432 38.1584 193.797 36.771 193.922C35.4301 193.942 34.0826 193.962 32.7417 193.909C31.268 193.454 29.8275 192.9 28.3472 192.485C24.517 190.87 23.6474 189.261 24.0656 184.6C24.0656 183.242 24.663 182.002 24.8954 180.69C26.1367 178.937 24.7759 177.368 24.5303 175.719C24.517 175.291 24.5037 174.862 24.4904 174.44C23.3951 173.636 22.2467 172.95 20.8926 172.667C19.0272 172.509 17.1686 172.238 15.3364 172.871C10.8092 174.467 9.00363 178.165 8.09421 182.398C6.34837 182.629 6.48777 180.98 5.64473 180.44C5.28627 180.011 4.92118 179.55 4.9942 178.983C5.41905 175.673 3.24173 173.544 1.46935 171.223C1.06442 169.516 1.85436 168.27 3.04259 167.175C4.66893 165.164 6.96574 164.782 9.35547 164.63C9.74048 164.4 10.1255 164.169 10.5105 163.945C11.878 164.452 13.1326 163.45 14.4801 163.668C15.0709 163.892 15.6883 163.945 16.3122 163.945C17.2681 163.945 18.224 163.945 19.1866 163.945C22.7977 163.852 26.3425 163.51 29.4491 161.407C29.6483 161.136 29.9005 160.932 30.1926 160.774C30.2922 160.734 30.3984 160.695 30.498 160.655C31.1352 160.932 31.819 160.952 32.443 160.668C37.322 158.479 42.898 159.567 47.7704 157.385C48.0957 157.306 48.4011 157.187 48.6865 157.016C49.6557 156.251 50.6182 155.486 51.5874 154.728C52.7026 153.957 53.6319 152.988 54.6077 152.065C54.8201 151.854 55.0193 151.629 55.1852 151.372C56.1677 149.869 57.5484 148.689 58.4778 147.146C59.8187 145.676 59.6394 143.461 61.0268 142.011C62.5337 138.866 65.1093 136.552 67.3795 134C67.5587 133.757 67.7114 133.499 67.8243 133.222C68.5279 131.133 69.6564 129.273 71.0305 127.553C72.1457 126.162 73.3605 124.902 75.113 124.309C75.5046 124.072 75.8631 123.788 76.1817 123.452C77.038 122.331 78.2993 121.679 79.3149 120.736C80.3438 119.266 80.7288 117.769 80.7023 116.259" stroke="white" stroke-width="2" stroke-linecap="round" stroke-linejoin="round"/>
</svg>
