<svg width="180" height="171" viewBox="0 0 180 171" fill="none" xmlns="http://www.w3.org/2000/svg">
<path d="M5.00099 166.319C5.39264 165.244 5.97015 164.281 7.19157 163.668C8.16074 162.778 8.5524 161.519 9.2494 160.458C10.0327 159.271 10.9156 158.394 12.2963 159.785C12.8074 160.451 12.8074 161.269 12.9535 162.04C13.292 163.22 14.009 164.163 14.7458 165.125C17.2771 168.439 20.2355 168.894 23.621 166.49C26.6148 164.328 28.7191 166.22 30.8367 168.046C31.9585 169.707 33.1667 170.472 35.105 168.969C37.0832 167.433 39.8247 167.393 41.8493 165.857C44.02 164.4 45.9252 162.627 47.9033 160.946C48.7265 160.352 49.138 159.462 49.6027 158.618C50.2864 157.366 51.249 156.746 52.7691 156.911C54.8468 157.135 56.8383 156.634 58.7368 155.79C59.9848 154.88 60.3631 153.311 61.4385 152.276C62.5736 151.762 63.4698 150.905 64.4124 150.114C66.9482 149.883 68.7869 148.835 70.2739 146.58C72.0264 143.93 75.7703 144.141 78.0936 142.123C80.6294 141.774 83.3378 142.268 85.6279 140.66C88.0841 140.106 90.5335 139.381 93.0162 140.501C93.4809 140.554 93.9256 140.673 94.3637 140.818C96.0897 140.488 98.3865 140.943 98.1475 138.003C97.5434 136.163 98.3931 135.392 100.159 135.234C101.659 135.102 103.206 135.458 104.66 134.818C105.317 134.429 105.901 133.922 106.598 133.586C108.37 132.353 110.64 134.027 112.38 132.61C113.11 131.548 113.568 130.335 114.199 129.221C115.154 128.133 115.101 127.085 114.165 125.984C112.439 123.947 113.057 122.193 114.842 120.539C116.13 119.345 117.391 118.099 118.288 116.563C119.383 115.363 120.644 114.809 122.237 115.581C123.552 116.392 124.912 117.124 126.373 117.658C128.975 118.613 131.371 119.998 133.847 121.204C136.669 121.738 138.634 119.372 141.276 119.042C142.703 118.864 141.461 116.906 141.999 115.864C142.397 112.186 142.696 108.52 141.78 104.868C140.14 101.044 139.032 97.1606 140.313 92.9874C141.647 90.647 141.349 88.6889 139.643 86.4342C137.917 84.1465 137.571 80.9425 135.142 78.9844C136.257 76.3209 138.355 74.3958 140.32 72.3982C141.156 71.5478 142.318 71.0072 141.714 69.5238C141.262 68.4228 140.479 67.5328 139.822 66.5505C138.53 64.2957 138.957 62.0938 141.103 59.9445C141.501 59.6676 141.939 59.483 142.417 59.3973C144.787 58.3293 147.077 57.0833 149.686 56.5888C151.007 56.3383 151.956 55.3494 152.826 54.3604C154.877 52.02 157.771 51.6508 160.573 51.0443C164.449 50.6685 165.206 53.866 166.647 56.2723C168.817 59.3709 171.877 59.45 175.17 58.738C175.94 58.5798 176.531 57.9733 177.327 57.8678C177.659 57.8348 177.958 57.8612 178.237 57.9337C177.619 57.4986 176.936 57.1426 176.385 56.6218C174.121 54.4791 173.524 53.3518 174.685 51.9145C173.378 52.3101 172.063 51.9343 170.742 50.563C169.083 49.5477 167.894 47.8864 166.036 47.1348C163.6 46.1063 162.053 44.2274 161.011 41.8869C159.703 39.474 156.736 40.186 154.924 38.7224C153.835 37.9906 152.693 37.3709 151.419 37.0215C150.522 36.9028 149.62 36.9556 148.717 36.9622C147.914 36.9951 147.144 37.3379 146.321 37.1731C143.3 36.9819 142.597 34.6085 141.627 32.3868C140.97 30.8836 140.419 29.3607 139.941 27.8048C139.782 22.5834 136.861 19.2079 132.467 16.8147C128.019 16.3993 123.552 16.1224 119.177 15.1731C114.524 13.7425 109.705 13.571 104.905 13.2216C97.643 14.0523 91.204 10.7625 84.4198 9.17368C80.3705 7.74964 76.2217 6.64865 72.106 5.41581C70.6656 4.9675 69.2118 4.54557 67.9041 3.77422C67.6319 3.6094 67.3664 3.43139 67.0809 3.29294C65.3019 2.40951 64.4722 2.00076 64.3328 1.29533C63.7752 2.62707 63.3038 4.00496 62.5537 5.2444C61.7173 6.30583 62.1023 7.42661 62.3811 8.55397C62.4475 9.18028 62.3745 9.7934 62.1355 10.3802C60.403 12.18 61.8634 15.206 59.6396 16.8147C57.449 18.2255 54.7738 17.4278 52.4837 18.3574C50.532 19.6298 48.2618 20.2825 46.2903 21.5087C43.4491 24.0931 40.1301 26.4071 40.7806 30.9891C41.305 32.6373 42.5198 33.8767 43.3695 35.3337C44.3785 37.2852 44.1262 39.2169 43.2965 41.1354C41.5374 44.2274 41.0395 47.2205 43.7545 50.1411C45.0224 51.4992 45.414 53.4968 46.9209 54.7296C47.3325 55.2637 47.6046 55.8504 47.671 56.5229C47.4055 58.3227 47.1267 60.1225 47.91 61.8762C48.2419 63.854 47.6843 65.911 48.441 67.8558C49.0451 69.7611 49.1845 71.7324 49.1181 73.7036C49.065 75.332 48.2552 77.0132 46.9475 77.5933C41.9688 79.8019 39.2605 84.8585 34.3814 87.1067C32.8082 87.8385 31.9519 89.0581 31.8722 90.7986C31.1885 92.3875 31.932 93.6862 32.7153 94.9784C35.0984 97.754 37.0765 100.655 35.802 104.591C35.1116 106.358 33.8902 107.821 32.3767 108.823C28.7523 111.21 28.8651 114.598 29.4028 118.205C29.6617 119.352 29.363 120.288 28.3208 120.928C26.6414 121.56 24.8955 121.244 23.1762 121.27C21.3906 121.125 19.439 119.372 17.9056 121.785C17.2617 123.222 16.8434 124.712 16.7771 126.301C16.412 128.601 14.7723 129.142 12.7543 129.287C11.5728 129.373 10.4509 129.966 9.22285 129.795C6.82647 129.043 5.80419 129.979 6.33525 132.346C6.70698 134.014 6.79992 135.867 8.37316 137.06C10.046 138.741 9.25605 140.976 9.734 142.921C9.77382 143.026 9.80037 143.132 9.84683 143.231C11.8449 147.773 11.2143 148.769 6.18258 149.032C4.35045 149.243 3.48749 150.555 2.7573 152.026C2.45194 154.867 0.865429 157.748 3.09585 160.484C3.44767 160.833 3.71318 161.236 3.93224 161.677C4.52967 163.207 4.96116 164.736 4.98108 166.246" fill="#151329"/>
<path d="M5.00099 166.319C5.39264 165.244 5.97015 164.281 7.19157 163.668C8.16074 162.778 8.5524 161.519 9.2494 160.458C10.0327 159.271 10.9156 158.394 12.2963 159.785C12.8074 160.451 12.8074 161.269 12.9535 162.04C13.292 163.22 14.009 164.163 14.7458 165.125C17.2771 168.439 20.2355 168.894 23.621 166.49C26.6148 164.328 28.7191 166.22 30.8367 168.046C31.9585 169.707 33.1667 170.472 35.105 168.969C37.0832 167.433 39.8247 167.393 41.8493 165.857C44.02 164.4 45.9252 162.627 47.9033 160.946C48.7265 160.352 49.138 159.462 49.6027 158.618C50.2864 157.366 51.249 156.746 52.7691 156.911C54.8468 157.135 56.8383 156.634 58.7368 155.79C59.9848 154.88 60.3631 153.311 61.4385 152.276C62.5736 151.762 63.4698 150.905 64.4124 150.114C66.9482 149.883 68.7869 148.835 70.2739 146.58C72.0264 143.93 75.7703 144.141 78.0936 142.123C80.6294 141.774 83.3378 142.268 85.6279 140.66C88.0841 140.106 90.5335 139.381 93.0162 140.501C93.4809 140.554 93.9256 140.673 94.3637 140.818C96.0897 140.488 98.3865 140.943 98.1475 138.003C97.5434 136.163 98.3931 135.392 100.159 135.234C101.659 135.102 103.206 135.458 104.66 134.818C105.317 134.429 105.901 133.922 106.598 133.586C108.37 132.353 110.64 134.027 112.38 132.61C113.11 131.548 113.568 130.335 114.199 129.221C115.154 128.133 115.101 127.085 114.165 125.984C112.439 123.947 113.057 122.193 114.842 120.539C116.13 119.345 117.391 118.099 118.288 116.563C119.383 115.363 120.644 114.809 122.237 115.581C123.552 116.392 124.912 117.124 126.373 117.658C128.975 118.613 131.371 119.998 133.847 121.204C136.669 121.738 138.634 119.372 141.276 119.042C142.703 118.864 141.461 116.906 141.999 115.864C142.397 112.186 142.696 108.52 141.78 104.868C140.14 101.044 139.032 97.1606 140.313 92.9874C141.647 90.647 141.349 88.6889 139.643 86.4342C137.917 84.1465 137.571 80.9425 135.142 78.9844C136.257 76.3209 138.355 74.3958 140.32 72.3982C141.156 71.5478 142.318 71.0072 141.714 69.5238C141.262 68.4228 140.479 67.5328 139.822 66.5505C138.53 64.2957 138.957 62.0938 141.103 59.9445C141.501 59.6676 141.939 59.483 142.417 59.3973C144.787 58.3293 147.077 57.0833 149.686 56.5888C151.007 56.3383 151.956 55.3494 152.826 54.3604C154.877 52.02 157.771 51.6508 160.573 51.0443C164.449 50.6685 165.206 53.866 166.647 56.2723C168.817 59.3709 171.877 59.45 175.17 58.738C175.94 58.5798 176.531 57.9733 177.327 57.8678C177.659 57.8348 177.958 57.8612 178.237 57.9337C177.619 57.4986 176.936 57.1426 176.385 56.6218C174.121 54.4791 173.524 53.3518 174.685 51.9145C173.378 52.3101 172.063 51.9343 170.742 50.563C169.083 49.5477 167.894 47.8864 166.036 47.1348C163.6 46.1063 162.053 44.2274 161.011 41.8869C159.703 39.474 156.736 40.186 154.924 38.7224C153.835 37.9906 152.693 37.3709 151.419 37.0215C150.522 36.9028 149.62 36.9556 148.717 36.9622C147.914 36.9951 147.144 37.3379 146.321 37.1731C143.3 36.9819 142.597 34.6085 141.627 32.3868C140.97 30.8836 140.419 29.3607 139.941 27.8048C139.782 22.5834 136.861 19.2079 132.467 16.8147C128.019 16.3993 123.552 16.1224 119.177 15.1731C114.524 13.7425 109.705 13.571 104.905 13.2216C97.643 14.0523 91.204 10.7625 84.4198 9.17368C80.3705 7.74964 76.2217 6.64865 72.106 5.41581C70.6656 4.9675 69.2118 4.54557 67.9041 3.77422C67.6319 3.6094 67.3664 3.43139 67.0809 3.29294C65.3019 2.40951 64.4722 2.00076 64.3328 1.29533C63.7752 2.62707 63.3038 4.00496 62.5537 5.2444C61.7173 6.30583 62.1023 7.42661 62.3811 8.55397C62.4475 9.18028 62.3745 9.7934 62.1355 10.3802C60.403 12.18 61.8634 15.206 59.6396 16.8147C57.449 18.2255 54.7738 17.4278 52.4837 18.3574C50.532 19.6298 48.2618 20.2825 46.2903 21.5087C43.4491 24.0931 40.1301 26.4071 40.7806 30.9891C41.305 32.6373 42.5198 33.8767 43.3695 35.3337C44.3785 37.2852 44.1262 39.2169 43.2965 41.1354C41.5374 44.2274 41.0395 47.2205 43.7545 50.1411C45.0224 51.4992 45.414 53.4968 46.9209 54.7296C47.3325 55.2637 47.6046 55.8504 47.671 56.5229C47.4055 58.3227 47.1267 60.1225 47.91 61.8762C48.2419 63.854 47.6843 65.911 48.441 67.8558C49.0451 69.7611 49.1845 71.7324 49.1181 73.7036C49.065 75.332 48.2552 77.0132 46.9475 77.5933C41.9688 79.8019 39.2605 84.8585 34.3814 87.1067C32.8082 87.8385 31.9519 89.0581 31.8722 90.7986C31.1885 92.3875 31.932 93.6862 32.7153 94.9784C35.0984 97.754 37.0765 100.655 35.802 104.591C35.1116 106.358 33.8902 107.821 32.3767 108.823C28.7523 111.21 28.8651 114.598 29.4028 118.205C29.6617 119.352 29.363 120.288 28.3208 120.928C26.6414 121.56 24.8955 121.244 23.1762 121.27C21.3906 121.125 19.439 119.372 17.9056 121.785C17.2617 123.222 16.8434 124.712 16.7771 126.301C16.412 128.601 14.7723 129.142 12.7543 129.287C11.5728 129.373 10.4509 129.966 9.22285 129.795C6.82647 129.043 5.80419 129.979 6.33525 132.346C6.70698 134.014 6.79992 135.867 8.37316 137.06C10.046 138.741 9.25605 140.976 9.734 142.921C9.77382 143.026 9.80037 143.132 9.84683 143.231C11.8449 147.773 11.2143 148.769 6.18258 149.032C4.35045 149.243 3.48749 150.555 2.7573 152.026C2.45194 154.867 0.865429 157.748 3.09585 160.484C3.44767 160.833 3.71318 161.236 3.93224 161.677C4.52967 163.207 4.96116 164.736 4.98108 166.246" stroke="white" stroke-width="2" stroke-linecap="round" stroke-linejoin="round"/>
</svg>
