<svg width="93" height="90" viewBox="0 0 93 90" fill="none" xmlns="http://www.w3.org/2000/svg">
<g clip-path="url(#clip0_4082_165)">
<path d="M8.39323 84.199C6.51924 85.7541 5.62197 87.5713 5.42042 89.148L5.4243 89.1519C5.35841 89.6624 5.39135 89.9718 5.39135 89.9718C-4.72084 80.5135 5.08128 75.0166 8.73818 73.4123C9.72654 72.9748 10.8079 72.7737 11.8563 72.9807C16.5733 73.9405 11.7265 81.4358 8.39129 84.201L8.39323 84.199Z" fill="#39C988"/>
<path d="M8.39324 84.1991C6.51925 85.7541 5.62198 87.5713 5.42043 89.148C-2.93792 80.3144 6.28863 75.1605 9.80794 73.6153C10.8292 73.164 11.8699 73.0398 12.3718 73.1147C16.3601 74.516 11.3137 81.7748 8.39324 84.1971V84.1991Z" fill="#49E4A3"/>
<path d="M5.1782 82.8037C4.8158 84.1478 5.06774 85.762 5.05611 85.6654C5.0658 85.7561 4.92627 85.7777 4.90689 85.6891C4.68984 84.7332 4.55224 83.728 4.70534 82.7288C5.15494 79.5852 7.38746 76.7865 9.6064 75.0797C9.92229 74.8373 10.3835 74.8826 10.6374 75.1822C10.9106 75.5054 10.8254 75.9824 10.4591 76.209C9.8002 76.7904 6.25376 78.6746 5.1782 82.8056V82.8037Z" fill="#39C988"/>
<path d="M27.6641 89.6506C27.5672 89.556 26.0769 87.0529 21.8309 86.2192C17.5849 85.3895 13.9415 83.0382 12.2265 78.8027C10.5133 74.6008 19.0422 70.2786 23.6545 75.9016C23.6545 75.9016 29.5865 82.9278 27.7145 89.4752C27.7029 89.5323 27.6854 89.5954 27.666 89.6506H27.6641Z" fill="#39C988"/>
<path d="M27.6642 89.6506C27.5673 89.556 26.077 87.0529 21.831 86.2192C17.585 85.3895 13.9416 83.0382 12.2266 78.8027C12.0793 78.4401 12.0076 78.0774 12.0114 77.7187C13.3874 74.5811 19.6741 72.6653 23.3833 77.1905C23.3833 77.1905 28.5595 83.3259 27.7127 89.4752C27.701 89.5323 27.6836 89.5954 27.6642 89.6506Z" fill="#49E4A3"/>
<path d="M18.0229 77.2201C18.1198 77.2733 22.1488 77.9671 24.2069 81.8911C24.8909 82.9298 25.4743 85.1136 25.5092 85.2259C25.5498 85.352 25.3774 85.4289 25.327 85.3087C25.2844 85.2101 24.5305 83.1328 23.7844 82.2065C22.3406 79.9695 19.6488 78.4894 17.0171 78.446C16.1004 78.3987 15.366 78.5406 15.4628 78.5248C15.0675 78.5879 14.707 78.2923 14.6567 77.8666C14.6063 77.4409 14.8873 77.0427 15.2826 76.9797C16.1004 76.8496 17.4299 77.1117 18.0229 77.2201Z" fill="#39C988"/>
<path d="M58.5025 30.6543C58.5025 32.6568 58.3068 34.6316 57.9153 36.5355C57.5994 38.1891 57.0936 39.8565 56.7971 40.5699V40.5837C55.7603 43.7451 53.5588 47.5371 51.2081 50.2017C51.2081 50.3338 49.1829 52.354 49.0569 52.419C40.3304 60.6495 27.7686 62.4391 17.358 57.7325C17.3406 57.7148 15.7476 57.0624 13.0558 55.3162C13.0131 55.2886 12.9434 55.2591 12.9027 55.2019C12.8406 55.1704 12.6565 55.0659 12.6081 55.0166C3.28464 48.4654 -1.26177 37.2884 0.302149 26.5056C0.329281 26.2218 0.371915 25.9518 0.41455 25.6817V25.668C0.457185 25.4985 0.484316 25.3132 0.513385 25.1279C1.85638 17.8947 5.79235 11.444 11.7302 6.91285C11.7302 6.89906 11.7438 6.89906 11.7438 6.89906C14.3077 4.72515 19.6467 2.27729 22.7106 1.75501C28.1834 0.270917 35.875 0.848391 42.1017 4.01366C42.1152 4.01366 42.1288 4.01366 42.1443 4.02746C44.7683 5.16861 48.8748 8.23336 51.2255 11.0892C51.5104 11.3809 52.5414 12.6876 52.7332 12.9931C56.3649 17.9085 58.5025 24.0321 58.5025 30.6543Z" fill="#71D8F8"/>
<path d="M16.1877 44.578C15.7788 47.7196 15.242 49.0401 14.9241 50.4769C14.8466 50.814 14.9571 51.1963 14.8912 51.5333C14.7362 52.5227 14.4707 53.5003 14.3486 54.4877C14.2827 55.0159 14.4261 55.5658 14.4707 56.1393C14.1548 55.9679 12.6568 55.1125 12.6083 55.0159C3.4864 48.6223 -1.25575 37.5951 0.296544 26.4989C0.57367 26.6901 0.839169 26.8813 1.10467 27.0725C1.14924 27.0271 1.19381 26.9818 1.23839 26.9385C0.961259 26.5226 0.695761 26.0949 0.430262 25.6791V25.6672C0.45158 25.4879 0.486463 25.3085 0.519408 25.1272C1.0349 25.5371 1.08141 25.616 2.21511 26.8912C2.30425 26.9917 2.44766 27.0942 2.47092 27.2065C2.89145 29.14 4.7325 29.1735 6.00573 29.948C6.08325 30.0032 6.26154 29.8692 6.38169 29.881C6.70339 29.9027 7.03478 29.9027 7.32353 30.015C9.12194 30.7443 9.34674 31.0813 10.0715 31.645C11.7963 33.0108 11.9979 33.2079 12.0657 33.1054C12.4862 32.6777 12.8195 32.5102 13.1858 33.2177C13.5618 33.9588 13.5521 34.6112 12.9978 35.2399C12.9319 35.3187 12.8757 35.4311 12.7866 35.4863C12.244 35.845 11.9223 36.251 12.2207 36.9585C12.2866 37.1162 12.0773 37.3626 12.0541 37.5774C12.0327 37.8139 12.0211 38.0839 12.1316 38.2731C12.6742 39.229 13.2401 40.1829 13.8486 41.1053C14.1044 41.4995 14.4242 41.9252 14.8234 42.1381C16.0985 42.8121 16.3524 43.1609 16.1858 44.5761L16.1877 44.578Z" fill="#39C988"/>
<path d="M14.2846 28.1505C13.0908 27.78 12.1296 27.4824 11.2362 27.2045C11.8874 26.765 13.023 27.033 14.2846 28.1505Z" fill="#84DBFF"/>
<path d="M16.8 29C16.1256 28.9271 15.5713 28.868 14.9396 28.801C15.5694 28.0284 16.3252 28.0757 16.8 29Z" fill="#84DBFF"/>
<path d="M58.5027 30.6535C58.5027 32.656 58.3069 34.6308 57.9155 36.5347C57.5996 38.1883 57.0938 39.8557 56.7973 40.5692V40.5829C55.7605 43.7443 53.559 47.5363 51.2082 50.2009C51.2082 50.3034 49.9563 51.5727 49.6017 51.9058C38.2318 55.5145 25.9316 51.9058 18.769 43.9926C6.94947 31.434 9.44555 11.7132 23.5073 2.17993H23.5208C23.9394 1.88233 24.3735 1.59655 24.8057 1.32653C42.4332 -1.45835 58.5027 12.4523 58.5027 30.6516V30.6535Z" fill="#95E2FE"/>
<path d="M55.4291 21.8732C53.7799 21.887 53.6539 21.5894 52.9427 20.0403C52.6772 20.1822 52.4117 20.3103 52.1597 20.466C52.5783 21.3608 52.5512 21.4613 51.5881 21.7313C51.0842 21.0356 50.6792 20.2256 50.1075 19.6284C49.5338 19.0312 48.78 18.6488 48.1094 18.1364C48.0261 18.2645 47.9408 18.3788 47.844 18.505C48.5145 19.0726 49.1714 19.6126 49.8555 20.1822C49.7567 20.3951 49.6598 20.6651 49.6036 20.8365C48.7625 20.3103 47.5184 19.7013 47.2568 19.3012C46.53 18.1226 45.6773 19.7269 44.9235 19.1455C44.8673 19.1021 44.5456 19.317 44.406 19.4589C42.1212 21.8949 43.0068 21.347 40.9546 21.9166C40.7026 21.8023 40.4371 21.619 40.1716 21.548C39.5844 21.3766 39.3054 21.1223 39.5709 20.468C39.6697 20.2256 39.6135 19.9713 39.5709 19.7289C39.474 18.4872 40.7375 19.1002 41.8751 18.976C42.1406 18.9189 42.5882 18.6488 42.6154 18.4222C42.6425 18.166 42.4061 17.7974 42.1968 17.5412C42.0573 17.3855 41.7646 17.3559 41.3732 17.1569C42.2821 16.8869 43.0068 16.674 43.9022 16.404C42.8964 16.0492 41.8906 16.5892 41.1774 15.7083C41.4429 15.4244 41.6387 15.1958 41.9042 14.8411C41.5263 14.7267 41.2472 14.6854 40.941 14.5848C40.8131 15.5427 41.16 15.1426 39.5437 15.9625C39.4604 15.6353 39.2647 15.1958 39.3906 14.9968C39.6135 14.713 40.0747 14.571 40.41 14.3582C40.4933 14.3444 40.536 14.2872 40.5922 14.2301C40.5224 13.9877 40.4798 13.7906 40.41 13.5915C40.7026 13.4358 40.9972 13.2072 41.2472 13.2072C41.596 13.1934 42.2665 13.3353 42.2801 13.4772C42.3227 14.5001 43.2588 14.8411 43.72 15.5368C44.1948 16.2049 44.4642 15.8226 46.3614 14.8824C46.1521 14.029 46.2917 13.832 47.2141 13.8733C47.0882 14.5829 47.4661 14.8391 48.1075 14.8253C49.0435 14.7819 49.966 14.7977 50.9292 14.7977C50.9563 13.8596 51.3478 13.4476 52.1442 13.5895C51.7257 12.8367 51.2373 12.1114 50.747 11.4294C50.4253 11.5851 50.0765 11.6856 49.6017 11.8847C49.9641 12.1981 50.1598 12.34 50.371 12.5095C49.4079 14.1434 49.1559 14.2991 47.842 14.2281C47.6889 13.8162 47.5203 13.4043 47.3672 13.0495C47.2141 13.0771 47.1444 13.0633 47.1017 13.0771C46.7103 13.5028 46.1928 13.6881 45.7742 13.3333C45.4661 13.0909 45.2297 12.5233 45.2994 12.1961C45.3692 11.8551 45.844 11.5713 46.1928 11.3585C47.3885 10.4992 48.1753 10.1779 49.1269 9.31268C49.0707 9.22793 49.0009 9.17078 48.904 9.07026C47.9389 7.93896 47.2819 7.32207 47.185 7.22353C45.0921 5.58571 42.8208 4.32236 42.1425 4.02672C42.129 4.01293 42.1154 4.01293 42.0999 4.01293C32.9741 -0.628546 21.1178 -0.0589563 11.9959 6.71306C12.0521 6.72686 12.1083 6.74065 12.149 6.79781C12.0094 6.84117 11.8835 6.85497 11.7304 6.91212C11.4513 7.12498 11.1587 7.35163 10.8777 7.59405C12.399 6.80964 13.7032 7.58026 15.8233 8.24839C16.3717 8.43366 17.2147 8.30358 17.4027 9.22793C17.4163 9.31268 17.612 9.34224 17.738 9.4132C18.3523 9.62605 18.9666 9.85271 19.581 10.0675C19.0364 11.2757 18.1837 10.2094 17.4434 10.4223C17.8349 10.8204 18.1411 11.1476 18.4356 11.459C18.3794 11.5437 18.3368 11.6443 18.267 11.7428C16.9182 11.5772 13.8447 11.0766 13.5733 11.0175C13.3912 10.9899 13.2788 10.846 13.1121 10.7475C13.6199 10.2843 12.9706 10.5918 15.0966 9.85271C15.0694 9.7246 15.0132 9.61029 14.9842 9.45459C14.5656 9.61029 14.1315 9.7246 13.6431 9.8665C13.7264 9.53933 13.7826 9.31268 13.8815 8.98551H11.6877C11.8835 9.34027 11.9959 9.55313 12.2052 9.90986C11.4784 9.99461 10.8777 10.0813 10.1509 10.1937C10.9339 10.4913 11.618 10.7909 12.3021 11.0471C12.2885 11.118 12.2594 11.2166 12.2459 11.2737C11.618 11.2304 11.0017 11.1752 10.2071 11.1318C10.1936 11.118 10.0405 10.9052 9.89901 10.7199C8.8874 11.2993 8.00564 11.6127 7.28666 12.0838C6.6859 12.4681 6.6859 12.8938 7.32736 13.1914C8.30602 13.6171 9.35251 14.0448 10.4145 14.2281C11.2943 14.37 11.868 14.711 12.1897 15.5644C12.2168 15.6787 12.554 15.7496 12.7342 15.7358C12.8331 15.7083 12.9435 15.4225 12.93 15.2668C12.8873 14.983 12.7769 14.6992 12.7342 14.4863C13.5656 14.098 13.9357 14.1946 13.3079 13.2643C12.9455 12.7105 13.3505 11.6876 14.0055 11.7448C14.2439 11.7724 14.4667 11.7881 14.6896 11.8295C15.2904 11.9143 15.9047 12.0719 16.4783 12.1981C16.7012 13.3924 17.0365 13.4062 18.1818 12.5115C22.577 16.0729 21.5228 15.2293 21.7728 15.4244C21.6468 15.6945 21.5209 16.0078 21.3813 16.2483C22.1662 16.7804 22.5867 17.0761 22.7786 17.214C22.7359 17.2712 22.7088 17.3559 22.6255 17.3993H20.4046C20.455 17.2988 21.2166 15.9191 21.2709 15.8226C20.7612 16.0394 19.8213 16.5321 18.9666 16.8888C18.1527 16.061 17.6992 16.2167 16.8562 17.2022C17.2748 17.0741 17.5268 16.946 17.7651 16.9322C17.9027 16.9322 18.3368 17.0307 18.3794 17.1588C18.519 17.9689 19.1062 17.9117 19.6779 17.9117C19.8542 17.9117 20.0073 18.1403 20.2496 18.3512C19.9976 18.4498 19.7612 18.5365 19.5655 18.5937C17.9027 19.2046 17.862 19.1475 17.4841 18.5937C16.6566 18.8144 15.864 18.6784 16.1159 20.0423C14.707 19.52 14.6915 21.0514 14.0055 21.4633C13.8795 21.8476 13.6974 22.23 13.4319 22.5C12.3137 23.5919 11.5792 23.4322 12.0075 24.4177C12.2013 24.8513 12.2459 25.4327 12.399 26.0082C12.2866 26.0358 12.147 26.1067 12.0501 26.1501C11.7129 25.6928 11.1703 24.6778 10.6257 24.4157C9.38158 23.7476 8.13936 24.8414 6.8952 24.5142C6.81186 24.5004 6.75566 24.6128 6.6859 24.6424C5.61034 25.0681 5.7363 26.091 5.65297 26.9444C5.55414 27.7978 6.08707 28.3082 6.72853 28.6926C7.14713 28.9488 8.09672 28.6216 8.22269 28.1663C8.43198 27.3425 9.11608 27.5553 9.50754 27.6973C10.0947 27.853 9.61994 28.2806 9.50754 28.6354C9.41065 28.9192 9.43778 29.2464 9.42421 29.5735C9.42421 29.6307 9.41065 29.7017 9.41065 29.7588C9.73235 29.7726 10.0385 29.8022 10.3467 29.7864C10.9184 29.7155 11.2691 30.0564 11.1839 30.624C11.1839 30.6516 11.1839 30.6674 11.1703 30.695C11.1432 31.0084 11.0308 31.3198 11.1296 31.6036C11.242 31.9445 11.5773 32.457 11.7304 32.457C12.4513 32.3348 13.0288 32.1337 13.616 32.5141C13.6993 32.5575 13.9377 32.2579 14.1199 32.1456C14.5675 31.8046 15.0132 31.4774 15.6295 31.0379V32.1042C15.9648 31.8618 16.4531 31.4361 16.5384 31.5208C17.5578 32.3742 18.7593 31.4636 19.7651 31.9761C19.7651 32.1456 19.7379 32.388 19.7379 32.5437C20.143 32.7704 20.5073 32.8985 20.7437 33.1547C21.1216 33.539 21.4278 33.7519 21.9724 33.6809C22.5964 33.6198 23.8658 34.8457 24.0266 35.5C24.11 35.8272 24.4316 36.2096 24.7243 36.2667C26.2882 36.6511 27.7979 37.1615 29.2358 37.873C29.7106 38.1154 30.0323 38.5411 29.7242 39.1521C29.3269 39.903 28.3017 41.19 28.23 41.9804C28.1331 42.9323 27.9238 43.8409 27.3076 44.5386C27.0421 44.8658 26.4839 44.8796 26.0634 45.0786C25.6584 45.2481 25.2398 45.4196 24.8619 45.6896C24.6952 45.8315 24.5266 46.1449 24.5537 46.3577C24.6661 47.0968 24.1351 47.424 23.7572 47.8359C23.5809 48.0153 23.3483 48.1138 23.2398 48.3326C22.8619 49.2136 22.2612 49.7536 21.2554 49.6255C21.3813 50.6484 21.0034 51.1746 19.9976 51.1451C19.4104 51.1451 19.048 51.3008 18.9918 51.8842H18.0849C18.267 52.1975 18.393 52.4242 18.517 52.6508C18.1256 53.0903 17.7205 53.5456 17.302 53.9871C17.5675 54.1724 17.7632 54.3143 18.0713 54.5133C17.6663 54.8681 17.331 55.1677 17.0093 55.4377C16.5752 55.7649 16.5055 56.092 16.771 56.433C26.482 60.1757 38.1736 58.3802 46.7645 50.4375C46.8401 50.2858 47.3982 49.9566 48.8594 48.236C48.8866 48.236 48.8866 48.2222 48.8866 48.2084C49.1249 47.9246 49.3749 47.6546 49.5842 47.355C49.528 47.2565 49.5009 47.156 49.4311 47.0574C49.2916 46.8012 48.9699 46.5312 48.9835 46.2907C49.1385 44.0341 46.4699 42.4928 48.2432 40.7919C48.3556 40.6638 48.5358 40.4234 48.466 40.3228C48.0048 39.3571 48.2005 38.078 47.2645 37.3251C46.3982 36.6294 46.6637 35.8469 46.9292 34.9955C46.9719 34.8102 46.999 34.4417 46.9021 34.3707C46.7199 34.215 46.3575 34.1283 46.1754 34.2288C45.6444 34.4988 45.406 34.2998 45.0708 33.8741C44.8886 33.604 44.3169 33.334 44.0785 33.4345C42.1483 34.3747 40.9119 33.7854 40.6135 34.0889C39.6833 35.1473 38.9488 32.8295 37.443 31.915C36.7298 31.4893 36.381 30.7502 36.5903 30.3245C37.1213 29.3154 36.7996 28.2787 36.9682 27.2991C37.1213 26.3748 37.6523 25.409 38.6717 24.9262C38.9934 24.7705 39.2724 24.3585 39.3422 23.9742C39.5651 23.0085 40.2918 22.5118 41.0747 22.3541C42.7375 21.956 44.4409 21.7156 46.1172 21.4731C46.4661 21.416 46.9564 21.4869 47.2064 21.7156C47.375 21.8575 47.249 22.3837 47.249 22.8804C50.3323 24.2738 49.8032 24.0964 50.7838 23.7338C51.1617 23.6195 51.497 23.2785 51.8167 23.3218C53.7334 23.4677 55.1655 23.9249 55.7992 23.7771C55.6868 23.1228 55.5608 22.498 55.4213 21.887L55.4291 21.8732ZM13.4358 27.8687C12.7827 27.7268 12.5114 27.5632 12.1373 27.5002C12.0947 27.4864 12.054 27.4864 12.0114 27.443C11.8699 27.4115 11.2536 27.2223 11.242 27.2164C11.2691 27.2026 11.2846 27.173 11.3118 27.173C12.1993 26.6487 13.4958 27.4824 14.2729 28.1683C13.9939 28.0698 13.6993 27.9692 13.4338 27.8707L13.4358 27.8687ZM15.6276 28.8916C15.4047 28.8778 15.1663 28.8345 14.9299 28.8069C15.2225 28.4521 15.5442 28.2668 15.8524 28.2668C15.9221 28.2668 16.021 28.2668 16.0617 28.2806C16.0752 28.2806 16.1043 28.3082 16.1179 28.3082C16.1314 28.3358 16.1741 28.3516 16.1876 28.3516C16.2303 28.3516 16.2574 28.3792 16.3272 28.3949C16.3698 28.4521 16.4396 28.4935 16.4803 28.5506C16.5074 28.594 16.5365 28.6078 16.5636 28.6354V28.663C16.5927 28.6788 16.676 28.7911 16.7031 28.8187C16.7458 28.8758 16.7593 28.9172 16.7865 29.004C16.5558 28.9606 15.7245 28.8896 15.6276 28.8896V28.8916ZM29.1932 10.2922C28.3017 10.375 27.6893 10.3849 27.4471 11.2718C27.4471 11.281 27.4426 11.2902 27.4335 11.2993C27.3211 11.6975 26.9452 12.0089 26.637 12.336C26.5382 12.4642 26.2882 12.6199 26.1758 12.5489C25.2223 12.2257 24.1119 12.1981 23.451 11.1417C22.7108 9.88621 22.5111 9.58072 22.2631 9.01113C22.1933 8.85543 22.6391 8.44351 22.9472 8.01583C22.6255 8.08678 22.2631 8.18532 21.9414 8.29964C21.4802 6.83526 20.4879 6.21048 18.7283 6.28143H18.7147C18.1566 6.30903 17.5965 6.42334 17.0248 6.49429C16.7787 6.49429 16.1663 6.02916 15.5714 5.72761C16.269 5.41424 17.4299 5.2881 17.7496 4.69092C18.238 3.80992 19.1042 3.95183 19.6779 3.39801C20.2593 2.85995 21.7476 3.1142 22.1933 3.1142C23.3658 3.2423 23.4084 3.28369 23.8832 2.0913C24.1061 2.21941 24.2882 2.37511 24.5537 2.54658C25.1119 1.53747 26.077 1.63799 26.9704 1.63799C27.6835 1.62419 32.1389 1.56704 33.6485 1.55324C34.5012 1.55324 34.6679 2.23517 34.8229 2.84615C35.102 3.88285 35.4934 4.04052 36.3461 3.37238C36.9934 2.8698 37.6562 2.85995 38.317 3.28763C36.2899 4.93531 35.2493 5.07327 35.9275 5.88725C36.2822 6.2499 35.7027 7.3536 35.0748 7.40682C34.852 7.43441 34.6562 7.49157 34.3617 7.54872C34.4741 7.90349 34.5438 8.1873 34.6543 8.57162C33.5787 9.12544 32.3772 9.43882 31.1621 9.60832C30.7649 9.65562 29.8036 10.2094 29.1932 10.2902V10.2922ZM34.6136 10.9604C34.6136 10.9604 34.571 10.9466 34.571 10.9328C34.5438 10.8894 34.5012 10.848 34.4876 10.8047C34.4314 10.6332 34.3888 10.4775 34.3345 10.3494C34.8384 10.1779 34.2105 10.0971 36.9469 10.2075C37.226 10.2646 37.505 10.3789 37.9391 10.4775C36.7647 11.457 35.7182 11.4866 34.6136 10.9604Z" fill="#39C988"/>
<g opacity="0.4">
<path d="M45.8789 25.7894C43.1134 28.324 38.5263 27.7918 35.6349 24.5536C32.7648 21.3371 32.6602 16.6287 35.4256 14.0724C38.191 11.5161 42.7782 12.07 45.6696 15.2865C48.561 18.5247 48.6443 23.2115 45.8789 25.7894Z" fill="#ECF0F1"/>
</g>
<path d="M50.904 24.463L52.5338 25.4169C50.5571 24.26 47.8556 24.4216 44.9099 26.1797L43.2801 25.2257C46.2258 23.4677 48.9273 23.3041 50.904 24.463Z" fill="#FFB63C"/>
<path d="M37.8945 52.1207L36.2647 51.1668C34.3132 50.0236 33.0652 47.5935 32.9818 44.1405C32.8132 37.1891 37.4236 28.7202 43.2801 25.2277L44.9099 26.1816C39.0554 29.6741 34.445 38.143 34.6116 45.0944C34.695 48.5474 35.943 50.9775 37.8945 52.1207Z" fill="#FFB63C"/>
<path d="M44.9099 26.1816C50.7644 22.6892 55.648 25.4938 55.8166 32.4451C55.9852 39.3965 51.3749 47.8655 45.5184 51.3579C39.6639 54.8504 34.7803 52.0458 34.6117 45.0944C34.4431 38.143 39.0534 29.6741 44.9099 26.1816Z" fill="#FFDE9B"/>
<path d="M35.9992 45.0924C35.8422 38.6042 40.1638 30.6713 45.6327 27.4075C50.4815 24.5123 54.2856 26.4871 54.429 32.4451C54.586 38.9334 50.2644 46.8682 44.7975 50.13C39.9565 53.0174 36.1445 51.0623 35.9992 45.0924ZM49.7276 26.4004C44.0048 26.4004 36.0787 36.0657 36.2976 45.0865C36.4352 50.7253 39.9352 52.6765 44.6444 49.8679C50.0299 46.6553 54.2837 38.8447 54.1287 32.455C54.0356 28.665 52.3903 26.4024 49.7276 26.4024V26.4004Z" fill="#F04343"/>
<path d="M49.3265 31.3907C49.9001 32.1259 50.2451 33.1862 50.278 34.5225C50.4292 40.7604 44.0591 47.7315 40.2879 45.4078C41.3673 46.7933 43.2588 47.0219 45.3828 45.7566C50.5086 42.6997 53.0454 33.6868 49.3265 31.3907Z" fill="#FFB63C"/>
<path d="M50.278 34.5205C50.245 33.1862 49.9001 32.1259 49.3265 31.3888C45.532 29.0651 39.1813 36.0421 39.3325 42.274C39.3654 43.6083 39.7104 44.6687 40.2879 45.4058C44.1386 47.7768 50.4272 40.654 50.278 34.5205Z" fill="white"/>
<path d="M41.815 38.9767C42.3692 38.6456 42.8305 38.9117 42.846 39.568C42.8615 40.2263 42.4254 41.0284 41.8731 41.3576C41.3208 41.6867 40.8576 41.4206 40.8421 40.7623C40.8266 40.1041 41.2646 39.3039 41.815 38.9747V38.9767Z" fill="#1D2943"/>
<path d="M47.7374 35.4429C48.2916 35.1118 48.7548 35.3759 48.7703 36.0342C48.7858 36.6924 48.3478 37.4946 47.7955 37.8257C47.2432 38.1549 46.782 37.8868 46.7665 37.2305C46.7509 36.5722 47.187 35.772 47.7393 35.4429H47.7374Z" fill="#1D2943"/>
<path d="M57.4871 43.7187C57.2042 44.0597 56.7275 44.0833 56.4368 43.902L48.6385 39.3256C47.84 38.8585 48.2664 37.601 49.1675 37.739C49.4892 37.7686 49.028 37.605 57.2759 42.4159C57.7662 42.6958 57.8224 43.3738 57.4852 43.7167L57.4871 43.7187Z" fill="#BBCFEF"/>
<path d="M51.6578 47.1658C51.4349 47.4516 50.997 47.562 50.6074 47.3491L42.8188 42.7727C41.9875 42.278 42.4778 41.0264 43.3479 41.1861C43.5766 41.1861 43.1909 41.0284 51.4563 45.863C51.9369 46.1449 52.0028 46.813 51.6559 47.1638L51.6578 47.1658Z" fill="#BBCFEF"/>
<path d="M57.4871 43.719C57.2585 43.719 57.6867 43.9004 49.3788 39.0421C48.902 38.7622 48.8265 38.0882 49.1695 37.7413C49.4912 37.7709 49.03 37.6073 57.2778 42.4183C57.7681 42.6981 57.8243 43.3761 57.4871 43.719Z" fill="#DBE6FA"/>
<path d="M51.6578 47.1658C51.3535 47.1382 51.7702 47.2841 43.5494 42.4889C43.0708 42.1972 43.001 41.5389 43.3498 41.1881C43.5785 41.1881 43.1929 41.0304 51.4582 45.865C51.9388 46.1468 52.0047 46.815 51.6578 47.1658Z" fill="#DBE6FA"/>
<path d="M54.0221 38.8703C57.1305 37.0452 59.6615 38.5076 59.6712 42.14C59.6809 45.7803 57.1674 50.203 54.0589 52.03C50.9524 53.8531 48.4234 52.3907 48.4137 48.7504C48.404 45.118 50.9175 40.6934 54.0221 38.8703Z" fill="#4F575F"/>
<path d="M54.8419 40.1159C57.4988 38.555 59.6615 39.8065 59.6712 42.9107C59.679 46.0227 57.5317 49.8049 54.8729 51.3638C52.2179 52.9228 50.0551 51.6733 50.0474 48.5612C50.0396 45.4551 52.1869 41.6729 54.8419 40.1139V40.1159Z" fill="#3D4449"/>
<path d="M62.1731 48.2557L62.1653 45.3565C62.1653 45.6916 62.0762 46.0286 61.8959 46.3518L61.9037 49.251C62.0839 48.9278 62.175 48.5928 62.1731 48.2557Z" fill="#DBE6FA"/>
<path d="M58.5026 51.2397C56.6577 51.6043 54.5492 51.3461 53.0899 50.4829L50.9001 49.188L50.8962 46.2888L53.0822 47.5837C54.5434 48.4469 56.6499 48.6992 58.4949 48.3405L58.5045 51.2397H58.5026Z" fill="#CBDBF4"/>
<path d="M60.2584 49.3831L60.268 52.2823L63.6614 50.2897L63.6536 47.3905L60.2584 49.3831Z" fill="#CBDBF4"/>
<path d="M58.4949 48.3405L58.5026 51.2397L60.2681 52.2823L60.2584 49.3831L58.4949 48.3405Z" fill="#DBE6FA"/>
<path d="M50.8942 46.2908L53.0822 47.5837C54.5434 48.4469 56.648 48.7012 58.4948 48.3385L60.2584 49.3811L63.6536 47.3885L61.8959 46.3499C62.5064 45.2639 62.0839 44.0203 60.6227 43.157L58.4348 41.8641L50.8942 46.2908Z" fill="#EBF2FF"/>
<path d="M64.0839 49.3299C63.9037 49.2254 63.6847 49.2688 63.4812 49.3574C62.9037 49.6097 62.3417 50.4611 62.3456 51.1884C62.3456 51.5176 62.4599 51.7462 62.644 51.8546L61.4173 51.1293C60.7371 50.7253 61.2894 49.1702 62.1343 48.6775C62.4173 48.5119 62.6731 48.4962 62.8572 48.6046L64.0839 49.3279V49.3299Z" fill="#3D4449"/>
<path d="M63.3591 49.4028C63.9211 49.0736 64.3785 49.3377 64.3804 49.9941C64.3804 50.6504 63.9269 51.4525 63.3649 51.7817C62.8029 52.1108 62.3456 51.8467 62.3436 51.1904C62.3436 50.5341 62.7971 49.7319 63.3591 49.4028Z" fill="#4F575F"/>
<path d="M85.8955 61.6007C89.2384 64.0939 92.469 67.9608 92.9418 72.1253C93.5058 76.6269 89.7384 80.5411 85.6397 82.3444C75.7155 86.7001 63.1905 82.6361 53.7295 77.2654C44.9041 72.3263 33.7415 67.2434 23.7417 68.4969C20.9027 68.8536 17.2651 70.0618 15.4512 72.1647C14.8098 72.754 13.8485 74.6855 13.8447 76.9698C13.8447 77.7424 13.2265 78.3691 12.4668 78.3672C11.7071 78.3672 11.0908 77.7384 11.0928 76.9658C11.147 76.4909 11.0715 74.6323 12.1218 72.3756C14.0288 68.3333 19.0519 66.4176 23.4239 65.9051C34.0768 64.6911 45.5262 69.9829 54.8225 75.3241C63.6304 80.4583 75.5876 84.607 84.9168 80.6317C88.3179 79.1989 91.6589 76.0139 91.2558 72.3086C90.8934 68.6585 87.8974 65.1089 84.9653 62.8719C82.3704 60.8675 81.4557 60.5364 63.5161 51.4663C63.1983 51.3067 63.0704 50.9145 63.2274 50.5912C63.3843 50.272 63.7642 50.1399 64.08 50.2936C81.8258 59.0031 83.1203 59.5017 85.8955 61.5987V61.6007Z" fill="#49E4A3"/>
</g>
<defs>
<clipPath id="clip0_4082_165">
<rect width="93" height="89" fill="white" transform="translate(0 0.971802)"/>
</clipPath>
</defs>
</svg>
