<svg width="202" height="65" viewBox="0 0 202 65" fill="none" xmlns="http://www.w3.org/2000/svg">
<path d="M25.2632 25.5205H20.2106V19.3266C20.2106 16.967 19.5369 15.2395 18.1895 14.144C16.8842 13.0484 15.1158 12.5007 12.8842 12.5007C11.2 12.5007 9.70525 12.7114 8.39998 13.1327C7.09471 13.5541 5.97891 14.0386 5.05259 14.5864V25.5205H-6.10352e-05V14.8392C-6.10352e-05 13.9544 0.168361 13.2381 0.505205 12.6903C0.884154 12.1004 1.51574 11.5316 2.39995 10.9838C3.49469 10.3518 4.94733 9.76188 6.75787 9.21412C8.5684 8.62422 10.6105 8.32927 12.8842 8.32927C16.7158 8.32927 19.7263 9.21412 21.9158 10.9838C24.1474 12.7114 25.2632 15.408 25.2632 19.0738V25.5205ZM5.05259 22.0444V38.2244C4.84207 38.3086 4.52628 38.3929 4.10522 38.4772C3.68417 38.6036 3.22101 38.6668 2.71574 38.6668C1.83153 38.6668 1.15784 38.4983 0.694679 38.1612C0.231519 37.782 -6.10352e-05 37.1921 -6.10352e-05 36.3915V22.0444H5.05259ZM25.2632 22.0444V38.2244C25.0527 38.3086 24.7158 38.3929 24.2527 38.4772C23.8316 38.6036 23.3895 38.6668 22.9264 38.6668C22 38.6668 21.3053 38.4983 20.8421 38.1612C20.4211 37.782 20.2106 37.1921 20.2106 36.3915V22.0444H25.2632Z" fill="white"/>
<path d="M35.1645 27.9947L50.3881 16.2068C49.0843 14.2841 47.4442 13.0424 45.4675 12.4815C43.4698 11.8841 41.377 12.2175 39.1892 13.4816C36.9284 14.7878 35.5242 16.6938 34.9765 19.1996C34.4442 21.6479 35.0518 24.3864 36.7992 27.4151L37.4939 28.6193C39.4334 31.3911 41.6657 33.0692 44.1908 33.6537C46.7313 34.1807 49.4419 33.6121 52.3226 31.9477C53.8541 31.0629 55.0924 30.0069 56.0374 28.7797C56.9825 27.5525 57.6512 26.4363 58.0437 25.4311C58.5922 25.4548 59.0811 25.5859 59.5104 25.8244C59.9551 26.0054 60.3038 26.3148 60.5564 26.7526C60.9564 27.446 60.9342 28.3345 60.4899 29.4184C60.061 30.4446 59.2955 31.5194 58.1933 32.6428C57.1276 33.7451 55.7925 34.7597 54.188 35.6867C51.3803 37.3089 48.6424 38.2095 45.9745 38.3887C43.343 38.5467 40.8831 37.9488 38.5948 36.595C36.3219 35.1835 34.3434 33.0182 32.6592 30.099C31.4592 28.019 30.6877 26.0077 30.3448 24.0651C30.0173 22.0648 30.056 20.1937 30.4608 18.4515C30.9021 16.6883 31.7019 15.0828 32.8601 13.6352C33.9972 12.1511 35.441 10.9034 37.1912 9.89216C39.4156 8.60703 41.6401 7.95428 43.8648 7.93391C46.126 7.89248 48.2254 8.45541 50.163 9.62269C52.1159 10.7324 53.724 12.382 54.9872 14.5714C55.4503 15.3742 55.6048 16.0634 55.4507 16.639C55.2755 17.1781 54.8808 17.6737 54.2666 18.1259L37.3727 31.3166L35.1645 27.9947Z" fill="white"/>
<path d="M71.7827 21.6651V30.3872C71.7827 32.0726 72.2669 33.2735 73.2354 33.9898C74.2038 34.6639 75.5301 35.001 77.2143 35.001C77.9301 35.001 78.7301 34.8746 79.6143 34.6218C80.4986 34.369 81.2354 34.074 81.8249 33.7369C82.0775 33.9898 82.3091 34.3058 82.5196 34.685C82.7302 35.0642 82.8354 35.5066 82.8354 36.0123C82.8354 36.9392 82.288 37.6977 81.1933 38.2876C80.0986 38.8775 78.5828 39.1724 76.6459 39.1724C73.6985 39.1724 71.2985 38.5193 69.4459 37.2131C67.6353 35.9069 66.7301 33.7369 66.7301 30.7032V21.6651H71.7827ZM69.3196 9.78294H82.1407C82.267 9.95148 82.3933 10.2254 82.5196 10.6046C82.6459 10.9838 82.7091 11.3841 82.7091 11.8054C82.7091 12.4796 82.5407 13.0063 82.2038 13.3855C81.867 13.7647 81.4038 13.9543 80.8143 13.9543H69.3196V9.78294ZM66.7301 23.5612V0.681682C66.9406 0.59741 67.2564 0.513138 67.6774 0.428869C68.1406 0.302461 68.6248 0.239258 69.1301 0.239258C70.0143 0.239258 70.6669 0.428867 71.088 0.808087C71.5511 1.14517 71.7827 1.714 71.7827 2.51457V23.5612H66.7301Z" fill="white"/>
<path d="M89.7754 38.3508C89.4807 38.098 89.228 37.7819 89.0175 37.4027C88.8491 36.9814 88.7649 36.56 88.7649 36.1387C88.7649 35.633 88.8701 35.1695 89.0807 34.7482C89.3333 34.2847 89.607 33.8423 89.9017 33.4209L109.291 9.15091H111.249C111.586 9.44586 111.839 9.78294 112.007 10.1622C112.218 10.5414 112.323 10.9627 112.323 11.4262C112.323 11.8897 112.218 12.3321 112.007 12.7535C111.797 13.1748 111.502 13.6173 111.123 14.0808L91.7965 38.3508H89.7754ZM110.554 13.3223H89.7123C89.5859 13.1116 89.4596 12.8167 89.3333 12.4375C89.207 12.0583 89.1438 11.658 89.1438 11.2366C89.1438 10.5203 89.3122 9.99362 89.6491 9.65653C89.9859 9.31945 90.4491 9.15091 91.0386 9.15091H110.554V13.3223ZM90.1544 34.2426H112.197C112.323 34.4111 112.449 34.685 112.576 35.0642C112.702 35.4013 112.765 35.8016 112.765 36.2651C112.765 36.9392 112.597 37.4659 112.26 37.8451C111.923 38.1822 111.439 38.3508 110.807 38.3508H90.1544V34.2426Z" fill="white"/>
<path d="M121.13 27.9947L136.353 16.2068C135.05 14.2841 133.409 13.0424 131.433 12.4815C129.435 11.8841 127.342 12.2175 125.154 13.4816C122.894 14.7878 121.489 16.6938 120.942 19.1996C120.41 21.6479 121.017 24.3864 122.764 27.4151L123.459 28.6193C125.399 31.3911 127.631 33.0692 130.156 33.6537C132.697 34.1807 135.407 33.6121 138.288 31.9477C139.819 31.0629 141.058 30.0069 142.003 28.7797C142.948 27.5525 143.617 26.4363 144.009 25.4311C144.557 25.4548 145.046 25.5859 145.476 25.8244C145.92 26.0054 146.269 26.3148 146.522 26.7526C146.922 27.446 146.9 28.3345 146.455 29.4184C146.026 30.4446 145.261 31.5194 144.159 32.6428C143.093 33.7451 141.758 34.7597 140.153 35.6867C137.346 37.3089 134.608 38.2095 131.94 38.3887C129.308 38.5467 126.848 37.9488 124.56 36.595C122.287 35.1835 120.309 33.0182 118.624 30.099C117.424 28.019 116.653 26.0077 116.31 24.0651C115.983 22.0648 116.021 20.1937 116.426 18.4515C116.867 16.6883 117.667 15.0828 118.825 13.6352C119.963 12.1511 121.406 10.9034 123.157 9.89216C125.381 8.60703 127.605 7.95428 129.83 7.93391C132.091 7.89248 134.191 8.45541 136.128 9.62269C138.081 10.7324 139.689 12.382 140.952 14.5714C141.416 15.3742 141.57 16.0634 141.416 16.639C141.241 17.1781 140.846 17.6737 140.232 18.1259L123.338 31.3166L121.13 27.9947Z" fill="white"/>
<path d="M155.93 24.5725H150.878V14.9656C150.878 13.9965 151.046 13.2381 151.383 12.6903C151.762 12.1004 152.373 11.5316 153.215 10.9838C154.309 10.2675 155.804 9.65654 157.699 9.15091C159.594 8.60315 161.699 8.32927 164.015 8.32927C167.383 8.32927 169.067 9.17198 169.067 10.8574C169.067 11.2788 169.004 11.679 168.878 12.0583C168.752 12.3953 168.583 12.6903 168.373 12.9431C167.952 12.8588 167.404 12.7746 166.731 12.6903C166.057 12.606 165.383 12.5639 164.709 12.5639C162.773 12.5639 161.067 12.7746 159.594 13.1959C158.12 13.5751 156.899 14.0386 155.93 14.5864V24.5725ZM155.93 22.4236V38.2244C155.72 38.3086 155.404 38.3929 154.983 38.4772C154.562 38.6036 154.099 38.6668 153.594 38.6668C152.709 38.6668 152.036 38.4983 151.573 38.1612C151.109 37.7819 150.878 37.1921 150.878 36.3915V21.6651L155.93 22.4236Z" fill="white"/>
<path d="M201.472 23.7508C201.472 26.8689 200.883 29.5866 199.704 31.9041C198.525 34.2215 196.861 36.0123 194.714 37.2763C192.567 38.5404 190.04 39.1724 187.135 39.1724C184.23 39.1724 181.682 38.5404 179.493 37.2763C177.346 36.0123 175.682 34.2215 174.503 31.9041C173.324 29.5866 172.735 26.8689 172.735 23.7508C172.735 20.5907 173.324 17.8729 174.503 15.5976C175.724 13.2802 177.409 11.4894 179.556 10.2254C181.746 8.9613 184.272 8.32927 187.135 8.32927C189.998 8.32927 192.504 8.9613 194.651 10.2254C196.798 11.4894 198.461 13.2802 199.64 15.5976C200.861 17.8729 201.472 20.5907 201.472 23.7508ZM187.135 12.5007C184.314 12.5007 182.061 13.5119 180.377 15.5344C178.735 17.5148 177.914 20.2536 177.914 23.7508C177.914 27.2902 178.714 30.0501 180.314 32.0305C181.956 34.0108 184.23 35.001 187.135 35.001C189.998 35.001 192.23 34.0108 193.83 32.0305C195.472 30.008 196.293 27.2481 196.293 23.7508C196.293 20.2536 195.472 17.5148 193.83 15.5344C192.23 13.5119 189.998 12.5007 187.135 12.5007Z" fill="white"/>
<path d="M68.2006 60.1845C67.1613 60.1845 66.2389 59.9416 65.4337 59.4559C64.6285 58.9644 63.9974 58.2614 63.5405 57.347C63.0894 56.4269 62.8638 55.3239 62.8638 54.0381C62.8638 52.7636 63.0979 51.6663 63.5662 50.7462C64.0345 49.8261 64.677 49.1175 65.4937 48.6202C66.3103 48.1173 67.2441 47.8659 68.2949 47.8659C69.1172 47.8659 69.8026 48.0202 70.3508 48.3288C70.8991 48.6374 71.3445 48.9717 71.6872 49.3318L70.9162 50.2233C70.6192 49.9033 70.2623 49.6404 69.8454 49.4346C69.4285 49.2232 68.9231 49.1175 68.3291 49.1175C67.5182 49.1175 66.8129 49.3175 66.2132 49.7175C65.6136 50.1119 65.1482 50.6748 64.8169 51.4063C64.4914 52.1321 64.3286 52.9979 64.3286 54.0038C64.3286 55.524 64.6741 56.727 65.3652 57.6128C66.0562 58.4986 67.0442 58.9415 68.3291 58.9415C68.7632 58.9415 69.1772 58.8815 69.5713 58.7615C69.9653 58.6358 70.2851 58.4557 70.5307 58.2214V55.0325H67.9693V53.858H71.8328V58.8129C71.4559 59.213 70.9533 59.5416 70.3251 59.7988C69.6969 60.0559 68.9887 60.1845 68.2006 60.1845Z" fill="white"/>
<path d="M77.6905 59.9702L75.2319 51.2006H76.6454L77.9989 56.3526C78.0959 56.7698 78.1873 57.1784 78.273 57.5785C78.3586 57.9728 78.4415 58.3786 78.5214 58.7958H78.5985C78.6956 58.3786 78.7955 57.97 78.8983 57.5699C79.0011 57.1642 79.1068 56.7584 79.2153 56.3526L80.5859 51.2006H81.9822L83.37 56.3526C83.4785 56.7698 83.5841 57.1784 83.6869 57.5785C83.7897 57.9728 83.8897 58.3786 83.9868 58.7958H84.0553C84.1581 58.3786 84.2523 57.9728 84.338 57.5785C84.4294 57.1784 84.5236 56.7698 84.6207 56.3526L85.9399 51.2006H87.2591L84.8862 59.9702H83.1901L81.888 55.1439C81.7795 54.7267 81.6767 54.3124 81.5796 53.9009C81.4882 53.4837 81.3854 53.0579 81.2712 52.6236H81.2027C81.1113 53.0579 81.0171 53.4866 80.92 53.9095C80.8286 54.3267 80.7173 54.7439 80.5859 55.161L79.3181 59.9702H77.6905Z" fill="white"/>
<path d="M92.9797 60.1845C92.2487 60.1845 91.6377 59.9731 91.1465 59.5502C90.6554 59.1215 90.4098 58.51 90.4098 57.7156C90.4098 56.7555 90.8439 56.0183 91.7119 55.504C92.5857 54.9896 93.962 54.6267 95.8409 54.4152C95.8409 54.0266 95.7867 53.658 95.6782 53.3094C95.5754 52.9608 95.3897 52.675 95.1213 52.4521C94.8586 52.2293 94.4817 52.1178 93.9906 52.1178C93.4709 52.1178 92.9826 52.2178 92.5257 52.4179C92.0746 52.6179 91.6777 52.8265 91.335 53.0436L90.7953 52.1178C91.1837 51.8492 91.6719 51.592 92.2602 51.3463C92.8541 51.1005 93.5051 50.9777 94.2133 50.9777C95.2812 50.9777 96.0494 51.3063 96.5177 51.9635C96.9917 52.6207 97.2287 53.4866 97.2287 54.561V59.9702H96.0722L95.9608 58.9072H95.9094C95.4868 59.2558 95.0271 59.5559 94.5303 59.8073C94.0391 60.0588 93.5223 60.1845 92.9797 60.1845ZM93.3567 59.0701C93.7964 59.0701 94.2076 58.9672 94.5902 58.7615C94.9786 58.5558 95.3955 58.2614 95.8409 57.8785V55.3411C94.8301 55.4668 94.0277 55.6325 93.4338 55.8383C92.8398 56.044 92.4144 56.2926 92.1574 56.5841C91.9004 56.8755 91.7719 57.2156 91.7719 57.6042C91.7719 58.1243 91.9261 58.4986 92.2345 58.7272C92.5429 58.9558 92.9169 59.0701 93.3567 59.0701Z" fill="white"/>
<path d="M101.793 59.9702V51.2006H102.949L103.078 52.4607H103.112C103.535 52.0435 103.983 51.6921 104.457 51.4063C104.931 51.1206 105.471 50.9777 106.076 50.9777C106.99 50.9777 107.661 51.2691 108.089 51.8521C108.517 52.4293 108.732 53.278 108.732 54.3981V59.9702H107.361V54.5781C107.361 53.7437 107.227 53.1351 106.958 52.7522C106.69 52.3693 106.25 52.1778 105.639 52.1778C105.188 52.1778 104.78 52.2978 104.414 52.5379C104.049 52.7779 103.637 53.1265 103.181 53.5837V59.9702H101.793Z" fill="white"/>
<path d="M116.345 64.0336C115.26 64.0336 114.384 63.8278 113.716 63.4163C113.047 63.0106 112.713 62.4277 112.713 61.6676C112.713 61.2847 112.827 60.9218 113.056 60.5789C113.284 60.236 113.596 59.9331 113.99 59.6702V59.593C113.778 59.4616 113.596 59.2787 113.441 59.0444C113.293 58.8044 113.219 58.51 113.219 58.1614C113.219 57.7899 113.324 57.4642 113.536 57.1842C113.747 56.9041 113.961 56.6869 114.178 56.5326V56.4641C113.887 56.2355 113.627 55.9183 113.399 55.5125C113.17 55.101 113.056 54.6353 113.056 54.1152C113.056 53.4751 113.204 52.9208 113.501 52.4521C113.798 51.9835 114.192 51.6206 114.684 51.3634C115.18 51.1063 115.723 50.9777 116.311 50.9777C116.557 50.9777 116.782 51.0005 116.988 51.0463C117.199 51.0863 117.382 51.1377 117.536 51.2006H120.594V52.2636H118.753C118.97 52.475 119.149 52.7436 119.292 53.0694C119.435 53.3951 119.506 53.7494 119.506 54.1324C119.506 54.7553 119.364 55.2954 119.078 55.7526C118.798 56.2097 118.416 56.5641 117.93 56.8155C117.45 57.0613 116.911 57.1842 116.311 57.1842C116.094 57.1842 115.869 57.1584 115.634 57.107C115.406 57.0556 115.192 56.9813 114.992 56.8841C114.832 57.0156 114.695 57.1642 114.581 57.3299C114.467 57.4956 114.409 57.7014 114.409 57.9471C114.409 58.2386 114.518 58.4757 114.735 58.6586C114.958 58.8358 115.369 58.9244 115.968 58.9244H117.699C118.715 58.9244 119.475 59.093 119.978 59.4301C120.486 59.7673 120.74 60.296 120.74 61.0161C120.74 61.5533 120.56 62.0505 120.2 62.5077C119.84 62.9649 119.329 63.3335 118.667 63.6135C118.01 63.8935 117.236 64.0336 116.345 64.0336ZM116.311 56.2498C116.837 56.2498 117.291 56.0583 117.673 55.6754C118.056 55.2868 118.247 54.7667 118.247 54.1152C118.247 53.4523 118.056 52.9351 117.673 52.5636C117.296 52.1864 116.842 51.9978 116.311 51.9978C115.774 51.9978 115.32 52.1864 114.949 52.5636C114.578 52.9351 114.392 53.4523 114.392 54.1152C114.392 54.7667 114.581 55.2868 114.958 55.6754C115.34 56.0583 115.791 56.2498 116.311 56.2498ZM116.525 63.0563C117.102 63.0563 117.602 62.9677 118.024 62.7906C118.447 62.6134 118.775 62.3848 119.01 62.1048C119.244 61.8247 119.361 61.5275 119.361 61.2132C119.361 60.7903 119.209 60.496 118.907 60.3303C118.61 60.1702 118.164 60.0902 117.57 60.0902H116.003C115.843 60.0902 115.663 60.0788 115.463 60.0559C115.263 60.0388 115.063 60.0045 114.863 59.9531C114.538 60.176 114.301 60.4217 114.152 60.6903C114.01 60.9589 113.938 61.2246 113.938 61.4875C113.938 61.9676 114.167 62.3476 114.624 62.6277C115.08 62.9134 115.714 63.0563 116.525 63.0563Z" fill="white"/>
<path d="M123.274 63.9307C123.028 63.9307 122.797 63.905 122.58 63.8535C122.357 63.8078 122.169 63.7478 122.015 63.6735L122.306 62.6277C122.414 62.662 122.546 62.6963 122.7 62.7305C122.848 62.7706 122.991 62.7906 123.128 62.7906C123.585 62.7906 123.882 62.6334 124.019 62.3191C124.162 62.0047 124.233 61.5761 124.233 61.0332V51.2006H125.621V61.0503C125.621 61.9476 125.441 62.6505 125.081 63.1592C124.727 63.6735 124.125 63.9307 123.274 63.9307ZM124.919 49.3489C124.639 49.3489 124.413 49.2632 124.242 49.0917C124.071 48.9146 123.985 48.6803 123.985 48.3888C123.985 48.1202 124.071 47.9002 124.242 47.7287C124.413 47.5573 124.639 47.4715 124.919 47.4715C125.198 47.4715 125.424 47.5573 125.595 47.7287C125.767 47.9002 125.852 48.1202 125.852 48.3888C125.852 48.6803 125.767 48.9146 125.595 49.0917C125.424 49.2632 125.198 49.3489 124.919 49.3489Z" fill="white"/>
<path d="M132.952 60.1845C132.033 60.1845 131.356 59.8959 130.922 59.3187C130.494 58.7415 130.279 57.8928 130.279 56.7727V51.2006H131.65V56.5927C131.65 57.4213 131.784 58.0271 132.053 58.41C132.327 58.7872 132.767 58.9758 133.372 58.9758C133.829 58.9758 134.237 58.8586 134.597 58.6243C134.962 58.3843 135.362 57.9957 135.796 57.4585V51.2006H137.167V59.9702H136.028L135.908 58.5815H135.848C135.442 59.0615 135.008 59.4501 134.546 59.7473C134.083 60.0388 133.552 60.1845 132.952 60.1845Z" fill="white"/>
</svg>
