<svg width="46" height="46" viewBox="0 0 46 46" fill="none" xmlns="http://www.w3.org/2000/svg">
<path d="M4.6712 43.7021L40.3923 43.7021C42.1858 43.7021 43.6396 42.2483 43.6396 40.4548L43.6396 4.7337C43.6396 2.94023 42.1858 1.48633 40.3923 1.48633L4.6712 1.48633C2.87773 1.48633 1.42383 2.94023 1.42383 4.7337L1.42383 40.4548C1.42383 42.2483 2.87773 43.7021 4.6712 43.7021Z" stroke="#DBDBDB" stroke-width="2.85714" stroke-linecap="round" stroke-linejoin="round"/>
<path d="M29.805 20.9703C32.9435 20.9703 35.4879 18.426 35.4879 15.2874C35.4879 12.1488 32.9435 9.60449 29.805 9.60449C26.6664 9.60449 24.1221 12.1488 24.1221 15.2874C24.1221 18.426 26.6664 20.9703 29.805 20.9703Z" stroke="#DBDBDB" stroke-width="2.85714" stroke-linecap="round" stroke-linejoin="round"/>
<path d="M30.2939 43.7018C29.2483 38.1325 26.2579 33.1159 21.8564 29.5471C17.4548 25.9783 11.9285 24.0894 6.26337 24.2175C4.64224 24.2132 3.02439 24.3629 1.43164 24.6647" stroke="#DBDBDB" stroke-width="2.85714" stroke-linecap="round" stroke-linejoin="round"/>
<path d="M43.6069 32.0439C40.9914 31.1606 38.2491 30.7109 35.4885 30.7125C31.9941 30.7049 28.5351 31.4121 25.3242 32.7908" stroke="#DBDBDB" stroke-width="2.85714" stroke-linecap="round" stroke-linejoin="round"/>
</svg>
